<?xml version="1.0" encoding="utf-8"?>
<!-- Generator: Adobe Illustrator 22.0.0, SVG Export Plug-In . SVG Version: 6.00 Build 0)  -->
<svg version="1.1" id="Layer_1" xmlns="http://www.w3.org/2000/svg" xmlns:xlink="http://www.w3.org/1999/xlink" x="0px" y="0px"
	 viewBox="0 0 181 113.3" style="enable-background:new 0 0 181 113.3;" xml:space="preserve">
<style type="text/css">
	.st0{fill-rule:evenodd;clip-rule:evenodd;fill:#F9DC2F;}
	.st1{fill-rule:evenodd;clip-rule:evenodd;fill:#B81E24;}
</style>
<g>
	<path class="st0" d="M48.8,40C48,41,46,40.9,46,42.7C48.4,43.7,50.9,41.2,48.8,40z"/>
	<path class="st0" d="M157.2,42.7c-2.2,1.4-2.9,2.7-6.3,1.4c0-0.7,0.6-0.8,0.7-1.4c-2.2-0.6-2.1,1.1-3.5,1.4c-2-3.1-6-4.2-9-6.3
		c-0.5-2.3,1.4-1.1,2.1-0.7c0-1-0.3-1.5-0.7-2.1c0.2-3.3-3.9-0.9-1.4-4.9c2.4-0.4,3.2-2.3,6.3-2.1c0.7-2.6-1.7-2-1.4-4.2
		c-2.1,0-4.6,0.4-4.2-2.1c0-0.2,0-0.5,0-0.7c0.9-1.4,3.7-1,4.2-2.8c-1.2-0.6-2.2-1.6-2.8-2.8c-0.7-1.9-1.9-3.1-3.5-4.2
		c0.2-1.3-0.8-1.5-0.7-2.8c-2.4-0.3-3.9,0.3-5.6,0.7c-2-1.3-3.5-3-4.2-5.6c-0.5,0-0.9,0-1.4,0c0-0.7,0-1.4,0-2.1
		c-2.6-0.5-3,1.2-5.6,0.7c-2.8,0.9-6,1.4-7.6,3.5c-2.9-0.3-3.8,1.3-5.6,2.1c-3.7,2.1-7.9,3.7-11.8,5.6c-1.8,0.1-0.7,3-3.5,2.1
		c-1.5,0.8-3.8,0.8-4.2,2.8c-0.2,0.5,0,1.4-0.7,1.4c-3.7-2.5-4.5,3.8-9,2.8c0.3,3.7-3.8,4.5-6.3,3.5c-0.7,2.3-4.1,1.9-4.9,4.2
		c-2.3-0.3-3,1.2-4.2,2.1c-4,0.2-5.3,3-7,5.6c-1.1-0.1-0.5-1.8-2.1-1.4c0.3,2.8,0.4,1.7,1.4,4.2c-0.4,4.9-7,3.6-7.6,8.3
		c-0.7,0-0.8-0.6-1.4-0.7c-0.9,0.3-1.4,0.9-1.4,2.1c-3.5,0.2-4.4,3-7,4.2c-0.2,0-0.5,0-0.7,0c0.2,1.6-2,0.8-2.1,2.1
		c-2.8,1.2-3.9,4-7,4.9c0,0.5,0,0.9,0,1.4c-0.9,0.3-1.4,0.9-1.4,2.1c-1.4,0.7-5.3,2.6-3.5,4.2c1.2,4.6,5.2,6.3,7,10.4
		c2.7,0.2,2.1-3,4.9-2.8c0.6,3.3,2.9,1.4,4.9,0.7c0,0.9,1.2,0.6,1.4,1.4c1.2,3.7-2.7,2.4-2.1,5.6c0.5,0,0.9,0,1.4,0
		c0,0.9,0.9,1,0.7,2.1c-0.2,0-0.5,0-0.7,0c-2,4.3,1.2,4.6,4.2,2.8c-0.7,6.5,3.8,7.7,7.6,9.7c1.8,0.2,0.5-2.7,2.8-2.1
		c0.8,0.1,1.1,0.8,1.4,1.4c0,1-0.3,1.5-0.7,2.1c-5,2.4,7.5,4.3,7,2.1c-0.5,0-0.9,0-1.4,0c-0.3-2.9,2.5-0.8,2.8,0
		c1.6-0.2,2.6-1.1,4.9-0.7c0-0.9,0-1.9,0-2.8c2.1,0.5,2-1.2,4.2-0.7c0.2,1.6-0.1,2.7-0.7,3.5c2.1,0,1.7-2.5,4.2-2.1
		c-0.2,1.8,1,2.3,2.8,2.1c0,0.7,0,1.4,0,2.1c0.4,1,2.7,0.1,2.8,1.4c0.4,3.2-3.3,2.3-3.5,4.9c2.2,0.3,1.6-2.1,4.2-1.4
		c0.3,1.7-1.3,1.5-0.7,3.5c3.6-2.4,5.2-4,7.6-8.3c0.2,0,0.5,0,0.7,0c0.5,0,0.9,0,1.4,0c0,0.2,0,0.5,0,0.7c1.7,2.3,11.2-8.3,9-7.6
		c0-0.5,0-0.9,0-1.4c4.8,0.4,6.5-2.3,9-4.2c1.4-1.6,2.8-3.2,4.2-4.9c3.9-1.2,6.7-3.5,9.7-5.6c0.7,0,0.8-0.6,1.4-0.7
		c4.1-1.2,7.7-3,11.1-4.9c-4.3-1.3-5.6-5.6-9-7.6c0-0.5,0-0.9,0-1.4c2.5,0.2,4.2-0.5,4.9-2.1c-1-1-4-0.2-3.5-2.8c0.2,0,0.5,0,0.7,0
		c0.2-0.5,0.6-0.8,1.4-0.7c0.3-1.7-1.3-1.5-0.7-3.5c6.9-3.3,14.4-6,20.9-9.7c2.7-1,6.3-1.1,7.6-3.5C157.8,44,157,43.9,157.2,42.7z"
		/>
	<path class="st0" d="M162.8,41.3c-2.2-0.3-3.1,0.6-2.8,2.8c1.2-0.6,3.5-0.2,4.2-1.4C163.3,42.7,162.5,42.5,162.8,41.3z"/>
</g>
<g>
	<path class="st1" d="M90.1,73.7c-2-0.1-4.3-0.5-6.1-1c-0.3-0.1-1.7-0.6-2.1-0.8c-6.3-2.9-10.6-9.3-10.6-16.6
		c0-10.1,8.2-18.3,18.3-18.3c10,0,18.2,8.1,18.3,18.1h6.6c-0.1-13.6-11.3-24.7-24.9-24.7c-13.7,0-24.9,11.2-24.9,24.9
		c0,9.5,5.3,17.7,13.1,21.9c1.4,0.7,3.4,1.5,4.1,1.7c2.2,0.7,5,1.1,7.4,1.3c0.8,0.1,3.7,0.1,4.5,0.1l0,0h45.6v-6.6H94
		C93.4,73.8,90.7,73.7,90.1,73.7z M94,63.4L94,63.4c-0.5,0-3,0-3.5-0.1c-0.8-0.1-1.9-0.2-2.7-0.4c-0.8-0.2-1.6-0.5-2-0.7
		c-2.5-1.3-4.1-3.9-4.1-6.9c0-4.4,3.5-7.9,7.9-7.9c4.3,0,7.7,3.4,7.9,7.6h6.4c-0.1-7.8-6.5-14-14.2-14c-7.9,0-14.3,6.4-14.3,14.2
		c0,5.5,3.2,10.3,7.8,12.7c0.7,0.4,2.1,0.9,2.4,1c1.3,0.3,3.1,0.6,4.5,0.7c0.5,0,3.1,0.1,3.7,0.1v0h45.7v-6.4H94z M60.6,80.3H54V37
		h-9.7v-6.7h16.4V80.3z M36.9,40.3v6.4h7.3v33.6h6.4v-40H36.9z"/>
	<path class="st1" d="M127.7,30.8c-2.4,0-4.4,1.9-4.4,4.3c0,2.4,2,4.4,4.4,4.4c2.5,0,4.4-2,4.4-4.4
		C132.1,32.7,130.2,30.8,127.7,30.8z M127.7,38.8c-2,0-3.7-1.6-3.7-3.7c0-2,1.7-3.6,3.7-3.6c2,0,3.7,1.6,3.7,3.6
		C131.4,37.2,129.7,38.8,127.7,38.8z"/>
	<path class="st1" d="M129.4,36.3c0-0.5-0.1-0.9-0.6-1.1c0.7-0.2,0.8-0.7,0.8-1c0-1.1-1-1.3-1.4-1.3h-1.9v4.3h0.8v-1.8h0.6
		c0.9,0,1,0.4,1,0.8c0,0.7,0,0.9,0.2,1h0.8C129.4,37.1,129.4,37,129.4,36.3z M127.9,34.9H127v-1.4h0.8c0.6,0,0.9,0.2,0.9,0.7
		C128.7,34.5,128.6,34.9,127.9,34.9z"/>
</g>
</svg>
