<svg xmlns="http://www.w3.org/2000/svg" viewBox="0 0 476.62 150.24"><defs><style>.cls-1{fill:#dc7a46;}.cls-1,.cls-2,.cls-3{fill-rule:evenodd;}.cls-2{fill:#fff;}.cls-3,.cls-4{fill:#384057;}</style></defs><title>Ресурс 1</title><g id="Слой_2" data-name="Слой 2"><g id="Layer_1" data-name="Layer 1"><path class="cls-1" d="M141.2,101c-4.9-4.62-8.15-5.26-12.12-8.17-12.16-8.91-15.09-27.57-5.76-39.74,2.67-3.47,6-5.93,9.73-8.41a26.81,26.81,0,0,0,9.25-10.21,24.35,24.35,0,0,0-2.9-25.06,23.87,23.87,0,0,0-35.19-3c-3.85,3.43-4.83,7-9.22,11.27-6.94,6.79-15.25,10.12-25.1,9.45A30.38,30.38,0,0,1,56.14,22.9c-5.22-2.94-7.26-6.47-11.28-7.39a12,12,0,0,0-11.6,3.41c-3.79,4.36-3.29,8.43-1.64,13.64a58.54,58.54,0,0,1,3.15,14.92A45.68,45.68,0,0,1,33,62.68c-2.66,9-9.22,17.42-15.5,23C12.3,90.24,8.64,91,5.32,94.18a17,17,0,0,0,8.62,29.05c6.21,1.16,12.13-1.67,14-2.26,12.89-4.06,29.08-3.56,40.78-.15,9.67,2.82,18,7.82,25.84,14.14,3.76,3,6.61,7.14,10.56,9.95,10.15,7.25,27.68,8.66,38.89-5.8,7.59-9.78,9.41-26.67-2.79-38.15"/><path class="cls-2" d="M93,48.17a5,5,0,0,0-5.24,5.16v4c-3.9-5.25-9.18-8.75-16.38-8.75q-8.82,0-15,7.11A25.11,25.11,0,0,0,50.1,72.84,25.09,25.09,0,0,0,56.33,90q6.22,7.14,15,7.14c7.72,0,13.07-4.21,16.38-8.78v4.31a5.16,5.16,0,0,0,10.31-.15V53.33A5.17,5.17,0,0,0,93,48.17M74.2,87.62c-7.88,0-13.56-7.19-13.56-14.93,0-8.18,5.85-14.9,13.56-14.9,8.32,0,13.56,7.46,13.56,14.9,0,7.86-5.59,14.93-13.56,14.93"/><path class="cls-3" d="M294.33,39.06c-4.81-1.9-8.38,1.73-9.26,4.06L267.69,88.7,250.31,43.12c-.88-2.33-4.45-6-9.26-4.06A6.86,6.86,0,0,0,237,48.17s14.48,38,19.17,50.3c2.7,7.07,8,8.56,11.54,8.57s8.85-1.5,11.54-8.57c4.7-12.28,19.18-50.3,19.18-50.3a6.85,6.85,0,0,0-4.08-9.11"/><path class="cls-3" d="M220.64,38.53a7,7,0,0,0-7.25,7.14v5.56C208,44,200.67,39.11,190.69,39.11q-12.23,0-20.84,9.84a34.81,34.81,0,0,0-8.63,23.76,34.73,34.73,0,0,0,8.63,23.7q8.63,9.89,20.84,9.89c10.7,0,18.1-5.83,22.7-12.17v6a7.14,7.14,0,0,0,14.28-.21V45.67a7.15,7.15,0,0,0-7-7.14M194.4,93.39c-10.92,0-18.79-10-18.79-20.68,0-11.33,8.1-20.64,18.79-20.64,11.53,0,18.78,10.33,18.78,20.64,0,10.89-7.74,20.68-18.78,20.68"/><path class="cls-3" d="M361.11,38.53a7,7,0,0,0-7.25,7.14v5.56c-5.41-7.28-12.72-12.12-22.7-12.12q-12.23,0-20.84,9.84a34.81,34.81,0,0,0-8.63,23.76,34.73,34.73,0,0,0,8.63,23.7q8.63,9.89,20.84,9.89c10.7,0,18.1-5.83,22.7-12.17v6a7.14,7.14,0,0,0,14.28-.21V45.67a7.15,7.15,0,0,0-7-7.14M334.87,93.39c-10.92,0-18.79-10-18.79-20.68,0-11.33,8.1-20.64,18.79-20.64,11.53,0,18.78,10.33,18.78,20.64,0,10.89-7.74,20.68-18.78,20.68"/><path class="cls-4" d="M380.18,99.15a5.81,5.81,0,0,1-2.88-5.26,6.07,6.07,0,0,1,6.14-6.14,6.59,6.59,0,0,1,3.25.88c6.39,4.26,13,6.39,19,6.39,6.51,0,10.27-2.76,10.27-7.14v-.25c0-5.14-7-6.64-14.78-9-9.77-2.76-20.67-7-20.67-19.67v-.25c0-12.52,10.4-20.16,23.55-20.16a45.49,45.49,0,0,1,20.79,5.38,6.43,6.43,0,0,1,3.63,5.76,6.09,6.09,0,0,1-6.26,6.14,6,6,0,0,1-3-.75c-5.38-2.75-10.89-4.51-15.53-4.51-5.88,0-9.26,2.76-9.26,6.52v.25c0,4.88,7.13,6.63,14.9,9.14C419,69.46,429.9,74.1,429.9,86v.25c0,13.9-10.77,20.79-24.55,20.79A45.19,45.19,0,0,1,380.18,99.15Z"/><path class="cls-4" d="M443.63,87.77V53.4h-2.89a6.5,6.5,0,1,1,0-13h2.89V30.21a7.22,7.22,0,0,1,7.24-7.49c4.12,0,7.07,3.37,7.07,7.49v10.2h11.3a6.5,6.5,0,1,1,0,13h-11.3v32c0,5.87,3.43,8.25,8.55,8.25a35.3,35.3,0,0,0,3.75-.38,6.38,6.38,0,0,1,6.38,6.24,6.5,6.5,0,0,1-4,5.87,30.24,30.24,0,0,1-10.38,1.75C451.12,107.12,443.63,102.25,443.63,87.77Z"/></g></g></svg>