<?xml version="1.0" encoding="utf-8"?>
<!-- Generator: Adobe Illustrator 22.0.0, SVG Export Plug-In . SVG Version: 6.00 Build 0)  -->
<svg version="1.1" id="Слой_1" xmlns="http://www.w3.org/2000/svg" xmlns:xlink="http://www.w3.org/1999/xlink" x="0px" y="0px"
	 viewBox="0 0 879.8 183.3" style="enable-background:new 0 0 879.8 183.3;" xml:space="preserve">
<style type="text/css">
	.st0{fill:#0DA9FF;}
	.st1{clip-path:url(#SVGID_2_);fill:#202326;}
</style>
<rect x="53.5" y="56.6" class="st0" width="76.3" height="13.4"/>
<rect x="53.5" y="84.9" class="st0" width="76.3" height="13.4"/>
<rect x="53.5" y="113.3" class="st0" width="76.3" height="13.4"/>
<g>
	<defs>
		<rect id="SVGID_1_" width="879.8" height="183.3"/>
	</defs>
	<clipPath id="SVGID_2_">
		<use xlink:href="#SVGID_1_"  style="overflow:visible;"/>
	</clipPath>
	<path class="st1" d="M91.6,0C41,0,0,41,0,91.6c0,50.6,41,91.6,91.6,91.6s91.6-41,91.6-91.6C183.3,41,142.3,0,91.6,0 M98.4,169.5
		v-23.8H84.9v23.8c-40-3.4-71.5-37-71.5-77.9c0-40.9,31.5-74.5,71.5-77.9v23.8h13.4V13.7c40,3.4,71.5,37,71.5,77.9
		C169.8,132.5,138.3,166.1,98.4,169.5"/>
	<path class="st1" d="M296.3,90.3c7.8-4.1,15-10.8,15-23.4v-0.3c0-7.1-2.4-12.8-7.1-17.4c-6-6-15.5-9.3-27.5-9.3h-47.2v16.4h44.8
		c11.9,0,18.5,5.1,18.5,13.4v0.3c0,9.6-8,14.3-19.8,14.3h-43.4V145h48.7c23.4,0,38.9-10.1,38.9-28.8v-0.3
		C317.2,101.6,308.6,94.5,296.3,90.3 M298.7,114.2c0,9.5-7.7,14.4-20.3,14.4h-30.6V99.8h29.3c14.6,0,21.6,5.3,21.6,14.1V114.2z"/>
	<polygon class="st1" points="455,39.8 472.2,39.8 528.5,112.5 528.5,39.8 546.7,39.8 546.7,145 531.2,145 473.2,70.2 473.2,145 
		455,145 	"/>
	<polygon class="st1" points="572,39.8 590.5,39.8 590.5,92.7 640.5,39.8 663.2,39.8 619.5,85 665.1,145 642.8,145 606.9,97.6 
		590.5,114.5 590.5,145 572,145 	"/>
	<polygon class="st1" points="819.8,91.5 783,39.8 804.7,39.8 830.9,77.5 857.2,39.8 878.3,39.8 841.7,91.2 879.8,145 858.1,145 
		830.4,105.2 802.6,145 781.4,145 	"/>
	<polygon class="st1" points="437.6,145 391.4,39.1 374.2,39.1 328,145 346.9,145 382.5,61.1 400.4,103.3 380.3,103.3 373.4,119.7 
		407.4,119.7 418.1,145 	"/>
	<rect x="682.7" y="39.8" class="st1" width="81.8" height="16.5"/>
	<polygon class="st1" points="699.2,128.4 699.2,100.2 746.2,100.2 746.2,83.7 682.7,83.7 682.7,145 765.2,145 765.2,128.4 	"/>
</g>
</svg>
