<?xml version="1.0" encoding="utf-8"?>
<!-- Generator: Adobe Illustrator 22.0.1, SVG Export Plug-In . SVG Version: 6.00 Build 0)  -->
<svg version="1.1" id="Layer_1" xmlns="http://www.w3.org/2000/svg" xmlns:xlink="http://www.w3.org/1999/xlink" x="0px" y="0px"
	 viewBox="0 0 885.9 778.7" style="enable-background:new 0 0 885.9 778.7;" xml:space="preserve">
<style type="text/css">
	.st0{fill:#FFFFFF;}
	.st1{fill:#FFFFFF;stroke:#FFFFFF;stroke-miterlimit:10;}
	.st2{fill:#CC2428;}
</style>
<title>Artboard 2 copy</title>
<path class="st0" d="M53.7,696.6h9.9v82.3h-9.9v-38.2H10.9v38.2H1v-82.3h9.9V733h42.8V696.6z"/>
<path class="st0" d="M81.2,778.9l28.2-82.3h13.9l28.8,82.3h-9.9l-6.1-17H97l-5.9,17H81.2z M116.6,703.6h-0.5
	c-0.1,1.2-0.3,2.3-0.8,3.4l-15.9,47.2h34.2L117.4,707C116.9,705.9,116.7,704.8,116.6,703.6L116.6,703.6z"/>
<path class="st0" d="M230.2,711.8h-9.9v-2.2c0-0.8,0-1.5-0.2-2.3c-0.3-0.6-0.7-1-1.2-1.4c-0.5-0.4-1-0.8-1.6-1
	c-0.9-0.2-1.8-0.2-2.7-0.2h-29.2c-0.9,0-1.8,0-2.7,0.2c-0.6,0.2-1.2,0.6-1.6,1c-0.5,0.3-1,0.8-1.2,1.4c-0.2,0.8-0.2,1.5-0.2,2.3
	v56.2c0,0.8,0,1.5,0.2,2.3c0.3,0.5,0.7,1,1.2,1.3c0.5,0.4,1,0.8,1.6,1c0.9,0.2,1.8,0.2,2.7,0.2h29.2c0.9,0,1.8,0,2.7-0.2
	c0.6-0.2,1.2-0.6,1.6-1c0.5-0.3,0.9-0.8,1.2-1.3c0.2-0.8,0.2-1.5,0.2-2.3v-2.2h9.9v4.7c0,2.3-1,4.5-2.8,5.9l-2.8,2.4
	c-1.5,1.4-3.5,2.3-5.6,2.3h-37.9c-2.1-0.1-4.1-0.9-5.6-2.3l-2.8-2.4c-1.8-1.4-2.9-3.6-2.8-5.9v-61.2c0-2.3,1-4.5,2.8-5.9l2.8-2.3
	c1.5-1.4,3.5-2.3,5.6-2.3h37.9c2.1,0.1,4.1,0.9,5.6,2.3l2.8,2.3c1.8,1.4,2.8,3.6,2.8,5.9V711.8z"/>
<path class="st0" d="M247.7,696.6h9.9V733h12.7l17.8-28.6c1-1.8,2.5-3.4,4.2-4.6l2.2-1.5c0.8-0.6,1.7-1.1,2.7-1.5
	c0.9-0.2,1.9-0.3,2.9-0.2h2.6v4.6c0.1,1.1,0,2.3-0.3,3.4c-0.7,0.8-1.5,1.5-2.5,1.9l-1.3,0.7c-0.9,0.4-1.7,1-2.5,1.7
	c-0.7,0.8-1.3,1.7-1.9,2.6l-14.1,22.8c-1.2,2-2.2,2.9-2.9,2.9v0.5c0.8,0,1.8,0.9,2.9,2.8l14.9,23.6c0.5,0.9,1.1,1.8,1.8,2.6
	c0.8,0.6,1.6,1.2,2.5,1.6l1.3,0.7c1,0.4,1.8,1.1,2.5,1.9c0.3,1.1,0.4,2.3,0.4,3.4v4.6h-3.3c-1,0-1.9,0-2.9-0.2
	c-0.9-0.4-1.8-0.9-2.6-1.5l-2.2-1.5c-0.8-0.6-1.6-1.2-2.4-1.9c-0.7-0.9-1.3-1.8-1.9-2.8l-18.3-29.6h-12.2v37.6h-9.9V696.6z"/>
<path class="st1" d="M331.6,772.1v2.7c0,0.7,0,1.5-0.2,2.2c-0.2,0.5-0.5,0.9-0.9,1.2c-0.5,0.5-1.7,0.8-3.5,0.8h-0.6
	c-1.8,0-3.1-0.3-3.7-0.8c-0.7-1-1-2.1-0.9-3.3v-2.7c0-0.7,0-1.5,0.1-2.2c0.2-0.5,0.5-0.9,0.9-1.2c0.5-0.5,1.7-0.8,3.6-0.8h0.5
	c1.8,0,3.1,0.3,3.7,0.8C331.4,769.7,331.7,770.9,331.6,772.1z"/>
<path class="st0" d="M359.3,703.6l-0.4,0.1c0.5,1.8,0.8,3.7,0.8,5.6v69.5h-9.9v-82.3h16l25.2,65.7c0.4,1.1,0.7,2.2,0.7,3.3h0.5
	c0.1-1.1,0.3-2.2,0.7-3.3l25.3-65.7h15.9v82.3h-9.9v-69.5c0-1.9,0.3-3.8,0.8-5.6l-0.3-0.1l-28.9,75.3h-7.5
	c-3.6-8.9-7-17.4-10.3-25.8s-5.9-15.3-8-20.9c-2.1-5.6-4-10.5-5.5-14.8l-3.6-9.9C359.9,705.1,359.4,703.8,359.3,703.6z"/>
<path class="st0" d="M468.9,696.6h43c2.1,0.1,4.1,0.9,5.6,2.3l2.9,2.4c1.8,1.4,2.8,3.6,2.8,5.9v61.2c0,2.3-1,4.5-2.8,5.9l-2.8,2.4
	c-1.5,1.4-3.5,2.3-5.6,2.3h-43c-2.1-0.1-4.1-0.9-5.7-2.3l-2.9-2.4c-1.8-1.4-2.9-3.6-2.8-5.9v-61.2c0-2.3,1-4.5,2.8-5.9l2.8-2.3
	C464.8,697.5,466.8,696.7,468.9,696.6z M513.4,765.8v-56.2c0-0.8,0-1.5-0.2-2.3c-0.3-0.6-0.7-1-1.2-1.4c-0.5-0.4-1.1-0.8-1.7-1
	c-0.9-0.2-1.8-0.2-2.7-0.2h-34.3c-0.9,0-1.8,0-2.7,0.2c-0.6,0.2-1.2,0.6-1.6,1c-0.5,0.3-1,0.8-1.2,1.4c-0.2,0.8-0.2,1.5-0.2,2.3
	v56.2c0,0.8,0,1.5,0.2,2.3c0.3,0.5,0.7,1,1.2,1.3c0.5,0.4,1,0.8,1.6,1c0.9,0.2,1.8,0.2,2.7,0.2h34.3c0.9,0,1.8,0,2.7-0.2
	c0.6-0.2,1.2-0.6,1.7-1c0.5-0.3,0.9-0.8,1.2-1.3C513.4,767.4,513.4,766.6,513.4,765.8z"/>
<path class="st0" d="M584.4,741.2h-28.1c-2.1-0.1-4.1-0.9-5.6-2.3l-3.2-2.7c-1.5-1.1-2.4-2.8-2.5-4.7v-24.3c0-2.3,1-4.5,2.8-5.9
	l2.8-2.3c1.5-1.4,3.5-2.3,5.6-2.3h31.3c2.1,0.1,4.1,0.9,5.6,2.3l2.8,2.3c1.8,1.4,2.9,3.6,2.8,5.9v4.7H589v-2.2c0-0.8,0-1.5-0.2-2.3
	c-0.3-0.6-0.7-1-1.2-1.4c-0.5-0.4-1.1-0.8-1.7-1c-0.9-0.2-1.8-0.2-2.7-0.2h-22.6c-0.9,0-1.8,0-2.7,0.2c-0.6,0.2-1.2,0.6-1.7,1
	c-0.5,0.3-0.9,0.8-1.2,1.4c-0.2,0.8-0.2,1.5-0.2,2.3v18.6c0,0.8,0,1.5,0.2,2.3c0.3,0.6,0.7,1,1.2,1.4c0.5,0.4,1,0.8,1.7,1
	c0.9,0.2,1.8,0.2,2.7,0.2h28.1c2.1,0.1,4.1,0.9,5.7,2.3l2.8,2.4c1.8,1.4,2.9,3.6,2.8,5.9v24.7c0,2.3-1,4.5-2.8,5.9l-2.8,2.4
	c-1.5,1.4-3.5,2.3-5.7,2.3h-33.6c-2.1-0.1-4.1-0.9-5.7-2.3l-2.8-2.4c-1.8-1.4-2.9-3.6-2.8-5.9v-4.7h9.9v2.2c0,0.8,0,1.5,0.2,2.3
	c0.3,0.5,0.7,1,1.2,1.3c0.5,0.4,1,0.8,1.6,1c0.9,0.2,1.8,0.2,2.7,0.2h24.9c0.9,0,1.8,0,2.7-0.2c0.6-0.2,1.2-0.6,1.6-1
	c0.5-0.3,0.9-0.8,1.2-1.3c0.2-0.8,0.2-1.5,0.2-2.3v-19.8c0-0.8,0-1.5-0.2-2.3c-0.3-0.5-0.7-1-1.2-1.3c-0.5-0.4-1-0.8-1.6-1
	C586.2,741.3,585.3,741.2,584.4,741.2z"/>
<path class="st0" d="M681.1,711.8h-9.9v-2.2c0-0.8,0-1.5-0.2-2.3c-0.3-0.6-0.7-1-1.2-1.4c-0.5-0.4-1.1-0.8-1.7-1
	c-0.9-0.2-1.8-0.2-2.7-0.2h-29.2c-0.9,0-1.8,0-2.7,0.2c-0.6,0.2-1.2,0.6-1.7,1c-0.5,0.3-0.9,0.8-1.2,1.4c-0.2,0.8-0.2,1.5-0.2,2.3
	v56.2c0,0.8,0,1.5,0.2,2.3c0.3,0.5,0.7,1,1.2,1.3c0.5,0.4,1,0.8,1.7,1c0.9,0.2,1.8,0.2,2.7,0.2h29.2c0.9,0,1.8,0,2.7-0.2
	c0.6-0.2,1.2-0.6,1.7-1c0.5-0.3,0.9-0.8,1.2-1.3c0.1-0.8,0.2-1.5,0.2-2.3v-2.2h9.9v4.7c0,2.3-1,4.5-2.8,5.9l-2.8,2.4
	c-1.5,1.4-3.5,2.3-5.7,2.3h-37.9c-2.1-0.1-4.1-0.9-5.6-2.3l-2.8-2.4c-1.8-1.4-2.9-3.6-2.8-5.9v-61.2c0-2.3,1-4.5,2.8-5.9l2.8-2.3
	c1.5-1.4,3.5-2.3,5.6-2.3h37.9c2.1,0.1,4.1,0.9,5.7,2.3l2.8,2.3c1.8,1.4,2.8,3.6,2.8,5.9L681.1,711.8z"/>
<path class="st0" d="M709.9,696.6h43c2.1,0.1,4.1,1,5.6,2.4l2.8,2.3c1.8,1.4,2.9,3.6,2.8,5.9v61.2c0,2.3-1,4.5-2.8,5.9l-2.8,2.4
	c-1.5,1.4-3.5,2.3-5.6,2.3h-43c-2.1-0.1-4.1-0.9-5.6-2.3l-2.8-2.4c-1.8-1.4-2.9-3.6-2.8-5.9v-61.2c0-2.3,1-4.5,2.8-5.9l2.8-2.3
	C705.8,697.5,707.8,696.7,709.9,696.6z M754.4,765.8v-56.2c0-0.8,0-1.5-0.2-2.3c-0.3-0.6-0.7-1-1.2-1.4c-0.5-0.4-1.1-0.8-1.7-1
	c-0.9-0.2-1.8-0.2-2.7-0.2h-34.3c-0.9,0-1.8,0-2.7,0.2c-0.6,0.2-1.2,0.6-1.7,1c-0.5,0.3-0.9,0.8-1.2,1.4c-0.2,0.8-0.2,1.5-0.2,2.3
	v56.2c0,0.8,0,1.5,0.2,2.3c0.3,0.5,0.7,1,1.2,1.3c0.5,0.4,1,0.8,1.7,1c0.9,0.2,1.8,0.2,2.7,0.2h34.3c0.9,0,1.8,0,2.7-0.2
	c0.6-0.2,1.2-0.6,1.7-1c0.5-0.3,0.9-0.8,1.2-1.3C754.3,767.4,754.4,766.6,754.4,765.8z"/>
<path class="st0" d="M849.4,778.9l-17.2-70.8l-0.6-2.9h-0.5l-0.6,2.9l-16.8,70.8h-13.9l-22.1-82.3h10.5l17.6,72.4l0.6,3h0.6l0.4-3
	l17.4-72.4h13l17.9,72.4l0.7,2.9h0.5l0.5-2.9l17.1-72.4H885l-22.1,82.3L849.4,778.9z"/>
<path class="st0" d="M446.4,569.2c-3.9-3.8-6.2-9.1-6.2-14.6V50.5h-6.4v504.2c-0.1,5.5-2.3,10.8-6.3,14.6c-5.3,5.2-5.3,13.7-0.1,19
	c5.2,5.3,13.7,5.3,19,0.1S451.7,574.6,446.4,569.2C446.4,569.3,446.4,569.3,446.4,569.2L446.4,569.2z M437,585.7c-3.9,0-7-3.1-7-7
	c0-0.1,0-0.2,0-0.3s0-0.3,0-0.5c0-0.1,0-0.3,0.1-0.4c0-0.2,0.1-0.3,0.1-0.5c0-0.1,0-0.2,0.1-0.3c0.1-0.2,0.2-0.5,0.3-0.7
	c0-0.1,0.1-0.2,0.1-0.3c0.1-0.2,0.2-0.4,0.3-0.5c0-0.1,0.1-0.2,0.1-0.2c0.3-0.5,0.7-0.9,1.1-1.3l0.1-0.1c0.2-0.2,0.4-0.3,0.6-0.5
	l0.1-0.1c0.2-0.2,0.5-0.3,0.7-0.5l0,0l0,0c2-1,4.4-1,6.4,0l0,0l0,0c0.3,0.1,0.5,0.3,0.7,0.5l0.1,0.1c0.2,0.1,0.4,0.3,0.6,0.5
	l0.2,0.1c0.2,0.2,0.4,0.4,0.6,0.6l0,0c0.2,0.2,0.3,0.4,0.5,0.7l0.2,0.2c0.1,0.2,0.2,0.3,0.3,0.5c0,0.1,0.1,0.2,0.1,0.3
	c0.1,0.2,0.2,0.5,0.3,0.7l0.1,0.3c0,0.2,0.1,0.3,0.1,0.5s0,0.3,0.1,0.4c0.1,0.1,0,0.3,0,0.5c0,0.2,0,0.2,0,0.3
	C443.7,582.5,440.7,585.6,437,585.7L437,585.7z"/>
<path class="st0" d="M431.1,575c0.3-0.5,0.7-0.9,1.1-1.3C431.8,574.1,431.4,574.5,431.1,575z"/>
<path class="st0" d="M430.1,577.5c0-0.2,0.1-0.3,0.1-0.5C430.2,577.2,430.1,577.3,430.1,577.5z"/>
<path class="st0" d="M430.3,576.7c0.1-0.2,0.2-0.5,0.3-0.7C430.5,576.2,430.4,576.4,430.3,576.7z"/>
<path class="st0" d="M430.7,575.7c0.1-0.2,0.2-0.4,0.3-0.5C430.9,575.4,430.8,575.5,430.7,575.7z"/>
<path class="st0" d="M430,578.4c0-0.2,0-0.3,0-0.5C430,578.1,430,578.3,430,578.4z"/>
<path class="st0" d="M441.8,573.7c0.2,0.2,0.4,0.4,0.6,0.6C442.2,574.1,442,573.9,441.8,573.7z"/>
<path class="st0" d="M443.7,577c0,0.2,0.1,0.3,0.1,0.5C443.8,577.3,443.8,577.2,443.7,577z"/>
<path class="st0" d="M443.4,576c0.1,0.2,0.2,0.5,0.3,0.7C443.6,576.4,443.5,576.2,443.4,576z"/>
<path class="st0" d="M443,575.2c0.1,0.2,0.2,0.3,0.3,0.5C443.2,575.5,443.1,575.4,443,575.2z"/>
<path class="st0" d="M443.9,578c0,0.2,0,0.3,0,0.5C443.9,578.2,443.9,578.1,443.9,578z"/>
<path class="st0" d="M441.1,573.1c0.2,0.1,0.4,0.3,0.6,0.5C441.4,573.4,441.3,573.2,441.1,573.1z"/>
<path class="st0" d="M440.2,572.6c0.3,0.1,0.5,0.3,0.7,0.4C440.7,572.8,440.5,572.7,440.2,572.6z"/>
<path class="st0" d="M433,573c0.2-0.2,0.5-0.3,0.7-0.4C433.5,572.6,433.2,572.8,433,573z"/>
<path class="st0" d="M442.4,574.3c0.2,0.2,0.3,0.4,0.5,0.7C442.7,574.7,442.5,574.5,442.4,574.3z"/>
<path class="st0" d="M432.3,573.5c0.2-0.2,0.4-0.3,0.6-0.5C432.7,573.2,432.5,573.4,432.3,573.5z"/>
<path class="st0" d="M364.4,202c-7.3,0.9-12.6,7.5-11.7,14.8c0.4,3,1.7,5.8,3.9,7.9c3.9,3.8,6.2,9.1,6.3,14.6v324
	c0,18.8-15.3,34.1-34.1,34.1h-54.4c-5.5,0-10.8-2.3-14.6-6.3c-5.2-5.2-13.7-5.3-19,0c-5.2,5.2-5.3,13.7,0,19c5.2,5.2,13.7,5.3,19,0
	c0,0,0,0,0,0c3.8-3.9,9.1-6.2,14.6-6.2h54.3c22.4,0,40.5-18.1,40.5-40.5v-324c0-5.5,2.3-10.8,6.2-14.6c5.2-5.2,5.3-13.7,0-18.9
	C372.5,203,368.4,201.6,364.4,202L364.4,202z M255.3,605.5c-0.4,0.4-0.9,0.8-1.4,1.2h-0.1c-0.2,0.1-0.5,0.3-0.7,0.4H253
	c-0.3,0.1-0.5,0.2-0.8,0.3H252l-0.7,0.2h-0.2c-0.3,0-0.6,0.1-0.9,0.1l0,0h-0.7c-3.6-0.4-6.3-3.4-6.3-7l0,0l0,0
	c0-3.6,2.8-6.6,6.4-6.9c0.2,0,0.4,0,0.5,0l0,0c0.3,0,0.6,0,0.9,0.1h0.2l0.7,0.2h0.1c0.3,0.1,0.6,0.2,0.8,0.3h0.1
	c0.3,0.1,0.5,0.2,0.7,0.4h0.1c0.5,0.3,1,0.7,1.4,1.2l0,0c2.5,2.7,2.5,6.8,0,9.5L255.3,605.5z M365.9,222.4c-3.9,0-7.1-3.2-7.1-7.1
	s3.2-7.1,7.1-7.1c3.9,0,7.1,3.2,7.1,7.1l0,0C373,219.2,369.8,222.4,365.9,222.4z"/>
<path class="st0" d="M255.3,605.5c-0.4,0.4-0.9,0.8-1.4,1.2C254.4,606.4,254.9,606,255.3,605.5z"/>
<path class="st0" d="M253.8,606.7c-0.2,0.1-0.5,0.3-0.7,0.4C253.3,607,253.5,606.9,253.8,606.7z"/>
<path class="st0" d="M252,607.5l-0.7,0.2L252,607.5z"/>
<path class="st0" d="M253,607.2c-0.3,0.1-0.5,0.2-0.8,0.3C252.4,607.4,252.7,607.3,253,607.2z"/>
<path class="st0" d="M251.1,607.7c-0.3,0-0.6,0.1-0.9,0.1C250.5,607.8,250.8,607.7,251.1,607.7z"/>
<path class="st0" d="M243.2,600.8L243.2,600.8c0,3.6,2.7,6.6,6.3,7C245.9,607.4,243.2,604.4,243.2,600.8z"/>
<path class="st0" d="M249.6,593.8c-3.6,0.3-6.4,3.3-6.4,6.9C243.2,597.1,246,594.1,249.6,593.8z"/>
<path class="st0" d="M253.9,594.9c0.5,0.3,1,0.7,1.4,1.2C254.9,595.6,254.4,595.2,253.9,594.9z"/>
<path class="st0" d="M250.2,593.8c0.3,0,0.6,0,0.9,0.1C250.8,593.8,250.5,593.8,250.2,593.8z"/>
<path class="st0" d="M251.3,593.9l0.7,0.2L251.3,593.9z"/>
<path class="st0" d="M253,594.4c0.3,0.1,0.5,0.2,0.7,0.4C253.5,594.7,253.3,594.5,253,594.4z"/>
<path class="st0" d="M252.1,594.1c0.3,0.1,0.6,0.2,0.8,0.3C252.7,594.3,252.4,594.2,252.1,594.1z"/>
<path class="st0" d="M638,599.2c-0.8-7.3-7.5-12.6-14.8-11.8c-3,0.3-5.8,1.7-8,3.9c-3.8,3.9-9.1,6.2-14.6,6.2h-54.3
	c-18.8,0-34.1-15.3-34.1-34.1v-324c0.1-5.5,2.3-10.8,6.3-14.6c5.2-5.2,5.3-13.7,0-18.9c-5.2-5.2-13.7-5.3-18.9,0
	c-5.2,5.2-5.3,13.7,0,18.9c0,0,0,0,0,0c3.9,3.8,6.2,9.1,6.2,14.6v324c0,22.4,18.1,40.5,40.5,40.5h54.3c5.5,0,10.8,2.3,14.6,6.2
	c5.2,5.2,13.7,5.3,18.9,0C637,607.3,638.5,603.3,638,599.2L638,599.2z M501.9,215.4c0-3.9,3.1-7,7-7s7,3.1,7,7s-3.1,7-7,7
	S501.9,219.2,501.9,215.4z M625.4,607.7h-0.7l0,0c-0.3,0-0.6,0-0.9-0.1h-0.2l-0.7-0.2h-0.1c-0.3-0.1-0.6-0.2-0.8-0.3h-0.1
	c-0.3-0.1-0.5-0.2-0.7-0.4H621c-0.5-0.3-1-0.7-1.4-1.2l0,0c-2.5-2.7-2.5-6.8,0-9.5l0,0c0.4-0.4,0.9-0.8,1.4-1.2h0.1
	c0.2-0.1,0.5-0.3,0.7-0.4h0.1c0.3-0.1,0.5-0.2,0.8-0.3h0.1l0.7-0.2h0.2c0.3,0,0.6-0.1,0.9-0.1l0,0h0.5c3.5,0.3,6.2,3.1,6.5,6.5
	c0,0.1,0,0.3,0,0.4c0,0.1,0,0.2,0,0.3C631.3,604.7,628.7,607.4,625.4,607.7z"/>
<path class="st0" d="M621.8,607.1c-0.3-0.1-0.5-0.2-0.7-0.4C621.3,606.9,621.5,607,621.8,607.1z"/>
<path class="st0" d="M623.6,607.7l-0.7-0.2L623.6,607.7z"/>
<path class="st0" d="M622.7,607.5c-0.3-0.1-0.6-0.2-0.8-0.3C622.1,607.3,622.4,607.4,622.7,607.5z"/>
<path class="st0" d="M624.7,607.8c-0.3,0-0.6,0-0.9-0.1C624.1,607.7,624.4,607.8,624.7,607.8z"/>
<path class="st0" d="M623.8,593.8c0.3,0,0.6-0.1,0.9-0.1C624.4,593.8,624.1,593.8,623.8,593.8z"/>
<path class="st0" d="M622.8,594l0.7-0.2L622.8,594z"/>
<path class="st0" d="M631.6,600.3c-0.2-3.5-3-6.3-6.5-6.5C628.7,594.1,631.4,596.9,631.6,600.3z"/>
<path class="st0" d="M625.4,607.7c3.4-0.4,6.1-3.2,6.3-6.6C631.5,604.6,628.8,607.4,625.4,607.7z"/>
<path class="st0" d="M621,606.7c-0.5-0.3-1-0.7-1.4-1.2C620,606,620.5,606.4,621,606.7z"/>
<path class="st0" d="M619.6,596c0.4-0.4,0.9-0.8,1.4-1.2C620.5,595.2,620,595.6,619.6,596z"/>
<path class="st0" d="M621.1,594.8c0.2-0.1,0.5-0.3,0.7-0.4C621.5,594.5,621.3,594.7,621.1,594.8z"/>
<path class="st0" d="M621.9,594.4c0.3-0.1,0.5-0.2,0.8-0.3C622.4,594.2,622.1,594.3,621.9,594.4z"/>
<path class="st0" d="M678.9,637.9c-0.7-6.2-5.6-11-11.8-11.8c-4.1-0.5-8.1,1-11,3.9c-3.9,4-9.1,6.2-14.7,6.2h-98.3
	c-38.8,0-70.3-31.5-70.3-70.3c0,0,0,0,0,0V143.4c0.1-5.5,2.3-10.8,6.3-14.6c5.2-5.2,5.3-13.7,0-19c-5.2-5.2-13.7-5.3-19,0
	c-5.2,5.2-5.3,13.7,0,19c0,0,0,0,0,0c4,3.8,6.2,9.1,6.2,14.6v422.5c0,42.4,34.3,76.7,76.7,76.7l0,0h98.3c5.5,0,10.8,2.3,14.6,6.2
	c5.2,5.2,13.7,5.3,18.9,0C677.9,646,679.4,641.9,678.9,637.9L678.9,637.9z M466.5,125.5c-3.4-1.8-4.8-6-3-9.4s6-4.8,9.4-3
	s4.8,6,3,9.4c-0.7,1.3-1.7,2.3-3,3l0,0C470.9,126.5,468.5,126.5,466.5,125.5z M665.6,646.5c-3.9,0-7-3.1-7-7s3.1-7,7-7s7,3.1,7,7
	C672.6,643.3,669.5,646.5,665.6,646.5L665.6,646.5z"/>
<path class="st0" d="M403.6,106c-6.2,0.7-11,5.6-11.8,11.8c-0.5,4.1,1,8.1,3.9,11c3.9,3.8,6.2,9.1,6.2,14.6v422.6
	c0,38.8-31.5,70.3-70.3,70.3c0,0,0,0,0,0h-98.3c-5.5,0-10.8-2.3-14.6-6.2c-2.9-2.9-6.9-4.3-11-3.9c-7.4,0.9-12.6,7.5-11.8,14.9
	c0.8,6.8,6.5,11.9,13.3,11.8c3.6,0,7-1.5,9.5-4c3.8-3.9,9.1-6.2,14.6-6.2h98.3c42.4,0,76.7-34.3,76.7-76.7c0,0,0,0,0,0V143.4
	c0-5.5,2.3-10.8,6.2-14.6c5.2-5.2,5.3-13.7,0-18.9C411.8,106.9,407.7,105.5,403.6,106L403.6,106z M209.2,646.4c-3.9,0-7-3.1-7-7
	s3.1-7,7-7s7,3.1,7,7S213.1,646.4,209.2,646.4L209.2,646.4z M405.1,126.3c-3.9,0-7-3.1-7-7s3.1-7,7-7s7,3.1,7,7
	S409,126.3,405.1,126.3z"/>
<path class="st2" d="M451,32.8l-10.4-6.6l0.4,12.4h-7l0.4-12.4l-10.4,6.6l-3.5-6.2l10.8-5.8L420.4,15l3.5-6.2l10.4,6.6L433.9,3h7
	l-0.4,12.3L451,8.8l3.5,6.2l-10.8,5.9l10.8,5.8L451,32.8z"/>
</svg>
