<svg id="Слой_1" data-name="Слой 1" xmlns="http://www.w3.org/2000/svg" viewBox="0 0 900 400"><defs><style>.cls-1,.cls-3{fill:#fff;}.cls-1{stroke:#fff;stroke-miterlimit:10;}.cls-2{opacity:0.1;}.cls-4{fill:#020608;}.cls-5{fill:#232121;}.cls-6{fill:#c14e45;}.cls-7{fill:#201600;}.cls-8{fill:#59b5b7;}.cls-9{fill:#363b44;}</style></defs><title>chere</title><rect class="cls-1" width="900" height="400"/><g class="cls-2"><path class="cls-3" d="M45.5,264.29V400.66H174.34V264.29Zm38.94,97.24a.85.85,0,0,1,0-1.69.85.85,0,0,1,0,1.69Zm4.65-4.66a.84.84,0,0,1,0-1.68.84.84,0,0,1,0,1.68Zm13.15-46.34a.85.85,0,1,1,.81-.85h0A.83.83,0,0,1,102.24,310.53ZM106.7,299a.85.85,0,1,1,.8-.85.82.82,0,0,1-.8.85Zm3.62,55.25a.84.84,0,1,1,.8-.84.82.82,0,0,1-.8.84ZM114,299a.84.84,0,1,1,.79-.84.81.81,0,0,1-.79.84Zm4.46,11.56a.84.84,0,0,1,0-1.68.84.84,0,0,1,0,1.68Zm13.15,46.35a.84.84,0,1,1,.8-.84A.82.82,0,0,1,131.65,356.87Zm4.65,4.66a.85.85,0,0,1,0-1.69.85.85,0,0,1,0,1.69Z"/><path class="cls-3" d="M136.3,359.83a.85.85,0,1,0,.8.85A.82.82,0,0,0,136.3,359.83Z"/><ellipse class="cls-3" cx="131.65" cy="356.03" rx="0.79" ry="0.84"/><ellipse class="cls-3" cx="118.5" cy="309.68" rx="0.8" ry="0.84"/><path class="cls-3" d="M114,297.29a.84.84,0,0,0,0,1.68.81.81,0,0,0,.8-.83h0a.81.81,0,0,0-.79-.84Z"/><path class="cls-3" d="M106.7,297.29a.84.84,0,0,0,0,1.68.84.84,0,0,0,0-1.68Z"/><path class="cls-3" d="M110.32,352.54a.85.85,0,1,0,.8.85A.83.83,0,0,0,110.32,352.54Z"/><ellipse class="cls-3" cx="89.1" cy="356.03" rx="0.79" ry="0.84"/><path class="cls-3" d="M84.44,359.83a.85.85,0,1,0,.8.85A.82.82,0,0,0,84.44,359.83Z"/><path class="cls-3" d="M102.24,308.83a.85.85,0,1,0,.81.85h0A.83.83,0,0,0,102.24,308.83Z"/><path class="cls-4" d="M66.77,367.55h1.12v9.91H66.77v-4.6H61.9v4.6H60.78v-9.91H61.9v4.39h4.87Z"/><path class="cls-4" d="M69.89,377.46l3.21-9.91h1.58L78,377.46H76.83l-.7-2H71.69l-.67,2Zm4-9.06h-.06a1,1,0,0,1-.09.41L72,374.48h3.88L74,368.81a1.16,1.16,0,0,1-.09-.41Z"/><path class="cls-4" d="M86.83,369.39H85.7v-.27a.82.82,0,0,0,0-.27.46.46,0,0,0-.14-.17.71.71,0,0,0-.18-.12l-.31,0H81.73l-.3,0a.76.76,0,0,0-.19.12.46.46,0,0,0-.14.17,1.23,1.23,0,0,0,0,.27v6.76a1.27,1.27,0,0,0,0,.28.36.36,0,0,0,.14.16.76.76,0,0,0,.19.12l.3,0h3.32l.31,0a.71.71,0,0,0,.18-.12.36.36,0,0,0,.14-.16.86.86,0,0,0,0-.28v-.26h1.13v.56a.91.91,0,0,1-.33.71l-.32.28a1,1,0,0,1-.64.29h-4.3a1,1,0,0,1-.64-.29l-.32-.28a.87.87,0,0,1-.32-.71v-7.35a.87.87,0,0,1,.32-.71l.32-.28a.93.93,0,0,1,.64-.29h4.3a.93.93,0,0,1,.64.29l.32.28a.91.91,0,0,1,.33.71Z"/><path class="cls-4" d="M88.82,367.55h1.12v4.39h1.44l2-3.44a1.59,1.59,0,0,1,.48-.55l.25-.18a1.44,1.44,0,0,1,.31-.19,1.66,1.66,0,0,1,.32,0h.3v.56a1.46,1.46,0,0,1,0,.41.85.85,0,0,1-.28.22l-.15.09a1.1,1.1,0,0,0-.28.2,1.69,1.69,0,0,0-.21.31l-1.61,2.74c-.13.24-.24.35-.33.35v.06c.09,0,.2.11.33.34l1.7,2.84a1.41,1.41,0,0,0,.21.31,1.31,1.31,0,0,0,.28.2l.15.09a.67.67,0,0,1,.28.22,1.17,1.17,0,0,1,0,.41v.56h-.37l-.33,0a1.17,1.17,0,0,1-.3-.19l-.25-.18a1.55,1.55,0,0,1-.27-.24,2.7,2.7,0,0,1-.22-.33l-2.08-3.56H89.94v4.53H88.82Z"/><path class="cls-5" d="M98.24,376.64V377a2.11,2.11,0,0,1,0,.26.3.3,0,0,1-.1.14.55.55,0,0,1-.4.1h-.06a.61.61,0,0,1-.42-.1.56.56,0,0,1-.1-.4v-.32a1.15,1.15,0,0,1,0-.26.45.45,0,0,1,.1-.14.63.63,0,0,1,.41-.09h0a.68.68,0,0,1,.42.09A.64.64,0,0,1,98.24,376.64Z"/><path class="cls-4" d="M101.5,368.4l0,0a2.59,2.59,0,0,1,.09.68v8.36h-1.12v-9.91h1.82l2.86,7.91a1.77,1.77,0,0,1,.08.4h0a1.35,1.35,0,0,1,.08-.4l2.87-7.91H110v9.91h-1.12V369.1a2.59,2.59,0,0,1,.09-.68l0,0-3.29,9.06h-.85c-.41-1.07-.8-2.1-1.17-3.1s-.68-1.84-.92-2.51l-.63-1.79-.41-1.19C101.56,368.59,101.51,368.43,101.5,368.4Z"/><path class="cls-4" d="M114,367.55h4.89a.93.93,0,0,1,.64.29l.33.28a.9.9,0,0,1,.32.71v7.35a.9.9,0,0,1-.32.71l-.32.28a1,1,0,0,1-.64.29H114a1,1,0,0,1-.64-.29l-.33-.28a.93.93,0,0,1-.32-.71v-7.35a.93.93,0,0,1,.32-.71l.32-.28A1,1,0,0,1,114,367.55Zm5,8.33v-6.76a.82.82,0,0,0,0-.27.46.46,0,0,0-.14-.17.71.71,0,0,0-.18-.12l-.31,0h-3.9l-.31,0a.76.76,0,0,0-.19.12.46.46,0,0,0-.14.17,1.23,1.23,0,0,0,0,.27v6.76a1.27,1.27,0,0,0,0,.28.44.44,0,0,0,.14.16.76.76,0,0,0,.19.12,1.55,1.55,0,0,0,.31,0h3.9a1.63,1.63,0,0,0,.31,0,.71.71,0,0,0,.18-.12.36.36,0,0,0,.14-.16A.86.86,0,0,0,119,375.88Z"/><path class="cls-4" d="M127.08,372.93h-3.2a1,1,0,0,1-.64-.28l-.36-.33a.72.72,0,0,1-.28-.57v-2.92a.9.9,0,0,1,.32-.71l.32-.28a1,1,0,0,1,.64-.29h3.56a1,1,0,0,1,.64.29l.32.28a.93.93,0,0,1,.32.71v.56H127.6v-.27a2.45,2.45,0,0,0,0-.27.58.58,0,0,0-.14-.17.76.76,0,0,0-.19-.12l-.31,0h-2.56l-.31,0a.76.76,0,0,0-.19.12.46.46,0,0,0-.14.17,1.23,1.23,0,0,0,0,.27v2.24a1.23,1.23,0,0,0,0,.27.39.39,0,0,0,.14.17.76.76,0,0,0,.19.12,1.56,1.56,0,0,0,.31,0h3.19a1,1,0,0,1,.64.28l.32.28a.88.88,0,0,1,.32.71v3a.87.87,0,0,1-.32.71l-.32.28a1,1,0,0,1-.64.29h-3.82a1,1,0,0,1-.64-.29l-.32-.28a.87.87,0,0,1-.32-.71v-.56h1.12v.26a.86.86,0,0,0,0,.28.36.36,0,0,0,.14.16.71.71,0,0,0,.18.12l.31,0h2.84l.3,0a.76.76,0,0,0,.19-.12.36.36,0,0,0,.14-.16,1.27,1.27,0,0,0,0-.28v-2.37a1.32,1.32,0,0,0,0-.28.43.43,0,0,0-.14-.16.76.76,0,0,0-.19-.12A1,1,0,0,0,127.08,372.93Z"/><path class="cls-4" d="M138.06,369.39h-1.12v-.27a2.45,2.45,0,0,0,0-.27.46.46,0,0,0-.14-.17.76.76,0,0,0-.19-.12l-.31,0H133l-.31,0a.76.76,0,0,0-.19.12.58.58,0,0,0-.14.17,2.45,2.45,0,0,0,0,.27v6.76a2.46,2.46,0,0,0,0,.28.44.44,0,0,0,.14.16.76.76,0,0,0,.19.12,1.63,1.63,0,0,0,.31,0h3.32l.3,0a.62.62,0,0,0,.19-.12.36.36,0,0,0,.14-.16.86.86,0,0,0,0-.28v-.26h1.12v.56a.87.87,0,0,1-.32.71l-.32.28a1,1,0,0,1-.64.29h-4.31a1.08,1.08,0,0,1-.64-.29l-.32-.28a.93.93,0,0,1-.32-.71v-7.35a.93.93,0,0,1,.32-.71l.32-.28a1,1,0,0,1,.64-.28h4.31a1,1,0,0,1,.64.28l.32.29a.86.86,0,0,1,.32.7Z"/><path class="cls-4" d="M141.33,367.55h4.9a1.08,1.08,0,0,1,.64.29l.32.29a.93.93,0,0,1,.32.7v7.36a.91.91,0,0,1-.32.7l-.32.29a1,1,0,0,1-.64.28h-4.9a1,1,0,0,1-.64-.28l-.31-.29a.87.87,0,0,1-.32-.71v-7.35a.87.87,0,0,1,.32-.71l.32-.28A1,1,0,0,1,141.33,367.55Zm5.06,8.33v-6.76a1.24,1.24,0,0,0,0-.27.55.55,0,0,0-.13-.17.76.76,0,0,0-.19-.12l-.31,0h-3.9l-.31,0a.76.76,0,0,0-.19.12.58.58,0,0,0-.14.17,2.45,2.45,0,0,0,0,.27v6.76a2.46,2.46,0,0,0,0,.28.44.44,0,0,0,.14.16.76.76,0,0,0,.19.12,1.55,1.55,0,0,0,.31,0h3.9a1.63,1.63,0,0,0,.31,0,.76.76,0,0,0,.19-.12.42.42,0,0,0,.13-.16A1.27,1.27,0,0,0,146.39,375.88Z"/><path class="cls-4" d="M157.18,377.46l-2-8.52-.07-.35h0l-.07.35-1.91,8.52h-1.57L149,367.55h1.19l2,8.71.07.36h.07l0-.36,2-8.71h1.48l2,8.71.08.36h.05l0-.36,1.94-8.71h1.19l-2.51,9.9Z"/><path class="cls-4" d="M111.39,352.24a2.5,2.5,0,0,1-.7-1.75V289.85H110v60.64a2.56,2.56,0,0,1-.72,1.75,1.68,1.68,0,0,0,0,2.28,1.45,1.45,0,0,0,2.15,0,1.68,1.68,0,0,0,0-2.28Zm-1.07,2a.82.82,0,0,1-.8-.84v-.1a.07.07,0,0,0,0,0,.43.43,0,0,1,0-.05.09.09,0,0,1,0-.05l0-.08,0,0,0-.07v0l.06-.08h0l.07-.08h0l.07-.06h0l.08-.05h0a.73.73,0,0,1,.73,0h0l.09.05h0l.06.06h0l.06.08h0l.06.08,0,0,0,.07v0l0,.08v.05s0,0,0,.05,0,0,0,0,0,0,0,.06v0a.82.82,0,0,1-.77.84Z"/><path class="cls-4" d="M109.56,353.14l0-.09Z"/><path class="cls-4" d="M109.71,352.85l.06-.08Z"/><path class="cls-4" d="M109.65,352.93l.06-.08Z"/><path class="cls-4" d="M109.53,353.35v0Z"/><path class="cls-4" d="M109.61,353l0-.06Z"/><path class="cls-4" d="M109.54,353.23a.43.43,0,0,0,0-.05A.43.43,0,0,1,109.54,353.23Z"/><path class="cls-4" d="M111.05,353.05l0,.09Z"/><path class="cls-4" d="M111.09,353.18a.43.43,0,0,0,0,.05A.43.43,0,0,1,111.09,353.18Z"/><path class="cls-4" d="M111,353l0,.06Z"/><path class="cls-4" d="M111.11,353.29v0Z"/><path class="cls-4" d="M110.69,352.64l.08.05Z"/><path class="cls-4" d="M109.87,352.69l.08-.06Z"/><path class="cls-4" d="M109.79,352.76l.07-.06Z"/><path class="cls-4" d="M110.87,352.77l.06.08Z"/><path class="cls-4" d="M110.93,352.85l.06.08Z"/><path class="cls-4" d="M110.79,352.7l.06.06Z"/><path class="cls-4" d="M102.07,308.08a1.58,1.58,0,0,0-1.33,1.78,1.64,1.64,0,0,0,.44,1,2.6,2.6,0,0,1,.71,1.75v39a4,4,0,0,1-3.88,4.1H91.83a2.24,2.24,0,0,1-1.66-.75,1.46,1.46,0,0,0-2.15,0,1.68,1.68,0,0,0,0,2.28,1.46,1.46,0,0,0,2.15,0h0a2.24,2.24,0,0,1,1.66-.75H98a4.75,4.75,0,0,0,4.61-4.88h0v-39a2.55,2.55,0,0,1,.71-1.75,1.68,1.68,0,0,0,0-2.28,1.46,1.46,0,0,0-1.25-.46ZM89.67,356.6a.43.43,0,0,1-.16.14h0l-.08.05h0l-.09,0h0l-.08,0H89a.83.83,0,0,1-.71-.84h0a.82.82,0,0,1,.73-.83h.29l.09,0h0l.08.05h0a.73.73,0,0,1,.16.14h0a.86.86,0,0,1,0,1.14Zm12.57-46.07a.85.85,0,1,1,.81-.85h0A.83.83,0,0,1,102.24,310.53Z"/><path class="cls-4" d="M89.41,356.8l-.09,0Z"/><path class="cls-4" d="M89.67,356.6a.43.43,0,0,1-.16.14A.43.43,0,0,0,89.67,356.6Z"/><path class="cls-4" d="M89.5,356.75l-.08.05Z"/><path class="cls-4" d="M89.3,356.84l-.08,0Z"/><path class="cls-4" d="M89.09,355.19h0Z"/><path class="cls-4" d="M89.32,355.23l.09,0Z"/><path class="cls-4" d="M89.22,355.21h0Z"/><path class="cls-4" d="M89.42,355.27l.08.05Z"/><path class="cls-4" d="M89,355.2a.81.81,0,0,0-.73.83A.81.81,0,0,1,89,355.2Z"/><path class="cls-4" d="M89.19,356.87h0Z"/><path class="cls-4" d="M88.3,356h0a.84.84,0,0,0,.71.85A.84.84,0,0,1,88.3,356Z"/><path class="cls-4" d="M89.51,355.32a.73.73,0,0,1,.16.14A.73.73,0,0,0,89.51,355.32Z"/><path class="cls-4" d="M133.16,355.85a1.54,1.54,0,0,0-1.68-1.42,1.52,1.52,0,0,0-.91.47,2.3,2.3,0,0,1-1.66.75h-6.17a4,4,0,0,1-3.88-4.11v-39a2.56,2.56,0,0,1,.71-1.76,1.68,1.68,0,0,0,0-2.28,1.47,1.47,0,0,0-2.16,0,1.69,1.69,0,0,0,0,2.28h0a2.51,2.51,0,0,1,.71,1.76v39a4.75,4.75,0,0,0,4.61,4.88h6.17a2.23,2.23,0,0,1,1.66.75,1.46,1.46,0,0,0,2.15,0,1.65,1.65,0,0,0,.44-1.33ZM117.7,309.68a.8.8,0,1,1,.8.84A.82.82,0,0,1,117.7,309.68ZM132.44,356a.82.82,0,0,1-.71.85h-.21l-.08,0h0l-.09,0h0l-.08,0h0a1.07,1.07,0,0,1-.16-.14h0a.88.88,0,0,1,0-1.14h0a.52.52,0,0,1,.16-.14h0l.08-.05h0l.09,0h0l.08,0h.19a.81.81,0,0,1,.73.83h0Z"/><path class="cls-4" d="M131.52,356.86l-.08,0Z"/><path class="cls-4" d="M131.42,356.84l-.09,0Z"/><path class="cls-4" d="M132.44,356a.81.81,0,0,0-.73-.83A.81.81,0,0,1,132.44,356Z"/><path class="cls-4" d="M131.07,355.46a1.07,1.07,0,0,1,.16-.14A1.07,1.07,0,0,0,131.07,355.46Z"/><path class="cls-4" d="M131.65,356.87h0Z"/><path class="cls-4" d="M131.73,356.87a.82.82,0,0,0,.71-.84h0A.82.82,0,0,1,131.73,356.87Z"/><path class="cls-4" d="M131.33,355.27l.09,0Z"/><path class="cls-4" d="M131.55,355.2h0Z"/><path class="cls-4" d="M131.23,356.74a.52.52,0,0,1-.16-.14A.52.52,0,0,0,131.23,356.74Z"/><path class="cls-4" d="M131.24,355.32l.08-.05Z"/><path class="cls-4" d="M131.32,356.8l-.08-.05Z"/><path class="cls-4" d="M131.44,355.22h0Z"/><path class="cls-4" d="M137.81,360.5a1.57,1.57,0,0,0-1.33-1.42,1.46,1.46,0,0,0-1.25.46,2.26,2.26,0,0,1-1.67.75H122.39a8.22,8.22,0,0,1-8-8.45h0V301a2.64,2.64,0,0,1,.71-1.76,1.67,1.67,0,0,0,0-2.27,1.45,1.45,0,0,0-2.15,0,1.68,1.68,0,0,0,0,2.28h0a2.59,2.59,0,0,1,.7,1.76v50.82a9,9,0,0,0,8.72,9.23h11.17a2.24,2.24,0,0,1,1.66.75,1.46,1.46,0,0,0,2.15,0,1.69,1.69,0,0,0,.44-1.33Zm-24.14-61.63h0a.87.87,0,0,1-.34-1.14.78.78,0,0,1,1.07-.36.87.87,0,0,1,.35,1.13.84.84,0,0,1-.35.37h0A.79.79,0,0,1,113.67,298.87Zm22.63,62.66a.85.85,0,0,1,0-1.69.83.83,0,0,1,.8.85h0a.82.82,0,0,1-.8.84Z"/><path class="cls-4" d="M106.53,296.52a1.59,1.59,0,0,0-1.34,1.78,1.61,1.61,0,0,0,.44,1,2.58,2.58,0,0,1,.71,1.76v50.82a8.23,8.23,0,0,1-8,8.45H87.18a2.24,2.24,0,0,1-1.66-.75,1.46,1.46,0,0,0-1.25-.46,1.59,1.59,0,0,0-1.34,1.79,1.56,1.56,0,0,0,1.52,1.42,1.44,1.44,0,0,0,1.07-.48,2.33,2.33,0,0,1,1.66-.75H98.35a9,9,0,0,0,8.72-9.23h0V301a2.55,2.55,0,0,1,.71-1.75,1.68,1.68,0,0,0,0-2.28,1.48,1.48,0,0,0-1.26-.46Zm-22.09,65a.85.85,0,0,1,0-1.69.85.85,0,0,1,0,1.69ZM106.7,299a.85.85,0,1,1,.8-.85A.82.82,0,0,1,106.7,299Z"/><path class="cls-6" d="M111.91,287.73l-1.18-.79,0,1.49H110l0-1.49-1.19.79-.39-.75,1.23-.69-1.24-.71.4-.75,1.18.79,0-1.48h.8l0,1.48,1.19-.79.4.75-1.23.7,1.23.7Z"/></g><g class="cls-2"><path class="cls-3" d="M216.36,185.06V403.41H422.65V185.06Zm62.36,155.69a1.35,1.35,0,1,1,1.27-1.34,1.31,1.31,0,0,1-1.27,1.34Zm7.44-7.45a1.35,1.35,0,1,1,1.28-1.35,1.31,1.31,0,0,1-1.28,1.35Zm21.06-74.21a1.36,1.36,0,1,1,1.29-1.36h0A1.32,1.32,0,0,1,307.22,259.09Zm7.14-18.51a1.35,1.35,0,1,1,1.27-1.34,1.31,1.31,0,0,1-1.27,1.34Zm5.79,88.48a1.35,1.35,0,1,1,1.28-1.35,1.32,1.32,0,0,1-1.28,1.35Zm6-88.48a1.34,1.34,0,1,1,1.26-1.35,1.31,1.31,0,0,1-1.26,1.35Zm7.14,18.5a1.35,1.35,0,1,1,1.27-1.35,1.31,1.31,0,0,1-1.27,1.35ZM354.3,333.3a1.35,1.35,0,1,1,1.28-1.35A1.31,1.31,0,0,1,354.3,333.3Zm7.45,7.45a1.35,1.35,0,1,1,1.28-1.34,1.31,1.31,0,0,1-1.28,1.34Z"/><path class="cls-3" d="M361.75,338a1.35,1.35,0,1,0,1.28,1.35A1.32,1.32,0,0,0,361.75,338Z"/><ellipse class="cls-3" cx="354.3" cy="331.95" rx="1.27" ry="1.34"/><ellipse class="cls-3" cx="333.25" cy="257.73" rx="1.27" ry="1.35"/><path class="cls-3" d="M326.11,237.9a1.31,1.31,0,0,0-1.29,1.34,1.33,1.33,0,0,0,1.27,1.36,1.32,1.32,0,0,0,1.28-1.34v0a1.3,1.3,0,0,0-1.26-1.34Z"/><path class="cls-3" d="M314.36,237.89a1.35,1.35,0,1,0,1.27,1.35A1.32,1.32,0,0,0,314.36,237.89Z"/><path class="cls-3" d="M320.15,326.37a1.35,1.35,0,1,0,1.28,1.35A1.31,1.31,0,0,0,320.15,326.37Z"/><ellipse class="cls-3" cx="286.17" cy="331.95" rx="1.27" ry="1.34"/><path class="cls-3" d="M278.72,338a1.35,1.35,0,1,0,1.27,1.35A1.32,1.32,0,0,0,278.72,338Z"/><path class="cls-3" d="M307.22,256.38a1.36,1.36,0,1,0,1.29,1.35h0A1.32,1.32,0,0,0,307.22,256.38Z"/><path class="cls-4" d="M250.42,350.4h1.79v15.86h-1.79V358.9h-7.79v7.36h-1.8V350.4h1.8v7h7.79Z"/><path class="cls-4" d="M255.42,366.26l5.14-15.86h2.52l5.25,15.86h-1.8L265.42,363h-7.13l-1.07,3.28Zm6.44-14.5h-.08a1.87,1.87,0,0,1-.15.66l-2.89,9.08H265l-3-9.08a1.88,1.88,0,0,1-.16-.66Z"/><path class="cls-4" d="M282.53,353.35h-1.79v-.43a2.12,2.12,0,0,0,0-.44.73.73,0,0,0-.22-.27,1.17,1.17,0,0,0-.3-.19,2,2,0,0,0-.49,0h-5.31a2,2,0,0,0-.49,0,1.17,1.17,0,0,0-.3.19.75.75,0,0,0-.23.27,3.15,3.15,0,0,0,0,.44v10.82a3.4,3.4,0,0,0,0,.45,1,1,0,0,0,.23.26,1.17,1.17,0,0,0,.3.19,2,2,0,0,0,.49,0h5.31a2,2,0,0,0,.49,0,1.17,1.17,0,0,0,.3-.19.78.78,0,0,0,.22-.26,2.28,2.28,0,0,0,0-.45v-.43h1.79v.91a1.42,1.42,0,0,1-.51,1.13l-.51.46a1.62,1.62,0,0,1-1,.45h-6.89a1.62,1.62,0,0,1-1-.45l-.51-.46a1.42,1.42,0,0,1-.51-1.13V352.44a1.42,1.42,0,0,1,.51-1.13l.51-.45a1.58,1.58,0,0,1,1-.46h6.89a1.58,1.58,0,0,1,1,.46l.51.45a1.42,1.42,0,0,1,.51,1.13Z"/><path class="cls-4" d="M285.72,350.4h1.8v7h2.31l3.23-5.5a2.61,2.61,0,0,1,.77-.88l.41-.3a2.92,2.92,0,0,1,.48-.29,2.29,2.29,0,0,1,.52-.05h.47v.89a1.78,1.78,0,0,1-.06.65,1.24,1.24,0,0,1-.45.37l-.24.13a2.36,2.36,0,0,0-.44.32,3,3,0,0,0-.35.5l-2.56,4.39q-.33.57-.54.57v.09q.21,0,.54.54l2.71,4.55a2.45,2.45,0,0,0,.34.5,2.83,2.83,0,0,0,.45.32l.24.14a1.13,1.13,0,0,1,.45.36,1.78,1.78,0,0,1,.06.65v.89h-.6a1.84,1.84,0,0,1-.52-.05,2,2,0,0,1-.48-.29l-.41-.3a3.67,3.67,0,0,1-.43-.37,6,6,0,0,1-.34-.53L289.74,359h-2.22v7.25h-1.8Z"/><path class="cls-5" d="M300.81,365v.51a3.11,3.11,0,0,1,0,.43.52.52,0,0,1-.17.22.92.92,0,0,1-.63.16h-.1a1,1,0,0,1-.67-.16,1,1,0,0,1-.17-.64V365a3,3,0,0,1,0-.42.54.54,0,0,1,.17-.22.9.9,0,0,1,.65-.16H300a1,1,0,0,1,.67.16A.94.94,0,0,1,300.81,365Z"/><path class="cls-4" d="M306,351.76l-.07,0a3.91,3.91,0,0,1,.15,1.08v13.39h-1.8V350.4h2.92l4.57,12.66a2,2,0,0,1,.13.64H312a2,2,0,0,1,.13-.64l4.6-12.66h2.89v15.86h-1.8V352.87a3.91,3.91,0,0,1,.15-1.08l-.07,0-5.26,14.5h-1.37q-1-2.56-1.87-5t-1.47-4c-.38-1.08-.72-2-1-2.86l-.67-1.91C306.13,352.06,306,351.81,306,351.76Z"/><path class="cls-4" d="M326,350.4h7.82a1.58,1.58,0,0,1,1,.46l.53.45a1.42,1.42,0,0,1,.51,1.13v11.78a1.42,1.42,0,0,1-.51,1.13l-.52.46a1.59,1.59,0,0,1-1,.45H326a1.59,1.59,0,0,1-1-.45l-.53-.46a1.42,1.42,0,0,1-.51-1.13V352.44a1.42,1.42,0,0,1,.51-1.13l.51-.44A1.59,1.59,0,0,1,326,350.4Zm8.09,13.34V352.92a2.12,2.12,0,0,0,0-.44.64.64,0,0,0-.22-.27,1.17,1.17,0,0,0-.3-.19,2,2,0,0,0-.49,0h-6.25a2,2,0,0,0-.49,0,1.17,1.17,0,0,0-.3.19.75.75,0,0,0-.23.27,1.6,1.6,0,0,0,0,.44v10.82a1.71,1.71,0,0,0,0,.45.82.82,0,0,0,.23.26,1.17,1.17,0,0,0,.3.19,2,2,0,0,0,.49,0H333a2,2,0,0,0,.49,0,1.17,1.17,0,0,0,.3-.19.78.78,0,0,0,.22-.26A2.28,2.28,0,0,0,334.06,363.74Z"/><path class="cls-4" d="M347,359h-5.11a1.59,1.59,0,0,1-1-.45l-.58-.52a1.17,1.17,0,0,1-.45-.91v-4.69a1.46,1.46,0,0,1,.52-1.13l.51-.45a1.56,1.56,0,0,1,1-.46h5.69a1.55,1.55,0,0,1,1,.46l.52.45a1.42,1.42,0,0,1,.51,1.13v.91h-1.8v-.43a1.6,1.6,0,0,0,0-.44.73.73,0,0,0-.22-.27,1.17,1.17,0,0,0-.3-.19,2,2,0,0,0-.49,0h-4.11a2,2,0,0,0-.49,0,1.17,1.17,0,0,0-.3.19.67.67,0,0,0-.23.27,1.6,1.6,0,0,0,0,.44v3.58a1.66,1.66,0,0,0,0,.44.71.71,0,0,0,.23.26,1,1,0,0,0,.3.19,2,2,0,0,0,.49,0h5.11a1.58,1.58,0,0,1,1,.46l.51.45a1.46,1.46,0,0,1,.52,1.13v4.76a1.46,1.46,0,0,1-.52,1.13l-.51.46a1.62,1.62,0,0,1-1,.45h-6.12a1.64,1.64,0,0,1-1-.45l-.51-.46a1.42,1.42,0,0,1-.51-1.13v-.91h1.8v.43a1.71,1.71,0,0,0,0,.45.78.78,0,0,0,.22.26,1.17,1.17,0,0,0,.3.19,2,2,0,0,0,.49,0H347a2,2,0,0,0,.49,0,1.17,1.17,0,0,0,.3-.19.82.82,0,0,0,.23-.26,3.4,3.4,0,0,0,0-.45v-3.8a3.15,3.15,0,0,0,0-.44.65.65,0,0,0-.23-.26,1.21,1.21,0,0,0-.3-.2A2,2,0,0,0,347,359Z"/><path class="cls-4" d="M364.57,353.35h-1.8v-.43a1.6,1.6,0,0,0,0-.44.67.67,0,0,0-.23-.27,1.17,1.17,0,0,0-.3-.19,2,2,0,0,0-.49,0h-5.3a2.1,2.1,0,0,0-.5,0,1.17,1.17,0,0,0-.3.19.73.73,0,0,0-.22.27,1.6,1.6,0,0,0,0,.44v10.82a1.71,1.71,0,0,0,0,.45.78.78,0,0,0,.22.26,1.17,1.17,0,0,0,.3.19,2.1,2.1,0,0,0,.5,0h5.31a2,2,0,0,0,.49,0,1.17,1.17,0,0,0,.3-.19.82.82,0,0,0,.23-.26,3.4,3.4,0,0,0,0-.45v-.43h1.8v.91a1.46,1.46,0,0,1-.52,1.13l-.51.46a1.62,1.62,0,0,1-1,.45h-6.9a1.59,1.59,0,0,1-1-.45l-.51-.46a1.42,1.42,0,0,1-.51-1.13V352.44a1.42,1.42,0,0,1,.51-1.13l.51-.44a1.55,1.55,0,0,1,1-.46h6.89a1.58,1.58,0,0,1,1,.46l.51.45a1.46,1.46,0,0,1,.52,1.13Z"/><path class="cls-4" d="M369.81,350.4h7.83a1.57,1.57,0,0,1,1,.47l.51.45a1.46,1.46,0,0,1,.52,1.13v11.78a1.46,1.46,0,0,1-.52,1.13l-.51.45a1.58,1.58,0,0,1-1,.46h-7.83a1.58,1.58,0,0,1-1-.46l-.5-.46a1.46,1.46,0,0,1-.52-1.13V352.44a1.46,1.46,0,0,1,.52-1.13l.51-.45A1.55,1.55,0,0,1,369.81,350.4Zm8.09,13.34V352.92a2.12,2.12,0,0,0,0-.44.75.75,0,0,0-.23-.27,1.17,1.17,0,0,0-.3-.19,2,2,0,0,0-.49,0H370.6a2,2,0,0,0-.49,0,1.17,1.17,0,0,0-.3.19.64.64,0,0,0-.22.27,2.12,2.12,0,0,0,0,.44v10.82a2.28,2.28,0,0,0,0,.45.78.78,0,0,0,.22.26,1.17,1.17,0,0,0,.3.19,2,2,0,0,0,.49,0h6.25a2,2,0,0,0,.49,0,1.17,1.17,0,0,0,.3-.19.82.82,0,0,0,.23-.26A2.27,2.27,0,0,0,377.9,363.74Z"/><path class="cls-4" d="M395.19,366.26l-3.13-13.64-.1-.56h-.09l-.11.56-3.06,13.64h-2.52l-4-15.86h1.9l3.21,14,.11.58h.11l.08-.58,3.16-14h2.38l3.25,14,.13.56h.09l.08-.56,3.11-14h1.9l-4,15.85Z"/><path class="cls-4" d="M321.87,325.89a4.05,4.05,0,0,1-1.13-2.82V226h-1.17v97.09a4.09,4.09,0,0,1-1.14,2.82,2.68,2.68,0,0,0,0,3.65,2.34,2.34,0,0,0,3.45,0,2.69,2.69,0,0,0,0-3.65Zm-1.72,3.17a1.32,1.32,0,0,1-1.27-1.35v-.16a.25.25,0,0,1,0-.08.29.29,0,0,1,0-.09.13.13,0,0,1,0-.06c0-.05,0-.1.05-.14a.09.09,0,0,1,0-.05,1,1,0,0,1,0-.1s0,0,0,0l.09-.13h0l.1-.11,0,0,.1-.09h0a.55.55,0,0,1,.14-.09h0a1.2,1.2,0,0,1,1.16,0h0a.42.42,0,0,1,.14.09h0l.1.09,0,0,.1.11h0l.09.13,0,0,0,.1,0,.05s0,.09,0,.13v.07s0,.06,0,.09,0,0,0,.08a.34.34,0,0,1,0,.1v.06a1.32,1.32,0,0,1-1.23,1.35Z"/><path class="cls-4" d="M318.94,327.32a.78.78,0,0,1,.05-.14A.78.78,0,0,0,318.94,327.32Z"/><path class="cls-4" d="M319.17,326.86l.11-.12Z"/><path class="cls-4" d="M319.08,327l.09-.13Z"/><path class="cls-4" d="M318.89,327.65v0Z"/><path class="cls-4" d="M319,327.13l.05-.1Z"/><path class="cls-4" d="M318.9,327.48s0-.06,0-.09S318.91,327.45,318.9,327.48Z"/><path class="cls-4" d="M321.32,327.18l.05.14Z"/><path class="cls-4" d="M321.38,327.39s0,.06,0,.09A.29.29,0,0,0,321.38,327.39Z"/><path class="cls-4" d="M321.25,327a.47.47,0,0,0,.05.1A.31.31,0,0,1,321.25,327Z"/><path class="cls-4" d="M321.41,327.57v.09A.14.14,0,0,0,321.41,327.57Z"/><path class="cls-4" d="M320.74,326.52l.14.09Z"/><path class="cls-4" d="M319.43,326.6a.57.57,0,0,1,.13-.08A.57.57,0,0,0,319.43,326.6Z"/><path class="cls-4" d="M319.3,326.71l.11-.08Z"/><path class="cls-4" d="M321,326.74l.1.12Z"/><path class="cls-4" d="M321.13,326.86l.09.13Z"/><path class="cls-4" d="M320.9,326.63l.1.08Z"/><path class="cls-4" d="M306.94,255.17a2.55,2.55,0,0,0-2.13,2.86,2.61,2.61,0,0,0,.7,1.53,4.08,4.08,0,0,1,1.14,2.81v62.4a6.4,6.4,0,0,1-6.21,6.57h-9.89a3.66,3.66,0,0,1-2.66-1.21,2.35,2.35,0,0,0-3.45,0,2.69,2.69,0,0,0,0,3.65,2.34,2.34,0,0,0,3.45,0h0a3.65,3.65,0,0,1,2.65-1.2h9.89a7.6,7.6,0,0,0,7.38-7.8h0v-62.4a4,4,0,0,1,1.13-2.81,2.69,2.69,0,0,0,0-3.65,2.37,2.37,0,0,0-2-.74Zm-19.85,77.7a1.37,1.37,0,0,1-.25.23h0l-.13.07h0l-.16.06h0l-.13,0H286a1.33,1.33,0,0,1-1.14-1.35h0a1.33,1.33,0,0,1,1.17-1.33h.31l.13,0h0l.16.06h0l.13.08h0a1,1,0,0,1,.25.22h0a1.39,1.39,0,0,1,0,1.83Zm20.13-73.78a1.36,1.36,0,1,1,1.29-1.36h0A1.32,1.32,0,0,1,307.22,259.09Z"/><path class="cls-4" d="M286.68,333.19l-.16.06Z"/><path class="cls-4" d="M287.09,332.87a1.37,1.37,0,0,1-.25.23A1.37,1.37,0,0,0,287.09,332.87Z"/><path class="cls-4" d="M286.82,333.11l-.13.07Z"/><path class="cls-4" d="M286.5,333.25l-.13,0Z"/><path class="cls-4" d="M286.16,330.61l.17,0Z"/><path class="cls-4" d="M286.52,330.67l.16.06Z"/><path class="cls-4" d="M286.37,330.63l.13,0Z"/><path class="cls-4" d="M286.69,330.73l.13.08Z"/><path class="cls-4" d="M286.06,330.62a1.33,1.33,0,0,0-1.17,1.33A1.33,1.33,0,0,1,286.06,330.62Z"/><path class="cls-4" d="M286.33,333.29h0Z"/><path class="cls-4" d="M284.89,332h0a1.34,1.34,0,0,0,1.14,1.35A1.34,1.34,0,0,1,284.89,332Z"/><path class="cls-4" d="M286.84,330.82a1.31,1.31,0,0,1,.25.22A1.31,1.31,0,0,0,286.84,330.82Z"/><path class="cls-4" d="M356.73,331.66a2.47,2.47,0,0,0-2.7-2.26,2.32,2.32,0,0,0-1.45.74,3.65,3.65,0,0,1-2.65,1.2H340a6.4,6.4,0,0,1-6.21-6.57V262.38a4.11,4.11,0,0,1,1.14-2.82,2.68,2.68,0,0,0,0-3.64,2.33,2.33,0,0,0-3.44,0,2.68,2.68,0,0,0,0,3.65h0a4.08,4.08,0,0,1,1.13,2.81v62.4a7.59,7.59,0,0,0,7.38,7.8h9.89a3.65,3.65,0,0,1,2.65,1.2,2.34,2.34,0,0,0,3.45,0,2.72,2.72,0,0,0,.7-2.12ZM332,257.73a1.28,1.28,0,1,1,1.27,1.35A1.31,1.31,0,0,1,332,257.73ZM355.57,332a1.32,1.32,0,0,1-1.13,1.35h-.14l-.16,0h0l-.13,0h0l-.15-.06h0a.57.57,0,0,1-.13-.08h0a1.78,1.78,0,0,1-.26-.22h0a1.41,1.41,0,0,1,0-1.83h0a1.78,1.78,0,0,1,.26-.22h0a.57.57,0,0,1,.13-.08h0l.15-.06h0l.13,0h.3a1.3,1.3,0,0,1,1.17,1.33h0Z"/><path class="cls-4" d="M354.1,333.28l-.13,0Z"/><path class="cls-4" d="M353.94,333.25l-.15-.06Z"/><path class="cls-4" d="M355.57,332a1.3,1.3,0,0,0-1.17-1.33A1.3,1.3,0,0,1,355.57,332Z"/><path class="cls-4" d="M353.37,331a1.78,1.78,0,0,1,.26-.22A1.78,1.78,0,0,0,353.37,331Z"/><path class="cls-4" d="M354.3,333.3h0Z"/><path class="cls-4" d="M354.44,333.3a1.32,1.32,0,0,0,1.13-1.35h0A1.32,1.32,0,0,1,354.44,333.3Z"/><path class="cls-4" d="M353.79,330.73l.15-.06Z"/><path class="cls-4" d="M354.14,330.63l.16,0Z"/><path class="cls-4" d="M353.63,333.1a1.86,1.86,0,0,1-.26-.23A1.86,1.86,0,0,0,353.63,333.1Z"/><path class="cls-4" d="M353.65,330.81l.13-.08Z"/><path class="cls-4" d="M353.78,333.18l-.13-.07Z"/><path class="cls-4" d="M354,330.66l.13,0Z"/><path class="cls-4" d="M364.17,339.1a2.51,2.51,0,0,0-2.13-2.26,2.34,2.34,0,0,0-2,.74,3.64,3.64,0,0,1-2.67,1.2H339.48c-7.06,0-12.79-6.06-12.79-13.53h0V243.88a4.09,4.09,0,0,1,1.14-2.82,2.69,2.69,0,0,0,0-3.65,2.35,2.35,0,0,0-3.45,0,2.68,2.68,0,0,0,0,3.65h0a4,4,0,0,1,1.13,2.81v81.37c0,8.16,6.25,14.78,14,14.78h17.88a3.67,3.67,0,0,1,2.66,1.2,2.34,2.34,0,0,0,3.44,0,2.7,2.7,0,0,0,.71-2.13Zm-38.65-98.68h0a1.37,1.37,0,0,1-.54-1.81,1.24,1.24,0,0,1,1.71-.58,1.38,1.38,0,0,1,.55,1.81,1.24,1.24,0,0,1-.55.58h0A1.17,1.17,0,0,1,325.52,240.42Zm36.23,100.34a1.35,1.35,0,1,1,1.28-1.35h0a1.32,1.32,0,0,1-1.28,1.34Z"/><path class="cls-4" d="M314.08,236.67a2.55,2.55,0,0,0-2.14,2.85,2.67,2.67,0,0,0,.7,1.54,4.08,4.08,0,0,1,1.14,2.81v81.37c0,7.48-5.73,13.54-12.79,13.54H283.1a3.67,3.67,0,0,1-2.66-1.2,2.34,2.34,0,0,0-2-.74,2.54,2.54,0,0,0-2.14,2.86,2.49,2.49,0,0,0,2.42,2.28,2.38,2.38,0,0,0,1.73-.77,3.65,3.65,0,0,1,2.65-1.2H301c7.71,0,14-6.62,14-14.78h0V243.88a4.09,4.09,0,0,1,1.14-2.82,2.68,2.68,0,0,0,0-3.64,2.35,2.35,0,0,0-2-.75ZM278.72,340.75a1.35,1.35,0,1,1,1.27-1.34,1.31,1.31,0,0,1-1.27,1.34Zm35.64-100.17a1.35,1.35,0,1,1,1.27-1.34A1.31,1.31,0,0,1,314.36,240.58Z"/><path class="cls-6" d="M322.71,222.59l-1.9-1.27.06,2.4H319.6l.07-2.4-1.9,1.27-.63-1.19,2-1.12-2-1.14.63-1.18,1.9,1.26-.07-2.38h1.28l-.07,2.38,1.9-1.26.64,1.18-2,1.14,2,1.12Z"/></g><g class="cls-2"><path class="cls-3" d="M692.5,261.85V398.22H821.34V261.85Zm39,97.24a.85.85,0,0,1,0-1.69.85.85,0,0,1,0,1.69Zm4.65-4.66a.84.84,0,1,1,.8-.84.82.82,0,0,1-.8.84Zm13.15-46.34a.85.85,0,1,1,.8-.85h0A.83.83,0,0,1,749.25,308.09Zm4.46-11.57a.84.84,0,1,1,.8-.84.82.82,0,0,1-.8.84Zm3.62,55.26a.84.84,0,0,1,0-1.68.84.84,0,0,1,0,1.68Zm3.72-55.26a.84.84,0,0,1,0-1.67.84.84,0,0,1,0,1.67Zm4.45,11.56a.85.85,0,1,1,.8-.84.82.82,0,0,1-.8.84Zm13.16,46.35a.84.84,0,0,1,0-1.68.84.84,0,0,1,0,1.68Zm4.65,4.66a.85.85,0,0,1,0-1.69.85.85,0,0,1,0,1.69Z"/><path class="cls-3" d="M783.31,357.39a.85.85,0,1,0,.79.84A.82.82,0,0,0,783.31,357.39Z"/><ellipse class="cls-3" cx="778.65" cy="353.59" rx="0.79" ry="0.84"/><ellipse class="cls-3" cx="765.5" cy="307.24" rx="0.8" ry="0.84"/><path class="cls-3" d="M761.05,294.85a.84.84,0,0,0,0,1.68.83.83,0,0,0,.81-.83v0a.81.81,0,0,0-.79-.83Z"/><path class="cls-3" d="M753.71,294.84a.85.85,0,1,0,.8.84A.82.82,0,0,0,753.71,294.84Z"/><path class="cls-3" d="M757.33,350.1a.84.84,0,0,0,0,1.68.84.84,0,0,0,0-1.68Z"/><ellipse class="cls-3" cx="736.1" cy="353.59" rx="0.79" ry="0.84"/><path class="cls-3" d="M731.45,357.39a.85.85,0,1,0,.79.84A.82.82,0,0,0,731.45,357.39Z"/><path class="cls-3" d="M749.25,306.39a.85.85,0,1,0,.8.85h0A.83.83,0,0,0,749.25,306.39Z"/><path class="cls-4" d="M713.77,365.11h1.13V375h-1.13v-4.59h-4.86V375h-1.12v-9.9h1.12v4.39h4.86Z"/><path class="cls-4" d="M716.9,375l3.21-9.9h1.58L725,375h-1.12l-.7-2h-4.45l-.67,2Zm4-9.05h0a1.43,1.43,0,0,1-.09.41L719,372h3.89L721,366.37a1.17,1.17,0,0,1-.1-.41Z"/><path class="cls-4" d="M733.83,367h-1.12v-.27a1.23,1.23,0,0,0,0-.27.39.39,0,0,0-.14-.17.76.76,0,0,0-.19-.12,1.56,1.56,0,0,0-.31,0h-3.31a1.62,1.62,0,0,0-.31,0,.71.71,0,0,0-.18.12.39.39,0,0,0-.14.17.82.82,0,0,0,0,.27v6.76a.86.86,0,0,0,0,.28.36.36,0,0,0,.14.16.71.71,0,0,0,.18.12,1.08,1.08,0,0,0,.31,0h3.31a1.06,1.06,0,0,0,.31,0,.76.76,0,0,0,.19-.12.36.36,0,0,0,.14-.16,1.27,1.27,0,0,0,0-.28v-.27h1.12v.57a.87.87,0,0,1-.32.71l-.32.28a1,1,0,0,1-.64.28h-4.3a1,1,0,0,1-.65-.28l-.32-.28a.93.93,0,0,1-.32-.71v-7.36a.93.93,0,0,1,.32-.7l.32-.29a1,1,0,0,1,.65-.28h4.3a1,1,0,0,1,.64.28l.32.29a.86.86,0,0,1,.32.7Z"/><path class="cls-4" d="M735.82,365.11H737v4.39h1.44l2-3.44a1.59,1.59,0,0,1,.48-.55l.25-.19a1.83,1.83,0,0,1,.3-.18l.33,0h.29v.55a1.12,1.12,0,0,1,0,.41.7.7,0,0,1-.28.23l-.14.08a2,2,0,0,0-.28.2,2.18,2.18,0,0,0-.22.31l-1.6,2.75c-.14.23-.25.35-.34.35v.06c.09,0,.2.11.34.34l1.69,2.84a1.69,1.69,0,0,0,.21.31,1.87,1.87,0,0,0,.29.2l.15.08a.89.89,0,0,1,.28.23,1.39,1.39,0,0,1,0,.41V375h-.38a.85.85,0,0,1-.32,0,.92.92,0,0,1-.3-.18l-.26-.18a2.91,2.91,0,0,1-.27-.24,1.85,1.85,0,0,1-.21-.33l-2.08-3.56H737V375h-1.13Z"/><path class="cls-5" d="M745.24,374.2v.32a1.15,1.15,0,0,1,0,.26.26.26,0,0,1-.11.14c-.06.07-.19.1-.39.1h-.06a.61.61,0,0,1-.42-.1.62.62,0,0,1-.11-.4v-.32a1.14,1.14,0,0,1,0-.26.28.28,0,0,1,.1-.14.62.62,0,0,1,.41-.1h.05a.67.67,0,0,1,.42.1A.55.55,0,0,1,745.24,374.2Z"/><path class="cls-4" d="M748.5,366h0a2.24,2.24,0,0,1,.1.68V375h-1.12v-9.9h1.81l2.86,7.91a1,1,0,0,1,.08.39h.06a1,1,0,0,1,.08-.39l2.87-7.91H757V375h-1.12v-8.36A2.59,2.59,0,0,1,756,366h0L752.65,375h-.86c-.41-1.06-.8-2.1-1.17-3.1s-.67-1.83-.91-2.51-.45-1.26-.63-1.78l-.42-1.19C748.57,366.14,748.51,366,748.5,366Z"/><path class="cls-4" d="M761,365.11h4.89a1,1,0,0,1,.64.28l.33.29a.93.93,0,0,1,.32.7v7.36a.93.93,0,0,1-.32.71l-.32.28a1,1,0,0,1-.65.28H761a1,1,0,0,1-.64-.28l-.33-.28a.9.9,0,0,1-.32-.71v-7.36a.89.89,0,0,1,.32-.7l.32-.28A1,1,0,0,1,761,365.11Zm5,8.33v-6.76a.82.82,0,0,0,0-.27.39.39,0,0,0-.14-.17.76.76,0,0,0-.19-.12,1.51,1.51,0,0,0-.3,0h-3.91a1.51,1.51,0,0,0-.3,0,.76.76,0,0,0-.19.12.39.39,0,0,0-.14.17.82.82,0,0,0,0,.27v6.76a.86.86,0,0,0,0,.28.36.36,0,0,0,.14.16.76.76,0,0,0,.19.12,1,1,0,0,0,.3,0h3.91a1,1,0,0,0,.3,0,.76.76,0,0,0,.19-.12.36.36,0,0,0,.14-.16A1.27,1.27,0,0,0,766,373.44Z"/><path class="cls-4" d="M774.08,370.49h-3.19a.93.93,0,0,1-.64-.29l-.36-.32a.73.73,0,0,1-.29-.57v-2.93a.9.9,0,0,1,.33-.7l.32-.29a1,1,0,0,1,.64-.28h3.55a1,1,0,0,1,.64.28l.32.29a.9.9,0,0,1,.33.7V367H774.6v-.27a.82.82,0,0,0,0-.27.39.39,0,0,0-.14-.17.71.71,0,0,0-.18-.12,1.67,1.67,0,0,0-.31,0h-2.57a1.51,1.51,0,0,0-.3,0,.62.62,0,0,0-.19.12.39.39,0,0,0-.14.17.82.82,0,0,0,0,.27v2.24a.82.82,0,0,0,0,.27.46.46,0,0,0,.14.17.62.62,0,0,0,.19.12l.3,0h3.2a1,1,0,0,1,.64.28l.32.28a.93.93,0,0,1,.32.71v3a.93.93,0,0,1-.32.71l-.32.28a1,1,0,0,1-.64.28h-3.83a1,1,0,0,1-.64-.28l-.32-.28a.93.93,0,0,1-.32-.71v-.57h1.12v.27a2.46,2.46,0,0,0,0,.28.56.56,0,0,0,.14.16.76.76,0,0,0,.19.12,1.08,1.08,0,0,0,.31,0h2.83a1.08,1.08,0,0,0,.31,0,.76.76,0,0,0,.19-.12.44.44,0,0,0,.14-.16,2.46,2.46,0,0,0,0-.28v-2.37a2.46,2.46,0,0,0,0-.28.44.44,0,0,0-.14-.16.76.76,0,0,0-.19-.12A1.08,1.08,0,0,0,774.08,370.49Z"/><path class="cls-4" d="M785.07,367h-1.13v-.27a.82.82,0,0,0,0-.27.39.39,0,0,0-.14-.17.71.71,0,0,0-.18-.12,1.67,1.67,0,0,0-.31,0H780a1.51,1.51,0,0,0-.3,0,.76.76,0,0,0-.19.12.39.39,0,0,0-.14.17,1.23,1.23,0,0,0,0,.27v6.76a1.27,1.27,0,0,0,0,.28.36.36,0,0,0,.14.16.76.76,0,0,0,.19.12,1,1,0,0,0,.3,0h3.32a1.06,1.06,0,0,0,.31,0,.76.76,0,0,0,.19-.12.36.36,0,0,0,.14-.16,1.27,1.27,0,0,0,0-.28v-.27h1.12v.57a.9.9,0,0,1-.32.71l-.32.28a1,1,0,0,1-.64.28h-4.31a1,1,0,0,1-.64-.28l-.32-.28a.93.93,0,0,1-.32-.71v-7.36a.93.93,0,0,1,.32-.7l.32-.28a1,1,0,0,1,.64-.28h4.3a1,1,0,0,1,.65.28l.32.28a.91.91,0,0,1,.32.71Z"/><path class="cls-4" d="M788.34,365.11h4.89a1,1,0,0,1,.64.29l.32.28a.87.87,0,0,1,.32.71v7.36a.86.86,0,0,1-.32.7l-.32.29a1,1,0,0,1-.64.28h-4.89a1,1,0,0,1-.64-.28l-.32-.29a.93.93,0,0,1-.32-.71v-7.36a.93.93,0,0,1,.32-.7l.32-.29A1,1,0,0,1,788.34,365.11Zm5,8.33v-6.76a.82.82,0,0,0,0-.27.39.39,0,0,0-.14-.17.62.62,0,0,0-.19-.12,1.51,1.51,0,0,0-.3,0h-3.91a1.51,1.51,0,0,0-.3,0,.76.76,0,0,0-.19.12.39.39,0,0,0-.14.17,1.23,1.23,0,0,0,0,.27v6.76a1.27,1.27,0,0,0,0,.28.43.43,0,0,0,.14.16.76.76,0,0,0,.19.12,1,1,0,0,0,.3,0h3.91a1,1,0,0,0,.3,0,.62.62,0,0,0,.19-.12.43.43,0,0,0,.14-.16A.86.86,0,0,0,793.39,373.44Z"/><path class="cls-4" d="M804.19,375l-2-8.51-.07-.36h0l-.07.36L800.14,375h-1.58l-2.51-9.9h1.19l2,8.71.07.36h.06l0-.36,2-8.71h1.48l2,8.71.08.35h.06l.05-.35,1.94-8.71h1.19l-2.51,9.9Z"/><path class="cls-4" d="M758.4,349.8a2.56,2.56,0,0,1-.71-1.76V287.41H757V348a2.51,2.51,0,0,1-.71,1.76,1.68,1.68,0,0,0,0,2.28,1.47,1.47,0,0,0,2.16,0,1.68,1.68,0,0,0,0-2.28Zm-1.07,2a.82.82,0,0,1-.8-.84v-.1a.09.09,0,0,1,0,0,.13.13,0,0,1,0-.06.08.08,0,0,1,0,0l0-.08v0l0-.06,0,0,.06-.08h0l.06-.07,0,0,.06-.05h0l.08-.06h0a.79.79,0,0,1,.73,0h0l.08.06h0l.07.05,0,0,.06.07h0l.05.08,0,0,0,.06,0,0,0,.08v0a.13.13,0,0,0,0,.06.09.09,0,0,0,0,0v.1a.83.83,0,0,1-.77.84Z"/><path class="cls-4" d="M756.57,350.7l0-.09Z"/><path class="cls-4" d="M756.71,350.41l.07-.08Z"/><path class="cls-4" d="M756.66,350.49l.05-.08Z"/><path class="cls-4" d="M756.54,350.9v0Z"/><path class="cls-4" d="M756.61,350.58l0-.07Z"/><path class="cls-4" d="M756.55,350.79a.07.07,0,0,1,0-.05A.07.07,0,0,0,756.55,350.79Z"/><path class="cls-4" d="M758.05,350.61a.13.13,0,0,1,0,.08A.13.13,0,0,0,758.05,350.61Z"/><path class="cls-4" d="M758.1,350.74a.09.09,0,0,0,0,.05A.09.09,0,0,1,758.1,350.74Z"/><path class="cls-4" d="M758,350.51l0,.07Z"/><path class="cls-4" d="M758.11,350.85v.06S758.12,350.86,758.11,350.85Z"/><path class="cls-4" d="M757.7,350.2l.08.05Z"/><path class="cls-4" d="M756.87,350.25l.09-.06Z"/><path class="cls-4" d="M756.8,350.32l.06-.06Z"/><path class="cls-4" d="M757.87,350.33l.07.08Z"/><path class="cls-4" d="M757.94,350.41a.22.22,0,0,1,0,.08A.22.22,0,0,0,757.94,350.41Z"/><path class="cls-4" d="M757.79,350.26l.07.06Z"/><path class="cls-4" d="M749.08,305.64a1.59,1.59,0,0,0-1.34,1.78,1.65,1.65,0,0,0,.44.95,2.55,2.55,0,0,1,.71,1.76v39a4,4,0,0,1-3.87,4.1h-6.18a2.23,2.23,0,0,1-1.66-.75,1.47,1.47,0,0,0-2.16,0,1.68,1.68,0,0,0,0,2.28,1.46,1.46,0,0,0,2.15,0h0a2.22,2.22,0,0,1,1.65-.75H745a4.76,4.76,0,0,0,4.61-4.88h0v-39a2.51,2.51,0,0,1,.71-1.75,1.69,1.69,0,0,0,0-2.28,1.46,1.46,0,0,0-1.25-.46Zm-12.4,48.52a.7.7,0,0,1-.16.14h0l-.08.05h0l-.1,0H736a.82.82,0,0,1-.71-.84h0a.81.81,0,0,1,.73-.83h.19l.08,0h0l.1,0h0l.08.05h0a.7.7,0,0,1,.16.14h0a.88.88,0,0,1,0,1.14Zm12.57-46.07a.85.85,0,1,1,.8-.85h0A.83.83,0,0,1,749.25,308.09Z"/><path class="cls-4" d="M736.42,354.36l-.1,0Z"/><path class="cls-4" d="M736.68,354.16a.7.7,0,0,1-.16.14A.7.7,0,0,0,736.68,354.16Z"/><path class="cls-4" d="M736.51,354.31l-.08.05Z"/><path class="cls-4" d="M736.31,354.4l-.08,0Z"/><path class="cls-4" d="M736.1,352.75h0Z"/><path class="cls-4" d="M736.32,352.79l.1,0Z"/><path class="cls-4" d="M736.23,352.76l.08,0Z"/><path class="cls-4" d="M736.43,352.83l.08,0Z"/><path class="cls-4" d="M736,352.76a.81.81,0,0,0-.73.83A.81.81,0,0,1,736,352.76Z"/><path class="cls-4" d="M736.2,354.42h0Z"/><path class="cls-4" d="M735.31,353.59h0a.81.81,0,0,0,.71.84A.81.81,0,0,1,735.31,353.59Z"/><path class="cls-4" d="M736.52,352.88a1.07,1.07,0,0,1,.16.14A1.07,1.07,0,0,0,736.52,352.88Z"/><path class="cls-4" d="M780.17,353.41a1.54,1.54,0,0,0-1.68-1.42,1.51,1.51,0,0,0-.91.46,2.29,2.29,0,0,1-1.66.76h-6.17a4,4,0,0,1-3.88-4.11v-39a2.51,2.51,0,0,1,.71-1.75,1.68,1.68,0,0,0,0-2.28,1.46,1.46,0,0,0-2.15,0,1.67,1.67,0,0,0,0,2.27h0a2.55,2.55,0,0,1,.71,1.75v39a4.75,4.75,0,0,0,4.61,4.88h6.17a2.24,2.24,0,0,1,1.66.75,1.46,1.46,0,0,0,2.15,0,1.69,1.69,0,0,0,.44-1.33Zm-15.46-46.17a.8.8,0,1,1,.79.84A.82.82,0,0,1,764.71,307.24Zm14.74,46.35a.83.83,0,0,1-.71.84h-.21l-.08,0h0l-.09,0h0l-.08,0h0a.57.57,0,0,1-.16-.15h0a.86.86,0,0,1,0-1.14h0a.73.73,0,0,1,.16-.14h0l.08,0h0l.09,0h0l.08,0h.18a.83.83,0,0,1,.74.84h0Z"/><path class="cls-4" d="M778.53,354.42l-.08,0Z"/><path class="cls-4" d="M778.43,354.4l-.09,0Z"/><path class="cls-4" d="M779.45,353.59a.81.81,0,0,0-.74-.83A.81.81,0,0,1,779.45,353.59Z"/><path class="cls-4" d="M778.08,353a.73.73,0,0,1,.16-.14A.73.73,0,0,0,778.08,353Z"/><path class="cls-4" d="M778.66,354.43h0Z"/><path class="cls-4" d="M778.74,354.43a.84.84,0,0,0,.71-.84h0A.84.84,0,0,1,778.74,354.43Z"/><path class="cls-4" d="M778.34,352.82l.09,0Z"/><path class="cls-4" d="M778.56,352.76h0Z"/><path class="cls-4" d="M778.24,354.3a.54.54,0,0,1-.16-.14A.54.54,0,0,0,778.24,354.3Z"/><path class="cls-4" d="M778.25,352.87l.08,0Z"/><path class="cls-4" d="M778.33,354.36l-.08-.05Z"/><path class="cls-4" d="M778.45,352.78l.08,0Z"/><path class="cls-4" d="M784.82,358.05a1.57,1.57,0,0,0-1.34-1.41,1.46,1.46,0,0,0-1.25.46,2.23,2.23,0,0,1-1.66.75H769.4a8.23,8.23,0,0,1-8-8.45h0V298.58a2.58,2.58,0,0,1,.71-1.76,1.68,1.68,0,0,0,0-2.28,1.47,1.47,0,0,0-2.16,0,1.68,1.68,0,0,0,0,2.28h0a2.53,2.53,0,0,1,.71,1.76V349.4a9,9,0,0,0,8.72,9.22h11.17a2.31,2.31,0,0,1,1.66.76,1.46,1.46,0,0,0,2.15,0,1.69,1.69,0,0,0,.44-1.33Zm-24.14-61.63h0a.86.86,0,0,1-.34-1.13.78.78,0,0,1,1.07-.36.86.86,0,0,1,.34,1.13.74.74,0,0,1-.34.36h0A.73.73,0,0,1,760.68,296.42Zm22.63,62.67a.85.85,0,0,1,0-1.69.82.82,0,0,1,.79.84h0a.82.82,0,0,1-.79.85Z"/><path class="cls-4" d="M753.54,294.08a1.58,1.58,0,0,0-1.34,1.78,1.64,1.64,0,0,0,.44,1,2.6,2.6,0,0,1,.71,1.76V349.4a8.23,8.23,0,0,1-8,8.45H734.19a2.26,2.26,0,0,1-1.67-.75,1.43,1.43,0,0,0-1.24-.46,1.59,1.59,0,0,0-1.34,1.79,1.55,1.55,0,0,0,1.51,1.42,1.45,1.45,0,0,0,1.08-.48,2.24,2.24,0,0,1,1.66-.75h11.17a9,9,0,0,0,8.72-9.23h0V298.58a2.55,2.55,0,0,1,.71-1.76,1.67,1.67,0,0,0,0-2.27,1.49,1.49,0,0,0-1.25-.47Zm-22.09,65a.85.85,0,0,1,0-1.69.85.85,0,0,1,0,1.69Zm22.26-62.57a.84.84,0,1,1,.8-.84A.82.82,0,0,1,753.71,296.52Z"/><path class="cls-6" d="M758.92,285.28l-1.18-.78,0,1.49H757l0-1.49-1.18.78-.4-.74,1.23-.69-1.23-.72.39-.74,1.19.79,0-1.48h.79l0,1.48,1.19-.79.4.74-1.23.71,1.23.7Z"/></g><g class="cls-2"><path class="cls-3" d="M453.81,184.57V402.93H660.1V184.57Zm62.36,155.7a1.35,1.35,0,1,1,1.27-1.35,1.31,1.31,0,0,1-1.27,1.35Zm7.44-7.45a1.35,1.35,0,1,1,1.28-1.35,1.32,1.32,0,0,1-1.28,1.35Zm21.06-74.21a1.36,1.36,0,1,1,1.29-1.36h0A1.33,1.33,0,0,1,544.67,258.61Zm7.14-18.51a1.35,1.35,0,1,1,1.27-1.35,1.32,1.32,0,0,1-1.27,1.35Zm5.79,88.47a1.35,1.35,0,1,1,1.27-1.35,1.31,1.31,0,0,1-1.27,1.35Zm6-88.48a1.34,1.34,0,1,1,1.26-1.35,1.31,1.31,0,0,1-1.26,1.35Zm7.14,18.51a1.35,1.35,0,1,1,1.27-1.35,1.32,1.32,0,0,1-1.27,1.35Zm21,74.22a1.35,1.35,0,1,1,1.28-1.35A1.32,1.32,0,0,1,591.75,332.82Zm7.45,7.45a1.35,1.35,0,1,1,1.27-1.35,1.31,1.31,0,0,1-1.27,1.35Z"/><path class="cls-3" d="M599.2,337.56a1.35,1.35,0,1,0,1.27,1.35A1.31,1.31,0,0,0,599.2,337.56Z"/><ellipse class="cls-3" cx="591.75" cy="331.46" rx="1.27" ry="1.34"/><ellipse class="cls-3" cx="570.7" cy="257.25" rx="1.27" ry="1.35"/><path class="cls-3" d="M563.56,237.41a1.35,1.35,0,0,0,0,2.7,1.31,1.31,0,0,0,1.28-1.34v0a1.31,1.31,0,0,0-1.26-1.34Z"/><path class="cls-3" d="M551.81,237.41a1.35,1.35,0,1,0,1.27,1.34A1.31,1.31,0,0,0,551.81,237.41Z"/><path class="cls-3" d="M557.6,325.88a1.35,1.35,0,1,0,1.27,1.35A1.32,1.32,0,0,0,557.6,325.88Z"/><ellipse class="cls-3" cx="523.62" cy="331.47" rx="1.27" ry="1.34"/><path class="cls-3" d="M516.17,337.56a1.35,1.35,0,1,0,1.27,1.35A1.31,1.31,0,0,0,516.17,337.56Z"/><path class="cls-3" d="M544.67,255.89a1.36,1.36,0,1,0,1.29,1.36h0A1.33,1.33,0,0,0,544.67,255.89Z"/><path class="cls-4" d="M487.87,349.92h1.79v15.85h-1.79v-7.36h-7.79v7.36h-1.8V349.92h1.8v7h7.79Z"/><path class="cls-4" d="M492.87,365.77,498,349.92h2.52l5.25,15.85H504l-1.12-3.27h-7.12l-1.07,3.27Zm6.44-14.49h-.08a1.81,1.81,0,0,1-.15.65L496.19,361h6.22l-3-9.09a1.81,1.81,0,0,1-.15-.65Z"/><path class="cls-4" d="M520,352.86h-1.79v-.43a2.18,2.18,0,0,0,0-.44.63.63,0,0,0-.22-.26,1,1,0,0,0-.3-.19,2.7,2.7,0,0,0-.49,0h-5.31a2.7,2.7,0,0,0-.49,0,1,1,0,0,0-.3.19.65.65,0,0,0-.23.26,2.17,2.17,0,0,0,0,.44v10.83a2.17,2.17,0,0,0,0,.44.65.65,0,0,0,.23.26,1,1,0,0,0,.3.19,2,2,0,0,0,.49,0h5.31a2,2,0,0,0,.49,0,1,1,0,0,0,.3-.19.63.63,0,0,0,.22-.26,2.18,2.18,0,0,0,0-.44v-.43H520v.9a1.42,1.42,0,0,1-.51,1.13l-.51.46a1.64,1.64,0,0,1-1,.45H511a1.62,1.62,0,0,1-1-.45l-.51-.46a1.46,1.46,0,0,1-.52-1.13V352a1.48,1.48,0,0,1,.52-1.14l.51-.45a1.62,1.62,0,0,1,1-.45h6.89a1.64,1.64,0,0,1,1,.45l.51.45A1.44,1.44,0,0,1,520,352Z"/><path class="cls-4" d="M523.17,349.92H525v7h2.31l3.23-5.51a2.61,2.61,0,0,1,.77-.88l.41-.29a2.15,2.15,0,0,1,.48-.3,2.28,2.28,0,0,1,.52,0h.47v.88a1.85,1.85,0,0,1-.06.66,1.3,1.3,0,0,1-.45.36l-.24.14a2.26,2.26,0,0,0-.45.31,5.5,5.5,0,0,0-.34.5l-2.57,4.4c-.21.37-.39.56-.53.56v.09c.14,0,.32.18.53.55l2.72,4.55a2.41,2.41,0,0,0,.33.5,3.37,3.37,0,0,0,.46.31l.24.14a1.2,1.2,0,0,1,.45.36,1.83,1.83,0,0,1,.06.66v.88h-.6a2.28,2.28,0,0,1-.52,0,2.41,2.41,0,0,1-.48-.3l-.41-.29a3.08,3.08,0,0,1-.43-.38,4.79,4.79,0,0,1-.34-.53l-3.34-5.71H525v7.25h-1.8Z"/><path class="cls-5" d="M538.26,364.46V365a3,3,0,0,1,0,.43.54.54,0,0,1-.17.22.87.87,0,0,1-.63.16h-.1a1,1,0,0,1-.67-.16,1,1,0,0,1-.17-.64v-.51a3,3,0,0,1,0-.42.52.52,0,0,1,.17-.22,1,1,0,0,1,.65-.16h.08a1,1,0,0,1,.67.16A1,1,0,0,1,538.26,364.46Z"/><path class="cls-4" d="M543.48,351.28l-.07,0a4,4,0,0,1,.15,1.09v13.38h-1.8V349.92h2.91l4.58,12.66a1.91,1.91,0,0,1,.13.63h.09a1.91,1.91,0,0,1,.13-.63l4.6-12.66h2.88v15.85h-1.79V352.39a4,4,0,0,1,.15-1.09l-.07,0-5.26,14.49h-1.37c-.66-1.7-1.28-3.36-1.87-5s-1.08-2.94-1.47-4-.72-2-1-2.85l-.67-1.92C543.58,351.57,543.49,351.32,543.48,351.28Z"/><path class="cls-4" d="M563.42,349.92h7.82a1.62,1.62,0,0,1,1,.45l.53.45a1.44,1.44,0,0,1,.51,1.14v11.77a1.42,1.42,0,0,1-.51,1.13l-.52.46a1.59,1.59,0,0,1-1,.45h-7.83a1.64,1.64,0,0,1-1-.45l-.52-.46a1.42,1.42,0,0,1-.51-1.13V352a1.44,1.44,0,0,1,.51-1.14l.51-.44A1.56,1.56,0,0,1,563.42,349.92Zm8.09,13.34V352.43a2.18,2.18,0,0,0,0-.44.63.63,0,0,0-.22-.26,1,1,0,0,0-.3-.19,2.7,2.7,0,0,0-.49,0h-6.25a2.63,2.63,0,0,0-.49,0,1,1,0,0,0-.3.19.58.58,0,0,0-.23.26,1.63,1.63,0,0,0,0,.44v10.83a1.63,1.63,0,0,0,0,.44.65.65,0,0,0,.23.26,1,1,0,0,0,.3.19,2,2,0,0,0,.49,0h6.25a2,2,0,0,0,.49,0,1,1,0,0,0,.3-.19.63.63,0,0,0,.22-.26A2.18,2.18,0,0,0,571.51,363.26Z"/><path class="cls-4" d="M584.43,358.52h-5.12a1.5,1.5,0,0,1-1-.45l-.58-.52a1.17,1.17,0,0,1-.45-.91V352a1.51,1.51,0,0,1,.51-1.14l.52-.45a1.59,1.59,0,0,1,1-.45H585a1.59,1.59,0,0,1,1,.45l.52.45a1.44,1.44,0,0,1,.51,1.14v.9h-1.8v-.43a1.63,1.63,0,0,0,0-.44.63.63,0,0,0-.22-.26,1,1,0,0,0-.3-.19,2.77,2.77,0,0,0-.49,0h-4.11a2.81,2.81,0,0,0-.5,0,1.08,1.08,0,0,0-.3.19.63.63,0,0,0-.22.26,1.63,1.63,0,0,0,0,.44V356a1.6,1.6,0,0,0,0,.44.63.63,0,0,0,.22.26,1.21,1.21,0,0,0,.3.2,2.8,2.8,0,0,0,.5,0h5.11a1.62,1.62,0,0,1,1,.45l.51.46a1.42,1.42,0,0,1,.51,1.13v4.75a1.42,1.42,0,0,1-.51,1.13l-.51.46a1.62,1.62,0,0,1-1,.45H579.1a1.62,1.62,0,0,1-1-.45l-.51-.46a1.42,1.42,0,0,1-.51-1.13v-.9h1.79v.43a2.18,2.18,0,0,0,0,.44.63.63,0,0,0,.22.26,1,1,0,0,0,.3.19,2.7,2.7,0,0,0,.49,0h4.54a2.7,2.7,0,0,0,.49,0,1,1,0,0,0,.3-.19.73.73,0,0,0,.23-.26,3.25,3.25,0,0,0,0-.44v-3.81a3.37,3.37,0,0,0,0-.44.83.83,0,0,0-.23-.26,1,1,0,0,0-.3-.19A2.7,2.7,0,0,0,584.43,358.52Z"/><path class="cls-4" d="M602,352.86h-1.8v-.43a1.63,1.63,0,0,0,0-.44.58.58,0,0,0-.23-.26,1,1,0,0,0-.3-.19,2.63,2.63,0,0,0-.49,0h-5.31a2.7,2.7,0,0,0-.49,0,1,1,0,0,0-.3.19.63.63,0,0,0-.22.26,1.63,1.63,0,0,0,0,.44v10.83a1.63,1.63,0,0,0,0,.44.63.63,0,0,0,.22.26,1,1,0,0,0,.3.19,2,2,0,0,0,.49,0h5.32a2,2,0,0,0,.49,0,1,1,0,0,0,.3-.19.73.73,0,0,0,.23-.26,3.25,3.25,0,0,0,0-.44v-.43H602v.9a1.42,1.42,0,0,1-.51,1.13l-.51.46a1.62,1.62,0,0,1-1,.45h-6.9a1.59,1.59,0,0,1-1-.45l-.51-.46a1.46,1.46,0,0,1-.52-1.13V352a1.48,1.48,0,0,1,.52-1.14l.51-.44a1.59,1.59,0,0,1,1-.45H600a1.54,1.54,0,0,1,1,.45l.51.45A1.44,1.44,0,0,1,602,352Z"/><path class="cls-4" d="M607.26,349.92h7.83a1.58,1.58,0,0,1,1,.46l.51.45a1.44,1.44,0,0,1,.51,1.14v11.77a1.42,1.42,0,0,1-.51,1.13l-.51.46a1.62,1.62,0,0,1-1,.45h-7.83a1.62,1.62,0,0,1-1-.45l-.5-.47a1.46,1.46,0,0,1-.52-1.13V352a1.48,1.48,0,0,1,.52-1.14l.51-.45A1.59,1.59,0,0,1,607.26,349.92Zm8.09,13.34V352.43a2.18,2.18,0,0,0,0-.44.56.56,0,0,0-.22-.26,1,1,0,0,0-.3-.19,2.7,2.7,0,0,0-.49,0h-6.25a2.7,2.7,0,0,0-.49,0,1,1,0,0,0-.3.19.65.65,0,0,0-.23.26,2.17,2.17,0,0,0,0,.44v10.83a2.17,2.17,0,0,0,0,.44.72.72,0,0,0,.23.26,1,1,0,0,0,.3.19,2,2,0,0,0,.49,0h6.25a2,2,0,0,0,.49,0,1,1,0,0,0,.3-.19.7.7,0,0,0,.22-.26A2.18,2.18,0,0,0,615.35,363.26Z"/><path class="cls-4" d="M632.64,365.77l-3.13-13.63-.11-.57h-.08l-.11.57-3.06,13.63h-2.52l-4-15.85h1.91l3.21,13.94.11.58h.11l.07-.58,3.17-13.95h2.38l3.25,13.95.13.57H634l.08-.57,3.1-13.95h1.91l-4,15.85Z"/><path class="cls-4" d="M559.32,325.4a4,4,0,0,1-1.13-2.81V225.5H557v97.09a4.08,4.08,0,0,1-1.14,2.81,2.69,2.69,0,0,0,0,3.65,2.35,2.35,0,0,0,3.46,0,2.71,2.71,0,0,0,0-3.66Zm-1.72,3.17a1.31,1.31,0,0,1-1.27-1.35v-.15a.19.19,0,0,1,0-.08.29.29,0,0,1,0-.09.17.17,0,0,1,0-.07l0-.14s0,0,0-.05l0-.1s0,0,0,0a.6.6,0,0,1,.09-.13h0l.1-.12,0,0,.1-.08,0,0L557,326h0a1.2,1.2,0,0,1,1.16,0h0l.14.09,0,0,.1.08,0,0,.1.12h0l.09.13,0,0,0,.1s0,0,0,.05l0,.14v.07a.29.29,0,0,0,0,.09s0,.05,0,.08,0,.06,0,.09v.06a1.31,1.31,0,0,1-1.23,1.35Z"/><path class="cls-4" d="M556.39,326.83s0-.09,0-.14S556.4,326.79,556.39,326.83Z"/><path class="cls-4" d="M556.62,326.37l.11-.12Z"/><path class="cls-4" d="M556.53,326.5l.09-.13Z"/><path class="cls-4" d="M556.33,327.17v-.1A.17.17,0,0,1,556.33,327.17Z"/><path class="cls-4" d="M556.46,326.65a.31.31,0,0,1,0-.1A.31.31,0,0,0,556.46,326.65Z"/><path class="cls-4" d="M556.35,327s0-.06,0-.09S556.36,327,556.35,327Z"/><path class="cls-4" d="M558.77,326.69c0,.05,0,.1,0,.14S558.78,326.74,558.77,326.69Z"/><path class="cls-4" d="M558.83,326.9a.29.29,0,0,0,0,.09S558.84,326.93,558.83,326.9Z"/><path class="cls-4" d="M558.69,326.55a.41.41,0,0,1,0,.09A.41.41,0,0,0,558.69,326.55Z"/><path class="cls-4" d="M558.86,327.08v.1A.32.32,0,0,0,558.86,327.08Z"/><path class="cls-4" d="M558.19,326l.14.08Z"/><path class="cls-4" d="M556.88,326.12A.6.6,0,0,1,557,326,.6.6,0,0,0,556.88,326.12Z"/><path class="cls-4" d="M556.75,326.23l.11-.09Z"/><path class="cls-4" d="M558.47,326.25l.11.12Z"/><path class="cls-4" d="M558.58,326.37l.09.13Z"/><path class="cls-4" d="M558.35,326.14l.1.09Z"/><path class="cls-4" d="M544.39,254.69a2.54,2.54,0,0,0-2.13,2.86,2.61,2.61,0,0,0,.7,1.52,4.11,4.11,0,0,1,1.14,2.82v62.39a6.4,6.4,0,0,1-6.21,6.57H528a3.63,3.63,0,0,1-2.65-1.2,2.34,2.34,0,0,0-3.45,0,2.68,2.68,0,0,0,0,3.65,2.35,2.35,0,0,0,3.45,0h0a3.63,3.63,0,0,1,2.65-1.2h9.89a7.6,7.6,0,0,0,7.37-7.81h0V261.89a4.11,4.11,0,0,1,1.14-2.82,2.68,2.68,0,0,0,0-3.64,2.34,2.34,0,0,0-2-.74Zm-19.85,77.7a1.31,1.31,0,0,1-.25.22h0l-.13.08h0l-.15.05h0l-.13,0h-.34a1.32,1.32,0,0,1-1.14-1.34h0a1.34,1.34,0,0,1,1.17-1.34h.1l.16,0h.05l.13,0h0l.15.05h0l.13.08h0a1.09,1.09,0,0,1,.25.23h0a1.37,1.37,0,0,1,0,1.82Zm20.13-73.78a1.36,1.36,0,1,1,1.29-1.36h0A1.33,1.33,0,0,1,544.67,258.61Z"/><path class="cls-4" d="M524.12,332.7a.94.94,0,0,1-.15.06A.94.94,0,0,0,524.12,332.7Z"/><path class="cls-4" d="M524.54,332.39a1.31,1.31,0,0,1-.25.22A1.31,1.31,0,0,0,524.54,332.39Z"/><path class="cls-4" d="M524.27,332.62l-.13.07Z"/><path class="cls-4" d="M524,332.77l-.13,0Z"/><path class="cls-4" d="M523.61,330.13h0Z"/><path class="cls-4" d="M524,330.18l.15.06Z"/><path class="cls-4" d="M523.82,330.15l.13,0Z"/><path class="cls-4" d="M524.14,330.25l.13.07Z"/><path class="cls-4" d="M523.51,330.13a1.33,1.33,0,0,0-1.17,1.33A1.33,1.33,0,0,1,523.51,330.13Z"/><path class="cls-4" d="M523.77,332.8l-.16,0Z"/><path class="cls-4" d="M522.34,331.47h0a1.33,1.33,0,0,0,1.14,1.35A1.33,1.33,0,0,1,522.34,331.47Z"/><path class="cls-4" d="M524.29,330.33a1.37,1.37,0,0,1,.25.23A1.37,1.37,0,0,0,524.29,330.33Z"/><path class="cls-4" d="M594.17,331.18a2.47,2.47,0,0,0-2.69-2.27,2.42,2.42,0,0,0-1.45.74,3.65,3.65,0,0,1-2.66,1.2h-9.88a6.39,6.39,0,0,1-6.21-6.56v-62.4a4.12,4.12,0,0,1,1.13-2.81,2.68,2.68,0,0,0,0-3.65,2.34,2.34,0,0,0-3.44,0,2.68,2.68,0,0,0,0,3.65h0a4.12,4.12,0,0,1,1.13,2.81v62.39a7.6,7.6,0,0,0,7.38,7.81h9.88a3.67,3.67,0,0,1,2.66,1.2,2.34,2.34,0,0,0,3.44,0,2.67,2.67,0,0,0,.7-2.13Zm-24.75-73.93a1.28,1.28,0,1,1,1.27,1.35A1.31,1.31,0,0,1,569.42,257.25ZM593,331.47a1.32,1.32,0,0,1-1.14,1.35h-.33l-.13,0h0l-.15-.06h0l-.14-.07h0a1.86,1.86,0,0,1-.26-.23h0a1.4,1.4,0,0,1,0-1.82h0a1.38,1.38,0,0,1,.26-.23h0l.14-.07h0a.47.47,0,0,1,.15-.06h0l.13,0h.3a1.3,1.3,0,0,1,1.17,1.33h0Z"/><path class="cls-4" d="M591.55,332.8l-.13,0Z"/><path class="cls-4" d="M591.39,332.76a.94.94,0,0,1-.15-.06A.94.94,0,0,0,591.39,332.76Z"/><path class="cls-4" d="M593,331.46a1.31,1.31,0,0,0-1.17-1.33A1.31,1.31,0,0,1,593,331.46Z"/><path class="cls-4" d="M590.82,330.56a1.86,1.86,0,0,1,.26-.23A1.86,1.86,0,0,0,590.82,330.56Z"/><path class="cls-4" d="M591.75,332.82l-.16,0Z"/><path class="cls-4" d="M591.88,332.81a1.32,1.32,0,0,0,1.14-1.35h0A1.32,1.32,0,0,1,591.88,332.81Z"/><path class="cls-4" d="M591.24,330.24l.15-.06Z"/><path class="cls-4" d="M591.59,330.14h0Z"/><path class="cls-4" d="M591.08,332.61a1.38,1.38,0,0,1-.26-.23A1.38,1.38,0,0,0,591.08,332.61Z"/><path class="cls-4" d="M591.09,330.32l.14-.07Z"/><path class="cls-4" d="M591.23,332.69l-.14-.07Z"/><path class="cls-4" d="M591.42,330.18l.13,0Z"/><path class="cls-4" d="M601.62,338.62a2.51,2.51,0,0,0-2.14-2.27,2.35,2.35,0,0,0-2,.74,3.65,3.65,0,0,1-2.67,1.21H576.93c-7.06,0-12.79-6.06-12.79-13.54h0V243.39a4.08,4.08,0,0,1,1.14-2.81,2.69,2.69,0,0,0,0-3.65,2.33,2.33,0,0,0-3.44,0,2.68,2.68,0,0,0,0,3.65h0a4.06,4.06,0,0,1,1.13,2.81v81.37c0,8.16,6.25,14.77,14,14.77h17.88a3.67,3.67,0,0,1,2.66,1.2,2.33,2.33,0,0,0,3.44,0,2.66,2.66,0,0,0,.7-2.13ZM563,239.94h0a1.4,1.4,0,0,1-.55-1.82,1.25,1.25,0,0,1,1.72-.58,1.39,1.39,0,0,1,.55,1.82,1.29,1.29,0,0,1-.55.58h0A1.22,1.22,0,0,1,563,239.94ZM599.2,340.27a1.35,1.35,0,1,1,1.27-1.35h0a1.31,1.31,0,0,1-1.27,1.35Z"/><path class="cls-4" d="M551.53,236.18a2.54,2.54,0,0,0-2.14,2.86,2.61,2.61,0,0,0,.7,1.53,4.08,4.08,0,0,1,1.14,2.81v81.38c0,7.47-5.73,13.53-12.79,13.54H520.55a3.68,3.68,0,0,1-2.66-1.21,2.34,2.34,0,0,0-2-.74,2.55,2.55,0,0,0-2.14,2.86,2.49,2.49,0,0,0,2.42,2.28,2.38,2.38,0,0,0,1.73-.77,3.63,3.63,0,0,1,2.65-1.2h17.89c7.71,0,14-6.61,14-14.77h0V243.39a4.12,4.12,0,0,1,1.13-2.81,2.68,2.68,0,0,0,0-3.65,2.35,2.35,0,0,0-2-.74ZM516.17,340.27a1.35,1.35,0,1,1,1.27-1.35,1.31,1.31,0,0,1-1.27,1.35ZM551.81,240.1a1.35,1.35,0,1,1,1.27-1.35A1.32,1.32,0,0,1,551.81,240.1Z"/><path class="cls-6" d="M560.15,222.1l-1.89-1.26.06,2.39h-1.27l.07-2.39-1.9,1.26-.63-1.19,2-1.11-2-1.14.63-1.19,1.9,1.26-.07-2.37h1.28l-.07,2.37,1.9-1.26.64,1.19-2,1.13,2,1.12Z"/></g><path class="cls-7" d="M235.89,253.62v.3a2.85,2.85,0,0,1,1.68.78l2.88,2.34a2.45,2.45,0,0,1,.69.87,4.75,4.75,0,0,1,.15,1.47v10.8a3.75,3.75,0,0,1-1.44,3q-.48.36-1.44,1.2a4.51,4.51,0,0,1-2.88,1.2H212.61v-42h22.2a4.51,4.51,0,0,1,2.88,1.2l1.44,1.2a3.75,3.75,0,0,1,1.44,3v10.26a2.5,2.5,0,0,1-1,2l-2,1.56A2.85,2.85,0,0,1,235.89,253.62Zm-18.24-15.84v14.4h13a6.77,6.77,0,0,0,1.41-.09,3,3,0,0,0,.93-.57l1.56-1.26a3.06,3.06,0,0,0,.84-.9,4.45,4.45,0,0,0,.12-1.32v-7.8a4.66,4.66,0,0,0-.09-1.17,1.83,1.83,0,0,0-.63-.69,3,3,0,0,0-.84-.51,6.29,6.29,0,0,0-1.38-.09Zm17.58,20.46-1.32-1.08a3.81,3.81,0,0,0-1-.69,5.07,5.07,0,0,0-1.2-.09h-14v15h15.66a6.29,6.29,0,0,0,1.38-.09,3,3,0,0,0,.84-.51,1.83,1.83,0,0,0,.63-.69,4.66,4.66,0,0,0,.09-1.17V260.4a4.14,4.14,0,0,0-.12-1.26A3,3,0,0,0,235.23,258.24Z"/><path class="cls-7" d="M278.67,271.38v4.2H251.79v-42h26.88v4.2H256.83v14.4h18.48v4.2H256.83v15Z"/><path class="cls-7" d="M308.37,256.38H294a4.51,4.51,0,0,1-2.88-1.2l-1.62-1.38a3,3,0,0,1-1.26-2.4V239a3.75,3.75,0,0,1,1.44-3l1.44-1.2a4.51,4.51,0,0,1,2.88-1.2h16a4.51,4.51,0,0,1,2.88,1.2l1.44,1.2a3.75,3.75,0,0,1,1.44,3v2.4h-5v-1.14a4.66,4.66,0,0,0-.09-1.17,1.83,1.83,0,0,0-.63-.69,3,3,0,0,0-.84-.51,6.29,6.29,0,0,0-1.38-.09H296.25a6.29,6.29,0,0,0-1.38.09,3,3,0,0,0-.84.51,1.83,1.83,0,0,0-.63.69,4.66,4.66,0,0,0-.09,1.17v9.48a4.66,4.66,0,0,0,.09,1.17,1.83,1.83,0,0,0,.63.69,3,3,0,0,0,.84.51,6.29,6.29,0,0,0,1.38.09h14.34a4.51,4.51,0,0,1,2.88,1.2l1.44,1.2a3.75,3.75,0,0,1,1.44,3v12.6a3.75,3.75,0,0,1-1.44,3l-1.44,1.2a4.51,4.51,0,0,1-2.88,1.2H293.43a4.51,4.51,0,0,1-2.88-1.2l-1.44-1.2a3.75,3.75,0,0,1-1.44-3v-2.4h5v1.14a4.66,4.66,0,0,0,.09,1.17,1.83,1.83,0,0,0,.63.69,3,3,0,0,0,.84.51,6.29,6.29,0,0,0,1.38.09h12.72a6.29,6.29,0,0,0,1.38-.09,3,3,0,0,0,.84-.51,1.83,1.83,0,0,0,.63-.69,4.66,4.66,0,0,0,.09-1.17V258.84a4.66,4.66,0,0,0-.09-1.17,1.83,1.83,0,0,0-.63-.69,3.24,3.24,0,0,0-.84-.51A6.29,6.29,0,0,0,308.37,256.38Z"/><path class="cls-7" d="M320.49,233.58h31.68v4.2H338.85v37.8h-5v-37.8H320.49Z"/><path class="cls-7" d="M399.75,233.58h5v36.6a3.75,3.75,0,0,1-1.44,3l-1.44,1.2a4.51,4.51,0,0,1-2.88,1.2h-20.4a4.51,4.51,0,0,1-2.88-1.2l-1.44-1.2a3.75,3.75,0,0,1-1.44-3v-36.6h5v35.34a4.66,4.66,0,0,0,.09,1.17,1.83,1.83,0,0,0,.63.69,3,3,0,0,0,.84.51,6.29,6.29,0,0,0,1.38.09h16a6.29,6.29,0,0,0,1.38-.09,3,3,0,0,0,.84-.51,1.83,1.83,0,0,0,.63-.69,4.66,4.66,0,0,0,.09-1.17Z"/><path class="cls-7" d="M436,256.38H421.65a4.51,4.51,0,0,1-2.88-1.2l-1.62-1.38a3,3,0,0,1-1.26-2.4V239a3.75,3.75,0,0,1,1.44-3l1.44-1.2a4.51,4.51,0,0,1,2.88-1.2h16a4.51,4.51,0,0,1,2.88,1.2l1.44,1.2a3.75,3.75,0,0,1,1.44,3v2.4h-5v-1.14a4.66,4.66,0,0,0-.09-1.17,1.83,1.83,0,0,0-.63-.69,3,3,0,0,0-.84-.51,6.29,6.29,0,0,0-1.38-.09H423.87a6.29,6.29,0,0,0-1.38.09,3,3,0,0,0-.84.51,1.83,1.83,0,0,0-.63.69,4.66,4.66,0,0,0-.09,1.17v9.48a4.66,4.66,0,0,0,.09,1.17,1.83,1.83,0,0,0,.63.69,3,3,0,0,0,.84.51,6.29,6.29,0,0,0,1.38.09h14.34a4.51,4.51,0,0,1,2.88,1.2l1.44,1.2a3.75,3.75,0,0,1,1.44,3v12.6a3.75,3.75,0,0,1-1.44,3l-1.44,1.2a4.51,4.51,0,0,1-2.88,1.2H421.05a4.51,4.51,0,0,1-2.88-1.2l-1.44-1.2a3.75,3.75,0,0,1-1.44-3v-2.4h5v1.14a4.66,4.66,0,0,0,.09,1.17,1.83,1.83,0,0,0,.63.69,3,3,0,0,0,.84.51,6.29,6.29,0,0,0,1.38.09H436a6.29,6.29,0,0,0,1.38-.09,3,3,0,0,0,.84-.51,1.83,1.83,0,0,0,.63-.69,4.66,4.66,0,0,0,.09-1.17V258.84a4.66,4.66,0,0,0-.09-1.17,1.83,1.83,0,0,0-.63-.69,3.24,3.24,0,0,0-.84-.51A6.29,6.29,0,0,0,436,256.38Z"/><path class="cls-7" d="M481.35,271.38v4.2H454.47v-42h26.88v4.2H459.51v14.4H478v4.2H459.51v15Z"/><path class="cls-7" d="M512.61,233.58h22a4.51,4.51,0,0,1,2.88,1.2l1.44,1.2a3.75,3.75,0,0,1,1.44,3v31.2a3.75,3.75,0,0,1-1.44,3l-1.44,1.2a4.51,4.51,0,0,1-2.88,1.2h-22a4.51,4.51,0,0,1-2.88-1.2l-1.44-1.2a3.75,3.75,0,0,1-1.44-3V239a3.75,3.75,0,0,1,1.44-3l1.44-1.2A4.51,4.51,0,0,1,512.61,233.58Zm22.68,35.34V240.24a4.66,4.66,0,0,0-.09-1.17,1.83,1.83,0,0,0-.63-.69,3,3,0,0,0-.84-.51,6.29,6.29,0,0,0-1.38-.09H514.83a6.29,6.29,0,0,0-1.38.09,3,3,0,0,0-.84.51,1.83,1.83,0,0,0-.63.69,4.66,4.66,0,0,0-.09,1.17v28.68a4.66,4.66,0,0,0,.09,1.17,1.83,1.83,0,0,0,.63.69,3,3,0,0,0,.84.51,6.29,6.29,0,0,0,1.38.09h17.52a6.29,6.29,0,0,0,1.38-.09,3,3,0,0,0,.84-.51,1.83,1.83,0,0,0,.63-.69A4.66,4.66,0,0,0,535.29,268.92Z"/><path class="cls-7" d="M557.37,275.58h-5v-42h24.48v4.2H557.37v14.4h16.08v4.2H557.37Z"/><path class="cls-7" d="M598.71,275.58l14.4-42h7.08l14.7,42h-5l-3.12-8.7h-20l-3,8.7Zm18.06-38.4h-.24a4.73,4.73,0,0,1-.42,1.74L608,263h17.46l-8.28-24.06A4.73,4.73,0,0,1,616.77,237.18Z"/><path class="cls-7" d="M648.93,258.78v16.8h-5v-42h22.2a4.51,4.51,0,0,1,2.88,1.2l1.44,1.2a3.75,3.75,0,0,1,1.44,3v14.4a3.75,3.75,0,0,1-1.44,3l-1.44,1.2a4.51,4.51,0,0,1-2.88,1.2Zm0-21v16.8h14.94a6.29,6.29,0,0,0,1.38-.09,3,3,0,0,0,.84-.51,1.76,1.76,0,0,0,.63-.69,4.66,4.66,0,0,0,.09-1.17V240.24a4.66,4.66,0,0,0-.09-1.17,1.83,1.83,0,0,0-.63-.69,3,3,0,0,0-.84-.51,6.29,6.29,0,0,0-1.38-.09Z"/><path class="cls-7" d="M682.35,233.58h5v42h-5Z"/><path class="cls-7" d="M387.9,136.26v57.59H371.84V167.43H357.23v26.42H341.17V136.26h16.06v15.19h14.61V136.26Z"/><path class="cls-7" d="M394,193.85V136.26h46v15.33h-30v4.9H433.4v16H409.93v5.4h30v16Z"/><path class="cls-7" d="M497.2,136.18v36.08h-6.56c.39,1.72.78,3.51,1.19,5.36s.83,3.71,1.26,5.58.84,3.71,1.23,5.51.76,3.49,1.15,5.07H478.76l-4.82-21.52h-9.58v21.52h-16v-57.6Zm-16,20.6v-5.26H464.36v5.26Z"/><path class="cls-7" d="M504.47,193.85V136.26h46v15.33h-30v4.9h23.47v16H520.45v5.4h30v16Z"/><g id="Logo"><path id="triangle" class="cls-8" d="M432.45,92.47l-10.82,10.82L410.82,92.47Z"/><path id="here" class="cls-9" d="M448.25,67.91c-2.26-2.68-2.15-4.13-.75-5.53,1.7-1.69,3.42-1,5.35.9ZM471.4,38.5c1.7-1.69,3.42-1,5.36.9L472.14,44C469.88,41.33,470,39.9,471.4,38.5Zm14,4.7c-2.11,3.16-5.75,8.25-9.58,4.41l9.7-9.7c-.87-.93-1.53-1.71-2-2.21-5.24-5.26-11.13-5.32-15.75-.71-3.09,3.08-3.9,6.6-3,10l-3-3.47a6.33,6.33,0,0,0-1.82,8.73l-3.48-2.9-4.62,4.6L458,58.16c-4.82-3.83-10-3.45-14.19.71-4.46,4.45-4.15,9.84-.81,14.28l-.66-.66c-4.42-4.41-9.22-2.86-11.59-.48-1.83,1.83-2.95,4.35-2.49,6.1l-9.58-9.58-5.1,5.09,18.87,18.85h10.12l-6.8-6.79c-3.56-3.63-3.63-5.55-1.89-7.28s3.61-.62,7,2.79l6.71,6.71,5.06-5.06-6.37-6.36c4.59,3.47,10.1,3.66,15-1.23l.09-.1h0a14.44,14.44,0,0,0,3.88-5.49l-3.82-2.57c-2.11,3.15-5.74,8.25-9.58,4.43l9.74-9.74,6.06,6.08L473,62.57,465.39,55c-3.54-3.54-1.44-6.87,0-8.12a15.11,15.11,0,0,0,3,4.15c4.91,4.92,11.25,5.91,16.82.35l.09-.09h0a14.33,14.33,0,0,0,3.87-5.49Z"/></g></svg>