<?xml version="1.0" encoding="utf-8"?>
<!-- Generator: Adobe Illustrator 22.0.0, SVG Export Plug-In . SVG Version: 6.00 Build 0)  -->
<svg version="1.1" id="Ñëîé_1" xmlns="http://www.w3.org/2000/svg" xmlns:xlink="http://www.w3.org/1999/xlink" x="0px" y="0px"
	 viewBox="0 0 319 267" style="enable-background:new 0 0 319 267;" xml:space="preserve">
<style type="text/css">
	.st0{fill:#2E374D;}
	.st1{fill:#444499;}
	.st2{fill:#59C0CF;}
</style>
<g>
	<g>
		<path class="st0" d="M14.2,233.2c0-12,9-21.4,21.6-21.4c7.6,0,14.3,3.8,17.8,9.9l-5.9,3.4c-2.2-4.1-6.7-6.7-11.9-6.7
			c-8.9,0-14.8,6.3-14.8,14.8c0,8.5,5.9,14.8,14.8,14.8c5.2,0,9.7-2.6,11.9-6.7l5.9,3.4c-3.4,6-10.1,9.9-17.8,9.9
			C23.3,254.6,14.2,245.1,14.2,233.2z"/>
		<path class="st0" d="M59.1,210.7h6.4v43.1h-6.4V210.7z"/>
		<path class="st0" d="M87.3,248.7c3.5,0,6.2-1.6,7.6-3.7l5.3,3.1c-2.7,4-7.1,6.4-12.9,6.4c-9.7,0-16-6.7-16-15.5
			c0-8.7,6.3-15.5,15.6-15.5c8.8,0,14.8,7.1,14.8,15.6c0,0.9-0.1,1.8-0.2,2.7H77.8C78.8,246.4,82.6,248.7,87.3,248.7z M95.1,236.6
			c-0.9-5.1-4.6-7.3-8.4-7.3c-4.8,0-8,2.8-8.9,7.3H95.1z"/>
		<path class="st0" d="M133,224.3l-11.5,29.5h-7.4l-11.5-29.5h7l8.3,22.4l8.2-22.4H133z"/>
		<path class="st0" d="M150.2,248.7c3.5,0,6.2-1.6,7.6-3.7l5.3,3.1c-2.7,4-7.1,6.4-12.9,6.4c-9.7,0-16-6.7-16-15.5
			c0-8.7,6.3-15.5,15.6-15.5c8.8,0,14.8,7.1,14.8,15.6c0,0.9-0.1,1.8-0.2,2.7h-23.5C141.8,246.4,145.5,248.7,150.2,248.7z
			 M158.1,236.6c-0.9-5.1-4.6-7.3-8.4-7.3c-4.8,0-8,2.8-8.9,7.3H158.1z"/>
		<path class="st0" d="M185.6,223.8v6.9c-4.2-0.3-9.1,1.7-9.1,8.3v14.9h-6.4v-29.5h6.4v5C178.3,225.3,181.9,223.8,185.6,223.8z"/>
		<path class="st0" d="M221.7,239.1c0,8.7-6.7,15.5-14.7,15.5c-4.6,0-8.1-1.9-10.3-5v4.2h-6.4v-41.3h6.4v16c2.2-3.1,5.7-5,10.3-5
			C215,223.6,221.7,230.3,221.7,239.1z M215.3,239.1c0-5.5-4-9.4-9.3-9.4s-9.3,4-9.3,9.4c0,5.5,4,9.4,9.3,9.4
			S215.3,244.6,215.3,239.1z"/>
		<path class="st0" d="M225.8,239.1c0-8.8,7-15.5,15.6-15.5c8.7,0,15.6,6.7,15.6,15.5c0,8.7-6.9,15.5-15.6,15.5
			C232.8,254.6,225.8,247.8,225.8,239.1z M250.6,239.1c0-5.4-4-9.3-9.2-9.3c-5.2,0-9.2,4-9.2,9.3c0,5.4,4,9.3,9.2,9.3
			C246.6,248.4,250.6,244.4,250.6,239.1z"/>
		<path class="st0" d="M271.3,230.5v14.2c0,3.8,2.5,3.7,7.3,3.5v5.7c-9.8,1.2-13.7-1.5-13.7-9.2v-14.2h-5.4v-6.1h5.4v-6.4l6.4-1.9
			v8.3h7.3v6.1H271.3z"/>
		<path class="st0" d="M304.9,245.5c0,5.9-5.1,9.1-11.5,9.1c-5.9,0-10.1-2.7-12-6.9l5.5-3.2c0.9,2.7,3.3,4.2,6.5,4.2
			c2.8,0,5-0.9,5-3.3c0-5.3-15.9-2.3-15.9-12.9c0-5.5,4.8-9,10.8-9c4.8,0,8.9,2.2,10.9,6.1l-5.4,3c-1.1-2.3-3.1-3.4-5.5-3.4
			c-2.3,0-4.3,1-4.3,3.1C289.1,237.8,304.9,234.6,304.9,245.5z"/>
	</g>
</g>
<g>
	<path class="st1" d="M176.1,155.6l-46.5-0.1c-4.9,0-9.5-2.7-11.9-6.9l-23.1-40.3c-2.5-4.3-2.4-9.5,0-13.8L118,54.3
		c2.5-4.3,2.5-9.5,0-13.8l0,0c-5.3-9.2-18.5-9.2-23.9-0.1L62.8,94.4c-2.5,4.3-2.5,9.5,0,13.8l39,67.9c2.5,4.3,7,6.9,11.9,6.9
		l62.4,0.2c10.6,0,17.3-11.4,12-20.6l0,0C185.6,158.2,181.1,155.6,176.1,155.6z"/>
	<path class="st2" d="M201,138.8l23.3-40.2c2.5-4.3,2.5-9.5,0-13.8l-23.1-40.3c-2.5-4.3-7-6.9-11.9-6.9l-46.5-0.1
		c-4.9,0-9.5-2.7-11.9-6.9l0,0c-5.3-9.2,1.4-20.7,12-20.6l62.4,0.2c4.9,0,9.5,2.7,11.9,6.9l39,67.9c2.5,4.3,2.4,9.5,0,13.8
		l-31.3,53.9c-5.3,9.2-18.6,9.1-23.9-0.1l0,0C198.5,148.4,198.5,143.1,201,138.8z"/>
</g>
</svg>
