<?xml version="1.0" encoding="utf-8"?>
<!-- Generator: Adobe Illustrator 22.0.0, SVG Export Plug-In . SVG Version: 6.00 Build 0)  -->
<svg version="1.1" id="Слой_1" xmlns="http://www.w3.org/2000/svg" xmlns:xlink="http://www.w3.org/1999/xlink" x="0px" y="0px"
	 viewBox="0 0 164.9 57.3" style="enable-background:new 0 0 164.9 57.3;" xml:space="preserve">
<style type="text/css">
	.st0{fill:#52AB62;}
</style>
<g>
	<path class="st0" d="M96.7,38.5H71.6c0.8,7.7,4.4,10,9.5,10c3.4,0,6.3-1.1,9.8-3.5l4.5,6.1c-3.9,3.2-8.9,5.5-15.2,5.5
		c-12.9,0-19.6-8.5-19.6-21.1C60.5,23.4,67,14,78.8,14c11.4,0,18.1,7.6,18.1,20.4C96.9,35.7,96.7,37.4,96.7,38.5 M86.2,31.3
		c0-6.1-2-10-7.2-10c-4.2,0-6.9,2.9-7.4,10.5h14.6V31.3z"/>
	<path class="st0" d="M128.5,53.4c-3,2-6.9,3.1-10.5,3.1c-8.3-0.1-12.6-4.8-12.6-13.8v-20h-6v-7.6h6V6.4l10.8-1.3v10.1h9.2l-1.1,7.6
		h-8.2v19.8c0,3.9,1.3,5.5,4,5.5c1.4,0,2.9-0.5,4.5-1.4L128.5,53.4z"/>
	<path class="st0" d="M162.3,18.8l-4.7,6.4c-2.6-2-4.9-2.9-7.9-2.9c-5.4,0-8.6,3.9-8.6,13.2c0,9.3,3.4,12.4,8.5,12.4
		c3,0,5-0.9,8-2.8l4.7,6.7c-3.6,3-7.9,4.7-13.2,4.7c-12,0-19.3-8.2-19.3-21c0-12.7,7.4-21.6,19.2-21.6
		C154.4,14,158.6,15.6,162.3,18.8"/>
	<path class="st0" d="M38.8,55.2H14.9l-12-20.7l11.4-19.8l31-12.3l4.9,33L38.8,55.2z M20.1,46.2h13.5l7.3-12.6L38.1,15l-17.5,6.9
		l-7.3,12.6L20.1,46.2z"/>
</g>
</svg>
