<svg id="HERE_Logo_2016" xmlns="http://www.w3.org/2000/svg" viewBox="0 0 283.46 259.11"><defs><style>.cls-1{fill:#48dad0;}.cls-2{fill:#383c45;}</style></defs><title>HERE_Logo_2016_POS_sRGB</title><g id="Logo"><path id="triangle" class="cls-1" d="M78.22,220,39.11,259.12,0,220Z" transform="translate(0 0)"/><path id="here" class="cls-2" d="M135.36,131.19c-8.17-9.7-7.78-14.93-2.71-20,6.15-6.13,12.38-3.53,19.37,3.26ZM219.09,24.83c6.14-6.13,12.38-3.54,19.37,3.26L221.77,44.78C213.6,35.07,214,29.88,219.09,24.83Zm50.55,17C262,53.24,248.85,71.66,235,57.79l35.09-35.1c-3.15-3.37-5.54-6.19-7.37-8-18.92-19-40.24-19.22-56.95-2.55-11.17,11.13-14.09,23.88-10.84,36l-11-12.53c-3.19,1.76-16.66,13.62-6.56,31.58L164.77,56.68,148.05,73.34l22.58,22.58c-17.44-13.84-36.23-12.48-51.32,2.56-16.14,16.1-15,35.61-2.91,51.67L114,147.73C98,131.78,80.67,137.41,72.09,146c-6.62,6.63-10.68,15.75-9,22.08L28.44,133.43,10,151.83,78.22,220h36.6L90.25,195.44c-12.9-13.12-13.13-20.07-6.85-26.31,6-6,13.07-2.26,25.45,10.08l24.28,24.27,18.3-18.3-23.05-23c16.62,12.56,36.52,13.23,54.27-4.47.11-.11.21-.23.31-.34h0C193.85,147.29,197,137.52,197,137.52l-13.83-9.29c-7.61,11.38-20.76,29.84-34.63,16L183.74,109,205.66,131l19.12-19.12L197.35,84.4c-12.81-12.82-5.22-24.85.11-29.38a54,54,0,0,0,10.79,15c17.74,17.79,40.67,21.38,60.83,1.28l.32-.34h0c10.87-10.06,14-19.83,14-19.83Z" transform="translate(0 0)"/></g></svg>