<svg id="Layer_1" data-name="Layer 1" xmlns="http://www.w3.org/2000/svg" viewBox="0 0 204.39 263.51"><defs><style>.cls-1,.cls-3{fill:#4d6aaf;}.cls-1,.cls-2{fill-rule:evenodd;}.cls-2{fill:#fff;}</style></defs><title>logo_с_hse_cmyk_e</title><path class="cls-1" d="M586.92,482.39a102.2,102.2,0,1,1,101.7-102.68,102.2,102.2,0,0,1-101.7,102.68Z" transform="translate(-484.23 -278)"/><path class="cls-2" d="M586.91,480.7a100.51,100.51,0,1,1,100-101,100.52,100.52,0,0,1-100,101Z" transform="translate(-484.23 -278)"/><path class="cls-1" d="M497.68,378.16a2.24,2.24,0,1,1,2.77-1.54,2.24,2.24,0,0,1-2.77,1.54Z" transform="translate(-484.23 -278)"/><path class="cls-1" d="M585.61,470.54a2.24,2.24,0,1,1,2.77-1.53,2.23,2.23,0,0,1-2.77,1.53Z" transform="translate(-484.23 -278)"/><path class="cls-1" d="M596.22,295.93A2.24,2.24,0,1,1,599,294.4a2.23,2.23,0,0,1-2.76,1.53Z" transform="translate(-484.23 -278)"/><path class="cls-3" d="M583.54,297.68v0h0v.07h0v.1h0c0,.15,0,.35,0,.6v0h0v.14h0v.14h0a5,5,0,0,1-.08.62h0a1,1,0,0,1-.11.35h0a.5.5,0,0,1-.21.24h0l-.08,0-.09,0h0a5,5,0,0,1-.71.1l-1.46.13-1.09.07h-.28l-.26,0-1.51.08-1.68.21h0a.68.68,0,0,1-.3,0h0a.28.28,0,0,1-.19-.25v-.06l0-.05v0h0v0h0l0,0h0a.31.31,0,0,1,.19-.11l.49-.11h0l0,0h0a.36.36,0,0,0,.12-.18h0a.11.11,0,0,1,0-.06s0,0,0-.08a2.58,2.58,0,0,0,.06-.46h0c0-.13,0-.32,0-.55s0-.52-.06-.87v0l0-.29,0-.3c0-.56-.09-1.12-.14-1.67l-.27-3-.19-2-.15-1.68a1.59,1.59,0,0,0-.06-.34.72.72,0,0,0-.12-.21h0l0,0,0,0a.67.67,0,0,0-.3-.11h0l-.32,0-.35,0h0a.38.38,0,0,1-.22-.05.25.25,0,0,1-.13-.21h0a.3.3,0,0,1,.15-.29h0a.78.78,0,0,1,.28-.08h0l1.94-.12,1.84-.22h0a.53.53,0,0,1,.26,0,.27.27,0,0,1,.19.23h0a.26.26,0,0,1-.09.24h0a.4.4,0,0,1-.2.08l-.56.1h0l-.13.05-.11.07a.79.79,0,0,0-.21.72h0l.14,1.49.2,2.22.27,3h0q0,.48.09.93c0,.29.07.56.1.8a5.06,5.06,0,0,0,.48,2h0l0,0,.06,0a1.57,1.57,0,0,0,.47.13h.31c.27,0,.63,0,1.06-.06.28,0,.52,0,.74-.08l.54-.11h0l.11,0h0l.1-.05a.81.81,0,0,0,.39-.34h0l.12-.21h0a2.6,2.6,0,0,0,.1-.25h0v0h0l0-.08h0l0-.07a2.3,2.3,0,0,0,0-.32.54.54,0,0,1,.06-.27h0a.28.28,0,0,1,.24-.16h0a.26.26,0,0,1,.27.16.7.7,0,0,1,.06.25Z" transform="translate(-484.23 -278)"/><path class="cls-3" d="M565.53,295.4a7.68,7.68,0,0,1,.32,2.81,6.85,6.85,0,0,1-.75,2.61h0a6.73,6.73,0,0,1-4.33,3.48,7.51,7.51,0,0,1-3,.29,6.25,6.25,0,0,1-2.66-1h0a6.89,6.89,0,0,1-1.76-1.73,7.68,7.68,0,0,1-1.08-2.31h0c-.06-.23-.12-.45-.16-.68s-.07-.45-.09-.68h0a7,7,0,0,1,.58-3.43,6.28,6.28,0,0,1,1.73-2.37A7.25,7.25,0,0,1,557,291h0c.27-.07.54-.14.8-.19a7,7,0,0,1,.78-.11,6.63,6.63,0,0,1,3.69.65,6.24,6.24,0,0,1,3.23,4.11Zm-1.81,1a8.09,8.09,0,0,0-1.09-2.39,5.58,5.58,0,0,0-1.66-1.59h0a4.11,4.11,0,0,0-.51-.27,3.74,3.74,0,0,0-.51-.22h0a4.54,4.54,0,0,0-2.78,0,5.43,5.43,0,0,0-1.79.87,4.15,4.15,0,0,0-1.16,1.4v0a3.16,3.16,0,0,0-.22.5,3.68,3.68,0,0,0-.16.54,6.6,6.6,0,0,0,.21,3.28,8.49,8.49,0,0,0,1.1,2.41,5.89,5.89,0,0,0,1.66,1.64,5,5,0,0,0,2,.79,5.08,5.08,0,0,0,2.14-.16h0l.26-.09.24-.09a4.41,4.41,0,0,0,1.15-.71h0l.27-.24.24-.26a4,4,0,0,0,.82-1.59h0c0-.15.07-.3.1-.46s0-.32.05-.48a7.89,7.89,0,0,0-.35-2.82Z" transform="translate(-484.23 -278)"/><path class="cls-3" d="M543.61,303.54h0a6.71,6.71,0,0,1,.42.72,7.79,7.79,0,0,1,.34.72,6.92,6.92,0,0,1,.41,3.87,6.64,6.64,0,0,1-1,2.59,7.91,7.91,0,0,1-4.9,3.16h0a6,6,0,0,1-2.84-.2h0c-.22-.07-.43-.15-.65-.24a5.92,5.92,0,0,1-.62-.3h0a7.28,7.28,0,0,1-2.62-2.48h0q-.2-.3-.36-.6c-.1-.21-.2-.41-.29-.62a7.17,7.17,0,0,1-.45-3.46h0a6.81,6.81,0,0,1,.15-.83,5.16,5.16,0,0,1,.24-.79,6.81,6.81,0,0,1,2.77-3.29h0c.24-.15.47-.29.71-.42a7.79,7.79,0,0,1,.72-.34,6.66,6.66,0,0,1,3.72-.46,5.88,5.88,0,0,1,2.4,1,7.25,7.25,0,0,1,1.9,2Zm-1.43,1.51h0c-.15-.23-.3-.44-.45-.64a5.6,5.6,0,0,0-.49-.57,5.92,5.92,0,0,0-2.85-1.79h0a4.8,4.8,0,0,0-2-.12,4.63,4.63,0,0,0-1.82.72h0c-.17.11-.33.23-.48.34l-.43.38a4.25,4.25,0,0,0-1.24,2.3,4.63,4.63,0,0,0,.09,2,7.31,7.31,0,0,0,1,2.18h0c.15.23.3.45.46.65s.32.39.48.57a6.29,6.29,0,0,0,2.88,1.85h0c.2.06.41.1.61.14s.41.06.61.07a4.8,4.8,0,0,0,2.91-.83h0l.22-.15.21-.16a4.36,4.36,0,0,0,.89-1h0a4.08,4.08,0,0,0,.52-1.15,4.29,4.29,0,0,0,.14-1.25h0a5.64,5.64,0,0,0-.34-1.71,9.16,9.16,0,0,0-.94-1.84Z" transform="translate(-484.23 -278)"/><path class="cls-3" d="M529.81,322.05a.28.28,0,0,1,.08.31.55.55,0,0,1-.16.25h0l-.14.15h0l-.14.14-.6.62h0l-.32.32h0l-.27.27-1.11,1.27h0a.64.64,0,0,1-.23.17h0a.27.27,0,0,1-.3,0h0l-.05,0v-.06a.31.31,0,0,1,.06-.33l.28-.4v0h0v-.06h0a.36.36,0,0,0,0-.2h0a1.1,1.1,0,0,0-.13-.23h0a2,2,0,0,0-.21-.28h0l-.08-.09-.1-.11c-.19-.21-.47-.48-.82-.82l-.79-.75-.87-.82-1.27-1.17-4.85,5.23,1.26,1.17.8.74.76.7h0l.2.18h0l.19.17h0c.31.27.57.48.77.63h0l.12.08.1.07h0a1.13,1.13,0,0,0,.39.19h.09a.57.57,0,0,0,.28-.14l.57-.51a.31.31,0,0,1,.17-.09h.22l0,0h0a.28.28,0,0,1,.08.3h0a.61.61,0,0,1-.15.25h0l-.48.52-.4.4h0l-.32.33-.28.27-1.1,1.27h0a.69.69,0,0,1-.23.18.31.31,0,0,1-.32-.06l0,0V332a.44.44,0,0,1,0-.16.37.37,0,0,1,.08-.18l.16-.16v0h0l0,0h0l.07-.13h0l0,0v0h0a.33.33,0,0,0,0-.14h0v0l0,0h0a2.94,2.94,0,0,0-.18-.3,3.54,3.54,0,0,0-.33-.38c-.16-.18-.37-.39-.63-.65l-.85-.82-1-.94-2.23-2.06-.71-.67-.52-.48-.38-.35-.28-.26-.21-.2-.17-.15-.37-.33h0a1.42,1.42,0,0,0-.22-.16h0l-.07-.05-.07,0h0a.52.52,0,0,0-.23-.09.43.43,0,0,0-.19,0,.75.75,0,0,0-.2.1l-.25.19a2.72,2.72,0,0,0-.24.24h0a.44.44,0,0,1-.18.11.28.28,0,0,1-.23-.07h0a.28.28,0,0,1-.08-.31.61.61,0,0,1,.15-.25h0l1.36-1.39,1.1-1.27h0a.83.83,0,0,1,.24-.18.31.31,0,0,1,.32.06h0a.28.28,0,0,1,.09.24.41.41,0,0,1-.09.19l-.27.35a.61.61,0,0,0-.05.12h0a.27.27,0,0,0,0,.12.78.78,0,0,0,.34.66l1.09,1,1.63,1.51.21.19,4.85-5.23-.2-.19-1.49-1.38-1.24-1.15a1.56,1.56,0,0,0-.27-.2.79.79,0,0,0-.23-.08h-.12a.63.63,0,0,0-.3.12h0l-.07.05-.07.06a3.6,3.6,0,0,0-.36.33h0a.34.34,0,0,1-.19.11h0a.27.27,0,0,1-.24-.07h0a.28.28,0,0,1-.08-.31h0a.61.61,0,0,1,.15-.25h0l1.36-1.39,1.1-1.27h0a.79.79,0,0,1,.23-.17.27.27,0,0,1,.3.05h0a.25.25,0,0,1,.09.23.37.37,0,0,1-.09.19l-.27.36a.61.61,0,0,0,0,.12h0a.26.26,0,0,0,0,.11.8.8,0,0,0,.34.67l1.09,1,1.63,1.52,2.22,2.06.8.74.76.69c.25.23.46.42.66.58a5.78,5.78,0,0,0,.5.4h0l.12.08.1.07h0a1.35,1.35,0,0,0,.39.19.29.29,0,0,0,.16,0,.57.57,0,0,0,.21-.12l.57-.52a.3.3,0,0,1,.17-.08h.22l0,0Z" transform="translate(-484.23 -278)"/><path class="cls-3" d="M513.81,337.77l.29.19h0l.54.38.56.42h0c.16.13.29.23.37.31h0l.07.06h0l.06.06h0a.79.79,0,0,1,.2.29h0a.8.8,0,0,1,0,.18h0v.23h0a4.34,4.34,0,0,1-.12.61c-.06.22-.14.48-.25.77a13.54,13.54,0,0,1-.7,1.63h0c-.16.32-.33.62-.51.91s-.36.57-.54.82a7.28,7.28,0,0,1-3.46,2.68h0a6,6,0,0,1-2.66.31,7.93,7.93,0,0,1-2.79-.86h0c-.21-.11-.42-.23-.61-.35a5.72,5.72,0,0,1-.57-.39,6.27,6.27,0,0,1-2.05-2.67h0a5.79,5.79,0,0,1-.27-.8,5.64,5.64,0,0,1-.15-.82,8,8,0,0,1,1-4.57c.16-.31.33-.62.51-.92s.38-.6.59-.9l.62-.88.62-.9a.5.5,0,0,1,.21-.2.38.38,0,0,1,.31,0h0l.4.26.42.25h0l.12.07h0l.12.07h0l.66.36h0l.14.08h0l.14.07h0a3.87,3.87,0,0,1,.48.28h0s.05,0,.06,0l.05,0h0a.28.28,0,0,1,.09.37.27.27,0,0,1-.31.15h0a.87.87,0,0,1-.32-.11,2.19,2.19,0,0,0-1.14-.25,2.42,2.42,0,0,0-1.14.42h0a4.36,4.36,0,0,0-.95.89,7.94,7.94,0,0,0-.85,1.34,7,7,0,0,0-.78,2.48,3.79,3.79,0,0,0,.33,2.07,6.26,6.26,0,0,0,3,2.72h0a6.64,6.64,0,0,0,.62.28,5.1,5.1,0,0,0,.63.2,6,6,0,0,0,3.3-.05,5.79,5.79,0,0,0,2.13-1.12,5.93,5.93,0,0,0,1.49-1.93h0l.13-.26h0l.11-.26a6.64,6.64,0,0,0,.4-1.11,2.39,2.39,0,0,0,.06-.65,2.83,2.83,0,0,0-.13-.63h0l0-.08h0l0-.08a1.79,1.79,0,0,0-.32-.45c-.1-.12-.2-.22-.29-.31a2,2,0,0,0-.24-.2h0l-.07-.06-.06-.06a.33.33,0,0,1-.1-.39h0a.21.21,0,0,0,0-.06h0a.28.28,0,0,1,.22-.09.63.63,0,0,1,.21.05l.06,0Z" transform="translate(-484.23 -278)"/><path class="cls-3" d="M505.25,356.37a4,4,0,0,1,1.34.66,3.33,3.33,0,0,1,.91,1.12h0a3.75,3.75,0,0,1,.44,1.56,5.43,5.43,0,0,1-.22,1.78h0l-.06.18a1.54,1.54,0,0,1-.05.17,6.71,6.71,0,0,1-.34.82c-.1.18-.2.35-.31.52a4.17,4.17,0,0,1-.36.47l0,0h0l0,0h0l-.05,0a.37.37,0,0,1-.25.12h0a.63.63,0,0,1-.22,0h0l-.31-.08h0l-.16,0h0l-.14,0h0l-.63-.2-.81-.3h0l-.08,0h0l-.07,0a.3.3,0,0,1-.19-.36.29.29,0,0,1,.2-.2.43.43,0,0,1,.25,0h0l.1,0,.09,0h0a2.22,2.22,0,0,0,.38.07h0a2.12,2.12,0,0,0,.77-.09,1.82,1.82,0,0,0,.65-.39,2.42,2.42,0,0,0,.45-.58,3.1,3.1,0,0,0,.32-.78,2.62,2.62,0,0,0,.1-1,2.17,2.17,0,0,0-.27-.85h0a2,2,0,0,0-.12-.19,2,2,0,0,0-1.1-.75h0l-.19,0-.21,0-.2,0a2.31,2.31,0,0,0-.87.09h0l-.2.07-.23.09a11,11,0,0,0-1.47.88h0l-.82.57h0l-.38.26-.37.23a6,6,0,0,1-1.71.73h0l-.26.05-.26,0a4,4,0,0,1-1.35-.15h0l-.38-.13h0l-.34-.17a2.86,2.86,0,0,1-1.29-1.35h0v0h0a3.65,3.65,0,0,1-.14-.35c0-.12-.07-.24-.1-.37a4.42,4.42,0,0,1,.13-2.11h0c0-.08.05-.16.07-.24s.05-.14.08-.23h0a6.06,6.06,0,0,1,.47-1.06h0l.05-.1h0l.05-.09h0a2.7,2.7,0,0,0,.13-.33h0l0-.06a.14.14,0,0,0,0-.06h0A.27.27,0,0,1,496,354h0l.25.09h0l.36.12h0l.13.05.13,0h0l.85.26h0a1.33,1.33,0,0,1,.33.13.28.28,0,0,1,.15.32h0a.27.27,0,0,1-.21.19.51.51,0,0,1-.25,0h-.12l-.29,0h-.17l-.24,0h0a1.1,1.1,0,0,0-.4.18,1.56,1.56,0,0,0-.36.33h0l-.09.12h0L496,356a3.66,3.66,0,0,0-.38.91v0h0a2.25,2.25,0,0,0-.05.22h0l0,.22a1.92,1.92,0,0,0,.18,1h0a1.45,1.45,0,0,0,.43.55,2,2,0,0,0,.69.33h0l.18,0,.18,0a1.84,1.84,0,0,0,.87-.12h0l.19-.08h0l.22-.1a16.84,16.84,0,0,0,1.53-1l1.06-.75h0a7.59,7.59,0,0,1,1.05-.64,5.11,5.11,0,0,1,1-.38,3.92,3.92,0,0,1,1-.1,4.5,4.5,0,0,1,1.07.17Z" transform="translate(-484.23 -278)"/><path class="cls-3" d="M505.73,394.77c0-.15.07-.33.24-.35a.27.27,0,0,1,.29.13h0a.61.61,0,0,1,.1.28h0l0,.21h0l0,.2c0,.33.08.61.11.84h0l.05.46h0l0,.38.28,1.59h0a.55.55,0,0,1,0,.29h0a.29.29,0,0,1-.24.21h-.06l-.05,0a.43.43,0,0,1-.13-.09h0a.29.29,0,0,1-.09-.16l-.14-.48a.23.23,0,0,0-.07-.1.37.37,0,0,0-.14-.07h0l-.07,0h-.07a2,2,0,0,0-.44,0h-.19l-.16,0h0l-1.08.11-2.26.31-3,.43-2,.29-1.67.23a1.31,1.31,0,0,0-.33.09.56.56,0,0,0-.2.12h0l0,0h0l0,.05h0a.6.6,0,0,0-.1.31c0,.1,0,.2,0,.31s0,.23,0,.35h0a.32.32,0,0,1,0,.22.25.25,0,0,1-.21.14h0c-.21,0-.34-.11-.38-.41h0l-.23-1.93-.34-2h0c0-.34-.08-.66-.1-1a7.84,7.84,0,0,1,0-.84,3.53,3.53,0,0,1,.13-.78,3.75,3.75,0,0,1,.3-.76h0a3.08,3.08,0,0,1,.32-.48,3.19,3.19,0,0,1,.45-.45h0a3.39,3.39,0,0,1,.72-.44,2.75,2.75,0,0,1,.79-.23,4.33,4.33,0,0,1,2.06.17h0l.31.12.31.14a8.27,8.27,0,0,1,1.56,1l.09-.1.22-.21,1.07-1.12h0l.29-.3.25-.26.77-.81h0l.14-.15h0l.13-.16c.24-.28.49-.58.76-.92a3.76,3.76,0,0,0,.46-.66,3.19,3.19,0,0,0,.29-.63h0l0-.1,0-.11,0-.11h0a3,3,0,0,0,.05-.52h0a.17.17,0,0,0,0-.1h0v-.18h0c0-.07,0-.14,0-.19h0a.88.88,0,0,0,0-.16.38.38,0,0,1,.07-.28.26.26,0,0,1,.19-.1.25.25,0,0,1,.12,0,.18.18,0,0,1,.09.06h0a.83.83,0,0,1,.18.47l.17,1.21h0v0a.74.74,0,0,1,0,.19.9.9,0,0,1,0,.18,5.13,5.13,0,0,1,0,.72,3.05,3.05,0,0,1-.05.41h0a3.17,3.17,0,0,1-.12.41,3,3,0,0,1-.3.59,7.94,7.94,0,0,1-.51.66h0l-.1.12h0l-.13.14h0c-.26.28-.65.68-1.18,1.22h0l-2.26,2.21h0v0h0a.13.13,0,0,0,0,.06h0l.29,2,.36-.05,1.08-.16,1-.15.87-.15c.25,0,.46-.09.62-.13h0l.13,0h0l.12,0a1.53,1.53,0,0,0,.4-.18h0a.49.49,0,0,0,.13-.38h0l0-.76Zm-8.87-1.3h0l-.42.08-.38.1a3.07,3.07,0,0,0-1.47.9,2.51,2.51,0,0,0-.51.95,3.13,3.13,0,0,0,0,1.19c0,.12,0,.23.06.35a3,3,0,0,0,.07.32h0l0,.08,0,.08h0a1,1,0,0,0,.09.24h0l5.57-.79h0l0-.06h0v0a.13.13,0,0,0,0-.06,5,5,0,0,0,0-.53c0-.17,0-.35,0-.53s0-.36-.06-.54h0l0-.1h0l0-.11h0a3.52,3.52,0,0,0-.11-.44,1.34,1.34,0,0,0-.12-.24h0a1.37,1.37,0,0,0-.19-.23h0a1.81,1.81,0,0,0-.43-.33,2.6,2.6,0,0,0-.58-.23,3.22,3.22,0,0,0-.73-.1,5.38,5.38,0,0,0-.87.06Z" transform="translate(-484.23 -278)"/><path class="cls-3" d="M507.17,407.71l.3-.1.48-.13h0l.5-.12.4-.08h.2a.56.56,0,0,1,.41.14,1.21,1.21,0,0,1,.16.26,4.5,4.5,0,0,1,.19.42h0l.35.93h0l.3.8c.47,1.25.76,2,.85,2.23l.68,1.54h0v0h0a.54.54,0,0,1,0,.26.26.26,0,0,1-.16.25h0l-.06,0h-.15a.27.27,0,0,1-.19-.17h0l-.09-.22-.08-.11h0l-.06-.08-.09-.08h0l-.09,0h-.17l-.27,0h0l-.09,0-.13,0c-.25.08-.62.2-1.1.38h0l-1.11.43-1.28.5-2.8,1.15-.91.37-.66.26-.48.2-.35.14-.27.11-.2.08-.45.2-.25.13h0l-.24.16h0l-.1.11h0l0,0s0,0,0,.05a.77.77,0,0,0,0,.31h0v.08h0l0,.08h0a3.49,3.49,0,0,0,.15.46.27.27,0,0,1-.15.4.28.28,0,0,1-.31-.05h0a.83.83,0,0,1-.16-.25h0l-.69-1.81h0l-1.46-3.6-.34-.63-.08-.07-.1-.08,0,0,0-.05a.24.24,0,0,1,0-.27.5.5,0,0,1,.2-.13h0l.11,0,.19,0h.13a3.75,3.75,0,0,0,.39-.1l1.08-.35h0c.22,0,.36,0,.42.17a.28.28,0,0,1,0,.28.46.46,0,0,1-.2.15h0a.84.84,0,0,0-.23.12l-.2.17h0a.86.86,0,0,0-.13.2.71.71,0,0,0,0,.26h0a2,2,0,0,0,0,.47,4,4,0,0,0,.18.56h0l.68,1.78,4.36-1.77-.3-.72-.1-.26-.09-.22-.09-.21-.25-.63c-.07-.12-.11-.21-.14-.26h0a1.16,1.16,0,0,0-.07-.15,1.22,1.22,0,0,0-.21-.38.54.54,0,0,0-.19-.16l-.25-.1h0a.43.43,0,0,1-.18-.17l0-.06,0-.06h0v0h0l0,0a.33.33,0,0,1,.17-.16h0l.15,0h0l.14,0h0l.78-.21h0l.16,0h0l.14-.05h0c.24-.07.43-.14.59-.2h0l0,0h0a.6.6,0,0,1,.24-.06h0a.3.3,0,0,1,.26.11h0l0,.06h0a.3.3,0,0,1,0,.26.45.45,0,0,1-.18.15h0a1.69,1.69,0,0,0-.27.13h0a.91.91,0,0,0-.19.13h0l-.05,0,0,0h0a.51.51,0,0,0-.11.16h0a.85.85,0,0,0,0,.23,1.32,1.32,0,0,0,.05.32h0l0,.11h0l0,.12h0c.07.22.17.5.29.83h0l.07.19h0l.07.18h0c.11.3.22.58.34.86L509,412a2.26,2.26,0,0,0,.57-.32.67.67,0,0,0,.23-.33h0a.31.31,0,0,0,0-.1h0a.38.38,0,0,0,0-.15,4.43,4.43,0,0,0-.36-1.24h0l-.06-.15h0l-.06-.15h0c-.1-.23-.19-.42-.27-.58h0l0-.09-.05-.08h0a1.6,1.6,0,0,0-.28-.35h0a.34.34,0,0,0-.12-.09.57.57,0,0,0-.13-.08h0a1.7,1.7,0,0,0-1,0h0a.9.9,0,0,1-.27,0,.29.29,0,0,1-.24-.18h0a.25.25,0,0,1,.08-.3h0a.64.64,0,0,1,.22-.13Z" transform="translate(-484.23 -278)"/><path class="cls-3" d="M515.53,422a.29.29,0,0,1,.32,0,.55.55,0,0,1,.21.2c.15.2.29.39.41.57l.33.47h0l.25.38h0l.21.32,1,1.33h0l.05.07h0a.43.43,0,0,1,0,.07h0a.31.31,0,0,1-.08.41l-.05,0h-.22a.21.21,0,0,1-.15-.1l-.34-.35h0l0,0,0,0h0a.39.39,0,0,0-.22,0h0l-.06,0-.07,0a2.35,2.35,0,0,0-.44.2h0l-.11.06-.12.08h0c-.23.14-.55.36-1,.64l-.88.64-1,.7-1.39,1,4.21,5.76,1.39-1,.88-.64.82-.61h0l.21-.17h0l.2-.15c.33-.25.58-.46.77-.63h0l.1-.1L521,431a1.11,1.11,0,0,0,.26-.35h0v0s0,0,0-.05a.59.59,0,0,0-.09-.3l-.39-.66a.31.31,0,0,1,0-.17h0a.45.45,0,0,1,0-.16l0-.06,0,0a.29.29,0,0,1,.32,0,.65.65,0,0,1,.21.2l.41.57.33.47h0l.26.38h0l.21.32h0l1,1.33h0a.35.35,0,0,1,0,.08h0a.43.43,0,0,1,0,.07h0a.31.31,0,0,1-.08.41l-.05,0h-.18a.31.31,0,0,1-.2-.11h0l-.13-.19-.11-.09h0l-.07-.06h0l0,0,0,0h0a.26.26,0,0,0-.15,0l-.16,0-.25.1h0l-.09,0-.12.06h0c-.22.13-.54.34-1,.64l-1,.68-1.12.8-2.44,1.79-.8.58-.57.41h0l-.41.31h0l-.31.22h0l-.23.17-.18.14h0l-.12.09h0l-.12.09h0a3.68,3.68,0,0,0-.35.3h0l-.19.21a.33.33,0,0,0-.07.13h0a.06.06,0,0,1,0,0h0v.06a.58.58,0,0,0,.06.3c0,.09.09.18.14.27l.19.29h0a.37.37,0,0,1,.08.21.26.26,0,0,1-.12.22h0a.29.29,0,0,1-.32,0h0a.65.65,0,0,1-.21-.2h0l-1.1-1.59h0l-1-1.33h0a.59.59,0,0,1-.12-.26.28.28,0,0,1,.1-.29h0a.28.28,0,0,1,.25,0,.36.36,0,0,1,.18.13l.28.31h0a.28.28,0,0,0,.11.08.24.24,0,0,0,.1.05.82.82,0,0,0,.71-.21h0l1.2-.88,1.81-1.31h0l.23-.16-4.21-5.77-.22.17h0l-1.64,1.19-1.37,1a1.89,1.89,0,0,0-.25.23.88.88,0,0,0-.12.2h0s0,0,0,.06a.13.13,0,0,0,0,.06h0a.59.59,0,0,0,.06.31h0a2.6,2.6,0,0,0,.15.28,2.49,2.49,0,0,0,.19.3h0a.37.37,0,0,1,.08.21.26.26,0,0,1-.12.22.29.29,0,0,1-.32,0,.65.65,0,0,1-.21-.2h0l-1.1-1.59h0l-1-1.33h0a.18.18,0,0,1-.05-.07h0a.43.43,0,0,1,0-.07h0a.3.3,0,0,1,.08-.41h0a.28.28,0,0,1,.25,0,.34.34,0,0,1,.17.13l.29.31h0a.28.28,0,0,0,.11.08l.1.05a.82.82,0,0,0,.71-.21h0l1.2-.88,1.8-1.31,2.45-1.79h0l.88-.64.83-.61c.52-.39.92-.71,1.18-.95a4.08,4.08,0,0,0,.3-.31.81.81,0,0,0,.15-.23h0s0,0,0,0,0,0,0,0h0a.56.56,0,0,0-.09-.3l-.39-.66a.34.34,0,0,1-.05-.17h0v0h0v0h0a.51.51,0,0,1,0-.09l0-.05,0,0Z" transform="translate(-484.23 -278)"/><path class="cls-3" d="M525.15,443.55h0a.25.25,0,0,1,.2-.07h0a.34.34,0,0,1,.18.07h0l.35.24.06,0h0l.07,0h0a.35.35,0,0,0,.22,0l.17-.07a.65.65,0,0,0,.15-.1l0-.05h0l.06-.06c.12-.12.3-.3.52-.55h0l.13-.14h0l.12-.14.53-.59,1.26-1.46h0l.1-.11h0l.09-.1h0a2.44,2.44,0,0,1,.33-.33h0l.06,0h0l.06,0a.64.64,0,0,1,.31,0h0l.24.06.24.08a6.87,6.87,0,0,1,1.28.59h0l.25.15h0l.24.16a10.82,10.82,0,0,1,1.08.8,11.41,11.41,0,0,1,2,2.16,7.91,7.91,0,0,1,1.08,2.35,5.91,5.91,0,0,1,0,3,7.39,7.39,0,0,1-1.6,2.87,7.62,7.62,0,0,1-2.54,2,5.66,5.66,0,0,1-2.88.5h0c-.23,0-.47-.05-.7-.09a5.94,5.94,0,0,1-.7-.17,9.39,9.39,0,0,1-3.48-2h0l-.17-.15h0l-.17-.16c-.29-.28-.61-.62-1-1h0l-.2-.23-.2-.23c-.35-.41-.71-.81-1.06-1.21h0a.38.38,0,0,1-.14-.23.31.31,0,0,1,.07-.27h0a2.65,2.65,0,0,0,.25-.24c.1-.09.22-.2.34-.33l.46-.49.61-.7h0a.75.75,0,0,1,.27-.22.3.3,0,0,1,.33,0h0a.25.25,0,0,1,.07.29h0a.92.92,0,0,1-.11.23h0l0,0,0,.05h0a1.57,1.57,0,0,0-.18.31h0l0,.07h0l0,.07a2.39,2.39,0,0,0-.1.44h0a1.7,1.7,0,0,0,0,.66,3.55,3.55,0,0,0,.32.82,7,7,0,0,0,.7,1,8.75,8.75,0,0,0,1,1,6.78,6.78,0,0,0,1.78,1.15,4.27,4.27,0,0,0,1.76.36h.11l.56-.06a3.7,3.7,0,0,0,.55-.14,6.16,6.16,0,0,0,2.66-1.93h0c.18-.21.35-.43.51-.65a7.39,7.39,0,0,0,.42-.66,5.87,5.87,0,0,0,.74-3.58,6.09,6.09,0,0,0-.66-2.18,6.26,6.26,0,0,0-1.47-1.8h0l-.12-.1h0l-.13-.1h0a6,6,0,0,0-.62-.45h0l-.11-.07-.12-.06a2,2,0,0,0-.53-.19.44.44,0,0,0-.48.18l-1.92,2.21h0a2.59,2.59,0,0,0-.18.21l-.16.19a2.76,2.76,0,0,0-.41.62h0a.09.09,0,0,0,0,.05.06.06,0,0,0,0,.06.9.9,0,0,0,.2.47h0l0,0,0,.05a3,3,0,0,0,.31.3h0s0,0,0,0l0,0h0a.27.27,0,0,1,0,.33h0a.27.27,0,0,1-.08.07l-.09,0h0a.49.49,0,0,1-.39-.16h0l-1.44-1.31-1.3-1.06h0c-.24-.21-.28-.39-.14-.55Z" transform="translate(-484.23 -278)"/><path class="cls-3" d="M546,451.19a.31.31,0,0,1,.28-.15.79.79,0,0,1,.28.1h0l.19.11h0l.17.1c.29.17.54.31.74.44l.39.24h0l.33.21h0l1.48.79h0a.56.56,0,0,1,.23.19.27.27,0,0,1,0,.31l0,.06,0,0h-.05l-.08,0h0a.3.3,0,0,1-.21,0l-.21-.11h-.08l-.14,0h-.14a.12.12,0,0,0-.09,0l-.14.1a1.66,1.66,0,0,0-.18.19h0l-.06.07-.08.11h0c-.15.2-.36.53-.64,1-.18.29-.39.63-.61,1s-.45.75-.69,1.18l-1.51,2.63-.49.85-.35.61-.26.45-.19.33-.14.25-.11.2h0a3.1,3.1,0,0,0-.34.68h0a2.13,2.13,0,0,0-.09.27.4.4,0,0,0,0,.15h0a.06.06,0,0,0,0,0h0a.43.43,0,0,0,0,.05h0a.69.69,0,0,0,.18.25h0l.24.2.29.18h0a.41.41,0,0,1,.16.16h0a.28.28,0,0,1,0,.25h0a.27.27,0,0,1-.28.15h0a.57.57,0,0,1-.28-.09h0l-1.67-1-1.48-.79h0a.77.77,0,0,1-.23-.19h0a.29.29,0,0,1,0-.32h0a.27.27,0,0,1,.21-.15h0a.39.39,0,0,1,.2.05l.4.17a.35.35,0,0,0,.14,0h.12q.32,0,.57-.48h0l.74-1.29,1.11-1.94,1.51-2.63h0c.17-.28.35-.6.54-.94l.51-.9h0l.13-.24.12-.21h0c.2-.37.34-.66.44-.89h0l.06-.12a.83.83,0,0,1,0-.12,1.27,1.27,0,0,0,.1-.43.37.37,0,0,0,0-.16.81.81,0,0,0-.16-.17l-.63-.44a.33.33,0,0,1-.12-.14h0a.41.41,0,0,1,0-.16v-.06l0-.05Z" transform="translate(-484.23 -278)"/><path class="cls-3" d="M557.81,457.07a.27.27,0,0,1,.24-.21.6.6,0,0,1,.29,0h0l.68.2.54.17h0l.43.14h0l.36.12,1.63.41h0l.08,0h0l.07,0h0c.18.09.24.21.19.37v.05l-.05,0h0l0,0h0a.28.28,0,0,1-.23,0l-.5-.07-.12,0a.35.35,0,0,0-.12.1h0l0,.05h0l0,.06h0a2.68,2.68,0,0,0-.22.42h0l0,.11a.78.78,0,0,1,0,.14h0c-.09.25-.21.62-.35,1.1h0c-.11.36-.22.71-.31,1s-.21.71-.33,1.15h0l-.48,1.66,6.87,1.95.47-1.66c.11-.4.21-.74.29-1s.2-.7.28-1h0l.07-.26h0l.07-.24h0a9.18,9.18,0,0,0,.22-1v0a.69.69,0,0,0,0-.13,2,2,0,0,0,0-.23,1.47,1.47,0,0,0,0-.31h0a.06.06,0,0,0,0,0l0,0a.58.58,0,0,0-.25-.19l-.72-.27h0l0,0h0l-.05,0h0a.43.43,0,0,1-.12-.2l0-.05,0-.06a.29.29,0,0,1,.24-.21.77.77,0,0,1,.29,0h0c.25.07.48.13.68.2l.54.16h0l.44.15h0l.36.12,1.64.41h0l.08,0,.08,0h0a.32.32,0,0,1,.19.38l0,.05,0,0a.41.41,0,0,1-.14.08.32.32,0,0,1-.19,0l-.23-.07H570a.23.23,0,0,0-.12.06h0l-.11.13h0c0,.06-.08.14-.13.23h0a.36.36,0,0,0,0,.09h0l-.05.12c-.09.24-.22.61-.38,1.11-.1.32-.22.7-.35,1.13s-.25.85-.38,1.32h0l-.83,2.91-.27.95-.19.68-.14.49h0l-.11.37h0l-.08.28-.06.22c0,.18-.09.34-.12.47a1.16,1.16,0,0,0,0,.27h0a1.52,1.52,0,0,0,0,.28h0a.46.46,0,0,0,0,.14.39.39,0,0,0,.1.16.72.72,0,0,0,.19.14,2.51,2.51,0,0,0,.28.13h0l.32.11h0a.29.29,0,0,1,.18.12.26.26,0,0,1,0,.23h0a.29.29,0,0,1-.23.21h0a.72.72,0,0,1-.28,0h0l-1.86-.58-1.63-.41h0a.7.7,0,0,1-.26-.12.29.29,0,0,1-.09-.3h0a.27.27,0,0,1,.17-.19.41.41,0,0,1,.22,0l.42.07a.56.56,0,0,0,.41-.12h0a1,1,0,0,0,.28-.52l.41-1.43.61-2.14.08-.27-6.87-2-.07.27h0l-.56,1.95-.46,1.62a2.73,2.73,0,0,0-.06.34.75.75,0,0,0,0,.23h0s0,0,0,.05h0l0,.05h0a.64.64,0,0,0,.24.22h0l.29.13.34.11h0a.35.35,0,0,1,.19.12h0a.28.28,0,0,1,0,.25.28.28,0,0,1-.24.21.62.62,0,0,1-.29,0h0l-1.85-.58-1.63-.41h0a.78.78,0,0,1-.26-.13.28.28,0,0,1-.09-.3h0a.27.27,0,0,1,.17-.19h0a.37.37,0,0,1,.21,0l.43.07h.14l.12,0h0a.81.81,0,0,0,.43-.6l.41-1.43.61-2.15.83-2.91c.11-.4.21-.75.29-1.05l.28-1h0l.07-.26h0l.06-.24h0c.1-.4.17-.72.21-1a2.58,2.58,0,0,0,0-.43.7.7,0,0,0,0-.27h0s0,0,0,0h0s0,0,0,0h0a.5.5,0,0,0-.25-.19l-.73-.28h0l0,0h0l0,0h0a.53.53,0,0,1-.12-.21l0-.05,0-.05Z" transform="translate(-484.23 -278)"/><path class="cls-3" d="M601.41,463.66a3.81,3.81,0,0,1-.09-1.49,3.63,3.63,0,0,1,.5-1.35,3.9,3.9,0,0,1,1.14-1.15,5.33,5.33,0,0,1,1.66-.7,4.26,4.26,0,0,1,.62-.13l.61-.07a4.12,4.12,0,0,1,.61,0h0a4.12,4.12,0,0,1,.59.07h0l.07,0h0a.43.43,0,0,1,.25.17h0l0,.05,0,.05a2.94,2.94,0,0,1,.12.4h0c0,.18.09.36.13.52s.06.31.08.44h0l0,.31c0,.21.08.44.1.53h0a.7.7,0,0,1,0,.29.27.27,0,0,1-.21.23h0a.27.27,0,0,1-.26-.07h0a.42.42,0,0,1-.11-.22h0l0-.09h0l0-.1a1.69,1.69,0,0,0-.14-.37h0a2,2,0,0,0-.47-.63,1.79,1.79,0,0,0-.65-.36h0l-.21-.06-.19,0-.2,0a3.43,3.43,0,0,0-1,.12,2.65,2.65,0,0,0-.9.4h0a2,2,0,0,0-.59.66h0a2.09,2.09,0,0,0-.25.74,1.93,1.93,0,0,0,0,.79h0l.06.22c0,.07,0,.14.08.2h0a2.34,2.34,0,0,0,.58.85h0l.16.14.19.14h0a10.59,10.59,0,0,0,1.5.84h0l.9.43h0a11.71,11.71,0,0,1,1.35.74,6.1,6.1,0,0,1,1,.78h0l.17.2.16.21h0a4.06,4.06,0,0,1,.56,1.27h0c0,.13.06.26.08.39a2.43,2.43,0,0,1,0,.38,2.94,2.94,0,0,1-.53,1.79h0a3.39,3.39,0,0,1-.5.58,4.3,4.3,0,0,1-1.91.95h0l-.07,0h0l-.23.06-.24,0h0A5.91,5.91,0,0,1,605,473h-.23a1.83,1.83,0,0,0-.33,0h0a.49.49,0,0,1-.24,0h0a.32.32,0,0,1-.18-.21h0v0h0v-.06h0l0-.07h0c0-.14-.05-.3-.09-.5h0c0-.15-.06-.32-.1-.5l-.16-.63a2,2,0,0,1,0-.36.27.27,0,0,1,.21-.28h0a.29.29,0,0,1,.27.09h0a.51.51,0,0,1,.13.21h0v0l0,.05h0a2.57,2.57,0,0,0,.12.27h0l0,.07h0l0,.06h0a1,1,0,0,0,.16.21h0l.08.08.1.07a1.53,1.53,0,0,0,.64.24,2.87,2.87,0,0,0,.6,0,4.89,4.89,0,0,0,.7-.12h0l.22-.07.21-.08h0a1.9,1.9,0,0,0,.79-.66h0a1.59,1.59,0,0,0,.26-.65,2.07,2.07,0,0,0-.06-.77h0a1.33,1.33,0,0,0,0-.19c0-.05,0-.11-.07-.17a2,2,0,0,0-.54-.71h0l-.16-.12h0l-.2-.13a13.4,13.4,0,0,0-1.62-.85l-1.18-.54a7.81,7.81,0,0,1-1.08-.59,6,6,0,0,1-.84-.69,4.26,4.26,0,0,1-.6-.84,5.14,5.14,0,0,1-.39-1Z" transform="translate(-484.23 -278)"/><path class="cls-3" d="M616.45,459.12h0a.14.14,0,0,1,0-.06h0l0-.08h0c0-.16-.14-.42-.25-.8h0c-.09-.26-.15-.49-.2-.68s-.09-.35-.11-.47v0h0a.34.34,0,0,1,0-.09h0a1.54,1.54,0,0,1,0-.19.48.48,0,0,1,0-.22.51.51,0,0,1,.08-.17,1.82,1.82,0,0,1,.14-.19h0a3.14,3.14,0,0,1,.45-.4c.19-.15.41-.31.67-.48h0l.22-.14.21-.13a12.21,12.21,0,0,1,1.11-.61h0a10.78,10.78,0,0,1,3.3-1.06,6.83,6.83,0,0,1,3,.25h0a6.15,6.15,0,0,1,.71.28,7,7,0,0,1,.66.35,7.31,7.31,0,0,1,2.64,3.09,7.18,7.18,0,0,1,.71,2.33,6.4,6.4,0,0,1-.17,2.34,6.25,6.25,0,0,1-1.44,2.63,9,9,0,0,1-2.74,2c-.32.15-.64.29-1,.42s-.66.26-1,.37l-1,.33-1.05.34-.06,0h-.09a.34.34,0,0,1-.36-.2h0c0-.15-.11-.3-.17-.45s-.11-.3-.18-.46h0l-.19-.46h0c-.07-.16-.15-.32-.23-.48s-.17-.35-.22-.47h0a2.15,2.15,0,0,1-.13-.32h0a.61.61,0,0,1,0-.25h0a.26.26,0,0,1,.15-.24h0a.28.28,0,0,1,.34.06h0a.86.86,0,0,1,.19.29h0a1.49,1.49,0,0,0,.18.3,1.79,1.79,0,0,0,.2.26,2.22,2.22,0,0,0,1.54.66,4.25,4.25,0,0,0,1.29-.14,8.25,8.25,0,0,0,3.6-2.06h0a3.91,3.91,0,0,0,1-1.86,4.7,4.7,0,0,0,0-1.83,8.57,8.57,0,0,0-.76-2.15,6.18,6.18,0,0,0-1.39-1.88,6,6,0,0,0-2-1.21,5.79,5.79,0,0,0-2.37-.39,6.15,6.15,0,0,0-2.36.65,7.55,7.55,0,0,0-.86.47h0a5.06,5.06,0,0,0-.64.45h0a2.3,2.3,0,0,0-.71,1.06h0s0,.05,0,.08h0s0,.06,0,.09a1.91,1.91,0,0,0,0,.54h0a3.83,3.83,0,0,0,.05.41h0c0,.12,0,.22.06.31a.63.63,0,0,1,0,.29.3.3,0,0,1-.17.26h0a.28.28,0,0,1-.3,0h0a.66.66,0,0,1-.16-.22Z" transform="translate(-484.23 -278)"/><path class="cls-3" d="M632.51,447a.31.31,0,0,1,0-.32.68.68,0,0,1,.2-.22l.57-.42c.15-.12.31-.23.46-.33h0l.37-.26.33-.22,1.3-1.05h0a.7.7,0,0,1,.26-.13h0a.28.28,0,0,1,.3.11l0,.05v.08h0v.07h0v0a.42.42,0,0,1-.11.18h0l-.1.07h0l-.09.07,0,.07h0l-.09.12h0l0,0h0l0,0h0a.24.24,0,0,0,0,.14h0a.41.41,0,0,0,0,.17h0a2.08,2.08,0,0,0,.1.24h0c0,.09.13.23.26.43s.3.45.51.74h0c.2.29.44.62.69,1l.82,1.1,1.83,2.42.6.78.42.56h0l.31.41h0l.22.31h0l.18.23h0l.14.18h0l.1.13h0l.09.11h0a4.48,4.48,0,0,0,.31.34h0l.07.06h0l.06,0h0a.74.74,0,0,0,.21.14.4.4,0,0,0,.19,0,.66.66,0,0,0,.22-.06h0l.08,0h0l.07,0h0a3.1,3.1,0,0,0,.41-.26h0a.27.27,0,0,1,.1-.06.22.22,0,0,1,.11,0l.11,0h0a.36.36,0,0,1,.11.1h0a.29.29,0,0,1,0,.31h0a.72.72,0,0,1-.19.21h0l-1.58,1.14-1.3,1.05h0L641,457l-.07,0a.31.31,0,0,1-.41-.08h0a.23.23,0,0,1,0-.24h0a.36.36,0,0,1,.12-.18l.31-.29a.52.52,0,0,0,.16-.4,1,1,0,0,0-.24-.54l-.47-.63-.43-.56h0l-.21-.28h0l-1.14-1.5-1.82-2.41h0l-.18-.25h0l-.19-.24c-.32-.43-.63-.83-.91-1.19s-.39-.5-.55-.69l-.42-.48h0l-.1-.1h0l-.09-.09h0a1.37,1.37,0,0,0-.35-.25h-.09a.52.52,0,0,0-.3.08l-.66.41h0l-.11.05h-.09a.31.31,0,0,1-.13,0l-.06,0,0,0Z" transform="translate(-484.23 -278)"/><path class="cls-3" d="M642.07,440a.31.31,0,0,1-.09-.34h0a.7.7,0,0,1,.18-.3h0s.13-.15.28-.32l.62-.68h0l.21-.23h0l.19-.21h0l.61-.69h0a1.38,1.38,0,0,1,.32-.27h0a.3.3,0,0,1,.37,0h0s0,0,0,0h0l0,0h0a.33.33,0,0,1,0,.22.57.57,0,0,0,.11.1l.39.28h0L652,442.2l-3.94-8.59h0c-.07-.14-.12-.26-.17-.37h0l-.09-.24h0v0h0s0,0,0-.06a.13.13,0,0,1,0-.06.36.36,0,0,1,.08-.27h0a.1.1,0,0,1,0,0l.05,0h0a.49.49,0,0,1,.28,0l.27,0,.39.09h0l9.13,2.3-5-4.94-1-.89a.56.56,0,0,0-.23-.12.25.25,0,0,0-.14,0h0l-.07.05h0l-.06.05h0l-.24.21h0l0,0,0,0h0l-.11.12h0a.22.22,0,0,1-.09.07h0l-.09,0h-.17l-.07-.06h0a.3.3,0,0,1-.1-.31.74.74,0,0,1,.15-.27h0l1.07-1.19.88-1.14h0a.63.63,0,0,1,.25-.2h0a.29.29,0,0,1,.32.05l.08.06v.09c0,.06,0,.11,0,.15a.42.42,0,0,1-.07.15h0l-.15.19h0c0,.07-.09.14-.13.22h0l0,.05a.29.29,0,0,0,0,.09h0a.75.75,0,0,0,0,.2h0a1.28,1.28,0,0,0,.2.32,6,6,0,0,0,.47.53h0l7.81,8.14h0l.07.08.05.07h0a.34.34,0,0,1,0,.45h0l-.06.06a.44.44,0,0,1-.23.06.77.77,0,0,1-.25,0l-11.31-2.8,4.89,10.47h0l0,.08h0a.13.13,0,0,1,0,.08h0a.4.4,0,0,1-.05.4h0a.25.25,0,0,1-.1.08l-.11,0a1,1,0,0,1-.52-.2l-8.86-5.9-.52-.31a3,3,0,0,0-.37-.18h0l-.15,0h0l-.14,0a.82.82,0,0,0-.58.12h0l-.08.05h0l-.07,0h0c-.11.08-.21.17-.3.25h0l-.18.18a2.31,2.31,0,0,0-.16.19h0a.48.48,0,0,1-.17.13.28.28,0,0,1-.25,0Z" transform="translate(-484.23 -278)"/><path class="cls-3" d="M663.21,422.85a7.9,7.9,0,0,1-2.38-1.52,6.9,6.9,0,0,1-1.56-2.23h0a6.58,6.58,0,0,1-.59-2.73,7.37,7.37,0,0,1,.61-2.83h0a8.88,8.88,0,0,1,.39-.82c.15-.26.3-.5.46-.73a6.1,6.1,0,0,1,3.3-2.4h0c.22-.06.45-.12.68-.16a5.06,5.06,0,0,1,.68-.1,7.18,7.18,0,0,1,3.54.6,6.6,6.6,0,0,1,2,1.31,7.16,7.16,0,0,1,1.49,2h0l0,0h0a6.59,6.59,0,0,1,.34.78,5.4,5.4,0,0,1,.24.78h0A6.79,6.79,0,0,1,672,419h0c-.11.26-.23.51-.35.74s-.26.47-.4.69a6.75,6.75,0,0,1-2.84,2.47h0l-.06,0h0a6.37,6.37,0,0,1-.69.25,5.94,5.94,0,0,1-.7.17,6.64,6.64,0,0,1-3.78-.53Zm.34-2.05a8,8,0,0,0,2.55.65,5.6,5.6,0,0,0,2.28-.28h0a4.38,4.38,0,0,0,.54-.23h0c.18-.08.34-.17.5-.26a4.54,4.54,0,0,0,1.78-2.14,5.22,5.22,0,0,0,.44-1.93,4,4,0,0,0-.35-1.78h0a4.52,4.52,0,0,0-.25-.49,3.76,3.76,0,0,0-.32-.46A6.52,6.52,0,0,0,668,412a8.57,8.57,0,0,0-2.56-.66h0a5.79,5.79,0,0,0-2.32.26h0a4.24,4.24,0,0,0-.59.23,4.58,4.58,0,0,0-.54.28,4.73,4.73,0,0,0-2,2.31h0l0,0h0a2.34,2.34,0,0,0-.09.24,2.41,2.41,0,0,0-.08.25,4.48,4.48,0,0,0-.16,1.31h0a4.17,4.17,0,0,0,.21,1.23h0a4.43,4.43,0,0,0,.58,1.12h0a2.48,2.48,0,0,0,.29.37,3.61,3.61,0,0,0,.33.35,7.89,7.89,0,0,0,2.42,1.51Z" transform="translate(-484.23 -278)"/><path class="cls-3" d="M677.4,401.94a.29.29,0,0,1-.23-.18.5.5,0,0,1,0-.25h0a1.25,1.25,0,0,0,0-.21V401a.52.52,0,0,0-.06-.2.51.51,0,0,0-.15-.14h0a1.41,1.41,0,0,0-.37-.13c-.18-.05-.41-.09-.68-.14l-10-1.55h0l-.23,0h0l-.2,0a5,5,0,0,1-.62-.13h0l-.05,0,0,0h0a.28.28,0,0,1-.14-.3h0l0-.06,0-.06a1.55,1.55,0,0,1,.26-.26h0l.42-.33h0l.62-.46.6-.44,1.25-.9,1.66-1.16c.59-.41,1.19-.81,1.8-1.22h0l1.27-.86,1.37-.91,1.5-1,1-.65-7.68-1h0l-.28,0-.24,0a3.72,3.72,0,0,0-.88,0h0l-.1,0-.08,0h0a.41.41,0,0,0-.25.21l-.11.26a1.66,1.66,0,0,0-.06.21h0l-.05.2h0c0,.07,0,.13,0,.18h0a.34.34,0,0,1-.09.19h0a.27.27,0,0,1-.23.08h0a.28.28,0,0,1-.24-.23.77.77,0,0,1,0-.31h0l0-.2h0l0-.18h0c0-.31.09-.56.13-.74h0l.07-.36h0l.06-.3s0-.12,0-.26,0-.33.06-.53,0-.42.07-.54,0-.23,0-.3h0a.71.71,0,0,1,.09-.26h0a.29.29,0,0,1,.28-.13h0a.28.28,0,0,1,.19.14h0a.45.45,0,0,1,0,.2h0v0c0,.08,0,.15,0,.2h0v0h0v0h0s0,0,0,.06h0s0,.08,0,.14v0h0a1.37,1.37,0,0,0,0,.19h0s0,0,0,0h0l0,0h0a.69.69,0,0,0,.33.22h0l.13.05.16,0a9.77,9.77,0,0,0,1.27.25l9.75,1.52h0l.43.08.28.07a.44.44,0,0,1,.2.13.35.35,0,0,1,.07.26h0l0,.06h0l0,.05h0a1.81,1.81,0,0,1-.23.2h0l-.22.14h0c-.05.05-.12.09-.19.15h0l-6.68,4.5h0L667.79,398l8.19,1.1h0l.23,0,.2,0a2.49,2.49,0,0,0,.68,0h0a.51.51,0,0,0,.22-.11h0a.67.67,0,0,0,.16-.24l.06-.18h0l.06-.21h0l0-.06h0v-.06h0a1.38,1.38,0,0,0,.05-.25h0a.3.3,0,0,1,.1-.2.32.32,0,0,1,.23-.07h0a.28.28,0,0,1,.24.25,1.2,1.2,0,0,1,0,.32h0c0,.22-.07.41-.09.56s-.06.33-.09.46h0l-.08.39h0L678,400h0v.06h0v.06h0c0,.12,0,.31-.07.59v.17h0l0,.13c0,.22,0,.37-.05.44h0a.83.83,0,0,1-.09.29h0a.29.29,0,0,1-.29.16Z" transform="translate(-484.23 -278)"/><path class="cls-3" d="M673.62,377.78a8,8,0,0,1-2.83-.19,6.84,6.84,0,0,1-2.44-1.19h0c-.21-.17-.42-.34-.61-.52a7.27,7.27,0,0,1-.54-.57,7,7,0,0,1-1.52-3.78,7.49,7.49,0,0,1,.25-3,6,6,0,0,1,1.47-2.44h0c.16-.16.34-.32.51-.47s.37-.29.55-.42a7.37,7.37,0,0,1,3.4-1.2,7,7,0,0,1,2.43.15,7.5,7.5,0,0,1,2.25,1h0a6.38,6.38,0,0,1,2,2.11,7.32,7.32,0,0,1,.92,2.93,8.52,8.52,0,0,1-.15,2.79,6.6,6.6,0,0,1-1.11,2.37h0c-.15.2-.31.39-.47.57s-.35.34-.53.49a6.75,6.75,0,0,1-3.6,1.41Zm-.7-2a8,8,0,0,0,2.54-.66,5.79,5.79,0,0,0,1.86-1.35h0a4.48,4.48,0,0,0,1.19-3.66,5.33,5.33,0,0,0-.55-1.91,4,4,0,0,0-1.17-1.38h0a4.63,4.63,0,0,0-.46-.31,4.81,4.81,0,0,0-.51-.25,6.53,6.53,0,0,0-3.27-.36,8.21,8.21,0,0,0-2.57.66,5.77,5.77,0,0,0-1.9,1.35h0a6.26,6.26,0,0,0-.41.49h0q-.18.25-.33.51a4.73,4.73,0,0,0-.59,3h0a2.51,2.51,0,0,0,0,.27c0,.08,0,.17.05.26h0a4.61,4.61,0,0,0,.5,1.25h0a4.2,4.2,0,0,0,.79,1,4,4,0,0,0,1,.69h0a5.21,5.21,0,0,0,1.68.47,8.94,8.94,0,0,0,2.07,0Z" transform="translate(-484.23 -278)"/><path class="cls-3" d="M666.13,356.5h0l-.06,0h0l-.08,0h0l-.82.17h0l-.7.12-.47.06h-.31a.54.54,0,0,1-.24-.05h0l-.15-.1-.17-.15h0l-.1-.12h0l-.1-.14h0a8,8,0,0,1-.56-.95h0l-.11-.23-.11-.23a12.54,12.54,0,0,1-.49-1.16,10.61,10.61,0,0,1-.71-3.39,6.75,6.75,0,0,1,.56-2.93,6.1,6.1,0,0,1,1.58-2.16,8.07,8.07,0,0,1,2.53-1.45h0l.11,0h0a6.8,6.8,0,0,1,1.56-.37l.51,0a6.33,6.33,0,0,1,5,2.11,9.27,9.27,0,0,1,1.69,2.94h0c0,.09.07.19.1.27s.06.17.09.28a14.62,14.62,0,0,1,.39,1.48l.22,1.06.23,1.07a.19.19,0,0,1,0,.07.25.25,0,0,1,0,.08h0a.33.33,0,0,1-.24.35h0l-.47.11-.47.14h0l-.48.14-.5.18h0l-.5.17h0l-.33.1h0a.78.78,0,0,1-.26,0h0a.26.26,0,0,1-.22-.18h0a.27.27,0,0,1,.1-.33.92.92,0,0,1,.3-.16h0l.33-.15L673,353a2.2,2.2,0,0,0,.82-1.46,4.71,4.71,0,0,0,0-1.3,7.22,7.22,0,0,0-.41-1.54h0a6.5,6.5,0,0,0-.31-.75,6.75,6.75,0,0,0-.34-.66,4.31,4.31,0,0,0-2.36-2h0a3.59,3.59,0,0,0-.47-.12,4,4,0,0,0-.5-.07,7.56,7.56,0,0,0-3.06.54h0c-.21.08-.42.17-.62.27a4.54,4.54,0,0,0-.58.31,6,6,0,0,0-2.22,2.46h0v0h0a5.78,5.78,0,0,0-.28.63c-.08.22-.14.44-.2.65a5.9,5.9,0,0,0,.25,3.43c.13.34.25.64.38.91a5.32,5.32,0,0,0,.38.68h0l.11.15.12.13a2.25,2.25,0,0,0,.75.54h0l.08,0,.09,0a1.88,1.88,0,0,0,.51.06h.42a1.42,1.42,0,0,0,.31,0,1,1,0,0,1,.29,0,.32.32,0,0,1,.24.19h0a.27.27,0,0,1-.07.3.66.66,0,0,1-.24.14Z" transform="translate(-484.23 -278)"/><path class="cls-3" d="M657.18,338.36h0l0,0h0l-.07,0h0q-.19.12-.57.3L656,339h0l-.37.16h0a1.16,1.16,0,0,1-.32.07.48.48,0,0,1-.3-.06h0a1.11,1.11,0,0,1-.22-.22l-.27-.38h0l-.53-.83-.46-.73h0c-.73-1.14-1.16-1.8-1.3-2l-1-1.37h0l0-.08h0a.38.38,0,0,1-.06-.13h0a.28.28,0,0,1,.12-.34l0,0h.07l.13,0h0a.33.33,0,0,1,.15.11h0l.09.14h0l0,.05.11.1h0l.06.06h0l0,0h0l0,0h0a.31.31,0,0,0,.13,0h0l.17,0h0l.25-.09h0l.08,0,.12,0h0c.23-.12.56-.32,1-.6h0l1-.64,1.14-.76,2.51-1.7.81-.55h0l.59-.4h0l.43-.29h0l.31-.21h0l.24-.17h0l.19-.12h0l.4-.29.2-.18h0a1.14,1.14,0,0,0,.19-.2.38.38,0,0,0,.08-.13h0a.57.57,0,0,0,0-.18,1.12,1.12,0,0,0-.06-.23h0l0-.07h0l0-.08a2.25,2.25,0,0,0-.24-.42h0a.35.35,0,0,1-.07-.21h0a.3.3,0,0,1,.13-.22h0a.29.29,0,0,1,.32,0h0a.69.69,0,0,1,.21.21h0l1.05,1.64h0l2.17,3.21.47.55.21.11,0,0,0,0a.26.26,0,0,1,0,.28.49.49,0,0,1-.16.16h0a.46.46,0,0,1-.1.05h0l-.18.07h0l-.06,0-.06,0h0l-.36.18h0l-1,.57h0a.47.47,0,0,1-.22.05h0a.29.29,0,0,1-.22-.13h0l0-.07a.19.19,0,0,1,0-.08h0a.34.34,0,0,1,.19-.3l.2-.17a1,1,0,0,0,.15-.21h0l0-.06h0s0,0,0-.06h0a.72.72,0,0,0,0-.36h0a1.66,1.66,0,0,0-.14-.45,3,3,0,0,0-.29-.52h0l-1-1.61-3.9,2.64.44.64.16.23h0l.13.2h0l.13.19h0l.21.32.16.24h0l.06.08h0l.06.07h0l.16.21a1.41,1.41,0,0,0,.29.33.35.35,0,0,0,.22.11h0l.27.05h0a.42.42,0,0,1,.21.13l0,.06v.08h0v0h0v0h0a.33.33,0,0,1-.13.19h0l-.13.07h0l-.14.06h0l-.72.37-.46.26a2.89,2.89,0,0,0-.34.22h0a1,1,0,0,1-.27.14.27.27,0,0,1-.32-.11h0a.26.26,0,0,1,0-.25.33.33,0,0,1,.14-.19h0a1.54,1.54,0,0,0,.23-.18l.17-.17h0l.1-.15h0a.27.27,0,0,0,0-.12h0a.13.13,0,0,0,0-.06.68.68,0,0,0,0-.14h0a1.34,1.34,0,0,0-.12-.33h0l-.06-.1h0l-.06-.11-.46-.75c-.13-.22-.26-.42-.38-.61l-.34-.5-3.64,2.46a2.18,2.18,0,0,0-.49.44.7.7,0,0,0-.16.36h0a1.35,1.35,0,0,0,.15.52,6.34,6.34,0,0,0,.51.87h0l.09.14h0l.09.12c.14.21.27.38.38.52h0a1.7,1.7,0,0,0,.22.24,1.5,1.5,0,0,0,.25.19h0a.86.86,0,0,0,.53.13,1.83,1.83,0,0,0,.75-.2h0l.14-.05h.06a.3.3,0,0,1,.29.12h0a.25.25,0,0,1,0,.31.72.72,0,0,1-.2.18Z" transform="translate(-484.23 -278)"/><path class="cls-3" d="M640.86,304.72h0l-.17.16h0l-.17.17h0l-.19.22h0l-.7.9h0l-.05,0,0,0a.3.3,0,0,1-.34,0h0a.26.26,0,0,1-.13-.25.46.46,0,0,1,.08-.23h0a1,1,0,0,0,.12-.23h0a.78.78,0,0,0,.07-.25h0a.13.13,0,0,0,0-.06v-.07a1,1,0,0,0-.11-.35h0l-.07-.1-.07-.1a2.81,2.81,0,0,0-.62-.53h0l-.34-.23h0l-.3-.23h0l-.28-.2-.89-.63h0l-2.63,3.92.69.47.25.16h0l.22.15h0l.19.13h0l.17.11h0l.51.34h0l.32.22a1.81,1.81,0,0,0,.39.2.45.45,0,0,0,.25,0h0l.26-.05a.34.34,0,0,1,.24,0l.06,0,0,.07a.26.26,0,0,1,0,.15.17.17,0,0,1,0,.07h0a.43.43,0,0,1,0,.07l0,0h0l-.1.1-.1.11h0c-.16.18-.34.38-.52.6h0l-.33.41-.23.32h0a1.69,1.69,0,0,1-.21.23.26.26,0,0,1-.33,0h0a.27.27,0,0,1-.14-.22h0a.43.43,0,0,1,.07-.23h0a2.36,2.36,0,0,0,.15-.25,1.28,1.28,0,0,0,.09-.22h0v-.05h0a.25.25,0,0,0,0-.08.43.43,0,0,0,0-.16h0a.14.14,0,0,1,0-.06l0-.06a1.17,1.17,0,0,0-.28-.33h0l-.38-.3-.57-.42-.63-.45-.54-.36-.8,1.19-.77,1.15-.61.93h0l-.14.22h0c0,.07-.09.15-.14.21-.21.36-.37.65-.49.89h0a.76.76,0,0,0,0,.11.43.43,0,0,0,0,.11h0a.48.48,0,0,0,.2.43l.59.48a.33.33,0,0,1,.11.15.44.44,0,0,1,0,.17v.06l0,0h0a.29.29,0,0,1-.28.11h0a.69.69,0,0,1-.26-.11h0l-.58-.4-.47-.32h0l-.37-.27h0l-.31-.23-1.43-.9h0a.58.58,0,0,1-.19-.2h0a.32.32,0,0,1,0-.21h0a.54.54,0,0,1,.05-.11l0,0,0,0a.34.34,0,0,1,.16,0,.26.26,0,0,1,.19.05l.1.07h0l.09.06.13,0h0l.1,0h.09a.32.32,0,0,0,.14,0l0,0,0,0a2.38,2.38,0,0,0,.27-.23h0l.07-.07.08-.1h0c.16-.19.4-.5.71-.93h0l.68-1c.25-.36.5-.74.77-1.14l1.69-2.51.55-.82.39-.58.29-.43.21-.32h0l.16-.24h0l.13-.19h0l.09-.14.07-.11a2.84,2.84,0,0,0,.23-.41h0a1.4,1.4,0,0,0,.11-.27.42.42,0,0,0,0-.14h0a.58.58,0,0,0,0-.18h0a.73.73,0,0,0-.14-.18,2.4,2.4,0,0,0-.23-.21h0l-.27-.2h0l-.05,0,0,0a.26.26,0,0,1,0-.34h0a.3.3,0,0,1,.29-.13h0a.71.71,0,0,1,.28.12h0l1.64,1.17,3.45,2.31.64.33h.05l.18,0h0l0,0a.25.25,0,0,1,.11.25h0a.4.4,0,0,1-.08.21Z" transform="translate(-484.23 -278)"/><path class="cls-3" d="M622.46,300.73h0a7.54,7.54,0,0,1-.32.76,7.92,7.92,0,0,1-.37.71,6.93,6.93,0,0,1-2.85,2.65h0c-.24.12-.48.22-.74.32a5.94,5.94,0,0,1-.75.23,7,7,0,0,1-4-.29h0c-.29-.11-.57-.23-.83-.35a7.85,7.85,0,0,1-.76-.42h0a6.07,6.07,0,0,1-2.57-3.17h0a7,7,0,0,1-.41-2.42,7.53,7.53,0,0,1,.48-2.51h0a6.14,6.14,0,0,1,.27-.64c.1-.21.21-.41.32-.61a7,7,0,0,1,2.5-2.44h0a6,6,0,0,1,.75-.39,7.25,7.25,0,0,1,.78-.28,6.76,6.76,0,0,1,4.28.24h0a8.07,8.07,0,0,1,2.44,1.35,6.7,6.7,0,0,1,1.64,2h0v0a4.43,4.43,0,0,1,.3.67h0a5.49,5.49,0,0,1,.21.69,6.67,6.67,0,0,1-.32,3.83Zm-2.07-.23a8.16,8.16,0,0,0,.52-2.58,5.53,5.53,0,0,0-.4-2.26h0a4.73,4.73,0,0,0-1.1-1.65,4.5,4.5,0,0,0-1.67-1h0a5.44,5.44,0,0,0-2-.34,4.16,4.16,0,0,0-1.76.44h0a4.77,4.77,0,0,0-1.56,1.29,7.71,7.71,0,0,0-1.14,2.12h0v0h0q-.13.39-.24.75c-.06.25-.12.5-.16.73a6.26,6.26,0,0,0,.26,3.38h0a6.29,6.29,0,0,0,.26.58c.1.19.2.36.31.53a4.79,4.79,0,0,0,2.41,1.83h0a4.23,4.23,0,0,0,1.86.25h0a3.81,3.81,0,0,0,1.22-.28,3.9,3.9,0,0,0,1.09-.64h0c.12-.1.24-.2.35-.31L619,303a8.11,8.11,0,0,0,1.38-2.5Z" transform="translate(-484.23 -278)"/><path class="cls-1" d="M647,320.81a2.24,2.24,0,1,1,2.76-1.54,2.24,2.24,0,0,1-2.76,1.54Z" transform="translate(-484.23 -278)"/><path class="cls-1" d="M586.42,307a73.24,73.24,0,1,0,73.24,73.23A73.23,73.23,0,0,0,586.42,307ZM581,330.25h5.54c10,0,14.11,1.75,18.82,5.39,6.85,5.37,7.93,13.17,7.93,17.07a21.31,21.31,0,0,1-5.11,14.12,24,24,0,0,1-16.53,9,58.88,58.88,0,0,1-13.21.23v-4.92a34.49,34.49,0,0,0,4.61.27,16.78,16.78,0,0,0,13.34-6.48,16.2,16.2,0,0,0,3.83-10.33H583v-4.83h17a15.59,15.59,0,0,0-3.71-8.22c-3.9-4.84-9.41-5.65-13.05-5.65H558.76l-2.89-5.64Zm-23.8,98.07,3-5.89V340h13.37v82.32H583V390.18h12.34V422.3h10.69V407.67c0-8.87-.46-21.21-10.44-27.58l5.82-2.14c12,4.48,18.05,16.16,18.05,31.55v12.93l3,5.89Z" transform="translate(-484.23 -278)"/><polygon class="cls-3" points="9.55 240.07 9.55 228.62 11.11 228.62 17.12 237.61 17.12 228.62 18.58 228.62 18.58 240.07 17.02 240.07 11.01 231.07 11.01 240.07 9.55 240.07 9.55 240.07"/><path class="cls-3" d="M505,518.07l4.4-11.45H511l4.69,11.45H514l-1.33-3.47h-4.79l-1.26,3.47Zm3.31-4.7h3.88L511,510.2c-.37-1-.64-1.76-.82-2.38a14.26,14.26,0,0,1-.61,2.19l-1.26,3.36Z" transform="translate(-484.23 -278)"/><polygon class="cls-3" points="35.3 240.07 35.3 229.97 31.53 229.97 31.53 228.62 40.61 228.62 40.61 229.97 36.82 229.97 36.82 240.07 35.3 240.07 35.3 240.07"/><polygon class="cls-3" points="43.31 240.07 43.31 228.62 44.82 228.62 44.82 240.07 43.31 240.07 43.31 240.07"/><path class="cls-3" d="M532.15,512.49a6.22,6.22,0,0,1,1.53-4.46,5.23,5.23,0,0,1,4-1.61,5.55,5.55,0,0,1,2.86.75,5,5,0,0,1,1.94,2.12,6.92,6.92,0,0,1,.66,3.07,6.76,6.76,0,0,1-.7,3.12,4.77,4.77,0,0,1-2,2.08,5.72,5.72,0,0,1-2.78.71,5.42,5.42,0,0,1-2.89-.78,5,5,0,0,1-1.93-2.14,6.39,6.39,0,0,1-.66-2.86Zm1.56,0a4.55,4.55,0,0,0,1.12,3.26,3.89,3.89,0,0,0,5.61,0,4.9,4.9,0,0,0,1.1-3.42,6,6,0,0,0-.47-2.44,3.64,3.64,0,0,0-3.43-2.19,3.88,3.88,0,0,0-2.77,1.11,4.94,4.94,0,0,0-1.16,3.69Z" transform="translate(-484.23 -278)"/><polygon class="cls-3" points="61.7 240.07 61.7 228.62 63.26 228.62 69.27 237.61 69.27 228.62 70.73 228.62 70.73 240.07 69.17 240.07 63.16 231.07 63.16 240.07 61.7 240.07 61.7 240.07"/><path class="cls-3" d="M557.13,518.07l4.4-11.45h1.63l4.69,11.45h-1.73l-1.33-3.47H560l-1.26,3.47Zm3.31-4.7h3.88l-1.2-3.17c-.36-1-.63-1.76-.81-2.38a13.25,13.25,0,0,1-.62,2.19l-1.25,3.36Z" transform="translate(-484.23 -278)"/><polygon class="cls-3" points="85.66 240.07 85.66 228.62 87.18 228.62 87.18 238.72 92.82 238.72 92.82 240.07 85.66 240.07 85.66 240.07"/><path class="cls-3" d="M586.28,518.07V506.62h5.08a6.66,6.66,0,0,1,2.33.31A2.53,2.53,0,0,1,595,508a3.24,3.24,0,0,1,.47,1.73,2.9,2.9,0,0,1-.78,2.05,4,4,0,0,1-2.44,1.06,3.78,3.78,0,0,1,.91.57,7.92,7.92,0,0,1,1.26,1.53l2,3.11h-1.9L593,515.69c-.44-.69-.81-1.21-1.09-1.58a3.58,3.58,0,0,0-.77-.76,2.34,2.34,0,0,0-.69-.31,5.53,5.53,0,0,0-.85,0h-1.76v5.08Zm1.51-6.39h3.26a5,5,0,0,0,1.63-.22,1.68,1.68,0,0,0,.89-.69,1.84,1.84,0,0,0,.3-1,1.68,1.68,0,0,0-.59-1.34,2.74,2.74,0,0,0-1.86-.52h-3.63v3.79Z" transform="translate(-484.23 -278)"/><polygon class="cls-3" points="114.5 240.07 114.5 228.62 122.78 228.62 122.78 229.97 116.02 229.97 116.02 233.48 122.36 233.48 122.36 234.82 116.02 234.82 116.02 238.72 123.05 238.72 123.05 240.07 114.5 240.07 114.5 240.07"/><path class="cls-3" d="M609.75,514.39l1.42-.12a3.18,3.18,0,0,0,.48,1.41,2.6,2.6,0,0,0,1.15.89,4.32,4.32,0,0,0,1.76.34,4.27,4.27,0,0,0,1.53-.26,2.21,2.21,0,0,0,1-.7,1.72,1.72,0,0,0,.32-1,1.48,1.48,0,0,0-.31-.94,2.28,2.28,0,0,0-1-.67,19.68,19.68,0,0,0-2-.56,9.87,9.87,0,0,1-2.21-.72,3.09,3.09,0,0,1-1.23-1.06,2.7,2.7,0,0,1-.4-1.43,3,3,0,0,1,.49-1.62,3.15,3.15,0,0,1,1.44-1.15,6.19,6.19,0,0,1,4.35,0A3.22,3.22,0,0,1,618,508a3.61,3.61,0,0,1,.56,1.81l-1.45.11a2.33,2.33,0,0,0-.8-1.64,3.07,3.07,0,0,0-2-.56,3.19,3.19,0,0,0-2,.51,1.5,1.5,0,0,0-.63,1.21,1.28,1.28,0,0,0,.45,1,5.93,5.93,0,0,0,2.28.82,15.3,15.3,0,0,1,2.54.73,3.51,3.51,0,0,1,1.48,1.17,2.89,2.89,0,0,1,.47,1.63,3.1,3.1,0,0,1-.52,1.72,3.44,3.44,0,0,1-1.51,1.26,5.21,5.21,0,0,1-2.2.45,6.46,6.46,0,0,1-2.61-.46,3.62,3.62,0,0,1-1.65-1.36,3.81,3.81,0,0,1-.62-2.06Z" transform="translate(-484.23 -278)"/><polygon class="cls-3" points="137.63 240.07 137.63 228.62 145.91 228.62 145.91 229.97 139.14 229.97 139.14 233.48 145.48 233.48 145.48 234.82 139.14 234.82 139.14 238.72 146.17 238.72 146.17 240.07 137.63 240.07 137.63 240.07"/><path class="cls-3" d="M632.12,518.07l4.4-11.45h1.64l4.68,11.45h-1.72l-1.34-3.47H635l-1.26,3.47Zm3.31-4.7h3.88l-1.19-3.17c-.37-1-.64-1.76-.82-2.38a14.26,14.26,0,0,1-.61,2.19l-1.26,3.36Z" transform="translate(-484.23 -278)"/><path class="cls-3" d="M645,518.07V506.62H650a6.62,6.62,0,0,1,2.33.31,2.55,2.55,0,0,1,1.28,1.09,3.33,3.33,0,0,1,.47,1.73,2.86,2.86,0,0,1-.79,2.05,4,4,0,0,1-2.43,1.06,3.78,3.78,0,0,1,.91.57,8.3,8.3,0,0,1,1.26,1.53l2,3.11h-1.91l-1.51-2.38c-.44-.69-.81-1.21-1.1-1.58a3.36,3.36,0,0,0-.76-.76,2.28,2.28,0,0,0-.7-.31,5.29,5.29,0,0,0-.84,0h-1.76v5.08Zm1.51-6.39h3.26a4.89,4.89,0,0,0,1.62-.22,1.64,1.64,0,0,0,.89-.69,1.78,1.78,0,0,0,.31-1,1.71,1.71,0,0,0-.59-1.34,2.74,2.74,0,0,0-1.86-.52h-3.63v3.79Z" transform="translate(-484.23 -278)"/><path class="cls-3" d="M665.56,514.06l1.51.38a5.13,5.13,0,0,1-1.71,2.85,4.75,4.75,0,0,1-3,1,5.46,5.46,0,0,1-3-.75,4.8,4.8,0,0,1-1.77-2.19,7.85,7.85,0,0,1-.6-3.07,6.83,6.83,0,0,1,.68-3.12,4.7,4.7,0,0,1,2-2,5.56,5.56,0,0,1,2.77-.69,4.75,4.75,0,0,1,2.9.87,4.54,4.54,0,0,1,1.63,2.46l-1.49.35a3.55,3.55,0,0,0-1.16-1.82,3.07,3.07,0,0,0-1.91-.57,3.69,3.69,0,0,0-2.2.63,3.4,3.4,0,0,0-1.25,1.7,7.35,7.35,0,0,0,.07,4.75,3.13,3.13,0,0,0,1.32,1.63,3.72,3.72,0,0,0,2,.54,3.24,3.24,0,0,0,2.15-.73,3.78,3.78,0,0,0,1.2-2.18Z" transform="translate(-484.23 -278)"/><polygon class="cls-3" points="185.65 240.07 185.65 228.62 187.16 228.62 187.16 233.32 193.12 233.32 193.12 228.62 194.63 228.62 194.63 240.07 193.12 240.07 193.12 234.68 187.16 234.68 187.16 240.07 185.65 240.07 185.65 240.07"/><path class="cls-3" d="M543.1,529.86h1.52v6.62a7.59,7.59,0,0,1-.4,2.74,3.39,3.39,0,0,1-1.41,1.65,5,5,0,0,1-2.67.64,5.48,5.48,0,0,1-2.63-.56,3.18,3.18,0,0,1-1.47-1.6,7.74,7.74,0,0,1-.43-2.87v-6.62h1.51v6.61a6.57,6.57,0,0,0,.28,2.2,2.1,2.1,0,0,0,1,1.09,3.35,3.35,0,0,0,1.65.38,3.16,3.16,0,0,0,2.39-.76,4.38,4.38,0,0,0,.71-2.91v-6.61Z" transform="translate(-484.23 -278)"/><polygon class="cls-3" points="63.78 263.31 63.78 251.86 65.34 251.86 71.35 260.85 71.35 251.86 72.81 251.86 72.81 263.31 71.25 263.31 65.24 254.31 65.24 263.31 63.78 263.31 63.78 263.31"/><polygon class="cls-3" points="76.5 263.31 76.5 251.86 78.02 251.86 78.02 263.31 76.5 263.31 76.5 263.31"/><path class="cls-3" d="M569.08,541.31l-4.44-11.45h1.64l3,8.32c.24.66.44,1.29.6,1.87.18-.62.38-1.25.62-1.87l3.09-8.32h1.55l-4.49,11.45Z" transform="translate(-484.23 -278)"/><polygon class="cls-3" points="93.17 263.31 93.17 251.86 101.45 251.86 101.45 253.21 94.68 253.21 94.68 256.72 101.02 256.72 101.02 258.06 94.68 258.06 94.68 261.96 101.72 261.96 101.72 263.31 93.17 263.31 93.17 263.31"/><path class="cls-3" d="M589,541.31V529.86H594a6.66,6.66,0,0,1,2.33.31,2.51,2.51,0,0,1,1.27,1.08,3.27,3.27,0,0,1,.48,1.73,2.93,2.93,0,0,1-.79,2.06,4,4,0,0,1-2.44,1.06,3.59,3.59,0,0,1,.91.57,8.15,8.15,0,0,1,1.26,1.52l2,3.12h-1.9l-1.52-2.38c-.44-.69-.81-1.22-1.09-1.58a3.17,3.17,0,0,0-.77-.76,2.34,2.34,0,0,0-.69-.31,4.29,4.29,0,0,0-.85-.06h-1.75v5.09Zm1.52-6.4h3.25a5,5,0,0,0,1.63-.21,1.78,1.78,0,0,0,.89-.69,1.88,1.88,0,0,0,.3-1,1.68,1.68,0,0,0-.59-1.33,2.74,2.74,0,0,0-1.86-.53h-3.62v3.79Z" transform="translate(-484.23 -278)"/><path class="cls-3" d="M600.86,537.63l1.42-.12a3.18,3.18,0,0,0,.48,1.41,2.61,2.61,0,0,0,1.15.89,4.49,4.49,0,0,0,1.76.33,4.27,4.27,0,0,0,1.53-.25,2.22,2.22,0,0,0,1-.71,1.66,1.66,0,0,0,.32-1,1.48,1.48,0,0,0-.31-.94,2.33,2.33,0,0,0-1-.67,17.32,17.32,0,0,0-2-.56,10.42,10.42,0,0,1-2.21-.72,3,3,0,0,1-1.23-1.07,2.64,2.64,0,0,1-.4-1.42,3,3,0,0,1,.49-1.62,3.09,3.09,0,0,1,1.44-1.15,5.46,5.46,0,0,1,2.1-.39,5.83,5.83,0,0,1,2.25.41,3.3,3.3,0,0,1,1.5,1.21,3.57,3.57,0,0,1,.56,1.8l-1.46.11a2.32,2.32,0,0,0-.79-1.64,3.07,3.07,0,0,0-2-.55,3.26,3.26,0,0,0-2,.5,1.51,1.51,0,0,0-.63,1.21,1.29,1.29,0,0,0,.45,1,5.93,5.93,0,0,0,2.28.82,15.3,15.3,0,0,1,2.54.73,3.58,3.58,0,0,1,1.48,1.17,2.89,2.89,0,0,1,.47,1.63,3.1,3.1,0,0,1-.52,1.72,3.44,3.44,0,0,1-1.51,1.26,5.21,5.21,0,0,1-2.2.45,6.46,6.46,0,0,1-2.61-.46,3.62,3.62,0,0,1-1.65-1.36,3.75,3.75,0,0,1-.62-2.06Z" transform="translate(-484.23 -278)"/><polygon class="cls-3" points="128.96 263.31 128.96 251.86 130.48 251.86 130.48 263.31 128.96 263.31 128.96 263.31"/><polygon class="cls-3" points="136.95 263.31 136.95 253.21 133.18 253.21 133.18 251.86 142.25 251.86 142.25 253.21 138.47 253.21 138.47 263.31 136.95 263.31 136.95 263.31"/><path class="cls-3" d="M632.15,541.31v-4.85l-4.41-6.6h1.84l2.26,3.45c.42.65.8,1.29,1.16,1.94.35-.6.76-1.28,1.25-2l2.22-3.36h1.77l-4.57,6.6v4.85Z" transform="translate(-484.23 -278)"/></svg>