<svg xmlns="http://www.w3.org/2000/svg" viewBox="0 0 5158.11 1214.62"><defs><style>.cls-1{fill:#201600;}.cls-2{fill:#d04c43;}.cls-3{fill:#d24a43;}</style></defs><title>Ресурс 1</title><g id="Слой_2" data-name="Слой 2"><g id="Layer_1" data-name="Layer 1"><path class="cls-1" d="M431,25.73V48.9H315.23V437.47H598.3V48.9H482.5V25.73h431V48.9H778.44V903.25H913.53v23.16h-431V903.25H598.3V460.63H315.23V903.25H431v23.16H0V903.25H135.1V48.9H0V25.73ZM1487.41,283.07c-12.87-132.54-90.08-259.92-211-259.92-81,0-176.25,48.9-176.25,137.68,0,101.65,84.9,154.4,194.28,194.29,131.24,47.61,306.22,75.91,306.22,289.49,0,166-135.1,307.52-295.94,307.52-51.46,0-110.65-14.15-153.1-30.88-36-14.14-60.48-25.74-84.92-25.74-16.73,0-55.33,6.45-63.05,56.62H980.44L965,591.88h23.18c38.59,184,172.39,337.09,313.94,337.09,88.78,0,199.43-61.75,199.43-163.41,0-108-92.65-153.11-148-173.68-144.11-54.06-337.12-96.51-337.12-317.82C1016.46,63,1177.3,0,1275.1,0,1401.19,0,1378,46.32,1455.24,46.32c12.85,0,34.73-10.29,32.17-42.46h23.15V283.07ZM2346.89,25.73V308.8h-23.16c-5.13-99.07-56.62-259.9-259.91-259.9h-96.5V450.33c99.09,3.86,182.72-66.9,182.72-180.12h23.16v386H2150c1.27-115.79-84.92-186.55-182.72-182.69V903.25h103c235.46,0,302.36-186.58,304.93-311.37h23.18V926.41h-746.3V903.25H1787.2V48.9H1652.08V25.73Z"/><path class="cls-2" d="M2481.92,599.59c45-1.29,113.23-29.6,113.23-172.41,0-54.05-5.15-50.19-5.15-157C2590,166,2611.88,23.15,2842.19,7.72V30.87c-87.49,16.73-96.5,74.64-96.5,149.27,0,104.22,6.44,123.52,6.44,191.71,0,59.18-14.16,194.28-211,239.32,196.85,45,211,180.14,211,239.32,0,68.2-6.44,87.49-6.44,191.72,0,74.62,9,132.53,96.5,149.24v23.17C2611.88,1199.16,2590,1056.37,2590,952.13c0-106.79,5.15-102.93,5.15-157,0-142.84-68.19-171.14-113.23-172.42Z"/><path class="cls-1" d="M3376.13,25.73V48.9H3241V903.25h135.1v23.16H2925.8V903.25h135.1V48.9H2925.8V25.73Zm374.44,900.68H3408.32V903.25h108.06V337.11H3408.32V314h270.2v77.2c23.15-60.48,81.06-102.93,153.12-102.93,46.31,0,189.13,12.86,189.13,245.74V903.25h108.08v23.16H3786.6V903.25h72.05V400.16c0-32.17-2.59-83.64-56.61-83.64-78.48,0-123.52,96.5-123.52,203.3V903.25h72.05Zm970.15-180.14c-11.58,83.63-69.49,205.86-225.17,205.86-189.13,0-315.24-162.11-315.24-332,0-154.39,117.1-331.95,315.24-331.95,119.66,0,212.3,68.18,212.3,167.26,0,51.47-33.46,97.79-92.64,97.79s-100.37-38.6-100.37-91.36c0-32.16,15.44-66.9,51.47-82.34,12.87-5.15,28.31-9,28.31-28.31,0-18-25.73-39.88-77.19-39.88-144.11,0-157,146.67-157,312.65,0,121,10.28,302.38,166,302.38,93.94,0,159.55-96.51,168.56-180.14Z"/><path class="cls-2" d="M5158.11,622.75c-45,1.28-113.21,29.58-113.21,172.42,0,54,5.13,50.17,5.13,157,0,104.24-21.86,247-252.19,262.49v-23.17c87.49-16.71,96.5-74.62,96.5-149.24,0-104.23-6.42-123.52-6.42-191.72,0-59.18,14.14-194.3,211-239.32-196.87-45-211-180.14-211-239.32,0-68.19,6.42-87.49,6.42-191.71,0-74.63-9-132.54-96.5-149.27V7.72C5028.17,23.15,5050,166,5050,270.21c0,106.78-5.13,102.92-5.13,157,0,142.81,68.17,171.12,113.21,172.41Z"/><path class="cls-2" d="M4679.61,1145.86H4704v-24.34h-24.34Zm-97.35,0h24.34v-24.34h-24.34Zm-97.36,0h24.33v-24.34H4484.9Zm-97.35,0h24.34v-24.34h-24.34Zm-97.36,0h24.33v-24.34h-24.33Zm-97.35,0h24.34v-24.34h-24.34Zm-97.36,0h24.33v-24.34h-24.33Zm-97.35,0h24.34v-24.34h-24.34Zm-97.37,0h24.34v-24.34h-24.34Zm-97.34,0h24.34v-24.34h-24.34Zm-97.37,0h24.34v-24.34h-24.34Zm-97.34,0H3633v-24.34h-24.33Zm-97.37,0h24.34v-24.34h-24.34Zm-97.34,0h24.33v-24.34H3414Zm-97.37,0H3341v-24.34h-24.34Zm-97.34,0h24.33v-24.34h-24.33Zm-97.37,0h24.33v-24.34h-24.33Zm-97.35,0h24.34v-24.34h-24.34Zm-97.36,0h24.33v-24.34h-24.33Z"/><path class="cls-3" d="M7.31,1204.39V1061.23h14V1120H76.22v-58.79h14v143.16h-14v-67.48H21.29v67.48Z"/><path class="cls-3" d="M129,1158.3l13.18-1.57q1.05,11.82,4.79,18.41a28.1,28.1,0,0,0,10.68,10.6,30.72,30.72,0,0,0,15.64,4q12.48,0,19.38-6.77t6.9-17.59a23.29,23.29,0,0,0-2.5-11.06,19.84,19.84,0,0,0-7.56-7.75q-5.06-3-21.84-8.54-14.94-4.93-21.27-9.91a33.55,33.55,0,0,1-9.84-12.65,41,41,0,0,1-3.52-17.33q0-17.39,10.11-28.42t27.24-11a40,40,0,0,1,20.61,5.17,35,35,0,0,1,13.71,14.85q4.89,9.66,5.23,22.75l-13.44,1.37q-1.06-14-7.52-20.71t-18.15-6.73q-11.87,0-18.1,5.9t-6.24,15.28q0,8.7,4.57,13.48t20.56,9.69q15.63,4.8,22,8.34a37.23,37.23,0,0,1,14.6,14.42q4.92,8.93,4.93,21.31a48.23,48.23,0,0,1-5.19,22.39,36.92,36.92,0,0,1-14.1,15.36q-8.93,5.28-21.49,5.27-19.6,0-31.25-13.08T129,1158.3Z"/><path class="cls-3" d="M252.22,1204.39V1061.23H328.6v16.89H266.2v43.75h58.45v16.9H266.2v48.73h64.86v16.89Z"/><path class="cls-3" d="M430.52,1204.39V1061.23H470.2q12.06,0,19.1,4.14t11.52,12.93a42.09,42.09,0,0,1,4.49,19.42,39.86,39.86,0,0,1-3.87,17.76,32.11,32.11,0,0,1-10.9,12.69A29.28,29.28,0,0,1,505,1140.82q5.3,8.94,5.29,22t-4.79,22.82q-4.78,9.81-12.79,14.26t-22,4.45Zm14-83h22.89q9,0,12.77-1.36a16.25,16.25,0,0,0,8.41-6.89q3-4.83,2.95-13.13a27.52,27.52,0,0,0-2.68-12.85,14.92,14.92,0,0,0-7.14-7.08q-4.44-2-16-2H444.49Zm0,66.12h26.33q8.71,0,12.85-1.76a18.11,18.11,0,0,0,9.11-8.35q3.12-5.81,3.13-14.6a28.8,28.8,0,0,0-3-13.72,18.8,18.8,0,0,0-8.05-8.21q-5.07-2.58-15.89-2.58H444.49Z"/><path class="cls-3" d="M618.27,1061.23h14v82.71q0,20.8-3.64,34.13t-13.26,21q-9.61,7.71-24.45,7.71-20.89,0-31.3-13.87t-10.41-49v-82.71h14v82.61q0,19.44,2.72,28.13t8.92,13.23a24.8,24.8,0,0,0,15.08,4.54q14.94,0,21.66-9.37t6.72-36.53Z"/><path class="cls-3" d="M670.86,1158.3l13.18-1.57q1.05,11.82,4.79,18.41a28.1,28.1,0,0,0,10.68,10.6,30.72,30.72,0,0,0,15.64,4q12.48,0,19.38-6.77t6.9-17.59a23.29,23.29,0,0,0-2.5-11.06,19.84,19.84,0,0,0-7.56-7.75q-5.05-3-21.84-8.54-14.94-4.93-21.27-9.91a33.55,33.55,0,0,1-9.84-12.65,41,41,0,0,1-3.52-17.33q0-17.39,10.11-28.42t27.24-11a40,40,0,0,1,20.61,5.17,35.08,35.08,0,0,1,13.72,14.85q4.88,9.66,5.23,22.75l-13.45,1.37q-1.07-14-7.52-20.71t-18.15-6.73q-11.87,0-18.1,5.9t-6.24,15.28q0,8.7,4.57,13.48t20.56,9.69q15.63,4.8,22,8.34A37.23,37.23,0,0,1,750,1142.5q4.92,8.93,4.93,21.31a48.23,48.23,0,0,1-5.19,22.39,36.85,36.85,0,0,1-14.1,15.36q-8.92,5.28-21.49,5.27-19.61,0-31.25-13.08T670.86,1158.3Z"/><path class="cls-3" d="M796.48,1204.39V1061.23h14v143.16Z"/><path class="cls-3" d="M854.25,1204.39V1061.23h14.32l55.55,112.62V1061.23h13.36v143.16H923.15l-55.46-112.65v112.65Z"/><path class="cls-3" d="M981.27,1204.39V1061.23h76.38v16.89h-62.4v43.75h58.45v16.9H995.25v48.73h64.86v16.89Z"/><path class="cls-3" d="M1094.5,1158.3l13.19-1.57q1.05,11.82,4.79,18.41a28,28,0,0,0,10.67,10.6,30.76,30.76,0,0,0,15.65,4q12.48,0,19.38-6.77t6.9-17.59a23.29,23.29,0,0,0-2.51-11.06,19.84,19.84,0,0,0-7.56-7.75q-5.05-3-21.84-8.54-14.94-4.93-21.27-9.91a33.65,33.65,0,0,1-9.84-12.65,41.15,41.15,0,0,1-3.52-17.33q0-17.39,10.11-28.42t27.25-11a40,40,0,0,1,20.61,5.17,35,35,0,0,1,13.71,14.85q4.88,9.66,5.23,22.75l-13.45,1.37q-1.05-14-7.51-20.71t-18.15-6.73q-11.86,0-18.11,5.9t-6.24,15.28q0,8.7,4.57,13.48t20.56,9.69q15.64,4.8,22,8.34a37.16,37.16,0,0,1,14.6,14.42q4.93,8.93,4.93,21.31a48.35,48.35,0,0,1-5.18,22.39,36.87,36.87,0,0,1-14.11,15.36q-8.92,5.28-21.49,5.27-19.61,0-31.24-13.08T1094.5,1158.3Z"/><path class="cls-3" d="M1212.74,1158.3l13.18-1.57q1.07,11.82,4.79,18.41a28.1,28.1,0,0,0,10.68,10.6,30.73,30.73,0,0,0,15.65,4q12.46,0,19.38-6.77t6.89-17.59a23.29,23.29,0,0,0-2.5-11.06,19.84,19.84,0,0,0-7.56-7.75q-5.05-3-21.84-8.54-14.94-4.93-21.27-9.91a33.55,33.55,0,0,1-9.84-12.65,41,41,0,0,1-3.52-17.33q0-17.39,10.11-28.42t27.25-11a40,40,0,0,1,20.61,5.17,35.12,35.12,0,0,1,13.71,14.85q4.88,9.66,5.23,22.75l-13.45,1.37q-1-14-7.52-20.71t-18.15-6.73q-11.86,0-18.1,5.9t-6.24,15.28q0,8.7,4.57,13.48t20.56,9.69q15.63,4.8,22,8.34a37.23,37.23,0,0,1,14.6,14.42q4.93,8.93,4.93,21.31a48.23,48.23,0,0,1-5.19,22.39,36.85,36.85,0,0,1-14.1,15.36q-8.93,5.28-21.49,5.27-19.6,0-31.25-13.08T1212.74,1158.3Z"/><path class="cls-3" d="M1399.2,1204.39V1061.23h14v143.16Z"/><path class="cls-3" d="M1457,1204.39V1061.23h14.33l55.55,112.62V1061.23h13.36v143.16h-14.33l-55.46-112.65v112.65Z"/><path class="cls-3" d="M1658.71,1154.19l14.06,4.79q-4.66,24.12-16.3,36a38.24,38.24,0,0,1-28.35,11.86q-14.68,0-25.09-8t-17-25.56q-6.64-17.58-6.64-41.53,0-23.64,6.64-40t18-24.73a41.74,41.74,0,0,1,25.34-8.35,36.63,36.63,0,0,1,26.31,10.57q11,10.58,15.39,31l-13.71,4.39q-7-29.78-28.25-29.78a29,29,0,0,0-18.31,6q-7.74,6-12.36,18.72t-4.62,32.15q0,29.43,9.31,44.13t24.79,14.71q11.42,0,19.73-9T1658.71,1154.19Z"/><path class="cls-3" d="M1779.05,1061.23h14v82.71q0,20.8-3.65,34.13t-13.25,21q-9.62,7.71-24.45,7.71-20.91,0-31.3-13.87t-10.41-49v-82.71h14v82.61q0,19.44,2.72,28.13t8.92,13.23a24.79,24.79,0,0,0,15.07,4.54q15,0,21.67-9.37t6.72-36.53Z"/><path class="cls-3" d="M1835.86,1204.39V1061.23h39.68q12.06,0,19.1,4.14t11.52,12.93a42.09,42.09,0,0,1,4.49,19.42,39.86,39.86,0,0,1-3.87,17.76,32.11,32.11,0,0,1-10.9,12.69,29.28,29.28,0,0,1,14.49,12.65q5.3,8.94,5.29,22t-4.79,22.82q-4.78,9.81-12.79,14.26t-22,4.45Zm14-83h22.89q9,0,12.77-1.36a16.25,16.25,0,0,0,8.41-6.89q3-4.83,2.95-13.13a27.52,27.52,0,0,0-2.68-12.85,15,15,0,0,0-7.14-7.08q-4.44-2-16-2h-21.22Zm0,66.12h26.32q8.71,0,12.86-1.76a18.11,18.11,0,0,0,9.11-8.35q3.12-5.81,3.13-14.6a28.8,28.8,0,0,0-3-13.72,18.8,18.8,0,0,0-8-8.21q-5.07-2.58-15.9-2.58h-24.47Z"/><path class="cls-3" d="M1943,1204.39l40.75-143.16h14.94L2042,1204.39h-16L2013.7,1161h-44.45l-11.49,43.36Zm30.31-58.79h36l-11-39.65q-5.08-18.26-7.46-29.68a232.53,232.53,0,0,1-5.79,27.34Z"/><path class="cls-3" d="M2089.12,1204.39V1078.12h-34.81v-16.89h83.76v16.89h-35v126.27Z"/><path class="cls-3" d="M2165.52,1134.66q0-36.62,14.5-56.3t36.12-19.67a41,41,0,0,1,25.49,8.79q11.52,8.79,18.24,25.53t6.72,39.9q0,31.83-13,51.85-14.34,22.08-37.53,22.07-23.39,0-37.62-22.65Q2165.52,1163.66,2165.52,1134.66Zm14.41.25q0,26.49,10.51,41.1t25.53,14.61q15.38,0,25.79-14.76t10.42-43.39q0-18.48-5.36-33a40.4,40.4,0,0,0-12.44-17.84,28.33,28.33,0,0,0-18.15-6.69q-15.81,0-26.06,14.66T2179.93,1134.91Z"/><path class="cls-3" d="M2304.06,1204.39V1061.23h46.84q14.68,0,21.67,4t11.47,13.32a49.3,49.3,0,0,1,4.48,21.62q0,16.2-7.6,26.25t-22.11,12.78a37.27,37.27,0,0,1,9,8,102.1,102.1,0,0,1,11,18.27l18.45,39h-17.57l-14.09-29.77q-8.2-17.46-12.36-23.53t-8.08-8.17q-3.91-2.1-10.93-2.1H2318v63.57Zm14-80h30.06q9.84,0,14.94-2.64a18.89,18.89,0,0,0,8.09-8.3,27.85,27.85,0,0,0,3-13.18q0-10.85-5.71-17t-17-6.2H2318Z"/></g></g></svg>