<?xml version="1.0" encoding="utf-8"?>
<!-- Generator: Adobe Illustrator 22.0.1, SVG Export Plug-In . SVG Version: 6.00 Build 0)  -->
<svg version="1.1" id="Слой_1" xmlns="http://www.w3.org/2000/svg" xmlns:xlink="http://www.w3.org/1999/xlink" x="0px" y="0px"
	 viewBox="0 0 326.4 131.1" style="enable-background:new 0 0 326.4 131.1;" xml:space="preserve">
<style type="text/css">
	.st0{clip-path:url(#SVGID_2_);fill:#5A87C6;}
	.st1{fill:#5A87C6;}
	.st2{clip-path:url(#SVGID_4_);fill:#5A87C6;}
	.st3{clip-path:url(#SVGID_6_);fill:#5A87C6;}
	.st4{clip-path:url(#SVGID_8_);fill:#5A87C6;}
	.st5{clip-path:url(#SVGID_10_);fill:#5A87C6;}
	.st6{clip-path:url(#SVGID_12_);fill:#5A87C6;}
</style>
<g>
	<defs>
		<rect id="SVGID_1_" x="-425" y="-244" width="841.9" height="595.3"/>
	</defs>
	<clipPath id="SVGID_2_">
		<use xlink:href="#SVGID_1_"  style="overflow:visible;"/>
	</clipPath>
	<path class="st0" d="M314.8,118.2c1.2,0,2.9,0.2,2.9-1.5c0-1.3-1.1-1.5-2.1-1.5h-2.4v3H314.8z M318.8,122.8h-1.2l-2.4-3.9h-1.9v3.9
		h-1v-8.4h3.7c2.2,0,3,0.8,3,2.2c0,1.6-1.2,2.3-2.6,2.3L318.8,122.8z M321.3,118.6c0-3.6-2.7-6.5-6.3-6.5c-3.7,0-6.3,2.8-6.3,6.5
		c0,3.7,2.7,6.5,6.3,6.5C318.7,125.2,321.3,122.3,321.3,118.6 M307.5,118.6c0-4.1,3.4-7.5,7.5-7.5c4.1,0,7.5,3.4,7.5,7.5
		c0,4.1-3.3,7.5-7.5,7.5C310.9,126.2,307.5,122.8,307.5,118.6"/>
</g>
<rect x="7.9" y="7.9" class="st1" width="57.1" height="8.2"/>
<polygon class="st1" points="7.9,23.5 65.1,23.5 65.1,31.7 7.9,31.7 "/>
<rect x="24.3" y="39.1" class="st1" width="24.5" height="8.2"/>
<rect x="24.3" y="54.6" class="st1" width="24.5" height="8.1"/>
<rect x="24.3" y="70.2" class="st1" width="24.5" height="8.1"/>
<rect x="24.3" y="85.8" class="st1" width="24.5" height="8.2"/>
<rect x="7.9" y="101.4" class="st1" width="57.1" height="8.2"/>
<rect x="7.9" y="116.9" class="st1" width="57.1" height="8.2"/>
<g>
	<defs>
		<rect id="SVGID_3_" x="-425" y="-244" width="841.9" height="595.3"/>
	</defs>
	<clipPath id="SVGID_4_">
		<use xlink:href="#SVGID_3_"  style="overflow:visible;"/>
	</clipPath>
	<path class="st2" d="M73.2,23.5h88c0.8,1.3,2.5,6.4,2.7,8.2H73.2V23.5z"/>
</g>
<rect x="89.5" y="39.1" class="st1" width="24.4" height="8.2"/>
<g>
	<defs>
		<rect id="SVGID_5_" x="-425" y="-244" width="841.9" height="595.3"/>
	</defs>
	<clipPath id="SVGID_6_">
		<use xlink:href="#SVGID_5_"  style="overflow:visible;"/>
	</clipPath>
	<path class="st3" d="M138.4,39.1h26.1c0.1,1.7-0.7,6.5-1.4,8.2h-24.7V39.1z"/>
	<path class="st3" d="M89.5,70.2h62.9c2,1.4,5.8,6.1,7.3,8.1H89.5V70.2z"/>
</g>
<rect x="89.5" y="85.8" class="st1" width="24.4" height="8.2"/>
<g>
	<defs>
		<rect id="SVGID_7_" x="-425" y="-244" width="841.9" height="595.3"/>
	</defs>
	<clipPath id="SVGID_8_">
		<use xlink:href="#SVGID_7_"  style="overflow:visible;"/>
	</clipPath>
	<path class="st4" d="M138.4,85.8h24.8c0.5,1.1,1.5,6.6,1.4,8.2h-26.3V85.8z"/>
	<path class="st4" d="M73.2,101.4h90.5c-0.1,1.9-1.9,7-2.7,8.2H73.2V101.4z"/>
	<path class="st4" d="M73.2,116.9H155c-7.2,6.1-13.6,8.2-24.9,8.2H122H73.2V116.9z"/>
</g>
<polygon class="st1" points="187.4,54.6 233.8,54.6 236.3,62 238.9,54.6 285.3,54.6 285.3,62.8 260.8,62.8 260.8,56.2 258.5,62.8 
	214.2,62.8 211.9,56.2 211.9,62.8 187.4,62.8 "/>
<rect x="187.4" y="70.2" class="st1" width="24.5" height="8.1"/>
<rect x="187.4" y="85.8" class="st1" width="24.5" height="8.2"/>
<rect x="171.1" y="101.4" class="st1" width="40.8" height="8.1"/>
<rect x="171.1" y="116.9" class="st1" width="40.8" height="8.2"/>
<polygon class="st1" points="255.6,7.9 301.6,7.9 301.6,16.1 252.7,16.1 "/>
<polygon class="st1" points="250,23.5 301.6,23.5 301.6,31.7 247.1,31.7 "/>
<polygon class="st1" points="244.5,39.1 285.3,39.1 285.3,47.2 241.6,47.2 "/>
<rect x="260.8" y="70.2" class="st1" width="24.5" height="8.1"/>
<rect x="260.8" y="85.8" class="st1" width="24.5" height="8.2"/>
<rect x="260.8" y="101.4" class="st1" width="40.8" height="8.1"/>
<rect x="260.8" y="116.9" class="st1" width="40.8" height="8.2"/>
<polygon class="st1" points="216.8,70.2 255.9,70.2 253.1,78.4 219.6,78.4 "/>
<polygon class="st1" points="222.2,85.8 250.5,85.8 247.6,94 225.1,94 "/>
<polygon class="st1" points="227.7,101.4 245,101.4 242.2,109.5 230.5,109.5 "/>
<polygon class="st1" points="233.1,116.9 239.6,116.9 236.8,125.1 235.9,125.1 "/>
<g>
	<defs>
		<rect id="SVGID_9_" x="-425" y="-244" width="841.9" height="595.3"/>
	</defs>
	<clipPath id="SVGID_10_">
		<use xlink:href="#SVGID_9_"  style="overflow:visible;"/>
	</clipPath>
	<path class="st5" d="M89.5,62.8h62.9c2-1.4,5.8-6,7.3-8.1H89.5V62.8z"/>
</g>
<polygon class="st1" points="217.1,7.9 171.1,7.9 171.1,16.1 220,16.1 "/>
<polygon class="st1" points="222.7,23.5 171.1,23.5 171.1,31.7 225.6,31.7 "/>
<polygon class="st1" points="228.2,39.1 187.4,39.1 187.4,47.2 231.1,47.2 "/>
<g>
	<defs>
		<rect id="SVGID_11_" x="-425" y="-244" width="841.9" height="595.3"/>
	</defs>
	<clipPath id="SVGID_12_">
		<use xlink:href="#SVGID_11_"  style="overflow:visible;"/>
	</clipPath>
	<path class="st6" d="M73.2,16.1H155c-7.2-6.1-13.6-8.2-24.9-8.2H122H73.2V16.1z"/>
</g>
</svg>
