<?xml version="1.0" encoding="utf-8"?>
<!-- Generator: Adobe Illustrator 22.0.0, SVG Export Plug-In . SVG Version: 6.00 Build 0)  -->
<svg version="1.1" id="Слой_1" xmlns="http://www.w3.org/2000/svg" xmlns:xlink="http://www.w3.org/1999/xlink" x="0px" y="0px"
	 viewBox="0 0 866 528" style="enable-background:new 0 0 866 528;" xml:space="preserve">
<style type="text/css">
	.st0{fill:#FFFFFF;}
</style>
<g>
	<rect width="866" height="528"/>
</g>
<g>
	<g>
		<path class="st0" d="M90.4,172.1v27.6H80.2v-67.9h11.6c5.7,0,10,0.4,12.9,1.2c2.9,0.8,5.5,2.3,7.7,4.5c3.9,3.8,5.8,8.6,5.8,14.4
			c0,6.2-2.1,11.1-6.2,14.8c-4.2,3.6-9.8,5.4-16.8,5.4H90.4z M90.4,162.6h3.8c9.4,0,14.1-3.6,14.1-10.9c0-7-4.8-10.5-14.5-10.5h-3.4
			V162.6z"/>
		<path class="st0" d="M126.9,156.9h9.9v3.8c1.8-1.9,3.4-3.2,4.8-3.9c1.4-0.7,3.1-1.1,5.1-1.1c2.6,0,5.3,0.8,8.2,2.5l-4.5,9.1
			c-1.9-1.3-3.7-2-5.5-2c-5.4,0-8.1,4.1-8.1,12.2v22.2h-9.9V156.9z"/>
		<path class="st0" d="M157.7,177.9c0-6.2,2.2-11.4,6.6-15.8c4.4-4.3,9.8-6.5,16.2-6.5c6.4,0,11.8,2.2,16.3,6.5
			c4.4,4.4,6.6,9.7,6.6,16.1c0,6.4-2.2,11.8-6.6,16.1c-4.5,4.3-9.9,6.5-16.4,6.5c-6.4,0-11.8-2.2-16.1-6.6
			C159.9,190,157.7,184.5,157.7,177.9z M167.8,178.1c0,4.3,1.1,7.7,3.4,10.2c2.3,2.5,5.4,3.8,9.3,3.8c3.9,0,7-1.2,9.3-3.7
			c2.3-2.5,3.5-5.8,3.5-10s-1.2-7.5-3.5-10c-2.3-2.5-5.4-3.8-9.3-3.8c-3.8,0-6.8,1.3-9.2,3.8C169,170.9,167.8,174.1,167.8,178.1z"/>
		<path class="st0" d="M245.4,125.4h9.9v74.2h-9.9v-4.5c-3.9,3.8-8.3,5.7-13.2,5.7c-5.9,0-10.7-2.1-14.6-6.4
			c-3.8-4.4-5.8-9.8-5.8-16.3c0-6.4,1.9-11.7,5.8-16c3.8-4.3,8.6-6.5,14.4-6.5c5,0,9.5,2.1,13.4,6.2V125.4z M221.9,178.1
			c0,4.1,1.1,7.4,3.3,10c2.3,2.6,5.1,3.9,8.5,3.9c3.7,0,6.6-1.3,8.9-3.8c2.3-2.6,3.4-5.9,3.4-9.9s-1.1-7.3-3.4-9.9
			c-2.3-2.5-5.2-3.8-8.8-3.8c-3.4,0-6.2,1.3-8.5,3.9C223.1,171.1,221.9,174.3,221.9,178.1z"/>
		<path class="st0" d="M277.7,156.9v24.6c0,7.1,2.8,10.6,8.4,10.6s8.4-3.5,8.4-10.6v-24.6h9.9v24.8c0,3.4-0.4,6.4-1.3,8.9
			c-0.8,2.2-2.2,4.2-4.3,6c-3.3,2.9-7.6,4.4-12.7,4.4c-5.1,0-9.4-1.5-12.7-4.4c-2.1-1.8-3.5-3.8-4.4-6c-0.8-2-1.2-5-1.2-8.9v-24.8
			H277.7z"/>
		<path class="st0" d="M350.2,158.7v13.1c-2.3-2.8-4.3-4.6-6.1-5.7c-1.8-1.1-3.8-1.6-6.2-1.6c-3.7,0-6.8,1.3-9.3,3.9
			s-3.7,5.9-3.7,9.8c0,4,1.2,7.3,3.6,9.9c2.4,2.6,5.5,3.9,9.2,3.9c2.4,0,4.5-0.5,6.3-1.5c1.8-1,3.8-2.9,6.2-5.8v13.1
			c-4,2.1-8,3.1-12,3.1c-6.6,0-12.2-2.1-16.6-6.4c-4.5-4.3-6.7-9.7-6.7-16s2.3-11.8,6.8-16.2s10-6.6,16.6-6.6
			C342.4,155.7,346.4,156.7,350.2,158.7z"/>
		<path class="st0" d="M369.9,166.1v33.6h-9.9v-33.6h-4.2v-9.2h4.2v-15.7h9.9v15.7h7.7v9.2H369.9z"/>
		<path class="st0" d="M443.7,125.4h9.9v74.2h-9.9v-4.5c-3.9,3.8-8.3,5.7-13.2,5.7c-5.9,0-10.7-2.1-14.6-6.4
			c-3.8-4.4-5.8-9.8-5.8-16.3c0-6.4,1.9-11.7,5.8-16c3.8-4.3,8.6-6.5,14.4-6.5c5,0,9.5,2.1,13.4,6.2V125.4z M420.2,178.1
			c0,4.1,1.1,7.4,3.3,10c2.3,2.6,5.1,3.9,8.5,3.9c3.7,0,6.6-1.3,8.9-3.8c2.3-2.6,3.4-5.9,3.4-9.9s-1.1-7.3-3.4-9.9
			c-2.3-2.5-5.2-3.8-8.8-3.8c-3.4,0-6.2,1.3-8.5,3.9C421.3,171.1,420.2,174.3,420.2,178.1z"/>
		<path class="st0" d="M464.6,139.1c0-1.7,0.6-3.2,1.9-4.5s2.8-1.9,4.5-1.9c1.8,0,3.3,0.6,4.6,1.9c1.3,1.2,1.9,2.7,1.9,4.5
			s-0.6,3.3-1.9,4.6c-1.2,1.3-2.7,1.9-4.5,1.9s-3.3-0.6-4.6-1.9S464.6,140.9,464.6,139.1z M476,156.9v42.8h-9.9v-42.8H476z"/>
		<path class="st0" d="M513.4,164.1l-8.2,4.4c-1.3-2.6-2.9-3.9-4.8-3.9c-0.9,0-1.7,0.3-2.3,0.9c-0.6,0.6-1,1.4-1,2.3
			c0,1.6,1.9,3.3,5.7,4.9c5.2,2.3,8.8,4.3,10.6,6.2c1.8,1.9,2.7,4.5,2.7,7.7c0,4.1-1.5,7.6-4.6,10.4c-3,2.6-6.5,4-10.7,4
			c-7.2,0-12.3-3.5-15.2-10.5l8.4-3.9c1.2,2.1,2.1,3.4,2.7,3.9c1.2,1.1,2.6,1.7,4.3,1.7c3.3,0,5-1.5,5-4.6c0-1.8-1.3-3.4-3.9-4.9
			c-1-0.5-2-1-3-1.5s-2-1-3-1.5c-2.9-1.4-4.9-2.8-6.1-4.2c-1.5-1.8-2.2-4.1-2.2-6.9c0-3.7,1.3-6.8,3.8-9.2c2.6-2.4,5.8-3.6,9.5-3.6
			C506.6,155.7,510.7,158.5,513.4,164.1z"/>
		<path class="st0" d="M558.3,158.7v13.1c-2.3-2.8-4.3-4.6-6.1-5.7c-1.8-1.1-3.8-1.6-6.2-1.6c-3.7,0-6.8,1.3-9.3,3.9
			s-3.7,5.9-3.7,9.8c0,4,1.2,7.3,3.6,9.9c2.4,2.6,5.5,3.9,9.2,3.9c2.4,0,4.5-0.5,6.3-1.5c1.8-1,3.8-2.9,6.2-5.8v13.1
			c-4,2.1-8,3.1-12,3.1c-6.6,0-12.2-2.1-16.6-6.4c-4.5-4.3-6.7-9.7-6.7-16s2.3-11.8,6.8-16.2s10-6.6,16.6-6.6
			C550.6,155.7,554.6,156.7,558.3,158.7z"/>
		<path class="st0" d="M565.9,177.9c0-6.2,2.2-11.4,6.6-15.8s9.8-6.5,16.2-6.5c6.4,0,11.8,2.2,16.3,6.5c4.4,4.4,6.6,9.7,6.6,16.1
			c0,6.4-2.2,11.8-6.6,16.1c-4.5,4.3-9.9,6.5-16.4,6.5c-6.4,0-11.8-2.2-16.1-6.6C568.1,190,565.9,184.5,565.9,177.9z M576,178.1
			c0,4.3,1.1,7.7,3.4,10.2c2.3,2.5,5.4,3.8,9.3,3.8c3.9,0,7-1.2,9.3-3.7s3.5-5.8,3.5-10s-1.2-7.5-3.5-10c-2.3-2.5-5.4-3.8-9.3-3.8
			c-3.8,0-6.8,1.3-9.2,3.8S576,174.1,576,178.1z"/>
		<path class="st0" d="M625.5,156.9l11.1,24l11-24h11.1l-22.2,45.7l-22.1-45.7H625.5z"/>
		<path class="st0" d="M702.9,180.6h-30.7c0.3,3.5,1.4,6.3,3.4,8.4c2,2.1,4.6,3.1,7.8,3.1c2.5,0,4.5-0.6,6.1-1.8
			c1.6-1.2,3.4-3.3,5.4-6.5l8.3,4.7c-1.3,2.2-2.7,4.1-4.1,5.6c-1.4,1.6-3,2.9-4.6,3.9s-3.4,1.8-5.3,2.2c-1.9,0.5-4,0.7-6.2,0.7
			c-6.4,0-11.5-2.1-15.4-6.2c-3.9-4.1-5.8-9.6-5.8-16.4c0-6.8,1.9-12.2,5.6-16.4c3.8-4.1,8.8-6.2,15-6.2c6.3,0,11.3,2,14.9,6
			c3.6,4,5.4,9.5,5.4,16.6L702.9,180.6z M692.7,172.5c-1.4-5.3-4.7-7.9-10-7.9c-1.2,0-2.3,0.2-3.4,0.5c-1.1,0.4-2,0.9-2.9,1.6
			c-0.9,0.7-1.6,1.5-2.2,2.5s-1.1,2.1-1.4,3.3H692.7z"/>
		<path class="st0" d="M713.7,156.9h9.9v3.8c1.8-1.9,3.4-3.2,4.8-3.9c1.4-0.7,3.1-1.1,5.1-1.1c2.6,0,5.3,0.8,8.2,2.5l-4.5,9.1
			c-1.9-1.3-3.7-2-5.5-2c-5.4,0-8.1,4.1-8.1,12.2v22.2h-9.9V156.9z"/>
		<path class="st0" d="M764.8,191.7l-19.2-34.8H757l13.1,24.6l12.2-24.6h11.2l-34.1,66.1h-11.3L764.8,191.7z"/>
	</g>
	<g>
		<path class="st0" d="M265.5,229.8h-7.1l1.4-2.7h8.6v45.2h-2.9V229.8z"/>
		<path class="st0" d="M301,272.8l-2.3-1.7l10-14.1l-0.1-0.1c-2,0.8-4,1.2-6.1,1.2c-2.8,0-5.4-0.7-7.9-2.1s-4.4-3.4-5.8-5.8
			s-2.1-5.1-2.1-7.9c0-2.9,0.7-5.5,2.2-7.9c1.5-2.4,3.4-4.3,5.9-5.7c2.5-1.4,5.2-2.1,8-2.1c2.2,0,4.3,0.4,6.3,1.2s3.7,1.9,5.1,3.4
			s2.6,3.2,3.4,5.1s1.2,4,1.2,6.3c0,3.3-1.1,6.5-3.3,9.7L301,272.8z M302.8,229.2c-2.3,0-4.5,0.6-6.6,1.8s-3.7,2.8-4.9,4.8
			s-1.8,4.2-1.8,6.5c0,2.3,0.6,4.5,1.8,6.5s2.8,3.6,4.9,4.8s4.2,1.8,6.6,1.8c2.4,0,4.6-0.6,6.6-1.8s3.6-2.8,4.8-4.8s1.8-4.2,1.8-6.5
			c0-2.4-0.6-4.6-1.8-6.6s-2.8-3.6-4.8-4.8S305.2,229.2,302.8,229.2z"/>
		<path class="st0" d="M330.7,268c0.7,0,1.3,0.2,1.8,0.7s0.7,1.1,0.7,1.8s-0.2,1.3-0.7,1.8s-1.1,0.7-1.7,0.7s-1.3-0.2-1.7-0.7
			s-0.7-1.1-0.7-1.7s0.2-1.3,0.7-1.7S330,268,330.7,268z"/>
		<path class="st0" d="M358.6,226.5c2.7,0,5.1,0.7,7.1,2.1s3.8,3.3,5.2,5.6s2.4,4.8,3.1,7.5s1,5.2,1,7.7c0,2.5-0.3,5.1-1,7.8
			c-0.7,2.7-1.7,5.3-3,7.7s-3.1,4.3-5.2,5.8s-4.5,2.2-7.2,2.2s-5.1-0.7-7.2-2.2s-3.8-3.4-5.2-5.8s-2.4-4.9-3-7.7s-1-5.3-1-7.8
			c0-2.5,0.3-5.1,1-7.7s1.7-5.1,3.1-7.5c1.4-2.3,3.1-4.2,5.2-5.6C353.5,227.2,355.9,226.5,358.6,226.5z M358.6,270.2
			c2.3,0,4.3-0.7,6-2s3.2-3,4.3-5.1c1.1-2.1,1.9-4.4,2.4-6.8c0.5-2.4,0.8-4.7,0.8-6.9c0-2-0.3-4.1-0.8-6.4c-0.5-2.3-1.4-4.5-2.5-6.6
			c-1.1-2.1-2.5-3.8-4.3-5.2s-3.7-2-6-2s-4.3,0.7-6,2s-3.2,3.1-4.3,5.2s-1.9,4.3-2.5,6.7s-0.8,4.4-0.8,6.3c0,2.1,0.3,4.4,0.8,6.9
			s1.4,4.7,2.5,6.8s2.5,3.8,4.3,5.2S356.3,270.2,358.6,270.2z"/>
		<path class="st0" d="M394,272.8l-2.3-1.7l10-14.1l-0.1-0.1c-2,0.8-4,1.2-6.1,1.2c-2.8,0-5.4-0.7-7.9-2.1s-4.4-3.4-5.8-5.8
			s-2.1-5.1-2.1-7.9c0-2.9,0.7-5.5,2.2-7.9c1.5-2.4,3.4-4.3,5.9-5.7c2.5-1.4,5.2-2.1,8-2.1c2.2,0,4.3,0.4,6.3,1.2s3.7,1.9,5.1,3.4
			s2.6,3.2,3.4,5.1s1.2,4,1.2,6.3c0,3.3-1.1,6.5-3.3,9.7L394,272.8z M395.9,229.2c-2.3,0-4.5,0.6-6.6,1.8s-3.7,2.8-4.9,4.8
			s-1.8,4.2-1.8,6.5c0,2.3,0.6,4.5,1.8,6.5s2.8,3.6,4.9,4.8s4.2,1.8,6.6,1.8c2.4,0,4.6-0.6,6.6-1.8s3.6-2.8,4.8-4.8s1.8-4.2,1.8-6.5
			c0-2.4-0.6-4.6-1.8-6.6s-2.8-3.6-4.8-4.8S398.2,229.2,395.9,229.2z"/>
		<path class="st0" d="M423.6,267.9l2.7,0.8l-5,13.6l-1.8-0.7L423.6,267.9z"/>
		<path class="st0" d="M470.1,229.8h-7.1l1.4-2.7h8.6v45.2h-2.9V229.8z"/>
		<path class="st0" d="M505.6,272.8l-2.3-1.7l10-14.1l-0.1-0.1c-2,0.8-4,1.2-6.1,1.2c-2.8,0-5.4-0.7-7.9-2.1
			c-2.4-1.4-4.4-3.4-5.8-5.8s-2.1-5.1-2.1-7.9c0-2.9,0.7-5.5,2.2-7.9c1.5-2.4,3.4-4.3,5.9-5.7c2.5-1.4,5.2-2.1,8-2.1
			c2.2,0,4.3,0.4,6.3,1.2s3.7,1.9,5.1,3.4s2.6,3.2,3.4,5.1s1.2,4,1.2,6.3c0,3.3-1.1,6.5-3.3,9.7L505.6,272.8z M507.5,229.2
			c-2.3,0-4.5,0.6-6.6,1.8c-2,1.2-3.7,2.8-4.9,4.8s-1.8,4.2-1.8,6.5c0,2.3,0.6,4.5,1.8,6.5s2.8,3.6,4.9,4.8s4.2,1.8,6.6,1.8
			c2.4,0,4.6-0.6,6.6-1.8s3.6-2.8,4.8-4.8c1.2-2,1.8-4.2,1.8-6.5c0-2.4-0.6-4.6-1.8-6.6s-2.8-3.6-4.8-4.8S509.8,229.2,507.5,229.2z"
			/>
		<path class="st0" d="M535.3,244c0.7,0,1.3,0.2,1.8,0.7c0.5,0.5,0.7,1.1,0.7,1.8c0,0.7-0.2,1.3-0.7,1.8s-1.1,0.7-1.7,0.7
			s-1.3-0.2-1.7-0.7s-0.7-1.1-0.7-1.7c0-0.7,0.2-1.3,0.7-1.8C534,244.2,534.6,244,535.3,244z M535.3,268c0.7,0,1.3,0.2,1.8,0.7
			s0.7,1.1,0.7,1.8s-0.2,1.3-0.7,1.8s-1.1,0.7-1.7,0.7s-1.3-0.2-1.7-0.7s-0.7-1.1-0.7-1.7s0.2-1.3,0.7-1.7S534.6,268,535.3,268z"/>
		<path class="st0" d="M563.1,229.8H556l1.4-2.7h8.6v45.2h-2.9V229.8z"/>
		<path class="st0" d="M613.7,229.8h-15.1l-3.8,12.2c1-0.3,2.1-0.5,3.4-0.5c2.9,0,5.5,0.7,7.8,2.1c2.3,1.4,4.2,3.2,5.5,5.6
			s2,4.9,2,7.7c0,3-0.7,5.7-2.2,8.2s-3.4,4.4-5.9,5.7c-2.5,1.4-5.3,2.1-8.2,2.1c-1.8,0-3.5-0.3-5.2-0.9s-3.2-1.5-4.6-2.6
			s-2.6-2.5-3.5-4l2.6-1.1c1.2,1.8,2.7,3.2,4.7,4.3s4,1.6,6.1,1.6c2.5,0,4.7-0.6,6.8-1.7c2-1.2,3.6-2.8,4.8-4.8s1.8-4.3,1.8-6.8
			c0-1.8-0.3-3.4-1-5s-1.6-2.9-2.9-4.1c-1.2-1.2-2.6-2.1-4.2-2.7c-1.6-0.6-3.3-0.9-5.1-0.9c-2.3,0-4.6,0.7-6.9,2l5.9-19.2h17.2
			V229.8z"/>
	</g>
	<g>
		<path class="st0" d="M227.4,390l9.5-48.6l15.5,35.2l16.1-35.2l8.6,48.6h-7l-4.4-27.3L252.3,392l-13-29.4l-4.9,27.3H227.4z"/>
		<path class="st0" d="M299.1,351.1V390h-6.8v-38.8h-10.4v-6.4h27.6v6.4H299.1z"/>
		<path class="st0" d="M341.1,351.4l-5.5,3.3c-1-1.8-2-3-3-3.5c-1-0.6-2.2-0.9-3.8-0.9c-1.9,0-3.5,0.5-4.7,1.6
			c-1.3,1.1-1.9,2.4-1.9,4c0,2.2,1.6,4,4.9,5.3l4.5,1.8c3.7,1.5,6.4,3.3,8.1,5.4c1.7,2.1,2.5,4.8,2.5,7.9c0,4.2-1.4,7.6-4.2,10.3
			c-2.8,2.7-6.3,4.1-10.4,4.1c-3.9,0-7.2-1.2-9.7-3.5c-2.5-2.3-4.1-5.6-4.7-9.8l6.9-1.5c0.3,2.7,0.9,4.5,1.6,5.5
			c1.4,2,3.5,2.9,6.2,2.9c2.1,0,3.9-0.7,5.3-2.1s2.1-3.2,2.1-5.4c0-0.9-0.1-1.7-0.4-2.4c-0.2-0.7-0.6-1.4-1.1-2
			c-0.5-0.6-1.2-1.2-2-1.7c-0.8-0.5-1.8-1-2.9-1.5l-4.4-1.8c-6.2-2.6-9.3-6.4-9.3-11.5c0-3.4,1.3-6.2,3.9-8.5
			c2.6-2.3,5.8-3.5,9.7-3.5C334.1,343.8,338.2,346.4,341.1,351.4z"/>
		<path class="st0" d="M386.8,364.8l8.1,9.8l0.3-0.3c0.9-1,1.7-1.9,2.5-2.8c0.8-0.9,1.5-1.8,2.3-2.8l4.5,4.6
			c-0.5,0.8-1.3,1.7-2.2,2.7c-0.9,1-1.9,2.2-3.2,3.6l8.4,10.3H399l-4.5-5.5c-4.1,4.3-8.4,6.4-12.9,6.4c-4,0-7.4-1.3-10.2-3.8
			c-2.7-2.6-4.1-5.8-4.1-9.6c0-4.5,2.2-8.3,6.5-11.3l3-2c0,0,0.1-0.1,0.2-0.1c0.1-0.1,0.2-0.2,0.4-0.3c-3-3.2-4.5-6.3-4.5-9.4
			c0-3,1-5.5,3-7.4c2-1.9,4.6-2.9,7.9-2.9c3.1,0,5.7,0.9,7.7,2.8c2,1.9,3,4.2,3,7c0,2-0.6,3.7-1.7,5.3
			C391.7,360.7,389.7,362.6,386.8,364.8z M381.4,368.6l-0.4,0.3c-2.8,1.9-4.7,3.5-5.7,4.7c-1,1.2-1.5,2.4-1.5,3.7
			c0,1.9,0.8,3.6,2.3,5.2c1.6,1.5,3.3,2.3,5.2,2.3c2.6,0,5.7-1.7,9.1-5.2L381.4,368.6z M382.9,360l0.6-0.4c1-0.7,1.7-1.4,2.4-1.9
			c0.6-0.5,1.1-1,1.3-1.4c0.6-0.7,0.9-1.6,0.9-2.7c0-1.2-0.4-2.2-1.2-2.9c-0.8-0.7-1.9-1.1-3.2-1.1c-1.2,0-2.3,0.4-3.1,1.1
			c-0.8,0.7-1.3,1.7-1.3,2.8c0,1.3,0.5,2.6,1.6,3.9l1.7,2.1C382.6,359.6,382.7,359.8,382.9,360z"/>
		<path class="st0" d="M431.4,390v-45.2h9.5c4.6,0,8.1,0.4,10.8,1.3c2.8,0.9,5.4,2.4,7.7,4.5c4.7,4.3,7,9.9,7,16.8
			c0,7-2.4,12.6-7.3,16.9c-2.4,2.1-5,3.6-7.7,4.5c-2.5,0.8-6,1.3-10.6,1.3H431.4z M438.2,383.5h3.1c3.1,0,5.6-0.3,7.6-1
			c2-0.7,3.9-1.8,5.5-3.3c3.4-3.1,5-7.1,5-12c0-5-1.7-9-5-12.1c-3-2.8-7.4-4.1-13.2-4.1h-3.1V383.5z"/>
		<path class="st0" d="M472.4,375.5c0-4.1,1.5-7.6,4.4-10.5s6.5-4.3,10.8-4.3c4.3,0,7.9,1.5,10.8,4.4c2.9,2.9,4.4,6.5,4.4,10.7
			c0,4.3-1.5,7.9-4.4,10.8c-3,2.9-6.6,4.3-10.9,4.3c-4.3,0-7.9-1.5-10.8-4.4C473.8,383.5,472.4,379.9,472.4,375.5z M479.1,375.6
			c0,2.9,0.8,5.1,2.3,6.8c1.6,1.7,3.6,2.5,6.2,2.5c2.6,0,4.6-0.8,6.2-2.5s2.3-3.9,2.3-6.7s-0.8-5-2.3-6.7c-1.6-1.7-3.6-2.5-6.2-2.5
			c-2.5,0-4.6,0.8-6.1,2.5S479.1,372.9,479.1,375.6z"/>
		<path class="st0" d="M532,362.7v8.8c-1.5-1.8-2.9-3.1-4-3.8c-1.2-0.7-2.5-1.1-4.1-1.1c-2.5,0-4.5,0.9-6.2,2.6s-2.5,3.9-2.5,6.5
			c0,2.7,0.8,4.9,2.4,6.6c1.6,1.7,3.6,2.6,6.1,2.6c1.6,0,3-0.3,4.2-1c1.2-0.7,2.5-2,4.1-3.9v8.7c-2.7,1.4-5.4,2.1-8,2.1
			c-4.4,0-8.1-1.4-11.1-4.3c-3-2.9-4.5-6.4-4.5-10.7s1.5-7.9,4.5-10.8s6.7-4.4,11.1-4.4C526.8,360.6,529.5,361.3,532,362.7z"/>
		<path class="st0" d="M539.6,390v-45.2h9.5c4.6,0,8.1,0.4,10.8,1.3c2.8,0.9,5.4,2.4,7.7,4.5c4.7,4.3,7,9.9,7,16.8
			c0,7-2.4,12.6-7.3,16.9c-2.4,2.1-5,3.6-7.7,4.5c-2.5,0.8-6,1.3-10.6,1.3H539.6z M546.5,383.5h3.1c3.1,0,5.6-0.3,7.6-1
			c2-0.7,3.9-1.8,5.5-3.3c3.4-3.1,5-7.1,5-12c0-5-1.7-9-5-12.1c-3-2.8-7.4-4.1-13.2-4.1h-3.1V383.5z"/>
		<path class="st0" d="M580.6,375.5c0-4.1,1.5-7.6,4.4-10.5s6.5-4.3,10.8-4.3c4.3,0,7.9,1.5,10.8,4.4c2.9,2.9,4.4,6.5,4.4,10.7
			c0,4.3-1.5,7.9-4.4,10.8c-3,2.9-6.6,4.3-10.9,4.3c-4.3,0-7.9-1.5-10.8-4.4C582,383.5,580.6,379.9,580.6,375.5z M587.3,375.6
			c0,2.9,0.8,5.1,2.3,6.8c1.6,1.7,3.6,2.5,6.2,2.5c2.6,0,4.6-0.8,6.2-2.5s2.3-3.9,2.3-6.7s-0.8-5-2.3-6.7c-1.6-1.7-3.6-2.5-6.2-2.5
			c-2.5,0-4.6,0.8-6.1,2.5S587.3,372.9,587.3,375.6z"/>
		<path class="st0" d="M640.2,362.7v8.8c-1.5-1.8-2.9-3.1-4-3.8c-1.2-0.7-2.5-1.1-4.1-1.1c-2.5,0-4.5,0.9-6.2,2.6s-2.5,3.9-2.5,6.5
			c0,2.7,0.8,4.9,2.4,6.6c1.6,1.7,3.6,2.6,6.1,2.6c1.6,0,3-0.3,4.2-1c1.2-0.7,2.5-2,4.1-3.9v8.7c-2.7,1.4-5.4,2.1-8,2.1
			c-4.4,0-8.1-1.4-11.1-4.3c-3-2.9-4.5-6.4-4.5-10.7s1.5-7.9,4.5-10.8s6.7-4.4,11.1-4.4C635.1,360.6,637.7,361.3,640.2,362.7z"/>
	</g>
</g>
<g>
</g>
<g>
</g>
<g>
</g>
<g>
</g>
<g>
</g>
<g>
</g>
<g>
</g>
<g>
</g>
<g>
</g>
<g>
</g>
<g>
</g>
<g>
</g>
<g>
</g>
<g>
</g>
<g>
</g>
</svg>
