<?xml version="1.0" encoding="utf-8"?>
<!-- Generator: Adobe Illustrator 22.0.0, SVG Export Plug-In . SVG Version: 6.00 Build 0)  -->
<svg version="1.1" id="Слой_1" xmlns="http://www.w3.org/2000/svg" xmlns:xlink="http://www.w3.org/1999/xlink" x="0px" y="0px"
	 viewBox="0 0 866 528" style="enable-background:new 0 0 866 528;" xml:space="preserve">
<style type="text/css">
	.st0{fill:#FFFFFF;}
</style>
<g>
	<rect width="866" height="528"/>
</g>
<g>
	<g>
		<path class="st0" d="M143.6,131.8v40.8c0,5.8,1,10.1,2.9,12.8c2.8,3.9,6.8,5.8,12,5.8c5.2,0,9.2-1.9,12-5.8
			c1.9-2.6,2.9-6.9,2.9-12.8v-40.8h10.2v43.7c0,7.1-2.2,13-6.7,17.7c-5,5.2-11.2,7.7-18.5,7.7s-13.4-2.6-18.4-7.7
			c-4.5-4.6-6.7-10.5-6.7-17.7v-43.7H143.6z"/>
		<path class="st0" d="M198.6,156.9h9.9v4c3.5-3.4,7.4-5.1,11.7-5.1c5,0,8.9,1.6,11.6,4.7c2.4,2.7,3.6,7,3.6,13.1v26.2h-9.9v-23.9
			c0-4.2-0.6-7.1-1.8-8.7c-1.1-1.6-3.2-2.5-6.2-2.5c-3.3,0-5.6,1.1-7,3.2c-1.3,2.1-2,5.9-2,11.2v20.6h-9.9V156.9z"/>
		<path class="st0" d="M246.4,139.1c0-1.7,0.6-3.2,1.9-4.5c1.3-1.3,2.8-1.9,4.5-1.9c1.8,0,3.3,0.6,4.6,1.9c1.3,1.2,1.9,2.7,1.9,4.5
			s-0.6,3.3-1.9,4.6c-1.2,1.3-2.7,1.9-4.5,1.9c-1.8,0-3.3-0.6-4.6-1.9C247,142.4,246.4,140.9,246.4,139.1z M257.8,156.9v42.8h-9.9
			v-42.8H257.8z"/>
		<path class="st0" d="M280.5,166.1v33.6h-9.9v-33.6h-4.2v-9.2h4.2v-15.7h9.9v15.7h7.7v9.2H280.5z"/>
		<path class="st0" d="M362,141.4h-27.2v16.3h26.4v9.6h-26.4V190H362v9.6h-37.4v-67.9H362V141.4z"/>
		<path class="st0" d="M406.9,158.7v13.1c-2.3-2.8-4.3-4.6-6.1-5.7c-1.8-1.1-3.8-1.6-6.2-1.6c-3.7,0-6.8,1.3-9.3,3.9
			s-3.7,5.9-3.7,9.8c0,4,1.2,7.3,3.6,9.9c2.4,2.6,5.5,3.9,9.2,3.9c2.4,0,4.5-0.5,6.3-1.5c1.8-1,3.8-2.9,6.2-5.8v13.1
			c-4,2.1-8,3.1-12,3.1c-6.6,0-12.2-2.1-16.6-6.4c-4.5-4.3-6.7-9.7-6.7-16s2.3-11.8,6.8-16.2c4.5-4.4,10-6.6,16.6-6.6
			C399.2,155.7,403.1,156.7,406.9,158.7z"/>
		<path class="st0" d="M414.5,177.9c0-6.2,2.2-11.4,6.6-15.8c4.4-4.3,9.8-6.5,16.2-6.5c6.4,0,11.8,2.2,16.3,6.5
			c4.4,4.4,6.6,9.7,6.6,16.1c0,6.4-2.2,11.8-6.6,16.1c-4.5,4.3-9.9,6.5-16.4,6.5c-6.4,0-11.8-2.2-16.1-6.6
			C416.6,190,414.5,184.5,414.5,177.9z M424.6,178.1c0,4.3,1.1,7.7,3.4,10.2c2.3,2.5,5.4,3.8,9.3,3.8c3.9,0,7-1.2,9.3-3.7
			s3.5-5.8,3.5-10s-1.2-7.5-3.5-10c-2.3-2.5-5.4-3.8-9.3-3.8c-3.8,0-6.8,1.3-9.2,3.8C425.7,170.9,424.6,174.1,424.6,178.1z"/>
		<path class="st0" d="M470.6,156.9h9.9v4c3.5-3.4,7.4-5.1,11.7-5.1c5,0,8.9,1.6,11.6,4.7c2.4,2.7,3.6,7,3.6,13.1v26.2h-9.9v-23.9
			c0-4.2-0.6-7.1-1.8-8.7c-1.1-1.6-3.2-2.5-6.2-2.5c-3.3,0-5.6,1.1-7,3.2c-1.3,2.1-2,5.9-2,11.2v20.6h-9.9V156.9z"/>
		<path class="st0" d="M517.9,177.9c0-6.2,2.2-11.4,6.6-15.8c4.4-4.3,9.8-6.5,16.2-6.5c6.4,0,11.8,2.2,16.3,6.5
			c4.4,4.4,6.6,9.7,6.6,16.1c0,6.4-2.2,11.8-6.6,16.1c-4.5,4.3-9.9,6.5-16.4,6.5c-6.4,0-11.8-2.2-16.1-6.6
			C520.1,190,517.9,184.5,517.9,177.9z M528,178.1c0,4.3,1.1,7.7,3.4,10.2c2.3,2.5,5.4,3.8,9.3,3.8c3.9,0,7-1.2,9.3-3.7
			s3.5-5.8,3.5-10s-1.2-7.5-3.5-10c-2.3-2.5-5.4-3.8-9.3-3.8c-3.8,0-6.8,1.3-9.2,3.8S528,174.1,528,178.1z"/>
		<path class="st0" d="M574,156.9h9.9v4c1.9-2,3.5-3.3,4.9-4c1.4-0.7,3.2-1.1,5.4-1.1c4.8,0,8.7,2.1,11.5,6.3
			c3.1-4.2,7.3-6.3,12.6-6.3c9.6,0,14.5,5.8,14.5,17.5v26.5h-9.9v-23.8c0-4.1-0.5-7-1.5-8.7c-1-1.7-2.7-2.6-5.1-2.6
			c-2.7,0-4.7,1-6,3.1c-1.2,2.1-1.9,5.3-1.9,9.9v22.1h-9.9V176c0-7.6-2.2-11.4-6.6-11.4c-2.8,0-4.8,1-6.1,3.1
			c-1.3,2.1-1.9,5.4-1.9,9.8v22.1H574V156.9z"/>
		<path class="st0" d="M643.7,139.1c0-1.7,0.6-3.2,1.9-4.5s2.8-1.9,4.5-1.9c1.8,0,3.3,0.6,4.6,1.9c1.3,1.2,1.9,2.7,1.9,4.5
			s-0.6,3.3-1.9,4.6c-1.2,1.3-2.7,1.9-4.5,1.9s-3.3-0.6-4.6-1.9S643.7,140.9,643.7,139.1z M655.1,156.9v42.8h-9.9v-42.8H655.1z"/>
		<path class="st0" d="M700.9,158.7v13.1c-2.3-2.8-4.3-4.6-6.1-5.7c-1.8-1.1-3.8-1.6-6.2-1.6c-3.7,0-6.8,1.3-9.3,3.9
			s-3.7,5.9-3.7,9.8c0,4,1.2,7.3,3.6,9.9c2.4,2.6,5.5,3.9,9.2,3.9c2.4,0,4.5-0.5,6.3-1.5c1.8-1,3.8-2.9,6.2-5.8v13.1
			c-4,2.1-8,3.1-12,3.1c-6.6,0-12.2-2.1-16.6-6.4c-4.5-4.3-6.7-9.7-6.7-16s2.3-11.8,6.8-16.2s10-6.6,16.6-6.6
			C693.2,155.7,697.2,156.7,700.9,158.7z"/>
		<path class="st0" d="M735.4,164.1l-8.2,4.4c-1.3-2.6-2.9-3.9-4.8-3.9c-0.9,0-1.7,0.3-2.3,0.9c-0.6,0.6-1,1.4-1,2.3
			c0,1.6,1.9,3.3,5.7,4.9c5.2,2.3,8.8,4.3,10.6,6.2c1.8,1.9,2.7,4.5,2.7,7.7c0,4.1-1.5,7.6-4.6,10.4c-3,2.6-6.5,4-10.7,4
			c-7.2,0-12.3-3.5-15.2-10.5l8.4-3.9c1.2,2.1,2.1,3.4,2.7,3.9c1.2,1.1,2.6,1.7,4.3,1.7c3.3,0,5-1.5,5-4.6c0-1.8-1.3-3.4-3.9-4.9
			c-1-0.5-2-1-3-1.5s-2-1-3-1.5c-2.9-1.4-4.9-2.8-6.1-4.2c-1.5-1.8-2.2-4.1-2.2-6.9c0-3.7,1.3-6.8,3.8-9.2c2.6-2.4,5.8-3.6,9.5-3.6
			C728.6,155.7,732.7,158.5,735.4,164.1z"/>
	</g>
	<g>
		<path class="st0" d="M265.6,226.5c2.7,0,5.1,0.7,7.1,2.1s3.8,3.3,5.2,5.6s2.4,4.8,3.1,7.5s1,5.2,1,7.7c0,2.5-0.3,5.1-1,7.8
			c-0.7,2.7-1.7,5.3-3,7.7s-3.1,4.3-5.2,5.8s-4.5,2.2-7.2,2.2s-5.1-0.7-7.2-2.2s-3.8-3.4-5.2-5.8s-2.4-4.9-3-7.7s-1-5.3-1-7.8
			c0-2.5,0.3-5.1,1-7.7s1.7-5.1,3.1-7.5c1.4-2.3,3.1-4.2,5.2-5.6C260.5,227.2,262.9,226.5,265.6,226.5z M265.6,270.2
			c2.3,0,4.3-0.7,6-2s3.2-3,4.3-5.1c1.1-2.1,1.9-4.4,2.4-6.8c0.5-2.4,0.8-4.7,0.8-6.9c0-2-0.3-4.1-0.8-6.4c-0.5-2.3-1.4-4.5-2.5-6.6
			c-1.1-2.1-2.5-3.8-4.3-5.2s-3.7-2-6-2s-4.3,0.7-6,2s-3.2,3.1-4.3,5.2s-1.9,4.3-2.5,6.7s-0.8,4.4-0.8,6.3c0,2.1,0.3,4.4,0.8,6.9
			s1.4,4.7,2.5,6.8s2.5,3.8,4.3,5.2S263.3,270.2,265.6,270.2z"/>
		<path class="st0" d="M312.2,261h6.4v2.7h-6.4v8.6h-2.9v-8.6h-24.4v-0.4l26.9-37.9h0.4V261z M309.3,261v-26.8H309l-18.8,26.4v0.4
			H309.3z"/>
		<path class="st0" d="M330.7,268c0.7,0,1.3,0.2,1.8,0.7s0.7,1.1,0.7,1.8s-0.2,1.3-0.7,1.8s-1.1,0.7-1.7,0.7s-1.3-0.2-1.7-0.7
			s-0.7-1.1-0.7-1.7s0.2-1.3,0.7-1.7S330,268,330.7,268z"/>
		<path class="st0" d="M358.5,229.8h-7.1l1.4-2.7h8.6v45.2h-2.9V229.8z"/>
		<path class="st0" d="M395.8,226.5c2.7,0,5.1,0.7,7.1,2.1s3.8,3.3,5.2,5.6s2.4,4.8,3.1,7.5s1,5.2,1,7.7c0,2.5-0.3,5.1-1,7.8
			c-0.7,2.7-1.7,5.3-3,7.7s-3.1,4.3-5.2,5.8s-4.5,2.2-7.2,2.2s-5.1-0.7-7.2-2.2s-3.8-3.4-5.2-5.8s-2.4-4.9-3-7.7s-1-5.3-1-7.8
			c0-2.5,0.3-5.1,1-7.7s1.7-5.1,3.1-7.5c1.4-2.3,3.1-4.2,5.2-5.6C390.8,227.2,393.1,226.5,395.8,226.5z M395.8,270.2
			c2.3,0,4.3-0.7,6-2s3.2-3,4.3-5.1c1.1-2.1,1.9-4.4,2.4-6.8c0.5-2.4,0.8-4.7,0.8-6.9c0-2-0.3-4.1-0.8-6.4c-0.5-2.3-1.4-4.5-2.5-6.6
			c-1.1-2.1-2.5-3.8-4.3-5.2s-3.7-2-6-2s-4.3,0.7-6,2s-3.2,3.1-4.3,5.2s-1.9,4.3-2.5,6.7s-0.8,4.4-0.8,6.3c0,2.1,0.3,4.4,0.8,6.9
			s1.4,4.7,2.5,6.8s2.5,3.8,4.3,5.2S393.5,270.2,395.8,270.2z"/>
		<path class="st0" d="M423.6,267.9l2.7,0.8l-5,13.6l-1.8-0.7L423.6,267.9z"/>
		<path class="st0" d="M470.1,229.8h-7.1l1.4-2.7h8.6v45.2h-2.9V229.8z"/>
		<path class="st0" d="M505.6,272.8l-2.3-1.7l10-14.1l-0.1-0.1c-2,0.8-4,1.2-6.1,1.2c-2.8,0-5.4-0.7-7.9-2.1
			c-2.4-1.4-4.4-3.4-5.8-5.8s-2.1-5.1-2.1-7.9c0-2.9,0.7-5.5,2.2-7.9c1.5-2.4,3.4-4.3,5.9-5.7c2.5-1.4,5.2-2.1,8-2.1
			c2.2,0,4.3,0.4,6.3,1.2s3.7,1.9,5.1,3.4s2.6,3.2,3.4,5.1s1.2,4,1.2,6.3c0,3.3-1.1,6.5-3.3,9.7L505.6,272.8z M507.5,229.2
			c-2.3,0-4.5,0.6-6.6,1.8c-2,1.2-3.7,2.8-4.9,4.8s-1.8,4.2-1.8,6.5c0,2.3,0.6,4.5,1.8,6.5s2.8,3.6,4.9,4.8s4.2,1.8,6.6,1.8
			c2.4,0,4.6-0.6,6.6-1.8s3.6-2.8,4.8-4.8c1.2-2,1.8-4.2,1.8-6.5c0-2.4-0.6-4.6-1.8-6.6s-2.8-3.6-4.8-4.8S509.8,229.2,507.5,229.2z"
			/>
		<path class="st0" d="M535.3,244c0.7,0,1.3,0.2,1.8,0.7c0.5,0.5,0.7,1.1,0.7,1.8c0,0.7-0.2,1.3-0.7,1.8s-1.1,0.7-1.7,0.7
			s-1.3-0.2-1.7-0.7s-0.7-1.1-0.7-1.7c0-0.7,0.2-1.3,0.7-1.8C534,244.2,534.6,244,535.3,244z M535.3,268c0.7,0,1.3,0.2,1.8,0.7
			s0.7,1.1,0.7,1.8s-0.2,1.3-0.7,1.8s-1.1,0.7-1.7,0.7s-1.3-0.2-1.7-0.7s-0.7-1.1-0.7-1.7s0.2-1.3,0.7-1.7S534.6,268,535.3,268z"/>
		<path class="st0" d="M563.1,229.8H556l1.4-2.7h8.6v45.2h-2.9V229.8z"/>
		<path class="st0" d="M613.7,229.8h-15.1l-3.8,12.2c1-0.3,2.1-0.5,3.4-0.5c2.9,0,5.5,0.7,7.8,2.1c2.3,1.4,4.2,3.2,5.5,5.6
			s2,4.9,2,7.7c0,3-0.7,5.7-2.2,8.2s-3.4,4.4-5.9,5.7c-2.5,1.4-5.3,2.1-8.2,2.1c-1.8,0-3.5-0.3-5.2-0.9s-3.2-1.5-4.6-2.6
			s-2.6-2.5-3.5-4l2.6-1.1c1.2,1.8,2.7,3.2,4.7,4.3s4,1.6,6.1,1.6c2.5,0,4.7-0.6,6.8-1.7c2-1.2,3.6-2.8,4.8-4.8s1.8-4.3,1.8-6.8
			c0-1.8-0.3-3.4-1-5s-1.6-2.9-2.9-4.1c-1.2-1.2-2.6-2.1-4.2-2.7c-1.6-0.6-3.3-0.9-5.1-0.9c-2.3,0-4.6,0.7-6.9,2l5.9-19.2h17.2
			V229.8z"/>
	</g>
	<g>
		<path class="st0" d="M233.6,351.4l-5.5,3.3c-1-1.8-2-3-3-3.5c-1-0.6-2.2-0.9-3.8-0.9c-1.9,0-3.5,0.5-4.7,1.6
			c-1.3,1.1-1.9,2.4-1.9,4c0,2.2,1.6,4,4.9,5.3l4.5,1.8c3.7,1.5,6.4,3.3,8.1,5.4c1.7,2.1,2.5,4.8,2.5,7.9c0,4.2-1.4,7.6-4.2,10.3
			c-2.8,2.7-6.3,4.1-10.4,4.1c-3.9,0-7.2-1.2-9.7-3.5c-2.5-2.3-4.1-5.6-4.7-9.8l6.9-1.5c0.3,2.7,0.9,4.5,1.6,5.5
			c1.4,2,3.5,2.9,6.2,2.9c2.1,0,3.9-0.7,5.3-2.1s2.1-3.2,2.1-5.4c0-0.9-0.1-1.7-0.4-2.4c-0.2-0.7-0.6-1.4-1.1-2
			c-0.5-0.6-1.2-1.2-2-1.7c-0.8-0.5-1.8-1-2.9-1.5l-4.4-1.8c-6.2-2.6-9.3-6.4-9.3-11.5c0-3.4,1.3-6.2,3.9-8.5
			c2.6-2.3,5.8-3.5,9.7-3.5C226.6,343.8,230.6,346.4,233.6,351.4z"/>
		<path class="st0" d="M248.3,340.5v30.2l9.3-9.2h8.8l-12.4,12l13.3,16.6h-8.6l-9.4-12l-1.1,1.1v11h-6.6v-49.5H248.3z"/>
		<path class="st0" d="M280.6,384.7l-12.8-23.2h7.6l8.7,16.4l8.1-16.4h7.4L277,405.5h-7.5L280.6,384.7z"/>
		<path class="st0" d="M329.2,377.2h-20.4c0.2,2.3,0.9,4.2,2.3,5.6c1.3,1.4,3.1,2.1,5.2,2.1c1.6,0,3-0.4,4.1-1.2
			c1.1-0.8,2.3-2.2,3.6-4.3l5.6,3.1c-0.9,1.5-1.8,2.7-2.7,3.8c-1,1-2,1.9-3.1,2.6c-1.1,0.7-2.3,1.2-3.5,1.5
			c-1.3,0.3-2.6,0.5-4.1,0.5c-4.3,0-7.7-1.4-10.3-4.1c-2.6-2.8-3.9-6.4-3.9-11c0-4.5,1.2-8.2,3.8-11c2.5-2.8,5.9-4.1,10-4.1
			c4.2,0,7.5,1.3,10,4c2.4,2.7,3.6,6.3,3.6,11L329.2,377.2z M322.5,371.9c-0.9-3.5-3.1-5.3-6.7-5.3c-0.8,0-1.6,0.1-2.3,0.4
			s-1.3,0.6-1.9,1.1c-0.6,0.5-1.1,1-1.5,1.7s-0.7,1.4-0.9,2.2H322.5z"/>
		<path class="st0" d="M336.4,361.4h6.6v2.6c2.3-2.3,4.9-3.4,7.8-3.4c3.3,0,5.9,1,7.8,3.1c1.6,1.8,2.4,4.7,2.4,8.7V390h-6.6V374
			c0-2.8-0.4-4.8-1.2-5.8c-0.8-1.1-2.1-1.6-4.2-1.6c-2.2,0-3.7,0.7-4.7,2.2c-0.9,1.4-1.3,3.9-1.3,7.5V390h-6.6V361.4z"/>
		<path class="st0" d="M396.9,389.3c0,1.3,0,2.5-0.1,3.6s-0.2,1.9-0.4,2.7c-0.5,2.1-1.4,4-2.8,5.5c-2.6,3-6.1,4.5-10.6,4.5
			c-3.8,0-6.9-1-9.4-3.1c-2.5-2.1-4-5-4.4-8.8h6.6c0.3,1.4,0.7,2.5,1.3,3.3c1.4,1.8,3.4,2.7,6,2.7c4.8,0,7.2-2.9,7.2-8.8v-4
			c-2.6,2.7-5.6,4-9.1,4c-3.9,0-7.1-1.4-9.6-4.2c-2.5-2.9-3.8-6.4-3.8-10.7c0-4.2,1.2-7.7,3.5-10.6c2.5-3.1,5.8-4.6,9.9-4.6
			c3.6,0,6.6,1.3,9,4v-3.2h6.6V389.3z M390.6,375.8c0-2.8-0.7-5-2.2-6.6c-1.5-1.7-3.4-2.5-5.8-2.5c-2.5,0-4.5,0.9-5.9,2.8
			c-1.3,1.7-2,3.8-2,6.4c0,2.6,0.7,4.7,2,6.4c1.4,1.8,3.4,2.7,5.9,2.7s4.5-0.9,6-2.7C389.9,380.5,390.6,378.4,390.6,375.8z"/>
		<path class="st0" d="M442.8,364.8l8.1,9.8l0.3-0.3c0.9-1,1.7-1.9,2.5-2.8s1.5-1.8,2.3-2.8l4.5,4.6c-0.5,0.8-1.3,1.7-2.2,2.7
			s-1.9,2.2-3.2,3.6l8.4,10.3H455l-4.5-5.5c-4.1,4.3-8.4,6.4-12.9,6.4c-4,0-7.4-1.3-10.2-3.8c-2.7-2.6-4.1-5.8-4.1-9.6
			c0-4.5,2.2-8.3,6.5-11.3l3-2c0,0,0.1-0.1,0.2-0.1c0.1-0.1,0.2-0.2,0.4-0.3c-3-3.2-4.5-6.3-4.5-9.4c0-3,1-5.5,3-7.4
			c2-1.9,4.6-2.9,7.9-2.9c3.1,0,5.7,0.9,7.7,2.8s3,4.2,3,7c0,2-0.6,3.7-1.7,5.3C447.7,360.7,445.7,362.6,442.8,364.8z M437.4,368.6
			l-0.4,0.3c-2.8,1.9-4.7,3.5-5.7,4.7c-1,1.2-1.5,2.4-1.5,3.7c0,1.9,0.8,3.6,2.3,5.2c1.6,1.5,3.3,2.3,5.2,2.3c2.6,0,5.7-1.7,9.1-5.2
			L437.4,368.6z M438.9,360l0.6-0.4c1-0.7,1.7-1.4,2.4-1.9s1.1-1,1.3-1.4c0.6-0.7,0.9-1.6,0.9-2.7c0-1.2-0.4-2.2-1.2-2.9
			s-1.9-1.1-3.2-1.1c-1.2,0-2.3,0.4-3.1,1.1c-0.8,0.7-1.3,1.7-1.3,2.8c0,1.3,0.5,2.6,1.6,3.9l1.7,2.1
			C438.6,359.6,438.7,359.8,438.9,360z"/>
		<path class="st0" d="M502.7,370.7l14,19.3h-8.3l-12.9-18.5h-1.2V390h-6.8v-45.2h8c6,0,10.3,1.1,12.9,3.4c2.9,2.5,4.4,5.8,4.4,9.9
			c0,3.2-0.9,6-2.8,8.3S505.7,370,502.7,370.7z M494.2,365.5h2.2c6.5,0,9.7-2.5,9.7-7.4c0-4.6-3.1-6.9-9.4-6.9h-2.4V365.5z"/>
		<path class="st0" d="M521.3,349.6c0-1.2,0.4-2.1,1.3-3s1.8-1.3,3-1.3c1.2,0,2.2,0.4,3,1.3c0.8,0.8,1.3,1.8,1.3,3s-0.4,2.2-1.3,3
			c-0.8,0.8-1.8,1.3-3,1.3s-2.2-0.4-3-1.3S521.3,350.8,521.3,349.6z M528.9,361.4V390h-6.6v-28.5H528.9z"/>
		<path class="st0" d="M559.4,362.7v8.8c-1.5-1.8-2.9-3.1-4-3.8c-1.2-0.7-2.5-1.1-4.1-1.1c-2.5,0-4.5,0.9-6.2,2.6s-2.5,3.9-2.5,6.5
			c0,2.7,0.8,4.9,2.4,6.6c1.6,1.7,3.6,2.6,6.1,2.6c1.6,0,3-0.3,4.2-1c1.2-0.7,2.5-2,4.1-3.9v8.7c-2.7,1.4-5.4,2.1-8,2.1
			c-4.4,0-8.1-1.4-11.1-4.3c-3-2.9-4.5-6.4-4.5-10.7s1.5-7.9,4.5-10.8s6.7-4.4,11.1-4.4C554.3,360.6,556.9,361.3,559.4,362.7z"/>
		<path class="st0" d="M573.9,340.5v30.2l9.3-9.2h8.8l-12.4,12L593,390h-8.6l-9.4-12l-1.1,1.1v11h-6.6v-49.5H573.9z"/>
		<path class="st0" d="M599.2,386.7c0-1.1,0.4-2,1.2-2.8s1.8-1.2,2.9-1.2s2.1,0.4,2.9,1.2s1.2,1.8,1.2,2.9c0,1.1-0.4,2.1-1.2,2.9
			c-0.8,0.8-1.7,1.2-2.9,1.2c-1.2,0-2.1-0.4-2.9-1.2S599.2,387.8,599.2,386.7z"/>
		<path class="st0" d="M637.7,361.4h6.6V390h-6.6v-3c-2.7,2.5-5.6,3.8-8.8,3.8c-3.9,0-7.2-1.4-9.8-4.3c-2.6-2.9-3.8-6.5-3.8-10.9
			c0-4.3,1.3-7.8,3.8-10.7s5.8-4.3,9.6-4.3c3.3,0,6.3,1.4,8.9,4.1V361.4z M622.1,375.6c0,2.7,0.7,5,2.2,6.7c1.5,1.7,3.4,2.6,5.7,2.6
			c2.4,0,4.4-0.8,5.9-2.5c1.5-1.7,2.3-3.9,2.3-6.6s-0.8-4.9-2.3-6.6c-1.5-1.7-3.5-2.5-5.9-2.5c-2.3,0-4.2,0.9-5.7,2.6
			C622.8,370.9,622.1,373,622.1,375.6z"/>
		<path class="st0" d="M651.6,349.6c0-1.2,0.4-2.1,1.3-3s1.8-1.3,3-1.3c1.2,0,2.2,0.4,3,1.3c0.8,0.8,1.3,1.8,1.3,3s-0.4,2.2-1.3,3
			c-0.8,0.8-1.8,1.3-3,1.3s-2.2-0.4-3-1.3S651.6,350.8,651.6,349.6z M659.2,361.4V390h-6.6v-28.5H659.2z"/>
	</g>
</g>
<g>
</g>
<g>
</g>
<g>
</g>
<g>
</g>
<g>
</g>
<g>
</g>
<g>
</g>
<g>
</g>
<g>
</g>
<g>
</g>
<g>
</g>
<g>
</g>
<g>
</g>
<g>
</g>
<g>
</g>
</svg>
