<svg id="Слой_1" data-name="Слой 1" xmlns="http://www.w3.org/2000/svg" viewBox="0 0 866 528"><defs><style>.cls-1{fill:#fff;}</style></defs><title>meetup4</title><rect width="866" height="528"/><path class="cls-1" d="M51.33,152.47v19.74H74.16V152.47h6.16v47.19H74.16V177.53H51.33v22.13H45.24V152.47Z"/><path class="cls-1" d="M98.51,184.81l-4.9,14.85h-6.3l16-47.19h7.35l16.11,47.19h-6.51l-5.05-14.85ZM114,180.05l-4.62-13.58c-1-3.08-1.75-5.88-2.45-8.61h-.14c-.7,2.8-1.47,5.67-2.38,8.54l-4.62,13.65Z"/><path class="cls-1" d="M133.72,153.1a87.23,87.23,0,0,1,12.95-1c8.75,0,15,2,19.12,5.88s6.65,9.31,6.65,16.94-2.38,14-6.79,18.34-11.7,6.8-20.87,6.8a95.74,95.74,0,0,1-11.06-.57Zm6.09,41.72a38.46,38.46,0,0,0,6.16.35c13,0,20.1-7.28,20.1-20C166.13,164,159.83,157,147,157a34.6,34.6,0,0,0-7.14.63Z"/><path class="cls-1" d="M186.43,152.47v47.19h-6.09V152.47Z"/><path class="cls-1" d="M235.85,198.39a22.51,22.51,0,0,1-9.73,2c-10.22,0-16.87-6.94-16.87-17.3s7.14-18,18.2-18a20.59,20.59,0,0,1,8.54,1.75l-1.4,4.76a14.28,14.28,0,0,0-7.14-1.61c-7.77,0-12,5.74-12,12.81,0,7.84,5,12.68,11.76,12.68a17.48,17.48,0,0,0,7.56-1.69Z"/><path class="cls-1" d="M246.56,165.77l7.42,20c.77,2.24,1.61,4.9,2.17,6.93h.14c.63-2,1.33-4.62,2.17-7.07l6.72-19.88h6.51l-9.24,24.15C258,201.54,255,207.5,250.83,211.14a16.69,16.69,0,0,1-7.56,4L241.73,210a16.29,16.29,0,0,0,5.39-3,18.68,18.68,0,0,0,5.18-6.86,4.39,4.39,0,0,0,.49-1.48,5.26,5.26,0,0,0-.42-1.6l-12.53-31.23Z"/><path class="cls-1" d="M300.74,198.39a22.51,22.51,0,0,1-9.73,2c-10.22,0-16.87-6.94-16.87-17.3s7.14-18,18.2-18a20.59,20.59,0,0,1,8.54,1.75l-1.4,4.76a14.28,14.28,0,0,0-7.14-1.61c-7.77,0-12,5.74-12,12.81,0,7.84,5,12.68,11.76,12.68a17.48,17.48,0,0,0,7.56-1.69Z"/><path class="cls-1" d="M308,150h6.16v49.71H308Z"/><path class="cls-1" d="M327.9,183.83c.14,8.33,5.46,11.76,11.62,11.76a22.28,22.28,0,0,0,9.38-1.75l1.05,4.41a27.24,27.24,0,0,1-11.27,2.11c-10.43,0-16.66-6.87-16.66-17.09S328,165,337.91,165c11.06,0,14,9.73,14,16a23.23,23.23,0,0,1-.21,2.87ZM346,179.42c.07-3.92-1.61-10-8.54-10-6.23,0-9,5.74-9.45,10Z"/><path class="cls-1" d="M358.7,193.35a16.14,16.14,0,0,0,8.12,2.45c4.48,0,6.58-2.24,6.58-5s-1.75-4.55-6.3-6.23c-6.09-2.17-9-5.53-9-9.59,0-5.46,4.41-9.94,11.69-9.94a16.91,16.91,0,0,1,8.33,2.1l-1.54,4.48a13.19,13.19,0,0,0-6.93-2c-3.64,0-5.67,2.1-5.67,4.62,0,2.8,2,4.06,6.44,5.74,5.88,2.24,8.89,5.18,8.89,10.22,0,6-4.62,10.16-12.67,10.16a19.21,19.21,0,0,1-9.52-2.32Z"/><path class="cls-1" d="M431.85,199.66c-1.33-1.33-2.59-2.66-4.41-4.63a19.29,19.29,0,0,1-13.79,5.39c-9.17,0-14.49-6.16-14.49-13.23,0-6.44,3.85-10.85,9.24-13.79v-.21a16.21,16.21,0,0,1-3.92-9.87c0-5.74,4.13-11.62,12-11.62,5.88,0,10.43,3.92,10.43,10,0,5-2.87,8.89-10.36,12.6v.21c4,4.62,8.47,9.8,11.48,13.16,2.17-3.29,3.64-7.84,4.55-13.79h5.6c-1.26,7.42-3.29,13.3-6.79,17.43,2.52,2.66,5,5.32,7.77,8.34Zm-7.42-8.13c-2.8-3.08-8.05-8.82-13.3-14.84-2.52,1.61-6.09,4.62-6.09,9.59a9.31,9.31,0,0,0,9.66,9.52A13.18,13.18,0,0,0,424.43,191.53Zm-14.35-28.77c0,3.36,1.54,6,3.57,8.47,4.76-2.73,7.84-5.25,7.84-9.24,0-2.87-1.61-6.09-5.46-6.09S410.08,159.12,410.08,162.76Z"/><path class="cls-1" d="M459.5,152.47h6.09v42.07h20.16v5.12H459.5Z"/><path class="cls-1" d="M494.78,183.83c.14,8.33,5.46,11.76,11.62,11.76a22.28,22.28,0,0,0,9.38-1.75l1.05,4.41a27.24,27.24,0,0,1-11.27,2.11c-10.43,0-16.66-6.87-16.66-17.09s6-18.27,15.89-18.27c11.06,0,14,9.73,14,16a23.23,23.23,0,0,1-.21,2.87Zm18.06-4.41c.07-3.92-1.61-10-8.54-10-6.23,0-9,5.74-9.45,10Z"/><path class="cls-1" d="M545.18,199.66l-.49-4.28h-.21a12.62,12.62,0,0,1-10.36,5c-6.87,0-10.37-4.83-10.37-9.73,0-8.19,7.29-12.67,20.38-12.6v-.7c0-2.8-.77-7.84-7.7-7.84a16.88,16.88,0,0,0-8.82,2.52l-1.4-4.06a21,21,0,0,1,11.13-3c10.36,0,12.88,7.07,12.88,13.86v12.67a47.9,47.9,0,0,0,.56,8.13Zm-.91-17.3c-6.72-.14-14.35,1-14.35,7.63,0,4,2.66,5.89,5.81,5.89a8.44,8.44,0,0,0,8.19-5.68,6.43,6.43,0,0,0,.35-2Z"/><path class="cls-1" d="M560.15,174.94c0-3.5-.07-6.37-.28-9.17h5.46l.35,5.6h.15A12.45,12.45,0,0,1,577,165c4.69,0,12,2.8,12,14.42v20.24h-6.16V180.12c0-5.46-2-10-7.84-10a8.75,8.75,0,0,0-8.26,6.3,8.86,8.86,0,0,0-.42,2.87v20.38h-6.17Z"/><path class="cls-1" d="M613.21,192.23a21.58,21.58,0,0,0,10.92,3.08c6.23,0,9.87-3.29,9.87-8.05,0-4.41-2.52-6.93-8.89-9.38-7.7-2.73-12.46-6.72-12.46-13.37,0-7.35,6.09-12.81,15.26-12.81A21.45,21.45,0,0,1,638.35,154l-1.68,5a18.84,18.84,0,0,0-9-2.24c-6.44,0-8.89,3.85-8.89,7.07,0,4.41,2.87,6.58,9.38,9.1,8,3.08,12,6.93,12,13.86,0,7.28-5.4,13.59-16.53,13.59-4.55,0-9.52-1.33-12-3Z"/><path class="cls-1" d="M655.56,156v9.73h8.83v4.69h-8.83v18.27c0,4.2,1.19,6.58,4.62,6.58a13.64,13.64,0,0,0,3.57-.42l.29,4.62a15,15,0,0,1-5.46.85,8.52,8.52,0,0,1-6.66-2.6c-1.75-1.82-2.38-4.83-2.38-8.82V170.46h-5.25v-4.69h5.25v-8.12Z"/><path class="cls-1" d="M690.08,199.66l-.49-4.28h-.21a12.64,12.64,0,0,1-10.37,5c-6.86,0-10.36-4.83-10.36-9.73,0-8.19,7.28-12.67,20.38-12.6v-.7c0-2.8-.77-7.84-7.7-7.84a16.89,16.89,0,0,0-8.83,2.52L671.1,168a21,21,0,0,1,11.13-3c10.37,0,12.89,7.07,12.89,13.86v12.67a47.9,47.9,0,0,0,.56,8.13Zm-.91-17.3c-6.73-.14-14.36,1-14.36,7.63,0,4,2.66,5.89,5.82,5.89a8.45,8.45,0,0,0,8.19-5.68,6.43,6.43,0,0,0,.35-2Z"/><path class="cls-1" d="M705.05,176.34c0-4-.07-7.42-.28-10.57h5.39l.21,6.65h.28c1.54-4.55,5.25-7.42,9.38-7.42a6.66,6.66,0,0,1,1.75.21V171a9.25,9.25,0,0,0-2.1-.21c-4.34,0-7.42,3.29-8.26,7.91a17.34,17.34,0,0,0-.28,2.87v18.07h-6.09Z"/><path class="cls-1" d="M737,156v9.73h8.82v4.69H737v18.27c0,4.2,1.19,6.58,4.62,6.58a13.7,13.7,0,0,0,3.57-.42l.28,4.62a15,15,0,0,1-5.46.85,8.51,8.51,0,0,1-6.65-2.6c-1.75-1.82-2.38-4.83-2.38-8.82V170.46h-5.25v-4.69H731v-8.12Z"/><path class="cls-1" d="M781.14,190.41c0,3.5.07,6.59.28,9.25H776l-.35-5.54h-.14a12.75,12.75,0,0,1-11.2,6.3c-5.32,0-11.69-2.94-11.69-14.84V165.77h6.16v18.76c0,6.44,2,10.78,7.56,10.78a8.91,8.91,0,0,0,8.12-5.6,9,9,0,0,0,.56-3.15V165.77h6.16Z"/><path class="cls-1" d="M791.36,176.83c0-4.34-.14-7.84-.28-11.06h5.53l.28,5.81H797a13.32,13.32,0,0,1,12-6.58c8.19,0,14.35,6.93,14.35,17.22,0,12.18-7.42,18.2-15.4,18.2-4.48,0-8.4-2-10.43-5.32h-.14v18.42h-6.09Zm6.09,9a13.87,13.87,0,0,0,.28,2.52,9.5,9.5,0,0,0,9.24,7.21c6.51,0,10.29-5.32,10.29-13.09,0-6.79-3.57-12.6-10.08-12.6a9.83,9.83,0,0,0-9.31,7.63,10,10,0,0,0-.42,2.52Z"/><path class="cls-1" d="M265.57,226.47a12.42,12.42,0,0,1,7.13,2.12,17.61,17.61,0,0,1,5.19,5.58,28.51,28.51,0,0,1,3.09,7.46,31.34,31.34,0,0,1,1,7.75,32.91,32.91,0,0,1-1,7.79,29.33,29.33,0,0,1-3,7.66,17.72,17.72,0,0,1-5.2,5.84,12.8,12.8,0,0,1-14.45,0,18,18,0,0,1-5.2-5.8,29.52,29.52,0,0,1-3-7.68,33.31,33.31,0,0,1-1-7.82,31,31,0,0,1,1-7.72,27.77,27.77,0,0,1,3.1-7.46,17.47,17.47,0,0,1,5.21-5.61A12.39,12.39,0,0,1,265.57,226.47Zm0,43.74a9.68,9.68,0,0,0,6-2,15.31,15.31,0,0,0,4.26-5.15,27.58,27.58,0,0,0,2.44-6.77,31.61,31.61,0,0,0,.81-6.92,28.32,28.32,0,0,0-.81-6.41,27.22,27.22,0,0,0-2.46-6.62,15.51,15.51,0,0,0-4.27-5.17,10,10,0,0,0-12,0,15.63,15.63,0,0,0-4.27,5.19,29.77,29.77,0,0,0-3.3,13,31.21,31.21,0,0,0,.82,6.86,27.24,27.24,0,0,0,2.47,6.81,15.28,15.28,0,0,0,4.25,5.17A9.61,9.61,0,0,0,265.57,270.21Z"/><path class="cls-1" d="M302.78,272.91a13.74,13.74,0,0,1-5-.94,13.3,13.3,0,0,1-4.22-2.59,12,12,0,0,1-2.86-4,11.9,11.9,0,0,1-1-4.93A12.14,12.14,0,0,1,297,248.72a11.2,11.2,0,0,1-4.64-4.26,11.43,11.43,0,0,1-1.73-6.05,11.93,11.93,0,0,1,1.59-6.09,11.52,11.52,0,0,1,4.38-4.3,13,13,0,0,1,12.3,0,11.42,11.42,0,0,1,4.37,4.3,11.84,11.84,0,0,1,1.6,6.09,11.39,11.39,0,0,1-.78,4.11,11.54,11.54,0,0,1-2.23,3.65,10.7,10.7,0,0,1-3.35,2.55,12.15,12.15,0,0,1,7.39,11.76,11.68,11.68,0,0,1-1.8,6.35,12.54,12.54,0,0,1-4.81,4.47A13.7,13.7,0,0,1,302.78,272.91Zm0-22.74a10.35,10.35,0,0,0-8.88,5,9.8,9.8,0,0,0,0,10.06,10.36,10.36,0,0,0,17.73,0,9.7,9.7,0,0,0,0-10,10.33,10.33,0,0,0-8.85-5Zm0-21a9,9,0,0,0-4.61,1.24,9.36,9.36,0,0,0-3.39,3.37,8.9,8.9,0,0,0-1.25,4.57,8.8,8.8,0,0,0,1.25,4.57,9.31,9.31,0,0,0,12.6,3.32,9.33,9.33,0,0,0,3.39-3.33,8.84,8.84,0,0,0,1.25-4.56,8.72,8.72,0,0,0-1.27-4.58,9.44,9.44,0,0,0-3.4-3.36A8.94,8.94,0,0,0,302.78,229.17Z"/><path class="cls-1" d="M330.68,268a2.4,2.4,0,0,1,1.76.71,2.47,2.47,0,1,1-4.22,1.75,2.39,2.39,0,0,1,.7-1.74A2.37,2.37,0,0,1,330.68,268Z"/><path class="cls-1" d="M358.47,229.77h-7.15l1.38-2.7h8.64V272.3h-2.87Z"/><path class="cls-1" d="M395.79,226.47a12.43,12.43,0,0,1,7.14,2.12,17.47,17.47,0,0,1,5.18,5.58,27.85,27.85,0,0,1,3.09,7.46,30.9,30.9,0,0,1,1,7.75,33.43,33.43,0,0,1-1,7.79,29.71,29.71,0,0,1-3,7.66,17.61,17.61,0,0,1-5.2,5.84,12.8,12.8,0,0,1-14.45,0,17.85,17.85,0,0,1-5.19-5.8,29.18,29.18,0,0,1-3-7.68,32.82,32.82,0,0,1-1-7.82,31,31,0,0,1,1-7.72,27.79,27.79,0,0,1,3.11-7.46,17.44,17.44,0,0,1,5.2-5.61A12.41,12.41,0,0,1,395.79,226.47Zm0,43.74a9.71,9.71,0,0,0,6-2,15.17,15.17,0,0,0,4.25-5.15,28,28,0,0,0,2.45-6.77,32.19,32.19,0,0,0,.8-6.92,28.85,28.85,0,0,0-.8-6.41,28.07,28.07,0,0,0-2.46-6.62,15.63,15.63,0,0,0-4.27-5.17,10,10,0,0,0-12,0,15.75,15.75,0,0,0-4.27,5.19A27.9,27.9,0,0,0,383,243a28.23,28.23,0,0,0-.81,6.34,31.79,31.79,0,0,0,.81,6.86,27.64,27.64,0,0,0,2.47,6.81,15.19,15.19,0,0,0,4.26,5.17A9.6,9.6,0,0,0,395.79,270.21Z"/><path class="cls-1" d="M423.58,267.87l2.7.83-5,13.57-1.81-.66Z"/><path class="cls-1" d="M470.09,229.77h-7.15l1.38-2.7H473V272.3h-2.87Z"/><path class="cls-1" d="M505.61,272.79,503.27,271l10-14.1-.12-.12a16,16,0,0,1-6.06,1.2,15.18,15.18,0,0,1-7.86-2.14,15.94,15.94,0,0,1-5.78-5.81,15.32,15.32,0,0,1-2.14-7.88,14.89,14.89,0,0,1,2.21-7.92,15.78,15.78,0,0,1,5.93-5.71,16.11,16.11,0,0,1,8-2.09,16.38,16.38,0,0,1,6.26,1.2,15.53,15.53,0,0,1,8.55,8.56,16.29,16.29,0,0,1,1.2,6.25,16.9,16.9,0,0,1-3.29,9.67Zm1.86-43.62A13.35,13.35,0,0,0,496,235.7a12.74,12.74,0,0,0,0,13.06,13.16,13.16,0,0,0,4.86,4.8,13,13,0,0,0,6.59,1.77,12.77,12.77,0,0,0,6.57-1.77,13.15,13.15,0,0,0,4.79-4.78,12.6,12.6,0,0,0,1.78-6.53,12.77,12.77,0,0,0-1.77-6.57,13.16,13.16,0,0,0-11.37-6.51Z"/><path class="cls-1" d="M535.32,244a2.46,2.46,0,1,1,0,4.92,2.46,2.46,0,0,1-2.46-2.46,2.42,2.42,0,0,1,2.46-2.46Zm0,24a2.4,2.4,0,0,1,1.76.71,2.52,2.52,0,0,1,0,3.51,2.4,2.4,0,0,1-1.74.71,2.46,2.46,0,0,1-2.46-2.47,2.39,2.39,0,0,1,.7-1.74A2.37,2.37,0,0,1,535.32,268Z"/><path class="cls-1" d="M563.11,229.77H556l1.38-2.7H566V272.3h-2.87Z"/><path class="cls-1" d="M613.69,229.77H598.57L594.79,242a11.3,11.3,0,0,1,3.42-.48,15.15,15.15,0,0,1,13.34,7.66,15.35,15.35,0,0,1,2,7.75,15.76,15.76,0,0,1-2.16,8.17,15.31,15.31,0,0,1-5.92,5.73,16.78,16.78,0,0,1-8.24,2.07,15.77,15.77,0,0,1-13.39-7.5l2.64-1.09a13.09,13.09,0,0,0,4.7,4.27,12.45,12.45,0,0,0,6.11,1.62,13.47,13.47,0,0,0,6.78-1.74,12.65,12.65,0,0,0,4.83-4.8,13.36,13.36,0,0,0,1.77-6.79,12.27,12.27,0,0,0-3.91-9,13.22,13.22,0,0,0-4.24-2.68,13.61,13.61,0,0,0-5-.95,13.4,13.4,0,0,0-6.9,2l5.87-19.19h17.23Z"/><path class="cls-1" d="M335.81,351.14H320.05V362h15.2v6.41h-15.2V390h-6.83V344.72h22.59Z"/><path class="cls-1" d="M363.08,361.42h6.62V390h-6.62v-3a12.65,12.65,0,0,1-18.54-.47,15.9,15.9,0,0,1-3.84-10.9,15.4,15.4,0,0,1,3.84-10.69,12.38,12.38,0,0,1,9.61-4.28,12.13,12.13,0,0,1,8.93,4.1ZM347.44,375.6a9.93,9.93,0,0,0,2.2,6.68,7.17,7.17,0,0,0,5.68,2.61,7.58,7.58,0,0,0,5.92-2.52,10.86,10.86,0,0,0,0-13.24,7.47,7.47,0,0,0-5.86-2.55,7.3,7.3,0,0,0-5.69,2.58A9.49,9.49,0,0,0,347.44,375.6Z"/><path class="cls-1" d="M400.23,362.65v8.76a16.26,16.26,0,0,0-4-3.78,7.9,7.9,0,0,0-4.13-1.05,8.16,8.16,0,0,0-6.18,2.6,9.16,9.16,0,0,0-2.46,6.54,9.37,9.37,0,0,0,2.37,6.59,8,8,0,0,0,6.12,2.58,8.32,8.32,0,0,0,4.19-1,16.55,16.55,0,0,0,4.13-3.86v8.7a17.37,17.37,0,0,1-8,2.08,15.37,15.37,0,0,1-11.07-4.28,14.27,14.27,0,0,1-4.45-10.69A14.47,14.47,0,0,1,381.19,365a15.26,15.26,0,0,1,11.07-4.39A16.5,16.5,0,0,1,400.23,362.65Z"/><path class="cls-1" d="M413.42,367.57V390h-6.6V367.57H404v-6.15h2.81V351h6.6v10.46h5.12v6.15Z"/><path class="cls-1" d="M422.09,375.48A14.16,14.16,0,0,1,426.51,365a15.59,15.59,0,0,1,21.62,0,15.26,15.26,0,0,1,0,21.47,15.13,15.13,0,0,1-10.93,4.31,14.51,14.51,0,0,1-10.75-4.4A14.77,14.77,0,0,1,422.09,375.48Zm6.74.12a9.65,9.65,0,0,0,2.28,6.77,8.88,8.88,0,0,0,12.36,0,10.69,10.69,0,0,0,0-13.3,8.76,8.76,0,0,0-12.3,0A9.16,9.16,0,0,0,428.83,375.6Z"/><path class="cls-1" d="M459.5,361.42h6.59V364a12.73,12.73,0,0,1,3.22-2.61,7.38,7.38,0,0,1,3.4-.73,10.66,10.66,0,0,1,5.45,1.7l-3,6a6.34,6.34,0,0,0-3.66-1.34q-5.39,0-5.39,8.14V390H459.5Z"/><path class="cls-1" d="M481.85,349.56a4.07,4.07,0,0,1,1.26-3,4.29,4.29,0,0,1,6.07,0,4,4,0,0,1,1.26,3,4.14,4.14,0,0,1-1.26,3.05,4.06,4.06,0,0,1-3,1.26,4.3,4.3,0,0,1-4.31-4.33Zm7.59,11.86V390h-6.59V361.42Z"/><path class="cls-1" d="M520,362.65v8.76a16.44,16.44,0,0,0-4-3.78,7.88,7.88,0,0,0-4.13-1.05,8.16,8.16,0,0,0-6.18,2.6,9.16,9.16,0,0,0-2.46,6.54,9.37,9.37,0,0,0,2.37,6.59,8,8,0,0,0,6.13,2.58,8.34,8.34,0,0,0,4.19-1A16.55,16.55,0,0,0,520,380v8.7a17.4,17.4,0,0,1-8,2.08,15.35,15.35,0,0,1-11.07-4.28,14.28,14.28,0,0,1-4.46-10.69A14.51,14.51,0,0,1,501,365,15.27,15.27,0,0,1,512,360.63,16.53,16.53,0,0,1,520,362.65Z"/><path class="cls-1" d="M547.42,361.42H554V390h-6.62v-3a12.66,12.66,0,0,1-18.55-.47A15.89,15.89,0,0,1,525,375.6a15.39,15.39,0,0,1,3.83-10.69,12.38,12.38,0,0,1,9.61-4.28,12.16,12.16,0,0,1,8.94,4.1ZM531.77,375.6a10,10,0,0,0,2.2,6.68,7.21,7.21,0,0,0,5.69,2.61,7.54,7.54,0,0,0,5.91-2.52,10.83,10.83,0,0,0,0-13.24,7.44,7.44,0,0,0-5.86-2.55,7.28,7.28,0,0,0-5.68,2.58A9.49,9.49,0,0,0,531.77,375.6Z"/></svg>