<svg id="Слой_1" data-name="Слой 1" xmlns="http://www.w3.org/2000/svg" viewBox="0 0 866 528"><defs><style>.cls-1{fill:#fff;}</style></defs><title>meetup2</title><rect width="866" height="528"/><path class="cls-1" d="M88.71,146.13v10.09Q81.3,150,73.4,150a19.49,19.49,0,0,0-14.69,6.27,21.11,21.11,0,0,0-6,15.23,20.6,20.6,0,0,0,6,15,19.86,19.86,0,0,0,14.73,6.12,18.16,18.16,0,0,0,7.65-1.46,22,22,0,0,0,3.64-2,42.57,42.57,0,0,0,4-3v10.31a30.75,30.75,0,0,1-15.38,4.16,28.39,28.39,0,0,1-20.7-8.46,28.08,28.08,0,0,1-8.53-20.58,29,29,0,0,1,7.14-19.26Q60,142,74,142A29.06,29.06,0,0,1,88.71,146.13Z"/><path class="cls-1" d="M106.14,164v20.47q0,8.86,7,8.86t7-8.86V164h8.24v20.65a22.93,22.93,0,0,1-1.07,7.4,12.29,12.29,0,0,1-3.55,5,15.59,15.59,0,0,1-10.62,3.63,15.54,15.54,0,0,1-10.58-3.63,12.6,12.6,0,0,1-3.63-5,20.52,20.52,0,0,1-1-7.4V164Z"/><path class="cls-1" d="M159.5,170.07l-6.82,3.62q-1.6-3.25-4-3.26a2.74,2.74,0,0,0-1.94.75,2.49,2.49,0,0,0-.8,1.92c0,1.37,1.58,2.72,4.76,4.06q6.56,2.82,8.82,5.2a8.88,8.88,0,0,1,2.27,6.4,11.22,11.22,0,0,1-3.81,8.63,13,13,0,0,1-8.93,3.29q-9,0-12.71-8.75l7-3.26a15.25,15.25,0,0,0,2.24,3.26,5.07,5.07,0,0,0,3.58,1.39q4.19,0,4.18-3.81c0-1.46-1.08-2.83-3.22-4.1-.83-.42-1.66-.82-2.49-1.21s-1.68-.79-2.53-1.21a15.4,15.4,0,0,1-5-3.51,8.65,8.65,0,0,1-1.87-5.75A10.17,10.17,0,0,1,141.4,166a11.17,11.17,0,0,1,7.91-3Q156.17,163,159.5,170.07Z"/><path class="cls-1" d="M177.7,171.68v28h-8.24v-28h-3.52V164h3.52V150.91h8.24V164h6.4v7.69Z"/><path class="cls-1" d="M188.54,181.56a17.69,17.69,0,0,1,5.53-13.14,19.51,19.51,0,0,1,27,0,19.11,19.11,0,0,1,0,26.85,18.88,18.88,0,0,1-13.65,5.38A18.12,18.12,0,0,1,194,195.19,18.47,18.47,0,0,1,188.54,181.56Zm8.42.15q0,5.35,2.85,8.46a11.11,11.11,0,0,0,15.46,0,13.41,13.41,0,0,0,0-16.63,10.05,10.05,0,0,0-7.73-3.15,10,10,0,0,0-7.65,3.15A11.43,11.43,0,0,0,197,181.71Z"/><path class="cls-1" d="M235.3,164h8.24v3.29a17.45,17.45,0,0,1,4.06-3.37,9.9,9.9,0,0,1,4.51-.91,10.93,10.93,0,0,1,9.56,5.27A12.35,12.35,0,0,1,272.18,163q12,0,12.05,14.61v22H276V179.84c0-3.42-.42-5.83-1.25-7.25a4.5,4.5,0,0,0-4.21-2.16,5.37,5.37,0,0,0-5,2.57c-1,1.7-1.55,4.45-1.55,8.23v18.43H255.7V180q0-9.51-5.49-9.52a5.52,5.52,0,0,0-5.08,2.6q-1.59,2.61-1.59,8.2v18.43H235.3Z"/><path class="cls-1" d="M327.11,183.76H301.55a10.84,10.84,0,0,0,2.86,7,8.72,8.72,0,0,0,6.48,2.56,8.43,8.43,0,0,0,5.09-1.47,20.56,20.56,0,0,0,4.5-5.42l7,3.89A27,27,0,0,1,324,195a18,18,0,0,1-3.84,3.23,15.55,15.55,0,0,1-4.43,1.84,21.64,21.64,0,0,1-5.17.59q-8,0-12.81-5.13t-4.84-13.69q0-8.46,4.69-13.7T310.15,163q7.88,0,12.46,5t4.54,13.81ZM318.65,177q-1.72-6.59-8.31-6.59a8.42,8.42,0,0,0-2.82.46,7.82,7.82,0,0,0-2.4,1.32,8.18,8.18,0,0,0-1.85,2.07A9.68,9.68,0,0,0,302.1,177Z"/><path class="cls-1" d="M336.12,164h8.24v3.18a15.57,15.57,0,0,1,4-3.26,9.21,9.21,0,0,1,4.24-.91,13.37,13.37,0,0,1,6.82,2.12l-3.78,7.55A7.82,7.82,0,0,0,351.1,171q-6.75,0-6.74,10.18v18.5h-8.24Z"/><path class="cls-1" d="M388.89,199.66V143.11h11.86q8.53,0,13.48,1.69a25.18,25.18,0,0,1,9.63,5.6q8.76,8,8.75,21t-9.11,21.1a26.75,26.75,0,0,1-9.6,5.6c-3.12,1-7.56,1.58-13.29,1.58Zm8.53-8h3.85a32.33,32.33,0,0,0,9.56-1.2,19.48,19.48,0,0,0,6.88-4.07q6.3-5.75,6.3-15t-6.23-15.08q-5.59-5.18-16.51-5.17h-3.85Z"/><path class="cls-1" d="M474.25,183.76H448.69a10.84,10.84,0,0,0,2.86,7,8.72,8.72,0,0,0,6.48,2.56,8.41,8.41,0,0,0,5.09-1.47,20.56,20.56,0,0,0,4.5-5.42l7,3.89a27.52,27.52,0,0,1-3.4,4.7,18.31,18.31,0,0,1-3.85,3.23,15.43,15.43,0,0,1-4.43,1.84,21.62,21.62,0,0,1-5.16.59q-8,0-12.82-5.13t-4.84-13.69q0-8.46,4.69-13.7T457.3,163q7.88,0,12.45,5t4.54,13.81ZM465.79,177c-1.14-4.39-3.92-6.59-8.31-6.59a8.42,8.42,0,0,0-2.82.46,7.82,7.82,0,0,0-2.4,1.32,8.18,8.18,0,0,0-1.85,2.07,9.68,9.68,0,0,0-1.17,2.74Z"/><path class="cls-1" d="M486.41,164l9.23,20,9.19-20h9.27l-18.53,38.12L477.18,164Z"/><path class="cls-1" d="M550.86,183.76H525.3a10.84,10.84,0,0,0,2.86,7,8.72,8.72,0,0,0,6.48,2.56,8.41,8.41,0,0,0,5.09-1.47,20.75,20.75,0,0,0,4.51-5.42l7,3.89a27.52,27.52,0,0,1-3.4,4.7,18.31,18.31,0,0,1-3.85,3.23,15.32,15.32,0,0,1-4.43,1.84,21.62,21.62,0,0,1-5.16.59q-8,0-12.82-5.13t-4.83-13.69q0-8.46,4.68-13.7T533.91,163q7.88,0,12.45,5t4.54,13.81ZM542.4,177q-1.71-6.59-8.31-6.59a8.42,8.42,0,0,0-2.82.46,7.82,7.82,0,0,0-2.4,1.32,8.37,8.37,0,0,0-1.85,2.07,9.68,9.68,0,0,0-1.17,2.74Z"/><path class="cls-1" d="M568.11,137.8v61.86h-8.24V137.8Z"/><path class="cls-1" d="M576.87,181.56a17.72,17.72,0,0,1,5.52-13.14,19.52,19.52,0,0,1,27,0,19.11,19.11,0,0,1,0,26.85,18.88,18.88,0,0,1-13.66,5.38,18.11,18.11,0,0,1-13.43-5.49A18.47,18.47,0,0,1,576.87,181.56Zm8.42.15q0,5.35,2.85,8.46a11.11,11.11,0,0,0,15.46,0,13.41,13.41,0,0,0,0-16.63,10.05,10.05,0,0,0-7.73-3.15,10,10,0,0,0-7.65,3.15A11.43,11.43,0,0,0,585.29,181.71Z"/><path class="cls-1" d="M631.87,219.06h-8.24V164h8.24v3.88a15.63,15.63,0,0,1,23.18.55A19.59,19.59,0,0,1,659.89,182a19.26,19.26,0,0,1-4.8,13.37,15.63,15.63,0,0,1-23.22.29Zm19.59-37a12.29,12.29,0,0,0-2.78-8.35,9,9,0,0,0-7.1-3.26,9.43,9.43,0,0,0-7.37,3.15,12,12,0,0,0-2.82,8.28,12.18,12.18,0,0,0,2.82,8.27,9.25,9.25,0,0,0,7.33,3.19,8.93,8.93,0,0,0,7.07-3.22A11.73,11.73,0,0,0,651.46,182Z"/><path class="cls-1" d="M668.6,164h8.24v3.29a17.26,17.26,0,0,1,4.07-3.37,9.82,9.82,0,0,1,4.5-.91,10.92,10.92,0,0,1,9.56,5.27A12.36,12.36,0,0,1,705.48,163q12,0,12,14.61v22h-8.28V179.84c0-3.42-.41-5.83-1.24-7.25a4.53,4.53,0,0,0-4.22-2.16,5.37,5.37,0,0,0-5,2.57c-1,1.7-1.55,4.45-1.55,8.23v18.43H689V180q0-9.51-5.49-9.52a5.53,5.53,0,0,0-5.08,2.6q-1.59,2.61-1.59,8.2v18.43H668.6Z"/><path class="cls-1" d="M760.41,183.76H734.85a10.84,10.84,0,0,0,2.86,7,8.72,8.72,0,0,0,6.48,2.56,8.43,8.43,0,0,0,5.09-1.47,20.56,20.56,0,0,0,4.5-5.42l7,3.89a27,27,0,0,1-3.41,4.7,18,18,0,0,1-3.84,3.23,15.55,15.55,0,0,1-4.43,1.84,21.64,21.64,0,0,1-5.17.59q-8,0-12.81-5.13t-4.84-13.69q0-8.46,4.69-13.7T743.46,163q7.86,0,12.45,5t4.54,13.81ZM752,177q-1.73-6.59-8.31-6.59a8.42,8.42,0,0,0-2.82.46,7.82,7.82,0,0,0-2.4,1.32,8.18,8.18,0,0,0-1.85,2.07A9.68,9.68,0,0,0,735.4,177Z"/><path class="cls-1" d="M769.42,164h8.28v3.29a13.51,13.51,0,0,1,9.74-4.28q6.22,0,9.7,3.92,3,3.33,3,10.87v21.87h-8.27v-19.9q0-5.26-1.47-7.28t-5.2-2q-4.1,0-5.82,2.71t-1.68,9.32v17.2h-8.28Z"/><path class="cls-1" d="M819,171.68v28H810.8v-28h-3.51V164h3.51V150.91H819V164h6.41v7.69Z"/><path class="cls-1" d="M257.53,269.61H279v2.69H251.11L268,253.76q2.88-3.22,4.35-5a24,24,0,0,0,2.73-4.29,10.79,10.79,0,0,0,1.26-4.9,10.2,10.2,0,0,0-3.15-7.4,10.63,10.63,0,0,0-3.43-2.21,10.87,10.87,0,0,0-4.1-.77,11,11,0,0,0-5.44,1.34,9.77,9.77,0,0,0-3.85,3.8,11,11,0,0,0-1.39,5.53h-2.89a19.63,19.63,0,0,1,.7-4.78,10,10,0,0,1,2.13-3.8,15.1,15.1,0,0,1,10.74-4.79,13.74,13.74,0,0,1,6.8,1.74,13,13,0,0,1,6.76,11.52,12.52,12.52,0,0,1-.72,4.19,19.15,19.15,0,0,1-2,3.92,32.69,32.69,0,0,1-2.62,3.51Q272.5,253,270.67,255Z"/><path class="cls-1" d="M312.19,261h6.36v2.69h-6.36v8.58h-2.88v-8.58H284.89v-.35l26.94-37.87h.36Zm-2.88,0V234.26H309l-18.78,26.4V261Z"/><path class="cls-1" d="M330.68,268a2.4,2.4,0,0,1,1.76.71,2.47,2.47,0,1,1-4.22,1.75,2.39,2.39,0,0,1,.7-1.74A2.37,2.37,0,0,1,330.68,268Z"/><path class="cls-1" d="M358.59,226.47a12.42,12.42,0,0,1,7.13,2.12,17.61,17.61,0,0,1,5.19,5.58,28.51,28.51,0,0,1,3.09,7.46,31.34,31.34,0,0,1,1,7.75,33.43,33.43,0,0,1-1,7.79,29.33,29.33,0,0,1-3,7.66,17.74,17.74,0,0,1-5.21,5.84,12.8,12.8,0,0,1-14.45,0,17.85,17.85,0,0,1-5.19-5.8,29.52,29.52,0,0,1-3-7.68,33.31,33.31,0,0,1-1-7.82,31.44,31.44,0,0,1,1-7.72,28.12,28.12,0,0,1,3.11-7.46,17.47,17.47,0,0,1,5.21-5.61A12.39,12.39,0,0,1,358.59,226.47Zm0,43.74a9.68,9.68,0,0,0,6-2,15.17,15.17,0,0,0,4.25-5.15,27.6,27.6,0,0,0,2.45-6.77,31.61,31.61,0,0,0,.81-6.92,29.45,29.45,0,0,0-3.27-13,15.51,15.51,0,0,0-4.27-5.17,10,10,0,0,0-12,0,15.51,15.51,0,0,0-4.27,5.19,27.93,27.93,0,0,0-2.49,6.67,28.23,28.23,0,0,0-.81,6.34,31.79,31.79,0,0,0,.81,6.86,28,28,0,0,0,2.47,6.81,15.31,15.31,0,0,0,4.26,5.17A9.61,9.61,0,0,0,358.59,270.21Z"/><path class="cls-1" d="M394,272.79,391.65,271l10-14.1-.12-.12a16,16,0,0,1-6.06,1.2,15.18,15.18,0,0,1-7.86-2.14,15.94,15.94,0,0,1-5.78-5.81,15.32,15.32,0,0,1-2.14-7.88,15,15,0,0,1,2.2-7.92,15.88,15.88,0,0,1,5.94-5.71,16.11,16.11,0,0,1,8-2.09,16.38,16.38,0,0,1,6.26,1.2,15.53,15.53,0,0,1,8.55,8.56,16.29,16.29,0,0,1,1.2,6.25,16.9,16.9,0,0,1-3.29,9.67Zm1.86-43.62a13.35,13.35,0,0,0-11.45,6.53,12.68,12.68,0,0,0,0,13.06,13.16,13.16,0,0,0,4.86,4.8,13,13,0,0,0,6.59,1.77,12.74,12.74,0,0,0,6.56-1.77,13.17,13.17,0,0,0,4.8-4.78,12.6,12.6,0,0,0,1.78-6.53,12.77,12.77,0,0,0-1.77-6.57,13.2,13.2,0,0,0-11.37-6.51Z"/><path class="cls-1" d="M423.58,267.87l2.7.83-5,13.57-1.81-.66Z"/><path class="cls-1" d="M470.09,229.77h-7.15l1.38-2.7H473V272.3h-2.87Z"/><path class="cls-1" d="M505.61,272.79,503.27,271l10-14.1-.12-.12a16,16,0,0,1-6.06,1.2,15.18,15.18,0,0,1-7.86-2.14,15.94,15.94,0,0,1-5.78-5.81,15.32,15.32,0,0,1-2.14-7.88,14.89,14.89,0,0,1,2.21-7.92,15.78,15.78,0,0,1,5.93-5.71,16.11,16.11,0,0,1,8-2.09,16.38,16.38,0,0,1,6.26,1.2,15.53,15.53,0,0,1,8.55,8.56,16.29,16.29,0,0,1,1.2,6.25,16.9,16.9,0,0,1-3.29,9.67Zm1.86-43.62A13.35,13.35,0,0,0,496,235.7a12.74,12.74,0,0,0,0,13.06,13.16,13.16,0,0,0,4.86,4.8,13,13,0,0,0,6.59,1.77,12.77,12.77,0,0,0,6.57-1.77,13.15,13.15,0,0,0,4.79-4.78,12.6,12.6,0,0,0,1.78-6.53,12.77,12.77,0,0,0-1.77-6.57,13.16,13.16,0,0,0-11.37-6.51Z"/><path class="cls-1" d="M535.32,244a2.46,2.46,0,1,1,0,4.92,2.46,2.46,0,0,1-2.46-2.46,2.42,2.42,0,0,1,2.46-2.46Zm0,24a2.4,2.4,0,0,1,1.76.71,2.52,2.52,0,0,1,0,3.51,2.4,2.4,0,0,1-1.74.71,2.46,2.46,0,0,1-2.46-2.47,2.39,2.39,0,0,1,.7-1.74A2.37,2.37,0,0,1,535.32,268Z"/><path class="cls-1" d="M563.11,229.77H556l1.38-2.7H566V272.3h-2.87Z"/><path class="cls-1" d="M613.69,229.77H598.57L594.79,242a11.3,11.3,0,0,1,3.42-.48,15.15,15.15,0,0,1,13.34,7.66,15.35,15.35,0,0,1,2,7.75,15.76,15.76,0,0,1-2.16,8.17,15.31,15.31,0,0,1-5.92,5.73,16.78,16.78,0,0,1-8.24,2.07,15.77,15.77,0,0,1-13.39-7.5l2.64-1.09a13.09,13.09,0,0,0,4.7,4.27,12.45,12.45,0,0,0,6.11,1.62,13.47,13.47,0,0,0,6.78-1.74,12.65,12.65,0,0,0,4.83-4.8,13.36,13.36,0,0,0,1.77-6.79,12.27,12.27,0,0,0-3.91-9,13.22,13.22,0,0,0-4.24-2.68,13.61,13.61,0,0,0-5-.95,13.4,13.4,0,0,0-6.9,2l5.87-19.19h17.23Z"/><path class="cls-1" d="M234.54,351.14H216.41V362H234v6.41H216.41v15.12h18.13V390h-25V344.72h25Z"/><path class="cls-1" d="M245.79,361.42l7.39,16,7.35-16h7.41l-14.82,30.5-14.71-30.5Z"/><path class="cls-1" d="M269.9,375.48A14.17,14.17,0,0,1,274.33,365,15.59,15.59,0,0,1,296,365a15.28,15.28,0,0,1,0,21.47A15.13,15.13,0,0,1,285,390.78a14.49,14.49,0,0,1-10.75-4.4A14.78,14.78,0,0,1,269.9,375.48Zm6.74.12a9.61,9.61,0,0,0,2.29,6.77,8.88,8.88,0,0,0,12.36,0,10.69,10.69,0,0,0,0-13.3,8.76,8.76,0,0,0-12.3,0A9.12,9.12,0,0,0,276.64,375.6Z"/><path class="cls-1" d="M314.46,367.57V390h-6.59V367.57h-2.81v-6.15h2.81V351h6.59v10.46h5.13v6.15Z"/><path class="cls-1" d="M323.14,375.48A14.16,14.16,0,0,1,327.56,365a15.59,15.59,0,0,1,21.62,0,15.26,15.26,0,0,1,0,21.47,15.13,15.13,0,0,1-10.93,4.31,14.51,14.51,0,0,1-10.75-4.4A14.77,14.77,0,0,1,323.14,375.48Zm6.74.12a9.65,9.65,0,0,0,2.28,6.77,8.88,8.88,0,0,0,12.36,0,10.69,10.69,0,0,0,0-13.3,8.76,8.76,0,0,0-12.3,0A9.16,9.16,0,0,0,329.88,375.6Z"/><path class="cls-1" d="M360.55,361.42h6.59V364a12.73,12.73,0,0,1,3.22-2.61,7.38,7.38,0,0,1,3.4-.73,10.66,10.66,0,0,1,5.45,1.7l-3,6a6.34,6.34,0,0,0-3.66-1.34q-5.38,0-5.39,8.14V390h-6.59Z"/><path class="cls-1" d="M420.55,364.79l8.14,9.84.27-.29c.88-1,1.71-1.89,2.49-2.81s1.53-1.85,2.25-2.78l4.46,4.57c-.55.78-1.27,1.68-2.16,2.72s-1.95,2.23-3.18,3.57L441.2,390h-8.49l-4.51-5.54q-6.22,6.42-12.92,6.41a14.53,14.53,0,0,1-10.2-3.83,12.62,12.62,0,0,1-4.1-9.55q0-6.78,6.5-11.25l3-2a.8.8,0,0,0,.21-.14c.09-.08.23-.19.41-.32q-4.49-4.79-4.49-9.41a9.85,9.85,0,0,1,3-7.44,12.13,12.13,0,0,1,15.56-.09,9.48,9.48,0,0,1,1.38,12.34A28.86,28.86,0,0,1,420.55,364.79Zm-5.42,3.84-.38.26a32.71,32.71,0,0,0-5.71,4.66,5.65,5.65,0,0,0-1.5,3.72,7.72,7.72,0,0,0,7.41,7.41q4,0,9.11-5.18Zm1.46-8.64.56-.41q1.44-1.09,2.37-1.89a8.83,8.83,0,0,0,1.35-1.37,4.06,4.06,0,0,0,.88-2.66,3.77,3.77,0,0,0-1.2-2.9,4.53,4.53,0,0,0-3.22-1.12,4.43,4.43,0,0,0-3.11,1.15,3.5,3.5,0,0,0-1.26,2.78,6.21,6.21,0,0,0,1.58,3.93l1.7,2.05C416.3,359.64,416.42,359.79,416.59,360Z"/><path class="cls-1" d="M477.62,351.14V390h-6.83V351.14h-10.4v-6.42H488v6.42Z"/><path class="cls-1" d="M490.39,367.13a22.18,22.18,0,0,1,7-16.4,23.07,23.07,0,0,1,16.76-6.86,23.68,23.68,0,0,1,23.53,23.53,22.27,22.27,0,0,1-7,16.55,23.89,23.89,0,0,1-32.64.76Q490.39,378,490.39,367.13Zm6.89.08a16.76,16.76,0,0,0,28.62,12.23,17.53,17.53,0,0,0,.06-24.23,16.88,16.88,0,0,0-23.82,0A16.3,16.3,0,0,0,497.28,367.21Z"/><path class="cls-1" d="M553.09,371.59V390h-6.83V344.72H554a35.2,35.2,0,0,1,8.58.79,11.64,11.64,0,0,1,5.16,3,12.9,12.9,0,0,1,3.89,9.61,12.37,12.37,0,0,1-4.16,9.84q-4.15,3.65-11.22,3.64Zm0-6.33h2.55q9.4,0,9.4-7.24,0-7-9.7-7h-2.25Z"/><path class="cls-1" d="M576.41,367.13a22.14,22.14,0,0,1,7-16.4,23,23,0,0,1,16.76-6.86,23.66,23.66,0,0,1,23.52,23.53,22.23,22.23,0,0,1-7,16.55,23.89,23.89,0,0,1-32.64.76Q576.42,378,576.41,367.13Zm6.88.08a16.77,16.77,0,0,0,28.63,12.23,17.52,17.52,0,0,0,.05-24.23,15.94,15.94,0,0,0-11.89-4.92,16.1,16.1,0,0,0-11.92,4.92A16.27,16.27,0,0,0,583.29,367.21Z"/><path class="cls-1" d="M657.85,351.43l-5.53,3.28a9.61,9.61,0,0,0-3-3.51,6.88,6.88,0,0,0-3.78-.94,7,7,0,0,0-4.72,1.61,5,5,0,0,0-1.87,4q0,3.31,4.92,5.33l4.51,1.85q5.51,2.23,8.06,5.44a12.25,12.25,0,0,1,2.55,7.87,13.84,13.84,0,0,1-4.16,10.32,14.28,14.28,0,0,1-10.41,4.11,13.85,13.85,0,0,1-9.72-3.51q-3.78-3.5-4.72-9.82l6.92-1.53c.31,2.66.85,4.5,1.64,5.51a7.79,7.79,0,0,0,11.45.79,7.36,7.36,0,0,0,2.11-5.41,7.45,7.45,0,0,0-.37-2.42,6.07,6.07,0,0,0-1.14-2,9.38,9.38,0,0,0-2-1.73,20.86,20.86,0,0,0-2.93-1.53l-4.37-1.82Q632,363.38,632,355.82a10.87,10.87,0,0,1,3.9-8.52,14.06,14.06,0,0,1,9.7-3.46Q653.46,343.84,657.85,351.43Z"/></svg>