<svg id="Слой_1" data-name="Слой 1" xmlns="http://www.w3.org/2000/svg" viewBox="0 0 866 528"><defs><style>.cls-1{fill:#fff;}</style></defs><title>meetup5</title><rect width="866" height="528"/><path class="cls-1" d="M185,197.55a43.64,43.64,0,0,1-14.49,2.6c-7.14,0-13-1.82-17.64-6.24-4.06-3.92-6.58-10.22-6.58-17.57.07-14.07,9.73-24.36,25.55-24.36a29.17,29.17,0,0,1,11.76,2.17l-1.47,5a24.46,24.46,0,0,0-10.43-2c-11.48,0-19,7.14-19,19s7.21,19,18.2,19c4,0,6.72-.56,8.12-1.26V179.77h-9.59v-4.9H185Z"/><path class="cls-1" d="M194.13,150h6.16v49.71h-6.16Z"/><path class="cls-1" d="M241.31,182.43c0,12.53-8.68,18-16.87,18-9.17,0-16.24-6.72-16.24-17.43,0-11.34,7.42-18,16.8-18C234.73,165,241.31,172.07,241.31,182.43Zm-26.88.35c0,7.42,4.27,13,10.29,13S235,190.27,235,182.64c0-5.74-2.87-13-10.15-13S214.43,176.34,214.43,182.78Z"/><path class="cls-1" d="M248.8,199.66c.14-2.32.28-5.75.28-8.76V150h6.09v21.28h.14c2.17-3.78,6.09-6.23,11.55-6.23,8.4,0,14.35,7,14.28,17.29,0,12.11-7.63,18.13-15.19,18.13-4.9,0-8.82-1.88-11.34-6.37h-.21l-.28,5.61Zm6.37-13.59a11.53,11.53,0,0,0,.28,2.24,9.5,9.5,0,0,0,9.24,7.21c6.44,0,10.29-5.25,10.29-13,0-6.79-3.5-12.6-10.08-12.6a9.82,9.82,0,0,0-9.38,7.56,12.14,12.14,0,0,0-.35,2.52Z"/><path class="cls-1" d="M307.67,199.66l-.49-4.28H307a12.62,12.62,0,0,1-10.36,5c-6.86,0-10.36-4.83-10.36-9.73,0-8.19,7.28-12.67,20.37-12.6v-.7c0-2.8-.77-7.84-7.7-7.84a16.88,16.88,0,0,0-8.82,2.52L288.7,168a21,21,0,0,1,11.13-3c10.36,0,12.88,7.07,12.88,13.86v12.67a47.9,47.9,0,0,0,.56,8.13Zm-.91-17.3c-6.72-.14-14.35,1-14.35,7.63,0,4,2.66,5.89,5.81,5.89a8.44,8.44,0,0,0,8.19-5.68,6.43,6.43,0,0,0,.35-2Z"/><path class="cls-1" d="M322.65,150h6.16v49.71h-6.16Z"/><path class="cls-1" d="M394,178.93c-.35-6.58-.77-14.49-.7-20.37h-.21c-1.61,5.53-3.57,11.41-5.95,17.92l-8.33,22.9h-4.62l-7.63-22.48c-2.24-6.65-4.13-12.74-5.46-18.34h-.14c-.14,5.88-.49,13.79-.91,20.86l-1.26,20.24H353l3.29-47.19H364l8.05,22.82c2,5.81,3.57,11,4.76,15.89H377c1.19-4.76,2.87-9.94,5-15.89l8.4-22.82h7.77l2.94,47.19h-5.95Z"/><path class="cls-1" d="M429.47,199.66l-.49-4.28h-.21a12.62,12.62,0,0,1-10.36,5c-6.87,0-10.37-4.83-10.37-9.73,0-8.19,7.29-12.67,20.38-12.6v-.7c0-2.8-.77-7.84-7.7-7.84a16.88,16.88,0,0,0-8.82,2.52L410.5,168a21,21,0,0,1,11.13-3c10.36,0,12.88,7.07,12.88,13.86v12.67a47.9,47.9,0,0,0,.56,8.13Zm-.91-17.3c-6.72-.14-14.35,1-14.35,7.63,0,4,2.66,5.89,5.81,5.89a8.44,8.44,0,0,0,8.19-5.68,6.43,6.43,0,0,0,.35-2Z"/><path class="cls-1" d="M444.44,176.34c0-4-.06-7.42-.28-10.57h5.39l.21,6.65H450c1.54-4.55,5.26-7.42,9.39-7.42a6.66,6.66,0,0,1,1.75.21V171a9.25,9.25,0,0,0-2.1-.21c-4.34,0-7.42,3.29-8.26,7.91a16.33,16.33,0,0,0-.28,2.87v18.07h-6.1Z"/><path class="cls-1" d="M473.71,181.31h.13c.85-1.19,2-2.66,3-3.85l9.94-11.69h7.42L481.13,179.7l14.91,20h-7.49l-11.69-16.25-3.15,3.5v12.75h-6.1V150h6.1Z"/><path class="cls-1" d="M503.88,183.83c.13,8.33,5.46,11.76,11.62,11.76a22.28,22.28,0,0,0,9.38-1.75l1,4.41a27.24,27.24,0,0,1-11.27,2.11c-10.44,0-16.67-6.87-16.67-17.09S504,165,513.89,165c11.06,0,14,9.73,14,16a23.23,23.23,0,0,1-.21,2.87Zm18.06-4.41c.07-3.92-1.61-10-8.54-10-6.23,0-9,5.74-9.45,10Z"/><path class="cls-1" d="M542.93,156v9.73h8.83v4.69h-8.83v18.27c0,4.2,1.2,6.58,4.62,6.58a13.73,13.73,0,0,0,3.58-.42l.28,4.62a15,15,0,0,1-5.46.85,8.52,8.52,0,0,1-6.66-2.6c-1.75-1.82-2.38-4.83-2.38-8.82V170.46h-5.25v-4.69h5.25v-8.12Z"/><path class="cls-1" d="M598.17,177.53H579.82v17h20.45v5.12H573.73V152.47h25.48v5.11H579.82v14.91h18.35Z"/><path class="cls-1" d="M608,174.94c0-3.5-.07-6.37-.28-9.17h5.46l.35,5.6h.14a12.46,12.46,0,0,1,11.2-6.37c4.69,0,12,2.8,12,14.42v20.24h-6.16V180.12c0-5.46-2-10-7.84-10a8.75,8.75,0,0,0-8.26,6.3,8.86,8.86,0,0,0-.42,2.87v20.38H608Z"/><path class="cls-1" d="M654,156v9.73h8.82v4.69H654v18.27c0,4.2,1.19,6.58,4.62,6.58a13.7,13.7,0,0,0,3.57-.42l.28,4.62a15,15,0,0,1-5.46.85,8.51,8.51,0,0,1-6.65-2.6c-1.75-1.82-2.38-4.83-2.38-8.82V170.46h-5.25v-4.69h5.25v-8.12Z"/><path class="cls-1" d="M669.7,176.34c0-4-.07-7.42-.28-10.57h5.39l.21,6.65h.28c1.54-4.55,5.25-7.42,9.38-7.42a6.66,6.66,0,0,1,1.75.21V171a9.25,9.25,0,0,0-2.1-.21c-4.34,0-7.42,3.29-8.26,7.91a17.34,17.34,0,0,0-.28,2.87v18.07H669.7Z"/><path class="cls-1" d="M696.58,165.77l7.42,20c.77,2.24,1.61,4.9,2.17,6.93h.14c.63-2,1.33-4.62,2.17-7.07l6.72-19.88h6.51l-9.24,24.15c-4.41,11.62-7.42,17.58-11.62,21.22a16.69,16.69,0,0,1-7.56,4L691.75,210a16.29,16.29,0,0,0,5.39-3,18.68,18.68,0,0,0,5.18-6.86,4.39,4.39,0,0,0,.49-1.48,5.26,5.26,0,0,0-.42-1.6l-12.53-31.23Z"/><path class="cls-1" d="M265.45,229.77H258.3l1.38-2.7h8.64V272.3h-2.87Z"/><path class="cls-1" d="M316,229.77H300.92L297.14,242a11.19,11.19,0,0,1,3.41-.48,15.11,15.11,0,0,1,7.8,2.06,14.89,14.89,0,0,1,5.54,5.6,15.36,15.36,0,0,1,2,7.75,15.77,15.77,0,0,1-2.17,8.17,15.35,15.35,0,0,1-5.91,5.73,16.83,16.83,0,0,1-8.24,2.07,15.74,15.74,0,0,1-9.88-3.5,15.77,15.77,0,0,1-3.51-4l2.63-1.09a13.18,13.18,0,0,0,4.7,4.27,12.51,12.51,0,0,0,6.12,1.62,13.47,13.47,0,0,0,6.78-1.74,12.56,12.56,0,0,0,4.82-4.8,13.36,13.36,0,0,0,1.77-6.79,12.12,12.12,0,0,0-1-5,12.35,12.35,0,0,0-2.87-4.06,13.26,13.26,0,0,0-4.25-2.68,13.16,13.16,0,0,0-11.95,1.09l5.88-19.19H316Z"/><path class="cls-1" d="M330.68,268a2.4,2.4,0,0,1,1.76.71,2.47,2.47,0,1,1-4.22,1.75,2.39,2.39,0,0,1,.7-1.74A2.37,2.37,0,0,1,330.68,268Z"/><path class="cls-1" d="M358.47,229.77h-7.15l1.38-2.7h8.64V272.3h-2.87Z"/><path class="cls-1" d="M395.79,226.47a12.43,12.43,0,0,1,7.14,2.12,17.47,17.47,0,0,1,5.18,5.58,27.85,27.85,0,0,1,3.09,7.46,30.9,30.9,0,0,1,1,7.75,33.43,33.43,0,0,1-1,7.79,29.71,29.71,0,0,1-3,7.66,17.61,17.61,0,0,1-5.2,5.84,12.8,12.8,0,0,1-14.45,0,17.85,17.85,0,0,1-5.19-5.8,29.18,29.18,0,0,1-3-7.68,32.82,32.82,0,0,1-1-7.82,31,31,0,0,1,1-7.72,27.79,27.79,0,0,1,3.11-7.46,17.44,17.44,0,0,1,5.2-5.61A12.41,12.41,0,0,1,395.79,226.47Zm0,43.74a9.71,9.71,0,0,0,6-2,15.17,15.17,0,0,0,4.25-5.15,28,28,0,0,0,2.45-6.77,32.19,32.19,0,0,0,.8-6.92,28.85,28.85,0,0,0-.8-6.41,28.07,28.07,0,0,0-2.46-6.62,15.63,15.63,0,0,0-4.27-5.17,10,10,0,0,0-12,0,15.75,15.75,0,0,0-4.27,5.19A27.9,27.9,0,0,0,383,243a28.23,28.23,0,0,0-.81,6.34,31.79,31.79,0,0,0,.81,6.86,27.64,27.64,0,0,0,2.47,6.81,15.19,15.19,0,0,0,4.26,5.17A9.6,9.6,0,0,0,395.79,270.21Z"/><path class="cls-1" d="M423.58,267.87l2.7.83-5,13.57-1.81-.66Z"/><path class="cls-1" d="M470.09,229.77h-7.15l1.38-2.7H473V272.3h-2.87Z"/><path class="cls-1" d="M505.61,272.79,503.27,271l10-14.1-.12-.12a16,16,0,0,1-6.06,1.2,15.18,15.18,0,0,1-7.86-2.14,15.94,15.94,0,0,1-5.78-5.81,15.32,15.32,0,0,1-2.14-7.88,14.89,14.89,0,0,1,2.21-7.92,15.78,15.78,0,0,1,5.93-5.71,16.11,16.11,0,0,1,8-2.09,16.38,16.38,0,0,1,6.26,1.2,15.53,15.53,0,0,1,8.55,8.56,16.29,16.29,0,0,1,1.2,6.25,16.9,16.9,0,0,1-3.29,9.67Zm1.86-43.62A13.35,13.35,0,0,0,496,235.7a12.74,12.74,0,0,0,0,13.06,13.16,13.16,0,0,0,4.86,4.8,13,13,0,0,0,6.59,1.77,12.77,12.77,0,0,0,6.57-1.77,13.15,13.15,0,0,0,4.79-4.78,12.6,12.6,0,0,0,1.78-6.53,12.77,12.77,0,0,0-1.77-6.57,13.16,13.16,0,0,0-11.37-6.51Z"/><path class="cls-1" d="M535.32,244a2.46,2.46,0,1,1,0,4.92,2.46,2.46,0,0,1-2.46-2.46,2.42,2.42,0,0,1,2.46-2.46Zm0,24a2.4,2.4,0,0,1,1.76.71,2.52,2.52,0,0,1,0,3.51,2.4,2.4,0,0,1-1.74.71,2.46,2.46,0,0,1-2.46-2.47,2.39,2.39,0,0,1,.7-1.74A2.37,2.37,0,0,1,535.32,268Z"/><path class="cls-1" d="M563.11,229.77H556l1.38-2.7H566V272.3h-2.87Z"/><path class="cls-1" d="M613.69,229.77H598.57L594.79,242a11.3,11.3,0,0,1,3.42-.48,15.15,15.15,0,0,1,13.34,7.66,15.35,15.35,0,0,1,2,7.75,15.76,15.76,0,0,1-2.16,8.17,15.31,15.31,0,0,1-5.92,5.73,16.78,16.78,0,0,1-8.24,2.07,15.77,15.77,0,0,1-13.39-7.5l2.64-1.09a13.09,13.09,0,0,0,4.7,4.27,12.45,12.45,0,0,0,6.11,1.62,13.47,13.47,0,0,0,6.78-1.74,12.65,12.65,0,0,0,4.83-4.8,13.36,13.36,0,0,0,1.77-6.79,12.27,12.27,0,0,0-3.91-9,13.22,13.22,0,0,0-4.24-2.68,13.61,13.61,0,0,0-5-.95,13.4,13.4,0,0,0-6.9,2l5.87-19.19h17.23Z"/><path class="cls-1" d="M389.46,386.67a3.86,3.86,0,0,1,1.21-2.84,4.05,4.05,0,1,1,0,5.77A4,4,0,0,1,389.46,386.67Z"/><path class="cls-1" d="M433.18,351.14H415V362h17.61v6.41H415v15.12h18.14V390h-25V344.72h25Z"/><path class="cls-1" d="M447.68,367.57V390h-6.59V367.57h-2.82v-6.15h2.82V351h6.59v10.46h5.12v6.15Z"/><path class="cls-1" d="M479.49,362.65v8.76a16.26,16.26,0,0,0-4-3.78,7.9,7.9,0,0,0-4.13-1.05,8.16,8.16,0,0,0-6.18,2.6,9.16,9.16,0,0,0-2.46,6.54,9.37,9.37,0,0,0,2.37,6.59,8,8,0,0,0,6.12,2.58,8.29,8.29,0,0,0,4.19-1,16.38,16.38,0,0,0,4.13-3.86v8.7a17.36,17.36,0,0,1-8,2.08,15.37,15.37,0,0,1-11.08-4.28,14.27,14.27,0,0,1-4.45-10.69A14.47,14.47,0,0,1,460.45,365a15.27,15.27,0,0,1,11.08-4.39A16.49,16.49,0,0,1,479.49,362.65Z"/></svg>