<?xml version="1.0" encoding="utf-8"?>
<!-- Generator: Adobe Illustrator 22.0.1, SVG Export Plug-In . SVG Version: 6.00 Build 0)  -->
<svg version="1.1" id="Слой_1" xmlns="http://www.w3.org/2000/svg" xmlns:xlink="http://www.w3.org/1999/xlink" x="0px" y="0px"
	 viewBox="0 0 249 108" style="enable-background:new 0 0 249 108;" xml:space="preserve">
<style type="text/css">
	.st0{fill:#4B79BB;}
</style>
<g>
	<polygon class="st0" points="221.5,80.9 223.4,70.7 242.8,76.5 221.5,80.9 	"/>
	<path class="st0" d="M216.9,73H62.8c-3.7,0-5.3,4.1-6.8,8.1c-0.5,1.4-1.4,3.5-2,4.4c-1.2-1.2-2-6.8-2.4-9l-0.2-1.2
		c-1.2-7.6-2.3-15.6-3.3-23.4C43.5,18,41.4,6.1,35.1,6C27.2,5.9,24.4,19.9,16,61.4l-1.1,5.4C13.7,73,10.9,73,9.7,73H5.9L5,78.4h4.7
		c3.1,0,8.7-1.4,10.5-10.5l1.1-5.4c5.1-25.6,10-49.8,13.4-51c3,3.2,5.9,25,8.1,41.2c1,7.8,2.1,15.8,3.3,23.5l0.2,1.2
		c0.9,6.1,2.1,13.8,7.8,13.8c3.7,0,5.3-4.1,6.8-8.1c0.6-1.5,1.6-4,2.2-4.7H216L216.9,73L216.9,73z"/>
	<polygon class="st0" points="75.1,31.2 95.5,31.2 96.2,51 96.4,51 104.9,31.2 125.4,31.2 118,67.3 105.7,67.3 111.4,39 111.1,39 
		98.2,67.3 86.8,67.3 85.6,39 85.3,39 79.5,67.3 67.7,67.3 75.1,31.2 	"/>
	<polygon class="st0" points="144.3,31.2 137,67.3 123.2,67.3 130.5,31.2 144.3,31.2 	"/>
	<path class="st0" d="M159.4,48.6h3.4c5.3,0,7-2.8,7-5.3c0-1.1-0.6-3.6-4.7-3.6h-3.9L159.4,48.6L159.4,48.6z M171.6,31.2
		c7.5,0,12.3,4.6,12.3,10.7c0,6.8-5.3,15.1-17.9,15.1H158L156,67.3h-13.8l7.3-36.1H171.6L171.6,31.2z"/>
	<polygon class="st0" points="224.2,31.2 222,41.9 209.8,41.9 204.7,67.3 190.9,67.3 196,41.9 183.9,41.9 186,31.2 224.2,31.2 	"/>
	<polygon class="st0" points="67.1,83.4 67.9,88.1 67.9,88.1 70.2,83.4 72.6,83.4 71.4,90.7 69.8,90.7 70.7,85 70.7,85 68,90.7 
		66.9,90.7 66,85 66,85 65,90.7 63.7,90.7 64.9,83.4 67.1,83.4 	"/>
	<path class="st0" d="M78.6,88.9c0.2,0.4,0.6,0.6,1,0.6c0.4,0,0.8-0.1,1.1-0.5c0.5-0.6,0.8-2,0.8-2.8c0-0.3,0-0.8-0.2-1.1
		c-0.2-0.3-0.5-0.6-1-0.6c-0.5,0-0.8,0.2-1.1,0.5c-0.5,0.6-0.8,2-0.8,2.8C78.4,88.2,78.4,88.6,78.6,88.9L78.6,88.9z M82.2,83.9
		c0.5,0.4,1,1.2,1,2.5c0,1.1-0.4,2.4-0.9,3.1c-0.4,0.5-1.2,1.4-2.9,1.4c-0.8,0-1.5-0.2-2.1-0.8c-0.6-0.6-0.8-1.4-0.8-2.3
		c0-1,0.2-2.4,1.3-3.5c0.8-0.8,1.5-1,2.5-1C80.9,83.3,81.6,83.3,82.2,83.9L82.2,83.9z"/>
	<path class="st0" d="M92.1,85.5c-0.1-0.2-0.2-0.4-0.3-0.5c-0.3-0.3-0.8-0.4-1.1-0.4c-0.2,0-0.6,0-0.8,0.2c-0.2,0.1-0.2,0.3-0.2,0.5
		c0,0.1,0,0.2,0.1,0.4c0.1,0.2,0.4,0.4,0.9,0.5c0.4,0.1,0.9,0.2,1.4,0.4c0.2,0.1,0.7,0.3,1,0.9c0.1,0.3,0.2,0.6,0.2,0.9
		c0,0.5-0.2,1.2-0.9,1.8c-0.6,0.5-1.4,0.6-2.3,0.6c-0.6,0-1.4-0.1-2.1-0.5c-0.3-0.2-0.8-0.7-1-1.5l1.6-0.4c0,0.2,0.1,0.4,0.3,0.6
		c0.4,0.4,0.8,0.5,1.3,0.5c0.3,0,0.6,0,1-0.3c0.2-0.2,0.3-0.4,0.3-0.6s-0.1-0.4-0.2-0.5c-0.1-0.1-0.3-0.2-0.8-0.4
		c-0.8-0.2-1.9-0.5-2.4-1.3c-0.2-0.3-0.3-0.7-0.3-1c0-0.6,0.3-1.2,0.8-1.6c0.6-0.5,1.4-0.6,2.1-0.6c0.7,0,1.4,0.1,2.2,0.7
		c0.3,0.3,0.5,0.6,0.6,1L92.1,85.5L92.1,85.5z"/>
	<path class="st0" d="M102.6,86.1c0-0.3-0.1-0.7-0.2-1c-0.2-0.4-0.5-0.5-1-0.5c-0.7,0-1,0.5-1.3,1c-0.4,0.7-0.5,1.8-0.5,2.5
		c0,0.3,0.1,0.8,0.3,1.2c0.2,0.2,0.5,0.4,0.8,0.4c0.6,0,1.3-0.3,1.5-1.5l1.5,0.3c-0.1,0.4-0.3,0.8-0.6,1.2c-0.7,1-1.5,1.3-2.5,1.3
		c-1.2,0-1.9-0.6-2.2-1.1c-0.4-0.5-0.7-1.3-0.7-2.1c0-1.1,0.4-2.3,1-3.1c0.6-0.8,1.5-1.3,2.7-1.3c1,0,1.6,0.4,1.9,0.7
		c0.5,0.5,0.7,1.3,0.7,2L102.6,86.1L102.6,86.1z"/>
	<path class="st0" d="M110.2,88.9c0.2,0.4,0.6,0.6,1,0.6c0.4,0,0.8-0.1,1.1-0.5c0.5-0.6,0.8-2,0.8-2.8c0-0.3,0-0.8-0.2-1.1
		c-0.2-0.3-0.5-0.6-1-0.6c-0.5,0-0.8,0.2-1.1,0.5c-0.5,0.6-0.8,2-0.8,2.8C110,88.2,110.1,88.6,110.2,88.9L110.2,88.9z M113.9,83.9
		c0.5,0.4,1,1.2,1,2.5c0,1.1-0.4,2.4-0.9,3.1c-0.4,0.5-1.2,1.4-2.9,1.4c-0.8,0-1.5-0.2-2.1-0.8c-0.6-0.6-0.8-1.4-0.8-2.3
		c0-1,0.2-2.4,1.3-3.5c0.8-0.8,1.5-1,2.5-1C112.5,83.3,113.2,83.3,113.9,83.9L113.9,83.9z"/>
	<polygon class="st0" points="125.7,90.7 124.2,90.7 123.7,86 123.7,86 121.7,90.7 120.2,90.7 119.4,83.4 121.1,83.4 121.5,88.3 
		121.5,88.3 123.5,83.4 124.9,83.4 125.4,88.3 125.4,88.3 127.4,83.4 128.8,83.4 125.7,90.7 	"/>
	<polygon class="st0" points="139.7,90.7 138,90.7 139.2,83.4 140.9,83.4 139.7,90.7 	"/>
	<path class="st0" d="M149.8,88.2L149.8,88.2c0-0.1,0-0.5,0.1-0.9l0.6-3.9h1.4l-1.2,7.4h-1.5l-2.1-4.8l-0.2-0.6h0
		c0,0.5,0,0.8-0.1,1.1l-0.7,4.4h-1.4l1.2-7.4h1.8L149.8,88.2L149.8,88.2z"/>
	<path class="st0" d="M160.4,85.5c-0.1-0.2-0.2-0.4-0.3-0.5c-0.3-0.3-0.8-0.4-1.1-0.4c-0.2,0-0.6,0-0.8,0.2
		c-0.2,0.1-0.2,0.3-0.2,0.5c0,0.1,0,0.2,0.1,0.4c0.1,0.2,0.4,0.4,0.9,0.5c0.4,0.1,0.9,0.2,1.4,0.4c0.2,0.1,0.7,0.3,1,0.9
		c0.1,0.3,0.2,0.6,0.2,0.9c0,0.5-0.2,1.2-0.9,1.8c-0.6,0.5-1.4,0.6-2.3,0.6c-0.6,0-1.4-0.1-2.1-0.5c-0.3-0.2-0.8-0.7-1-1.5l1.6-0.4
		c0,0.2,0.1,0.4,0.3,0.6c0.4,0.4,0.8,0.5,1.3,0.5c0.3,0,0.6,0,1-0.3c0.2-0.2,0.3-0.4,0.3-0.6s-0.1-0.4-0.2-0.5
		c-0.1-0.1-0.3-0.2-0.8-0.4c-0.8-0.2-1.9-0.5-2.4-1.3c-0.2-0.3-0.3-0.7-0.3-1c0-0.6,0.3-1.2,0.8-1.6c0.6-0.5,1.4-0.6,2.1-0.6
		c0.7,0,1.4,0.1,2.2,0.7c0.3,0.3,0.5,0.6,0.6,1L160.4,85.5L160.4,85.5z"/>
	<polygon class="st0" points="171.5,83.4 171.3,84.7 169.6,84.7 168.6,90.7 166.8,90.7 167.8,84.7 166.1,84.7 166.3,83.4 
		171.5,83.4 	"/>
	<polygon class="st0" points="176.3,90.7 174.6,90.7 175.8,83.4 177.5,83.4 176.3,90.7 	"/>
	<polygon class="st0" points="187,83.4 186.7,84.7 185,84.7 184,90.7 182.3,90.7 183.3,84.7 181.5,84.7 181.8,83.4 187,83.4 	"/>
	<path class="st0" d="M192.3,87.4c-0.1,0.5-0.1,0.8-0.1,1.1c0,0.4,0.2,0.7,0.3,0.8c0.2,0.2,0.4,0.3,0.9,0.3c0.3,0,0.8-0.1,1.1-0.5
		c0.2-0.3,0.3-0.8,0.4-1.2l0.8-4.5h1.4l-0.7,4.3c-0.1,0.4-0.1,0.9-0.3,1.5c-0.2,0.5-0.5,0.9-0.9,1.2c-0.6,0.4-1.3,0.5-1.9,0.5
		c-0.5,0-1.2-0.1-1.7-0.4c-0.7-0.4-0.9-1.1-0.9-1.7c0-0.3,0-0.6,0.1-0.9l0.8-4.5h1.7L192.3,87.4L192.3,87.4z"/>
	<polygon class="st0" points="206.3,83.4 206.1,84.7 204.3,84.7 203.3,90.7 201.6,90.7 202.6,84.7 200.9,84.7 201.1,83.4 
		206.3,83.4 	"/>
	<polygon class="st0" points="215.5,84.7 212,84.7 211.8,86.3 214.6,86.3 214.3,87.6 211.6,87.6 211.3,89.4 214.8,89.4 214.6,90.7 
		209.3,90.7 210.5,83.4 215.7,83.4 215.5,84.7 	"/>
	<path class="st0" d="M63.7,100.9c0.2,0.4,0.6,0.6,1,0.6c0.4,0,0.8-0.1,1.1-0.5c0.5-0.6,0.8-2,0.8-2.8c0-0.3,0-0.8-0.2-1.1
		c-0.2-0.3-0.5-0.6-1-0.6c-0.5,0-0.8,0.2-1.1,0.5c-0.5,0.6-0.8,2-0.8,2.8C63.5,100.2,63.5,100.6,63.7,100.9L63.7,100.9z M67.3,95.9
		c0.5,0.4,1,1.2,1,2.5c0,1.1-0.4,2.4-0.9,3.1c-0.4,0.5-1.2,1.4-2.9,1.4c-0.8,0-1.5-0.2-2.1-0.8c-0.6-0.6-0.8-1.4-0.8-2.3
		c0-1,0.2-2.4,1.3-3.5c0.8-0.8,1.5-1,2.5-1C66,95.3,66.7,95.3,67.3,95.9L67.3,95.9z"/>
	<polygon class="st0" points="74.8,96.7 71.6,96.7 71.3,98.3 73.9,98.3 73.7,99.6 71.1,99.6 70.6,102.7 68.9,102.7 70.1,95.4 
		75.1,95.4 74.8,96.7 	"/>
	<path class="st0" d="M79.6,98.7h1.1c0.3,0,0.7,0,1-0.3c0.2-0.2,0.3-0.5,0.3-0.8c0-0.2-0.1-0.5-0.3-0.6c-0.2-0.1-0.5-0.2-0.7-0.2
		h-1.2L79.6,98.7L79.6,98.7z M81.1,95.4c0.6,0,1.6,0,2.2,0.6c0.4,0.4,0.5,1,0.5,1.3c0,0.9-0.4,1.6-1,2.1c-0.8,0.6-1.7,0.6-2.3,0.6
		h-1.1l-0.5,2.8h-1.7l1.2-7.4H81.1L81.1,95.4z"/>
	<polygon class="st0" points="86.8,95.4 86.4,98.3 88.8,98.3 89.2,95.4 91,95.4 89.8,102.7 88,102.7 88.5,99.6 86.1,99.6 
		85.6,102.7 83.9,102.7 85.1,95.4 86.8,95.4 	"/>
	<polygon class="st0" points="94.8,99.6 94.3,102.7 92.6,102.7 93.1,99.6 91.3,95.4 93.3,95.4 94.3,98.2 96.3,95.4 97.9,95.4 
		94.8,99.6 	"/>
	<path class="st0" d="M101.8,97.5c-0.1-0.2-0.2-0.4-0.3-0.5c-0.3-0.3-0.8-0.4-1.1-0.4c-0.2,0-0.6,0-0.8,0.2
		c-0.2,0.1-0.2,0.3-0.2,0.5c0,0.1,0,0.2,0.1,0.4c0.1,0.2,0.4,0.4,0.9,0.5c0.4,0.1,0.9,0.2,1.4,0.4c0.2,0.1,0.7,0.3,1,0.9
		c0.1,0.3,0.2,0.6,0.2,0.9c0,0.5-0.2,1.2-0.9,1.8c-0.6,0.5-1.4,0.6-2.3,0.6c-0.6,0-1.4-0.1-2.1-0.5c-0.3-0.2-0.8-0.7-1-1.5l1.6-0.4
		c0,0.2,0.1,0.4,0.3,0.6c0.4,0.4,0.8,0.5,1.3,0.5c0.3,0,0.6,0,1-0.3c0.2-0.2,0.3-0.4,0.3-0.6c0-0.2-0.1-0.4-0.2-0.5
		c-0.1-0.1-0.3-0.2-0.8-0.4c-0.8-0.2-1.9-0.5-2.4-1.3c-0.2-0.3-0.3-0.7-0.3-1c0-0.6,0.3-1.2,0.8-1.6c0.6-0.5,1.5-0.6,2.1-0.6
		c0.7,0,1.4,0.1,2.2,0.7c0.3,0.3,0.5,0.6,0.6,1L101.8,97.5L101.8,97.5z"/>
	<polygon class="st0" points="105.5,102.7 103.8,102.7 105,95.4 106.7,95.4 105.5,102.7 	"/>
	<path class="st0" d="M112,98.1c0-0.3-0.1-0.7-0.2-1c-0.2-0.4-0.5-0.5-1-0.5c-0.7,0-1,0.5-1.3,1c-0.4,0.7-0.5,1.8-0.5,2.5
		c0,0.3,0.1,0.8,0.3,1.2c0.2,0.2,0.5,0.4,0.8,0.4c0.6,0,1.3-0.3,1.5-1.5l1.5,0.3c-0.1,0.4-0.3,0.8-0.6,1.2c-0.7,1-1.5,1.3-2.5,1.3
		c-1.2,0-1.9-0.6-2.2-1.1c-0.4-0.5-0.7-1.3-0.7-2.1c0-1.1,0.4-2.3,1-3.1c0.6-0.8,1.5-1.3,2.7-1.3c1,0,1.6,0.4,1.9,0.7
		c0.5,0.5,0.7,1.3,0.7,2L112,98.1L112,98.1z"/>
	<path class="st0" d="M118.6,97.5c-0.1-0.2-0.2-0.4-0.3-0.5c-0.3-0.3-0.8-0.4-1.1-0.4c-0.2,0-0.6,0-0.8,0.2
		c-0.2,0.1-0.2,0.3-0.2,0.5c0,0.1,0,0.2,0.1,0.4c0.1,0.2,0.4,0.4,0.9,0.5c0.4,0.1,0.9,0.2,1.4,0.4c0.2,0.1,0.7,0.3,1,0.9
		c0.1,0.3,0.2,0.6,0.2,0.9c0,0.5-0.2,1.2-0.9,1.8c-0.6,0.5-1.4,0.6-2.3,0.6c-0.6,0-1.4-0.1-2.1-0.5c-0.3-0.2-0.8-0.7-1-1.5l1.6-0.4
		c0,0.2,0.1,0.4,0.3,0.6c0.4,0.4,0.8,0.5,1.3,0.5c0.3,0,0.6,0,1-0.3c0.2-0.2,0.3-0.4,0.3-0.6c0-0.2-0.1-0.4-0.2-0.5
		c-0.1-0.1-0.3-0.2-0.8-0.4c-0.8-0.2-1.9-0.5-2.4-1.3c-0.2-0.3-0.3-0.7-0.3-1c0-0.6,0.3-1.2,0.8-1.6c0.6-0.5,1.4-0.6,2.1-0.6
		c0.7,0,1.4,0.1,2.2,0.7c0.3,0.3,0.5,0.6,0.6,1L118.6,97.5L118.6,97.5z"/>
	<path class="st0" d="M126.8,99.8l-0.4-2.7l-1.2,2.7H126.8L126.8,99.8z M127.7,95.4l1.2,7.4h-1.8l-0.2-1.7h-2.2l-0.8,1.7h-1.5
		l3.5-7.4H127.7L127.7,95.4z"/>
	<path class="st0" d="M134.6,100.2L134.6,100.2c0-0.1,0-0.5,0.1-0.9l0.6-3.9h1.4l-1.2,7.4H134l-2.1-4.8l-0.2-0.6h0
		c0,0.5,0,0.8-0.1,1.1l-0.7,4.4h-1.4l1.2-7.4h1.8L134.6,100.2L134.6,100.2z"/>
	<path class="st0" d="M138.8,101.4h1.1c0.5,0,1.4-0.1,1.9-1.3c0.2-0.5,0.3-1.1,0.3-1.7c0-0.4-0.1-1.1-0.6-1.5
		c-0.3-0.3-0.8-0.3-1.1-0.3h-0.8L138.8,101.4L138.8,101.4z M140.6,95.4c0.5,0,1.6,0,2.4,0.8c0.6,0.5,0.8,1.5,0.8,2.4
		c0,1.1-0.4,2.5-1.2,3.3c-0.8,0.8-1.7,0.9-2.5,0.9h-3.1l1.2-7.4H140.6L140.6,95.4z"/>
	<polygon class="st0" points="152.6,95.4 152.4,96.7 150.6,96.7 149.6,102.7 147.9,102.7 148.9,96.7 147.1,96.7 147.4,95.4 
		152.6,95.4 	"/>
	<polygon class="st0" points="158.2,96.7 154.8,96.7 154.5,98.3 157.3,98.3 157.1,99.6 154.3,99.6 154,101.4 157.5,101.4 
		157.3,102.7 152.1,102.7 153.3,95.4 158.5,95.4 158.2,96.7 	"/>
	<path class="st0" d="M163.4,98.1c0-0.3-0.1-0.7-0.2-1c-0.2-0.4-0.5-0.5-1-0.5c-0.7,0-1,0.5-1.3,1c-0.4,0.7-0.5,1.8-0.5,2.5
		c0,0.3,0.1,0.8,0.3,1.2c0.2,0.2,0.5,0.4,0.8,0.4c0.6,0,1.3-0.3,1.5-1.5l1.5,0.3c-0.1,0.4-0.3,0.8-0.6,1.2c-0.7,1-1.5,1.3-2.5,1.3
		c-1.2,0-1.9-0.6-2.2-1.1c-0.4-0.5-0.7-1.3-0.7-2.1c0-1.1,0.4-2.3,1-3.1c0.6-0.8,1.5-1.3,2.7-1.3c1,0,1.6,0.4,1.9,0.7
		c0.5,0.5,0.7,1.3,0.7,2L163.4,98.1L163.4,98.1z"/>
	<polygon class="st0" points="168.2,95.4 167.7,98.3 170.2,98.3 170.6,95.4 172.3,95.4 171.1,102.7 169.4,102.7 169.9,99.6 
		167.5,99.6 167,102.7 165.3,102.7 166.5,95.4 168.2,95.4 	"/>
	<path class="st0" d="M177.7,100.2L177.7,100.2c0-0.1,0-0.5,0.1-0.9l0.6-3.9h1.4l-1.2,7.4h-1.5l-2.1-4.8l-0.2-0.6h0
		c0,0.5,0,0.8-0.1,1.1l-0.7,4.4h-1.4l1.2-7.4h1.8L177.7,100.2L177.7,100.2z"/>
	<path class="st0" d="M182.2,100.9c0.2,0.4,0.6,0.6,1,0.6c0.4,0,0.8-0.1,1.1-0.5c0.5-0.6,0.8-2,0.8-2.8c0-0.3,0-0.8-0.2-1.1
		c-0.2-0.3-0.5-0.6-1-0.6c-0.5,0-0.8,0.2-1.1,0.5c-0.5,0.6-0.8,2-0.8,2.8C182,100.2,182,100.6,182.2,100.9L182.2,100.9z M185.8,95.9
		c0.5,0.4,1,1.2,1,2.5c0,1.1-0.4,2.4-0.9,3.1c-0.4,0.5-1.2,1.4-2.9,1.4c-0.8,0-1.5-0.2-2.1-0.8c-0.6-0.6-0.8-1.4-0.8-2.3
		c0-1,0.2-2.4,1.3-3.5c0.8-0.8,1.5-1,2.5-1C184.5,95.3,185.2,95.3,185.8,95.9L185.8,95.9z"/>
	<polygon class="st0" points="192.2,102.7 187.4,102.7 188.6,95.4 190.3,95.4 189.3,101.4 192.4,101.4 192.2,102.7 	"/>
	<path class="st0" d="M195.3,100.9c0.2,0.4,0.6,0.6,1,0.6c0.4,0,0.8-0.1,1.1-0.5c0.5-0.6,0.8-2,0.8-2.8c0-0.3,0-0.8-0.2-1.1
		c-0.2-0.3-0.5-0.6-1-0.6c-0.5,0-0.8,0.2-1.1,0.5c-0.5,0.6-0.8,2-0.8,2.8C195,100.2,195.1,100.6,195.3,100.9L195.3,100.9z
		 M198.9,95.9c0.5,0.4,1,1.2,1,2.5c0,1.1-0.4,2.4-0.9,3.1c-0.4,0.5-1.2,1.4-2.9,1.4c-0.8,0-1.5-0.2-2.1-0.8
		c-0.6-0.6-0.8-1.4-0.8-2.3c0-1,0.2-2.4,1.3-3.5c0.8-0.8,1.5-1,2.5-1C197.5,95.3,198.2,95.3,198.9,95.9L198.9,95.9z"/>
	<path class="st0" d="M205.5,97.9c0-0.3-0.1-0.7-0.2-0.9c-0.3-0.4-0.6-0.4-0.9-0.4c-0.5,0-0.8,0.2-1.1,0.6c-0.5,0.6-0.8,1.8-0.8,2.8
		c0,0.3,0,0.8,0.3,1.2c0.2,0.2,0.5,0.4,1,0.4c0.6,0,0.9-0.3,1.1-0.5c0.2-0.2,0.3-0.6,0.4-1h-1.5l0.2-1.3h3.1l-0.6,4h-0.9l-0.2-0.8h0
		c-0.2,0.2-0.3,0.4-0.6,0.5c-0.4,0.3-0.8,0.4-1.5,0.4c-0.4,0-1.2-0.1-1.9-0.7c-0.5-0.5-0.8-1.3-0.8-2.3c0-0.9,0.2-1.9,0.8-2.8
		c0.4-0.7,1.2-1.8,3.1-1.8c0.6,0,1.4,0.1,2,0.8c0.3,0.4,0.6,0.9,0.6,1.6L205.5,97.9L205.5,97.9z"/>
	<polygon class="st0" points="211.4,99.6 210.9,102.7 209.2,102.7 209.7,99.6 207.9,95.4 209.8,95.4 210.9,98.2 212.9,95.4 
		214.5,95.4 211.4,99.6 	"/>
</g>
</svg>
