<?xml version="1.0" encoding="UTF-8" standalone="no"?>
<svg
   xmlns:dc="http://purl.org/dc/elements/1.1/"
   xmlns:cc="http://creativecommons.org/ns#"
   xmlns:rdf="http://www.w3.org/1999/02/22-rdf-syntax-ns#"
   xmlns:svg="http://www.w3.org/2000/svg"
   xmlns="http://www.w3.org/2000/svg"
   viewBox="0 0 1299.6 239.61333"
   height="239.61333"
   width="1299.6"
   xml:space="preserve"
   id="svg2"
   version="1.1"><metadata
     id="metadata8"><rdf:RDF><cc:Work
         rdf:about=""><dc:format>image/svg+xml</dc:format><dc:type
           rdf:resource="http://purl.org/dc/dcmitype/StillImage" /></cc:Work></rdf:RDF></metadata><defs
     id="defs6" /><g
     transform="matrix(1.3333333,0,0,-1.3333333,0,239.61333)"
     id="g10"><g
       transform="scale(0.1)"
       id="g12"><path
         id="path14"
         style="fill:#231f20;fill-opacity:1;fill-rule:nonzero;stroke:none"
         d="m 9621.1,355.871 v 26.918 h 17.29 c 9.44,0 22.29,-0.699 22.29,-12.238 0,-12.461 -6.62,-14.68 -17.75,-14.68 h -21.83 m 0,-18.922 h 11.56 l 26.79,-47.051 h 29.4 l -29.63,48.981 c 15.3,1.121 27.93,8.402 27.93,29.051 0,25.64 -17.71,33.89 -47.62,33.89 h -43.28 V 289.898 h 24.85 v 47.051 m 125.88,8.762 c 0,65.73 -51.07,103.859 -107.98,103.859 -57.3,0 -108.33,-38.129 -108.33,-103.859 0,-65.691 51.03,-103.949 108.33,-103.949 56.91,0 107.98,38.258 107.98,103.949 m -31.15,0 c 0,-47.883 -35.22,-80.02 -76.83,-80.02 v 0.34 c -42.75,-0.34 -77.32,31.797 -77.32,79.68 0,47.859 34.57,79.891 77.32,79.891 41.61,0 76.83,-32.032 76.83,-79.891" /><path
         id="path16"
         style="fill:#231f20;fill-opacity:1;fill-rule:nonzero;stroke:none"
         d="m 5782.46,1457.56 0.12,-1179.572 H 6115.7 V 1457.54 Z m -2620.62,1.6 V 277.988 h 336.09 v 916.872 l 262.19,-0.88 c 86.25,0 145.86,-20.66 187.42,-65.02 52.69,-56.15 74.2,-146.655 74.2,-312.319 V 277.988 h 325.64 v 652.598 c 0,465.764 -296.89,528.574 -587.34,528.574 z m 3157.01,-1.64 V 277.988 h 540.33 c 287.89,0 381.84,47.871 483.46,155.211 71.83,75.379 118.24,240.813 118.24,421.586 0,165.805 -39.28,313.715 -107.83,405.825 -123.4,164.7 -301.21,196.91 -566.66,196.91 z m 330.45,-256.84 h 143.24 c 207.79,0 342.19,-93.32 342.19,-335.446 0,-242.164 -134.4,-335.484 -342.19,-335.484 H 6649.3 Z m -1347.15,256.84 -278.03,-934.84 -266.41,934.78 -359.6,0.06 380.46,-1179.532 h 480.14 L 5642.17,1457.52 Z M 7615.9,277.988 h 333.18 V 1457.46 l -333.26,0.06 z M 8549.77,1457.09 8084.59,278.398 h 328.5 l 73.59,208.321 h 550.51 l 69.67,-208.321 H 9463.5 L 8994.77,1457.19 Z m 216.25,-215.04 201.79,-552.198 h -409.96 l 208.17,552.198" /><path
         id="path18"
         style="fill:#74c233;fill-opacity:1;fill-rule:nonzero;stroke:none"
         d="m 1013.32,1260.9 v 162.33 c 15.76,1.13 31.68,1.97 47.9,2.47 443.99,13.96 735.27,-381.49 735.27,-381.49 0,0 -314.6,-436.96 -651.91,-436.96 -48.58,0 -92.06,7.828 -131.26,20.98 v 492.26 c 172.85,-20.88 207.6,-97.23 311.54,-270.439 l 231.12,194.859 c 0,0 -168.7,221.27 -453.1,221.27 -30.95,0 -60.52,-2.18 -89.56,-5.28 m 0,536.25 v -242.48 c 15.94,1.26 31.89,2.28 47.9,2.85 617.44,20.8 1019.69,-506.37 1019.69,-506.37 0,0 -462.04,-561.83 -943.38,-561.83 -44.1,0 -85.4,4.071 -124.21,10.942 V 350.371 c 33.19,-4.223 67.56,-6.703 103.44,-6.703 447.95,0 771.87,228.742 1085.56,499.496 51.98,-41.641 264.91,-142.934 308.7,-187.344 -298.28,-249.672 -993.33,-450.91 -1387.38,-450.91 -37.97,0 -74.49,2.301 -110.32,5.738 V 0 h 1702.54 v 1797.15 z m 0,-1168.92 V 500.262 c -414.297,73.859 -529.289,504.528 -529.289,504.528 0,0 198.918,220.4 529.289,256.11 v -140.41 c -0.25,0 -0.42,0.07 -0.64,0.07 -173.364,20.82 -308.825,-141.165 -308.825,-141.165 0,0 75.891,-272.684 309.465,-351.165 m -735.84,395.22 c 0,0 245.547,362.32 735.84,399.78 v 131.44 C 470.273,1511.09 0,1051.15 0,1051.15 c 0,0 266.34,-770.009 1013.32,-840.502 V 350.371 C 465.168,419.34 277.48,1023.45 277.48,1023.45" /></g></g></svg>