<?xml version="1.0" encoding="utf-8"?>
<!-- Generator: Adobe Illustrator 22.0.0, SVG Export Plug-In . SVG Version: 6.00 Build 0)  -->
<svg version="1.1" id="Слой_1" xmlns="http://www.w3.org/2000/svg" xmlns:xlink="http://www.w3.org/1999/xlink" x="0px" y="0px"
	 viewBox="0 0 232.2 70.9" style="enable-background:new 0 0 232.2 70.9;" xml:space="preserve">
<style type="text/css">
	.st0{fill:#F45753;}
	.st1{fill:#1E0F00;}
	.st2{fill:#FFFFFF;}
	.st3{clip-path:url(#SVGID_2_);fill:#1E0F00;}
</style>
<rect y="0" class="st0" width="42.5" height="21.7"/>
<rect y="21.3" class="st1" width="42.5" height="21.3"/>
<rect x="7.4" y="20" class="st2" width="27.7" height="2.6"/>
<g>
	<defs>
		<rect id="SVGID_1_" y="0" width="232.2" height="70.9"/>
	</defs>
	<clipPath id="SVGID_2_">
		<use xlink:href="#SVGID_1_"  style="overflow:visible;"/>
	</clipPath>
	<path class="st3" d="M69.7,20.5c2.5,0,3.8-1.3,3.8-3.1c0-2-1.2-3.2-3.4-3.2h-9.7v6.3H69.7z M66.8,24.1h-6.3v7.8h-3.9V10.7h13.6
		c4.5,0,7.3,2.8,7.3,6.7c0,3.8-2.7,6-6.1,6.5l6.3,7.9h-4.9L66.8,24.1z"/>
	<path class="st3" d="M93.3,13.7c-4.9,0-8.3,3.3-8.3,7.6c0,4.4,3.2,7.6,8.3,7.6c5,0,8.2-3.3,8.2-7.6C101.5,17,98.3,13.7,93.3,13.7
		 M93.3,32.4C86.5,32.4,81,28,81,21.2c0-6.6,5.6-11.2,12.3-11.2c6.8,0,12.3,4.6,12.3,11.2C105.5,28,100,32.4,93.3,32.4"/>
	<path class="st3" d="M126.8,15.7c-2.7-1.2-5.6-1.9-8.2-1.9c-3.8,0-5.7,0.8-5.7,2.3c0,4.2,16.8,0.8,16.8,9.7c0,3.7-3.5,6.5-10.4,6.5
		c-4.1,0-7.3-0.8-11-2.8l1.5-3.3c3.2,1.8,6.3,2.6,9.5,2.6c4.1,0,6.3-1.2,6.3-3c0-4.6-16.8-1.2-16.8-9.5c0-3.6,3.4-6.1,9.6-6.1
		c3.7,0,6.8,0.8,9.8,2.3L126.8,15.7z"/>
	<path class="st3" d="M151.6,25.6c0-1.8-0.9-2.7-2.9-2.7h-10.5v5.4h10C150.5,28.3,151.6,27.3,151.6,25.6 M148.4,19.4
		c1.8,0,2.6-1.2,2.6-2.6c0-1.5-0.9-2.6-2.8-2.6h-10v5.2H148.4z M152.7,20.9c1.9,1,2.9,2.7,2.9,4.8c0,3.5-2.5,6.2-7.4,6.2h-14V10.7
		h13.9c3.9,0,6.7,2.4,6.7,5.9C154.9,18.5,154.1,19.8,152.7,20.9"/>
	<path class="st3" d="M165.8,23.3h8.1l-4.1-8.6L165.8,23.3z M164.2,26.7l-2.4,5.1h-4.2l10.3-21.1h4.1l10.3,21.1H178l-2.4-5.1H164.2z
		"/>
	<path class="st3" d="M189,31.8h-3.8V10.7h4l13.8,15.9l0.1,0c-0.2-4-0.3-7.2-0.3-10.4v-5.5h3.8v21.1h-4l-13.7-15.9l-0.1,0
		c0.1,3.1,0.1,8.6,0.1,10.4V31.8z"/>
	<polygon class="st3" points="212.4,31.8 212.4,10.7 216.3,10.7 216.3,20.6 226.9,10.7 231.7,10.7 220.8,20.9 232.2,31.8 
		226.9,31.8 216.3,21.6 216.3,31.8 	"/>
	<path class="st3" d="M6,65.4c-0.9-0.4-1.8-0.6-2.7-0.6c-1.2,0-1.8,0.3-1.8,0.7c0,1.4,5.5,0.3,5.5,3.2c0,1.2-1.1,2.1-3.4,2.1
		c-1.3,0-2.4-0.3-3.6-0.9l0.5-1.1c1.1,0.6,2,0.8,3.1,0.8c1.3,0,2.1-0.4,2.1-1c0-1.5-5.5-0.4-5.5-3.1c0-1.2,1.1-2,3.2-2
		c1.2,0,2.2,0.3,3.2,0.8L6,65.4z"/>
	<path class="st3" d="M12.1,64.8c-1.6,0-2.7,1.1-2.7,2.5c0,1.4,1.1,2.5,2.7,2.5c1.6,0,2.7-1.1,2.7-2.5
		C14.8,65.8,13.7,64.8,12.1,64.8 M12.1,70.9c-2.2,0-4-1.5-4-3.7c0-2.2,1.8-3.7,4-3.7c2.2,0,4,1.5,4,3.7
		C16.1,69.4,14.3,70.9,12.1,70.9"/>
	<path class="st3" d="M21.3,70.9c-2.3,0-4-1.5-4-3.7c0-2.2,1.8-3.6,4-3.6c1.4,0,2.3,0.4,3.2,1l-0.7,1c-0.6-0.5-1.4-0.8-2.5-0.8
		c-1.7,0-2.7,1.1-2.7,2.4c0,1.4,1.1,2.5,2.8,2.5c1.1,0,1.9-0.3,2.5-0.8l0.7,1C23.7,70.5,22.7,70.9,21.3,70.9"/>
	<rect x="26" y="63.8" class="st3" width="1.3" height="6.9"/>
	<polygon class="st3" points="29.1,70.7 29.1,63.8 35.4,63.8 35.4,64.9 30.4,64.9 30.4,66.6 34.3,66.6 34.3,67.8 30.4,67.8 
		30.4,69.6 35.6,69.6 35.6,70.7 	"/>
	<polygon class="st3" points="40.3,64.9 40.3,70.7 39,70.7 39,64.9 36.2,64.9 36.2,63.8 43.1,63.8 43.1,64.9 	"/>
	<polygon class="st3" points="44.1,70.7 44.1,63.8 50.4,63.8 50.4,64.9 45.4,64.9 45.4,66.6 49.3,66.6 49.3,67.8 45.4,67.8 
		45.4,69.6 50.6,69.6 50.6,70.7 	"/>
	<path class="st3" d="M58.6,69.7c0.7,0,1.4-0.2,2-0.4v-2h1.2v2.7c-0.9,0.6-2.1,0.9-3.3,0.9c-2.3,0-4-1.5-4-3.7c0-2.2,1.8-3.6,4-3.6
		c1.3,0,2.3,0.4,3.2,1l-0.7,1c-0.6-0.5-1.4-0.8-2.5-0.8c-1.7,0-2.7,1-2.7,2.4C55.9,68.7,56.9,69.7,58.6,69.7"/>
	<polygon class="st3" points="63.6,70.7 63.6,63.8 69.9,63.8 69.9,64.9 64.8,64.9 64.8,66.6 68.7,66.6 68.7,67.8 64.8,67.8 
		64.8,69.6 70.1,69.6 70.1,70.7 	"/>
	<path class="st3" d="M72.7,70.7h-1.3v-6.9h1.3l4.5,5.2l0,0c-0.1-1.3-0.1-2.4-0.1-3.4v-1.8h1.2v6.9h-1.3l-4.5-5.2l0,0
		c0,1,0,2.8,0,3.4V70.7z"/>
	<polygon class="st3" points="80.3,70.7 80.3,63.8 86.6,63.8 86.6,64.9 81.6,64.9 81.6,66.6 85.5,66.6 85.5,67.8 81.6,67.8 
		81.6,69.6 86.8,69.6 86.8,70.7 	"/>
	<path class="st3" d="M92.5,67c0.8,0,1.3-0.4,1.3-1c0-0.7-0.4-1.1-1.1-1.1h-3.2V67H92.5z M91.5,68.2h-2.1v2.5h-1.3v-6.9h4.4
		c1.5,0,2.4,0.9,2.4,2.2c0,1.2-0.9,2-2,2.1l2.1,2.6h-1.6L91.5,68.2z"/>
	<path class="st3" d="M98.2,67.9h2.7l-1.3-2.8L98.2,67.9z M97.7,69l-0.8,1.7h-1.4l3.4-6.9h1.3l3.4,6.9h-1.4l-0.8-1.7H97.7z"/>
	<polygon class="st3" points="104.5,70.7 104.5,63.8 105.8,63.8 105.8,69.6 110.4,69.6 110.4,70.7 	"/>
	<polygon class="st3" points="111.4,70.7 111.4,63.8 117.7,63.8 117.7,64.9 112.7,64.9 112.7,66.6 116.5,66.6 116.5,67.8 
		112.7,67.8 112.7,69.6 117.9,69.6 117.9,70.7 	"/>
	<path class="st3" d="M126.2,69.7c0.7,0,1.4-0.2,2-0.4v-2h1.2V70c-0.9,0.6-2.1,1-3.3,1c-2.3,0-4.1-1.5-4.1-3.7
		c0-2.2,1.8-3.7,4.1-3.7c1.3,0,2.3,0.4,3.2,1l-0.7,1c-0.6-0.5-1.4-0.8-2.5-0.8c-1.7,0-2.7,1.1-2.7,2.4
		C123.4,68.7,124.5,69.7,126.2,69.7"/>
	<path class="st3" d="M135.5,67c0.8,0,1.3-0.4,1.3-1c0-0.7-0.4-1.1-1.1-1.1h-3.2V67H135.5z M134.5,68.2h-2.1v2.5h-1.3v-6.9h4.5
		c1.5,0,2.4,0.9,2.4,2.2c0,1.2-0.9,2-2,2.1l2.1,2.6h-1.6L134.5,68.2z"/>
	<path class="st3" d="M143.1,64.8c-1.6,0-2.7,1.1-2.7,2.5c0,1.4,1.1,2.5,2.7,2.5c1.6,0,2.7-1.1,2.7-2.5
		C145.8,65.9,144.7,64.8,143.1,64.8 M143.1,70.9c-2.2,0-4-1.5-4-3.7c0-2.2,1.8-3.7,4-3.7c2.2,0,4,1.5,4,3.7
		C147.1,69.4,145.3,70.9,143.1,70.9"/>
	<path class="st3" d="M155.6,67.9c0,1.8-1.3,3-3.5,3c-2.2,0-3.5-1.3-3.5-3v-4.1h1.3v4c0,1.1,0.7,2,2.2,2c1.5,0,2.2-0.8,2.2-2v-4h1.3
		V67.9z"/>
	<path class="st3" d="M161.7,67.2c0.7,0,1.1-0.5,1.1-1.1c0-0.7-0.4-1.2-1.2-1.2h-3v2.3H161.7z M161.7,63.8c1.5,0,2.5,1,2.5,2.4
		c0,1.4-1,2.2-2.5,2.2h-3v2.3h-1.3v-6.9H161.7z"/>
</g>
</svg>
