<?xml version="1.0" encoding="utf-8"?>
<!-- Generator: Adobe Illustrator 22.0.0, SVG Export Plug-In . SVG Version: 6.00 Build 0)  -->
<svg version="1.1" id="Layer_1" xmlns="http://www.w3.org/2000/svg" xmlns:xlink="http://www.w3.org/1999/xlink" x="0px" y="0px"
	 viewBox="0 0 283.5 103.5" style="enable-background:new 0 0 283.5 103.5;" xml:space="preserve">
<style type="text/css">
	.st0{fill:#4F8485;}
</style>
<g>
	<path class="st0" d="M78.8,75.5c0,0,12.7,0,14.9,0c4.8,0,5.6-3.2,5.9-6c0.2-2.6,3.7-41.5,3.7-41.5s-13.1,0-14.8,0
		c-4.2,0-5.7,2.4-6,6.4C82.2,36.3,78.8,75.5,78.8,75.5z"/>
	<path class="st0" d="M181.5,64.4h-5.2l3.2-36.4h-20.3c0,0-3.5,40.3-3.7,42.3c-0.2,2,1.8,5.3,5.3,5.3c2.6,0,33.1,0,35.1,0
		c3,0,5.1-2.4,5.3-4.8c0.2-2.3,3.7-42.8,3.7-42.8h-20.3L181.5,64.4z"/>
	<path class="st0" d="M37.3,28c-3.6,0-5.6,1.9-6,6.3c-0.2,2.2-1.5,16.5-1.6,18.6c-0.2,2.1,0.6,3.9,3.2,3.9s22,0,22,0l-0.8,8.9h-5.2
		l0.4-4.1H29c0,0-0.6,7.1-0.8,9.6c-0.3,2.5,0.5,4.4,3.7,4.4c3.2,0,33.5,0,36,0c5.7,0,6-4.2,6.3-7.4c0.3-2.9,1.5-16.8,1.6-18.5
		c0.2-1.7-1.1-2.8-2.8-2.8c-1.7,0-22.5,0-22.5,0l0.8-8.9h5.2L56.2,42h20.3c0,0,0.6-8,0.9-10.2c0.2-2.2-0.9-3.8-3.3-3.8
		C71.7,27.9,39.4,28,37.3,28z"/>
	<path class="st0" d="M108.4,27.9l-4.2,47.6c0,0,38.8,0,40.6,0c3.4,0,5.3-2.1,5.7-5.8c0.1-1.5,0.6-6.5,0.9-10.7
		c0.1-1.5-0.2-2.8-1.5-3.7c-1.1-0.8-4.8-3.5-4.8-3.5s4.6-3,5.8-3.8c1.2-0.8,1.6-1.7,1.8-3.6c0.3-4.1,0.8-8.9,0.9-10.2
		c0.3-3.4-1.7-6.3-5.8-6.3C145.8,27.9,108.4,27.9,108.4,27.9z M132.9,37.8l-0.8,8.9H127l0.8-8.9H132.9z M126.1,56.7h5.2l-0.8,8.9
		h-5.2L126.1,56.7z"/>
	<path class="st0" d="M250.2,27.9c-2.3,0-40.1,0-40.1,0L206,75.5h20.3l1.3-14.7h5.2l-1.3,14.7h20.3c0,0,0.9-10.5,1-12
		c0.2-1.5-0.2-3.2-1.6-4.2c-1.5-1.1-4.6-3.4-4.6-3.4s4.1-2.7,5.4-3.5c1.3-0.9,2-1.8,2.2-4.5c0.2-2.7,1.1-12.4,1.2-14.2
		C255.6,30.5,253,27.9,250.2,27.9z M228.5,50.9l1-11.8h5.2l-1,11.8H228.5z"/>
</g>
</svg>
