<?xml version="1.0" encoding="utf-8"?>
<!-- Generator: Adobe Illustrator 22.0.0, SVG Export Plug-In . SVG Version: 6.00 Build 0)  -->
<svg version="1.1" id="Слой_1" xmlns="http://www.w3.org/2000/svg" xmlns:xlink="http://www.w3.org/1999/xlink" x="0px" y="0px"
	 viewBox="0 0 240.9 63.1" style="enable-background:new 0 0 240.9 63.1;" xml:space="preserve">
<style type="text/css">
	.st0{fill:#0092CA;}
	.st1{fill:#55514E;}
</style>
<g>
	<g>
		<polygon class="st0" points="50,20.3 33.8,29.8 35.1,38.5 40.5,44.1 38.3,30.7 51.8,24.8 		"/>
		<polygon class="st0" points="52.4,27.3 40.7,30.9 42.7,46.9 47,51.4 44.8,34.3 53.2,32 		"/>
		<polygon class="st0" points="33.4,4.9 30.7,5.7 33.4,22.1 42.4,22.3 47.4,19.2 37.5,19.1 		"/>
		<polygon class="st0" points="38.1,5.8 35.7,6.7 38.1,17.7 48.4,17.9 52.7,14.9 41.6,14.8 		"/>
		<polygon class="st0" points="19.1,35.8 14,40.8 25,38.1 42.1,55.7 45.2,52.7 26.7,33.8 		"/>
		<polygon class="st0" points="13.5,43 10.5,46.4 23.2,43.7 39.3,59.8 41.6,57.8 24.3,40 		"/>
		<polygon class="st0" points="14.7,19.3 13,19.5 17.7,26.3 5.7,42.5 8.5,45.2 21.8,27.1 		"/>
		<polygon class="st0" points="8.4,18.2 12.5,26.1 2.3,40 4.7,41.7 15.8,26.6 10.5,18.1 		"/>
		<polygon class="st1" points="29,4.9 23.8,13 19.4,12.1 17,14.5 24.1,16.4 29.2,8.4 		"/>
		<polygon class="st1" points="16,15.4 13.8,17.5 24.9,21.2 30.1,13.7 29.7,10.8 24.7,18.6 		"/>
	</g>
</g>
<g>
	<path class="st1" d="M77.5,42.5c-1.3,0-2.5-0.2-3.6-0.5c-1.1-0.3-2-0.8-2.8-1.5c-0.8-0.6-1.3-1.4-1.8-2.4c-0.4-0.9-0.6-2-0.6-3.2
		h6.2c0,0.8,0.3,1.4,0.8,1.7c0.5,0.4,1.1,0.6,1.8,0.6c0.6,0,1.2-0.2,1.7-0.5c0.5-0.3,0.7-0.8,0.7-1.4c0-0.4-0.1-0.6-0.3-0.9
		c-0.2-0.2-0.5-0.4-0.8-0.6c-0.3-0.2-0.7-0.3-1.2-0.4c-0.5-0.1-0.9-0.3-1.5-0.4c-0.8-0.2-1.6-0.4-2.4-0.7c-0.8-0.3-1.6-0.6-2.3-1.1
		c-0.7-0.5-1.3-1.1-1.7-1.9c-0.4-0.8-0.7-1.8-0.7-3c0-2.2,0.7-3.8,2.2-5c1.5-1.2,3.5-1.8,6.1-1.8c2.6,0,4.7,0.6,6.1,1.9
		c1.4,1.3,2.1,3,2.1,5.2h-6c0-0.7-0.2-1.2-0.7-1.5c-0.4-0.3-1-0.5-1.6-0.5c-0.5,0-1,0.1-1.5,0.4c-0.4,0.2-0.7,0.6-0.7,1.1
		c0,0.3,0.1,0.6,0.3,0.8c0.2,0.2,0.5,0.4,0.8,0.5c0.3,0.2,0.7,0.3,1.2,0.4c0.4,0.1,0.9,0.3,1.4,0.4c0.8,0.2,1.7,0.5,2.5,0.7
		c0.9,0.3,1.7,0.7,2.4,1.2c0.7,0.5,1.3,1.1,1.8,1.9c0.5,0.8,0.7,1.8,0.7,3.1c0,1.2-0.2,2.2-0.7,3.1c-0.4,0.9-1,1.7-1.8,2.3
		C83,41.2,82.1,41.7,81,42S78.8,42.5,77.5,42.5z"/>
	<path class="st1" d="M100.1,36.8v5.1h-4c-1.9,0-3.4-0.5-4.4-1.6c-1.1-1.1-1.6-2.5-1.6-4.4v-6.4h-3.1v-1.3l7.5-8.1h1.2v4.9h4.2v4.5
		h-4.1v5.4c0,0.6,0.2,1.1,0.5,1.4c0.3,0.3,0.8,0.5,1.4,0.5H100.1z"/>
	<path class="st1" d="M120.6,25v16.9h-4.5l-0.5-1.2c-0.7,0.6-1.5,1-2.3,1.3s-1.8,0.5-2.7,0.5c-1.3,0-2.5-0.2-3.6-0.7
		c-1.1-0.4-2-1.1-2.8-1.9c-0.8-0.8-1.4-1.8-1.8-2.9c-0.4-1.1-0.7-2.3-0.7-3.6c0-1.3,0.2-2.5,0.7-3.6c0.4-1.1,1.1-2,1.8-2.8
		c0.8-0.8,1.7-1.4,2.8-1.8c1.1-0.4,2.3-0.7,3.6-0.7c1,0,1.9,0.2,2.8,0.5c0.9,0.3,1.6,0.8,2.4,1.3l0.6-1.3H120.6z M111.3,37.3
		c0.5,0,1-0.1,1.5-0.3c0.5-0.2,0.9-0.5,1.2-0.8c0.3-0.3,0.6-0.7,0.8-1.2c0.2-0.5,0.3-1,0.3-1.5s-0.1-1-0.3-1.5
		c-0.2-0.5-0.4-0.9-0.8-1.2c-0.3-0.3-0.7-0.6-1.2-0.8c-0.5-0.2-1-0.3-1.5-0.3c-1.1,0-2,0.4-2.7,1.1c-0.7,0.7-1,1.6-1,2.7
		c0,0.5,0.1,1,0.3,1.5c0.2,0.5,0.4,0.9,0.8,1.2c0.3,0.3,0.7,0.6,1.2,0.8C110.3,37.2,110.8,37.3,111.3,37.3z"/>
	<path class="st1" d="M135.2,25v5.3H133c-1,0-1.8,0.2-2.2,0.7c-0.4,0.5-0.7,1.2-0.7,2.3v8.6h-5.8V25.1h3.9l0.9,1.9
		c0.6-0.7,1.3-1.2,2-1.5c0.8-0.3,1.6-0.5,2.6-0.5H135.2z"/>
	<path class="st1" d="M149.1,36.8v5.1h-4c-1.9,0-3.4-0.5-4.4-1.6c-1.1-1.1-1.6-2.5-1.6-4.4v-6.4H136v-1.3l7.5-8.1h1.2v4.9h4.2v4.5
		h-4.1v5.4c0,0.6,0.2,1.1,0.5,1.4c0.3,0.3,0.8,0.5,1.4,0.5H149.1z"/>
	<path class="st1" d="M151.6,36.5h5.6v5.4h-5.6V36.5z"/>
	<path class="st1" d="M182.5,41.9l-1.7-12.6L175,42h-1.8l-5.8-12.6l-1.7,12.6h-6.1l3.3-21.8h6l5.1,11.9l5.2-11.9h6l3.2,21.8H182.5z"
		/>
	<path class="st1" d="M191.6,20.1h6.1v21.8h-6.1V20.1z"/>
	<path class="st1" d="M211.2,20.1c1.2,0,2.2,0.2,3.2,0.6c1,0.4,1.8,0.9,2.6,1.6c0.7,0.7,1.3,1.5,1.7,2.5c0.4,1,0.6,2,0.6,3.2
		c0,1.1-0.2,2.2-0.6,3.2c-0.4,1-1,1.8-1.7,2.5c-0.7,0.7-1.6,1.3-2.6,1.6c-1,0.4-2,0.6-3.2,0.6h-3.3v6h-6V20.1H211.2z M210.5,30.6
		c0.8,0,1.4-0.2,1.9-0.7c0.5-0.5,0.7-1.1,0.7-1.9c0-0.8-0.2-1.4-0.7-1.9c-0.5-0.5-1.1-0.7-1.9-0.7h-2.6v5.3H210.5z"/>
	<path class="st1" d="M238.4,25.5h-6v16.4h-6V25.5h-5.9v-5.4h17.9V25.5z"/>
</g>
</svg>
