<svg id="Слой_1" data-name="Слой 1" xmlns="http://www.w3.org/2000/svg" viewBox="0 0 271.38 152.05"><defs><style>.cls-1{fill:#fff;}.cls-2{fill:#191919;}.cls-3{fill:#f4f4f4;}</style></defs><title>Стикер_2</title><path class="cls-1" d="M296,186.71a22.55,22.55,0,0,0,11.47-3.08l.06,0A19.16,19.16,0,0,0,317,170.83l.51-51.89c0-8.32-6.64-14.11-14.6-14.6l-143.06,0a16.24,16.24,0,0,0-8.12,2.63c-1.73-2.31-3.66-4.46-5.52-6.7-.61-.74-1.2-1.51-1.8-2.27,3.45,4.36,1.16,1.1.51-.07-.23-.42-.42-.85-.61-1.28,0-.11-.11-.34-.26-.75-3.57-9.82-4.55-18.3-11.85-26.73-5.79-6.68-16.06-12.58-25.14-12.62-19.81-.07-35.35,11-40.81,30.12-1.11,3.88-1.63,11.2-.36,15.06a18.25,18.25,0,0,0,.72,2.33,14.4,14.4,0,0,0,.46,2.71c.35,1,1.25,4.86,1.46,4.87,0,1.11,0,2.24,0,3.31A23,23,0,0,1,68,118.8a73.22,73.22,0,0,0-1.77,9.4c-11.82.71-20.08,8-20.08,20.72,0,7.1,1.9,13.33,5.9,17.55-.06,7.74.61,15.67,6.18,21.25a25.57,25.57,0,0,0,11.61,6.55l1,.82A13.66,13.66,0,0,0,73.68,199a14.61,14.61,0,0,0,6,3.62c1.25.56,2.53,1.09,3.79,1.61l1.59.21a12.75,12.75,0,0,0,3.17,1.27l1.32.31a15.18,15.18,0,0,0,2.32.42l.3.1,1.29.22a14.77,14.77,0,0,0,4.6.47l.32.1.64.19a13.94,13.94,0,0,0,3.8.48l.52.05.32,0a14.93,14.93,0,0,0,2.67.27l1.39.09c.16,0,.32,0,.49,0a15.11,15.11,0,0,0,2.12.16l1.53.05a12.14,12.14,0,0,0,1.32,0c.41,0,.81.09,1.22.09h1.55a14.34,14.34,0,0,0,1.49-.08c.35,0,.7.06,1,.06l1.54,0q.74,0,1.47-.1c.37,0,.73,0,1.1,0l1.47-.08a15,15,0,0,0,2.39-.22l.37,0,1.12-.1a14.62,14.62,0,0,0,4.38-.7l1.21.12a10.38,10.38,0,0,0,4.2-.59l.39-.14a15.07,15.07,0,0,0,2.61-.44l1.52-.31a11.06,11.06,0,0,0,2.59-.92,15.18,15.18,0,0,0,2.34-.42l1.21-.44a14.59,14.59,0,0,0,6.44-3.75l0,0a13.48,13.48,0,0,0,2.81-2.73c.32-.27.65-.57,1-.9a18.63,18.63,0,0,0,2.5-3.22,14.1,14.1,0,0,0,2.15-6.9C163.66,186.68,296,186.71,296,186.71Z" transform="translate(-46.16 -56.58)"/><path d="M129.16,96.7a.74.74,0,0,0-.4-.43L129,97.4A.74.74,0,0,0,129.16,96.7Z" transform="translate(-46.16 -56.58)"/><path d="M128.67,133.42l.9-.32a.73.73,0,0,0-.9.32Z" transform="translate(-46.16 -56.58)"/><path d="M132.31,132.14l.95-.33a.73.73,0,0,0-.95.33Z" transform="translate(-46.16 -56.58)"/><path d="M136.37,130.47a.74.74,0,0,0-.42.38l1-.35A.74.74,0,0,0,136.37,130.47Z" transform="translate(-46.16 -56.58)"/><path d="M140,129.16a.74.74,0,0,0-.43.41l1-.36A.74.74,0,0,0,140,129.16Z" transform="translate(-46.16 -56.58)"/><path d="M143.24,128.28l.1,0v-.15A.74.74,0,0,0,143.24,128.28Z" transform="translate(-46.16 -56.58)"/><circle cx="126.92" cy="132.61" r="0.74" transform="translate(-83.5 -5.89) rotate(-19.75)"/><circle cx="130.57" cy="131.29" r="0.74" transform="translate(-82.85 -4.73) rotate(-19.75)"/><circle cx="134.23" cy="129.98" r="0.74" transform="translate(-82.19 -3.58) rotate(-19.75)"/><circle cx="137.88" cy="128.67" r="0.74" transform="translate(-81.53 -2.42) rotate(-19.75)"/><circle cx="141.54" cy="127.36" r="0.74" transform="translate(-80.87 -1.26) rotate(-19.75)"/><circle cx="127.99" cy="130.14" r="0.74" transform="translate(-82.61 -5.67) rotate(-19.75)"/><circle cx="131.65" cy="128.83" r="0.74" transform="translate(-81.95 -4.51) rotate(-19.75)"/><circle cx="135.31" cy="127.51" r="0.74" transform="translate(-81.29 -3.36) rotate(-19.75)"/><circle cx="138.96" cy="126.2" r="0.74" transform="matrix(0.94, -0.34, 0.34, 0.94, -80.63, -2.2)"/><path d="M141.92,125.14a.74.74,0,0,0,1.28.2l-.56-1.2a.74.74,0,0,0-.72,1Z" transform="translate(-46.16 -56.58)"/><circle cx="129.26" cy="127.64" r="0.74" transform="translate(-81.69 -5.39) rotate(-19.75)"/><circle cx="132.92" cy="126.32" r="0.74" transform="translate(-81.03 -4.23) rotate(-19.75)"/><circle cx="136.57" cy="125.01" r="0.74" transform="translate(-80.37 -3.08) rotate(-19.75)"/><circle cx="140.23" cy="123.7" r="0.74" transform="translate(-79.71 -1.92) rotate(-19.75)"/><circle cx="126.68" cy="126.48" r="0.74" transform="translate(-81.45 -6.33) rotate(-19.75)"/><circle cx="130.34" cy="125.17" r="0.74" transform="translate(-80.79 -5.17) rotate(-19.75)"/><circle cx="133.99" cy="123.86" r="0.74" transform="translate(-80.13 -4.02) rotate(-19.75)"/><circle cx="137.65" cy="122.54" r="0.74" transform="translate(-79.47 -2.86) rotate(-19.75)"/><path d="M140.61,121.48a.74.74,0,0,0,.95.45l0,0-.62-1.34A.74.74,0,0,0,140.61,121.48Z" transform="translate(-46.16 -56.58)"/><circle cx="127.95" cy="123.98" r="0.74" transform="translate(-80.53 -6.05) rotate(-19.75)"/><circle cx="131.6" cy="122.67" r="0.74" transform="translate(-79.87 -4.89) rotate(-19.75)"/><circle cx="135.26" cy="121.36" r="0.74" transform="translate(-79.21 -3.73) rotate(-19.75)"/><circle cx="138.92" cy="120.04" r="0.74" transform="translate(-78.55 -2.58) rotate(-19.75)"/><circle cx="129.03" cy="121.51" r="0.74" transform="translate(-79.63 -5.83) rotate(-19.75)"/><circle cx="132.68" cy="120.2" r="0.74" transform="translate(-78.97 -4.67) rotate(-19.75)"/><circle cx="136.34" cy="118.89" r="0.74" transform="translate(-78.31 -3.52) rotate(-19.75)"/><path d="M139.3,117.83a.74.74,0,0,0,.63.49l-.54-1.16A.74.74,0,0,0,139.3,117.83Z" transform="translate(-46.16 -56.58)"/><circle cx="130.29" cy="119.01" r="0.74" transform="translate(-78.71 -5.55) rotate(-19.75)"/><circle cx="133.95" cy="117.7" r="0.74" transform="translate(-78.05 -4.39) rotate(-19.75)"/><circle cx="137.6" cy="116.39" r="0.74" transform="translate(-77.4 -3.23) rotate(-19.75)"/><circle cx="124.06" cy="119.17" r="0.74" transform="translate(-79.13 -7.65) rotate(-19.75)"/><circle cx="127.71" cy="117.86" r="0.74" transform="translate(-78.47 -6.49) rotate(-19.75)"/><circle cx="131.37" cy="116.54" r="0.74" transform="translate(-77.81 -5.33) rotate(-19.75)"/><circle cx="135.02" cy="115.23" r="0.74" transform="translate(-77.16 -4.17) rotate(-19.75)"/><circle cx="128.98" cy="115.36" r="0.74" transform="translate(-77.55 -6.21) rotate(-19.75)"/><circle cx="132.63" cy="114.04" r="0.74" transform="translate(-76.9 -5.05) rotate(-19.75)"/><path d="M135.59,113a.74.74,0,0,0,1.39,0l-.67-1a.74.74,0,0,0-.72,1Z" transform="translate(-46.16 -56.58)"/><circle cx="126.4" cy="114.2" r="0.74" transform="translate(-77.32 -7.15) rotate(-19.75)"/><circle cx="130.06" cy="112.89" r="0.74" transform="translate(-76.66 -5.99) rotate(-19.75)"/><circle cx="133.71" cy="111.58" r="0.74" transform="translate(-76 -4.83) rotate(-19.75)"/><path d="M121,114l.08.22A.58.58,0,0,0,121,114Z" transform="translate(-46.16 -56.58)"/><circle cx="124.01" cy="113.01" r="0.74" transform="translate(-77.05 -8.03) rotate(-19.75)"/><circle cx="127.67" cy="111.7" r="0.74" transform="translate(-76.4 -6.87) rotate(-19.75)"/><circle cx="131.32" cy="110.39" r="0.74" transform="translate(-75.74 -5.71) rotate(-19.75)"/><path d="M134.86,109.8l-.6-.9a.74.74,0,0,0,.6.9Z" transform="translate(-46.16 -56.58)"/><circle cx="121.43" cy="111.86" r="0.74" transform="translate(-76.82 -8.97) rotate(-19.75)"/><circle cx="125.09" cy="110.55" r="0.74" transform="translate(-76.16 -7.81) rotate(-19.75)"/><circle cx="128.74" cy="109.23" r="0.74" transform="translate(-75.5 -6.65) rotate(-19.75)"/><circle cx="132.4" cy="107.92" r="0.74" transform="matrix(0.94, -0.34, 0.34, 0.94, -74.84, -5.49)"/><circle cx="122.7" cy="109.36" r="0.74" transform="translate(-75.9 -8.68) rotate(-19.75)"/><circle cx="126.35" cy="108.04" r="0.74" transform="translate(-75.24 -7.53) rotate(-19.75)"/><circle cx="130.01" cy="106.73" r="0.74" transform="translate(-74.58 -6.37) rotate(-19.75)"/><circle cx="123.77" cy="106.89" r="0.74" transform="translate(-75 -8.47) rotate(-19.75)"/><circle cx="127.43" cy="105.58" r="0.74" transform="translate(-74.34 -7.31) rotate(-19.75)"/><path d="M130.39,104.51a.74.74,0,0,0,.95.45.73.73,0,0,0,.21-.12l-.82-1.22A.74.74,0,0,0,130.39,104.51Z" transform="translate(-46.16 -56.58)"/><circle cx="125.04" cy="104.39" r="0.74" transform="translate(-74.08 -8.19) rotate(-19.75)"/><circle cx="128.7" cy="103.08" r="0.74" transform="translate(-73.42 -7.03) rotate(-19.75)"/><path d="M119.41,104.12c0,.29,0,.58,0,.88" transform="translate(-46.16 -56.58)"/><circle cx="126.12" cy="101.92" r="0.74" transform="translate(-73.18 -7.97) rotate(-19.75)"/><path d="M129.08,100.86a.74.74,0,0,0,.95.45h0l-.37-1.42-.16,0A.74.74,0,0,0,129.08,100.86Z" transform="translate(-46.16 -56.58)"/><circle cx="127.38" cy="99.42" r="0.74" transform="translate(-72.26 -7.69) rotate(-19.75)"/><path d="M127.76,97.2a.74.74,0,0,0,1.28.2l-.29-1.13a.74.74,0,0,0-1,.93Z" transform="translate(-46.16 -56.58)"/><path d="M120.39,174.32l.07-.3A.78.78,0,0,0,120.39,174.32Z" transform="translate(-46.16 -56.58)"/><path d="M140.29,168.37a.77.77,0,0,0,0-.19l-.57.94A.78.78,0,0,0,140.29,168.37Z" transform="translate(-46.16 -56.58)"/><path d="M120.63,149.82a.77.77,0,0,0,.09.37l-.07-.54A.78.78,0,0,0,120.63,149.82Z" transform="translate(-46.16 -56.58)"/><path d="M121.12,179.19a.78.78,0,1,1,.79-.77A.78.78,0,0,1,121.12,179.19Zm1.92,2a.78.78,0,1,1,.79-.77A.78.78,0,0,1,123,181.23Zm0-4.08a.78.78,0,1,1,.79-.77A.78.78,0,0,1,123.09,177.15Zm0-4.08a.78.78,0,1,1,.79-.77A.78.78,0,0,1,123.13,173.07Zm0-4.08a.78.78,0,1,1,.79-.77A.78.78,0,0,1,123.17,169Zm0-4.08a.78.78,0,1,1,.79-.77A.78.78,0,0,1,123.2,164.9Zm0-4.08A.78.78,0,1,1,124,160,.78.78,0,0,1,123.24,160.82Zm0-4.08a.78.78,0,1,1,.79-.77A.78.78,0,0,1,123.28,156.73Zm0-4.08a.78.78,0,1,1,.79-.77A.78.78,0,0,1,123.32,152.65Zm0-4.08a.78.78,0,1,1,.79-.77A.78.78,0,0,1,123.36,148.57Zm1.85,30.66a.78.78,0,1,1,.79-.77A.78.78,0,0,1,125.21,179.23Zm0-4.08a.78.78,0,1,1,.79-.77A.78.78,0,0,1,125.25,175.15Zm0-4.08a.78.78,0,1,1,.79-.77A.78.78,0,0,1,125.29,171.06Zm0-4.08a.78.78,0,1,1,.79-.77A.78.78,0,0,1,125.33,167Zm0-4.08a.78.78,0,1,1,.79-.77A.78.78,0,0,1,125.36,162.9Zm0-4.08a.78.78,0,1,1,.79-.77A.78.78,0,0,1,125.4,158.81Zm0-4.08a.78.78,0,1,1,.79-.77A.78.78,0,0,1,125.44,154.73Zm0-4.08a.78.78,0,1,1,.79-.77A.78.78,0,0,1,125.48,150.65Zm1.69,26.54a.78.78,0,1,1,.79-.77A.78.78,0,0,1,127.17,177.19Zm0-4.08a.78.78,0,1,1,.79-.77A.78.78,0,0,1,127.21,173.11Zm0-4.08a.78.78,0,1,1,.79-.77A.78.78,0,0,1,127.25,169Zm0-4.08a.78.78,0,1,1,.79-.77A.78.78,0,0,1,127.29,164.94Zm0-4.08a.78.78,0,1,1,.79-.77A.78.78,0,0,1,127.33,160.86Zm0-4.08a.78.78,0,1,1,.79-.77A.78.78,0,0,1,127.37,156.77Zm0-4.08a.78.78,0,1,1,.79-.77A.78.78,0,0,1,127.41,152.69Zm0-4.08a.78.78,0,1,1,.79-.77A.78.78,0,0,1,127.44,148.61Zm1.85,30.66a.78.78,0,1,1,.79-.77A.78.78,0,0,1,129.29,179.27Zm0-4.08a.78.78,0,1,1,.79-.77A.78.78,0,0,1,129.33,175.19Zm0-4.08a.78.78,0,1,1,.79-.77A.78.78,0,0,1,129.37,171.1Zm0-4.08a.78.78,0,1,1,.79-.77A.78.78,0,0,1,129.41,167Zm0-4.08a.78.78,0,1,1,.79-.77A.78.78,0,0,1,129.45,162.94Zm0-4.08a.78.78,0,1,1,.79-.77A.78.78,0,0,1,129.49,158.85Zm0-4.08a.78.78,0,1,1,.79-.77A.78.78,0,0,1,129.53,154.77Zm0-4.08a.78.78,0,1,1,.79-.77A.78.78,0,0,1,129.57,150.69Zm1.69,26.54a.78.78,0,1,1,.79-.77A.78.78,0,0,1,131.25,177.23Zm0-4.08a.78.78,0,1,1,.79-.77A.78.78,0,0,1,131.29,173.15Zm0-4.08a.78.78,0,1,1,.79-.77A.78.78,0,0,1,131.33,169.06Zm0-4.08a.78.78,0,1,1,.79-.77A.78.78,0,0,1,131.37,165Zm0-4.08a.78.78,0,1,1,.79-.77A.78.78,0,0,1,131.41,160.9Zm0-4.08a.78.78,0,1,1,.79-.77A.78.78,0,0,1,131.45,156.81Zm0-4.08a.78.78,0,1,1,.79-.77A.78.78,0,0,1,131.49,152.73Zm0-4.08a.78.78,0,1,1,.79-.77A.78.78,0,0,1,131.53,148.64Zm1.89,26.58a.78.78,0,1,1,.79-.77A.78.78,0,0,1,133.41,175.23Zm0-4.08a.78.78,0,1,1,.79-.77A.78.78,0,0,1,133.45,171.14Zm0-4.08a.78.78,0,1,1,.79-.77A.78.78,0,0,1,133.49,167.06Zm0-4.08a.78.78,0,1,1,.79-.77A.78.78,0,0,1,133.53,163Zm0-4.08a.78.78,0,1,1,.79-.77A.78.78,0,0,1,133.57,158.89Zm0-4.08a.78.78,0,1,1,.79-.77A.78.78,0,0,1,133.61,154.81Zm0-4.08a.78.78,0,1,1,.79-.77A.78.78,0,0,1,133.65,150.72Zm0-4.08a.78.78,0,1,1,.79-.77A.78.78,0,0,1,133.69,146.64Zm1.69,26.54a.78.78,0,1,1,.79-.77A.78.78,0,0,1,135.38,173.18Zm0-4.08a.78.78,0,1,1,.79-.77A.78.78,0,0,1,135.42,169.1Zm0-4.08a.78.78,0,1,1,.79-.77A.78.78,0,0,1,135.46,165Zm0-4.08a.78.78,0,1,1,.79-.77A.78.78,0,0,1,135.49,160.93Zm0-4.08a.78.78,0,1,1,.79-.77A.78.78,0,0,1,135.53,156.85Zm0-4.08a.78.78,0,1,1,.79-.77A.78.78,0,0,1,135.57,152.77Zm0-4.08a.78.78,0,1,1,.79-.77A.78.78,0,0,1,135.61,148.68Zm1.93,22.5a.78.78,0,1,1,.79-.77A.78.78,0,0,1,137.54,171.18Zm0-4.08a.78.78,0,1,1,.79-.77A.78.78,0,0,1,137.58,167.1Zm0-4.08a.78.78,0,1,1,.79-.77A.78.78,0,0,1,137.62,163Zm0-4.08a.78.78,0,1,1,.79-.77A.78.78,0,0,1,137.65,158.93Zm0-4.08a.78.78,0,1,1,.79-.77A.78.78,0,0,1,137.69,154.85Zm0-4.08a.78.78,0,1,1,.79-.77A.78.78,0,0,1,137.73,150.76Zm0-4.08a.78.78,0,1,1,.79-.77A.78.78,0,0,1,137.77,146.68Zm1.77,18.38a.78.78,0,1,1,.79-.77A.78.78,0,0,1,139.54,165.06Zm0-4.08a.78.78,0,1,1,.79-.77A.78.78,0,0,1,139.58,161Zm0-4.08a.78.78,0,1,1,.79-.77A.78.78,0,0,1,139.62,156.89Zm0-4.08a.78.78,0,1,1,.79-.77A.78.78,0,0,1,139.66,152.81Zm0-4.08a.78.78,0,1,1,.79-.77A.78.78,0,0,1,139.7,148.72Zm2,14.33a.78.78,0,1,1,.79-.77A.78.78,0,0,1,141.7,163.05Zm0-4.08a.78.78,0,1,1,.79-.77A.78.78,0,0,1,141.74,159Zm0-4.08a.78.78,0,1,1,.79-.77A.78.78,0,0,1,141.78,154.89Zm0-4.08a.78.78,0,1,1,.79-.77A.78.78,0,0,1,141.82,150.8Zm0-4.08a.78.78,0,1,1,.79-.77A.78.78,0,0,1,141.86,146.72Zm1.85,10.21a.78.78,0,1,1,.79-.77A.78.78,0,0,1,143.7,156.93Zm0-4.08a.78.78,0,1,1,.79-.77A.78.78,0,0,1,143.74,152.85Zm0-4.08a.78.78,0,1,1,.79-.77A.78.78,0,0,1,143.78,148.76Zm2.16-2a.78.78,0,1,1,.79-.77A.78.78,0,0,1,145.94,146.76Z" transform="translate(-46.16 -56.58)"/><path d="M117.79,182.46a.77.77,0,0,0-.29-.61q-.4.67-.86,1.28a.77.77,0,0,0,.36.1A.78.78,0,0,0,117.79,182.46Z" transform="translate(-46.16 -56.58)"/><path d="M121.1,181.72a.78.78,0,0,0-.33,1.49l.89-.18a.78.78,0,0,0-.56-1.31Z" transform="translate(-46.16 -56.58)"/><path d="M124.46,182.23l1.05-.4a.77.77,0,0,0-1.05.4Z" transform="translate(-46.16 -56.58)"/><path d="M119,181.2a.78.78,0,1,0,0-1.56.77.77,0,0,0-.36.09c-.13.29-.26.57-.41.85A.78.78,0,0,0,119,181.2Z" transform="translate(-46.16 -56.58)"/><circle cx="123.06" cy="180.46" r="0.78" transform="translate(-104.73 245.21) rotate(-89.45)"/><path d="M127.15,179.72a.78.78,0,0,0-.26,1.51l1-.5a.77.77,0,0,0,0-.23A.78.78,0,0,0,127.15,179.72Z" transform="translate(-46.16 -56.58)"/><circle cx="121.13" cy="178.41" r="0.78" transform="translate(-104.59 241.26) rotate(-89.45)"/><circle cx="125.22" cy="178.45" r="0.78" transform="translate(-100.59 245.38) rotate(-89.45)"/><circle cx="129.3" cy="178.49" r="0.78" transform="translate(-96.58 249.5) rotate(-89.45)"/><circle cx="123.09" cy="176.37" r="0.78" transform="translate(-100.61 241.2) rotate(-89.45)"/><circle cx="127.18" cy="176.41" r="0.78" transform="translate(-96.6 245.32) rotate(-89.45)"/><circle cx="131.26" cy="176.45" r="0.78" transform="translate(-92.6 249.44) rotate(-89.45)"/><circle cx="125.26" cy="174.37" r="0.78" transform="translate(-96.46 241.38) rotate(-89.45)"/><circle cx="129.34" cy="174.41" r="0.78" transform="translate(-92.46 245.5) rotate(-89.45)"/><circle cx="133.42" cy="174.45" r="0.78" transform="translate(-88.45 249.62) rotate(-89.45)"/><circle cx="123.13" cy="172.29" r="0.78" transform="translate(-96.49 237.19) rotate(-89.45)"/><circle cx="127.22" cy="172.33" r="0.78" transform="translate(-92.48 241.32) rotate(-89.45)"/><circle cx="131.3" cy="172.37" r="0.78" transform="translate(-88.47 245.44) rotate(-89.45)"/><circle cx="135.38" cy="172.41" r="0.78" transform="translate(-84.47 249.56) rotate(-89.45)"/><circle cx="125.29" cy="170.28" r="0.78" transform="translate(-92.34 237.37) rotate(-89.45)"/><circle cx="129.38" cy="170.32" r="0.78" transform="translate(-88.34 241.49) rotate(-89.45)"/><circle cx="133.46" cy="170.36" r="0.78" transform="translate(-84.33 245.61) rotate(-89.45)"/><circle cx="137.54" cy="170.4" r="0.78" transform="translate(-80.33 249.74) rotate(-89.45)"/><circle cx="123.17" cy="168.2" r="0.78" transform="translate(-92.36 233.19) rotate(-89.45)"/><circle cx="127.26" cy="168.24" r="0.78" transform="translate(-88.36 237.31) rotate(-89.45)"/><circle cx="131.34" cy="168.28" r="0.78" transform="translate(-84.35 241.43) rotate(-89.45)"/><circle cx="135.42" cy="168.32" r="0.78" transform="translate(-80.35 245.56) rotate(-89.45)"/><path d="M139.51,167.58a.78.78,0,1,0,0,1.56l.19,0,.57-.94A.78.78,0,0,0,139.51,167.58Z" transform="translate(-46.16 -56.58)"/><circle cx="125.33" cy="166.2" r="0.78" transform="translate(-88.22 233.36) rotate(-89.45)"/><circle cx="129.42" cy="166.24" r="0.78" transform="translate(-84.21 237.49) rotate(-89.45)"/><circle cx="133.5" cy="166.28" r="0.78" transform="translate(-80.21 241.61) rotate(-89.45)"/><circle cx="137.58" cy="166.32" r="0.78" transform="translate(-76.2 245.73) rotate(-89.45)"/><path d="M140.89,166.35a.77.77,0,0,0,.15.46q.34-.62.65-1.23h0A.78.78,0,0,0,140.89,166.35Z" transform="translate(-46.16 -56.58)"/><circle cx="123.21" cy="164.12" r="0.78" transform="translate(-88.24 229.18) rotate(-89.45)"/><circle cx="127.3" cy="164.16" r="0.78" transform="translate(-84.24 233.31) rotate(-89.45)"/><circle cx="131.38" cy="164.2" r="0.78" transform="translate(-80.23 237.43) rotate(-89.45)"/><circle cx="135.46" cy="164.24" r="0.78" transform="translate(-76.22 241.55) rotate(-89.45)"/><circle cx="139.55" cy="164.28" r="0.78" transform="translate(-72.22 245.67) rotate(-89.45)"/><circle cx="125.37" cy="162.12" r="0.78" transform="translate(-84.1 229.36) rotate(-89.45)"/><circle cx="129.46" cy="162.16" r="0.78" transform="translate(-80.09 233.48) rotate(-89.45)"/><circle cx="133.54" cy="162.2" r="0.78" transform="translate(-76.09 237.6) rotate(-89.45)"/><circle cx="137.62" cy="162.23" r="0.78" transform="translate(-72.08 241.72) rotate(-89.45)"/><circle cx="141.71" cy="162.27" r="0.78" transform="translate(-68.08 245.85) rotate(-89.45)"/><circle cx="123.25" cy="160.04" r="0.78" transform="translate(-84.12 225.18) rotate(-89.45)"/><circle cx="127.33" cy="160.08" r="0.78" transform="translate(-80.11 229.3) rotate(-89.45)"/><circle cx="131.42" cy="160.12" r="0.78" transform="translate(-76.11 233.42) rotate(-89.45)"/><circle cx="135.5" cy="160.15" r="0.78" transform="translate(-72.1 237.54) rotate(-89.45)"/><circle cx="139.59" cy="160.19" r="0.78" transform="translate(-68.1 241.67) rotate(-89.45)"/><path d="M142.89,160.23a.78.78,0,0,0,.77.79h0q.26-.68.49-1.35a.78.78,0,0,0-1.31.56Z" transform="translate(-46.16 -56.58)"/><circle cx="125.41" cy="158.03" r="0.78" transform="translate(-79.98 225.35) rotate(-89.45)"/><circle cx="129.49" cy="158.07" r="0.78" transform="translate(-75.97 229.48) rotate(-89.45)"/><circle cx="133.58" cy="158.11" r="0.78" transform="translate(-71.96 233.6) rotate(-89.45)"/><circle cx="137.66" cy="158.15" r="0.78" transform="translate(-67.96 237.72) rotate(-89.45)"/><circle cx="141.75" cy="158.19" r="0.78" transform="translate(-63.95 241.84) rotate(-89.45)"/><circle cx="123.29" cy="155.95" r="0.78" transform="translate(-80 221.17) rotate(-89.45)"/><circle cx="127.37" cy="155.99" r="0.78" transform="translate(-75.99 225.29) rotate(-89.45)"/><circle cx="131.46" cy="156.03" r="0.78" transform="translate(-71.99 229.42) rotate(-89.45)"/><circle cx="135.54" cy="156.07" r="0.78" transform="translate(-67.98 233.54) rotate(-89.45)"/><circle cx="139.62" cy="156.11" r="0.78" transform="translate(-63.97 237.66) rotate(-89.45)"/><circle cx="143.71" cy="156.15" r="0.78" transform="translate(-59.97 241.78) rotate(-89.45)"/><circle cx="125.45" cy="153.95" r="0.78" transform="translate(-75.85 221.35) rotate(-89.45)"/><circle cx="129.53" cy="153.99" r="0.78" transform="translate(-71.85 225.47) rotate(-89.45)"/><circle cx="133.62" cy="154.03" r="0.78" transform="translate(-67.84 229.59) rotate(-89.45)"/><circle cx="137.7" cy="154.07" r="0.78" transform="translate(-63.84 233.71) rotate(-89.45)"/><circle cx="141.78" cy="154.11" r="0.78" transform="translate(-59.83 237.84) rotate(-89.45)"/><path d="M145.09,154.14a.78.78,0,0,0,.5.73q.18-.77.33-1.5h0A.78.78,0,0,0,145.09,154.14Z" transform="translate(-46.16 -56.58)"/><circle cx="123.33" cy="151.87" r="0.78" transform="translate(-75.87 217.17) rotate(-89.45)"/><circle cx="127.41" cy="151.91" r="0.78" transform="translate(-71.87 221.29) rotate(-89.45)"/><circle cx="131.5" cy="151.95" r="0.78" transform="translate(-67.86 225.41) rotate(-89.45)"/><circle cx="135.58" cy="151.99" r="0.78" transform="translate(-63.86 229.53) rotate(-89.45)"/><circle cx="139.66" cy="152.03" r="0.78" transform="translate(-59.85 233.66) rotate(-89.45)"/><circle cx="143.75" cy="152.07" r="0.78" transform="translate(-55.85 237.78) rotate(-89.45)"/><circle cx="125.49" cy="149.87" r="0.78" transform="translate(-71.73 217.34) rotate(-89.45)"/><circle cx="129.57" cy="149.91" r="0.78" transform="translate(-67.73 221.46) rotate(-89.45)"/><circle cx="133.66" cy="149.94" r="0.78" transform="translate(-63.72 225.59) rotate(-89.45)"/><circle cx="137.74" cy="149.98" r="0.78" transform="translate(-59.72 229.71) rotate(-89.45)"/><circle cx="141.82" cy="150.02" r="0.78" transform="translate(-55.71 233.83) rotate(-89.45)"/><path d="M145.91,149.28a.78.78,0,1,0,.47,1.39c.05-.37.1-.73.14-1.08A.78.78,0,0,0,145.91,149.28Z" transform="translate(-46.16 -56.58)"/><circle cx="123.37" cy="147.79" r="0.78" transform="translate(-71.75 213.16) rotate(-89.45)"/><circle cx="127.45" cy="147.83" r="0.78" transform="translate(-67.75 217.28) rotate(-89.45)"/><circle cx="131.54" cy="147.86" r="0.78" transform="translate(-63.74 221.41) rotate(-89.45)"/><circle cx="135.62" cy="147.9" r="0.78" transform="translate(-59.74 225.53) rotate(-89.45)"/><circle cx="139.7" cy="147.94" r="0.78" transform="translate(-55.73 229.65) rotate(-89.45)"/><circle cx="143.79" cy="147.98" r="0.78" transform="translate(-51.73 233.77) rotate(-89.45)"/><path d="M121.44,146.52a.78.78,0,0,0,.77-.94l-1.54.09s0,0,0,.06A.78.78,0,0,0,121.44,146.52Z" transform="translate(-46.16 -56.58)"/><path d="M125.52,146.56a.78.78,0,0,0,.65-1.22l-1.33.08a.77.77,0,0,0-.09.35A.78.78,0,0,0,125.52,146.56Z" transform="translate(-46.16 -56.58)"/><path d="M128.83,145.81a.78.78,0,1,0,1.09-.71l-.71,0A.78.78,0,0,0,128.83,145.81Z" transform="translate(-46.16 -56.58)"/><circle cx="133.7" cy="145.86" r="0.78" transform="translate(-59.6 221.58) rotate(-89.45)"/><circle cx="137.78" cy="145.9" r="0.78" transform="translate(-55.59 225.7) rotate(-89.45)"/><circle cx="141.86" cy="145.94" r="0.78" transform="translate(-51.59 229.82) rotate(-89.45)"/><circle cx="145.95" cy="145.98" r="0.78" transform="translate(-47.58 233.95) rotate(-89.45)"/><path d="M140.21,144.48l-.87.05a.76.76,0,0,0,.87-.05Z" transform="translate(-46.16 -56.58)"/><path d="M143.82,144.68a.78.78,0,0,0,.72-.47l-1.38.09A.78.78,0,0,0,143.82,144.68Z" transform="translate(-46.16 -56.58)"/><path d="M134.88,191.53a.77.77,0,0,0,.46-.15l-.71.11A.77.77,0,0,0,134.88,191.53Z" transform="translate(-46.16 -56.58)"/><path d="M87.16,188.61a.78.78,0,0,0,.06.3.77.77,0,0,1,.11-.78h0A.77.77,0,0,0,87.16,188.61Z" transform="translate(-46.16 -56.58)"/><path d="M85.1,186.67a.78.78,0,0,0,.78.78l.2,0a7.1,7.1,0,0,1-1-.76Z" transform="translate(-46.16 -56.58)"/><circle cx="103.03" cy="127.95" r="0.78"/><circle cx="100.97" cy="130.09" r="0.78"/><circle cx="100.97" cy="126.01" r="0.78"/><path d="M145.11,187.83a.78.78,0,0,0-.46,1.41q.64-.22,1.21-.44a.77.77,0,0,0-.76-1Z" transform="translate(-46.16 -56.58)"/><circle cx="98.95" cy="127.95" r="0.78"/><path d="M145.11,181.22a.78.78,0,0,0,.75-.59q-.68-.27-1.45-.53a.77.77,0,0,0-.08.34A.78.78,0,0,0,145.11,181.22Z" transform="translate(-46.16 -56.58)"/><circle cx="96.89" cy="130.09" r="0.78"/><circle cx="96.89" cy="126.01" r="0.78"/><circle cx="94.86" cy="132.04" r="0.78"/><circle cx="94.86" cy="127.95" r="0.78"/><circle cx="94.86" cy="123.87" r="0.78"/><path d="M139,190a.77.77,0,0,0-.77.91l1.52-.31A.78.78,0,0,0,139,190Z" transform="translate(-46.16 -56.58)"/><circle cx="92.8" cy="130.09" r="0.78"/><circle cx="92.8" cy="126.01" r="0.78"/><path d="M139,179.28a.78.78,0,0,0,.7-.44l-1.48-.3A.78.78,0,0,0,139,179.28Z" transform="translate(-46.16 -56.58)"/><circle cx="90.78" cy="132.04" r="0.78"/><circle cx="90.78" cy="127.95" r="0.78"/><circle cx="90.78" cy="123.87" r="0.78"/><path d="M134.88,190a.78.78,0,0,0-.25,1.51l.71-.11a.78.78,0,0,0-.46-1.41Z" transform="translate(-46.16 -56.58)"/><circle cx="88.72" cy="130.09" r="0.78"/><circle cx="88.72" cy="126.01" r="0.78"/><circle cx="86.69" cy="132.04" r="0.78"/><circle cx="86.69" cy="127.95" r="0.78"/><circle cx="84.64" cy="134.18" r="0.78"/><circle cx="84.64" cy="130.09" r="0.78"/><path d="M130.8,183.36a.78.78,0,0,0,.75-.56l-1,.53A.77.77,0,0,0,130.8,183.36Z" transform="translate(-46.16 -56.58)"/><path d="M128.17,192.21l1.12-.1a.77.77,0,0,0-1.12.1Z" transform="translate(-46.16 -56.58)"/><circle cx="82.61" cy="132.04" r="0.78"/><path d="M128,184.58a.78.78,0,1,0,1.33-.6Q128.67,184.29,128,184.58Z" transform="translate(-46.16 -56.58)"/><circle cx="80.55" cy="134.18" r="0.78"/><circle cx="80.55" cy="130.09" r="0.78"/><path d="M124.69,191.92a.78.78,0,0,0-.75.57l1.47-.08A.78.78,0,0,0,124.69,191.92Z" transform="translate(-46.16 -56.58)"/><circle cx="78.53" cy="132.04" r="0.78"/><circle cx="76.47" cy="134.18" r="0.78"/><path d="M121.85,186.67a.78.78,0,1,0,1.37-.5q-.67.16-1.34.3A.77.77,0,0,0,121.85,186.67Z" transform="translate(-46.16 -56.58)"/><path d="M120.6,191.92a.78.78,0,0,0-.77.7l1.54,0A.78.78,0,0,0,120.6,191.92Z" transform="translate(-46.16 -56.58)"/><circle cx="74.44" cy="132.04" r="0.78"/><circle cx="72.38" cy="134.18" r="0.78"/><path d="M118.55,187.45a.78.78,0,0,0,.75-.58c-.48.05-1,.09-1.46.12A.78.78,0,0,0,118.55,187.45Z" transform="translate(-46.16 -56.58)"/><path d="M116.52,191.92a.78.78,0,0,0-.77.71h1.55A.78.78,0,0,0,116.52,191.92Z" transform="translate(-46.16 -56.58)"/><circle cx="70.36" cy="132.04" r="0.78"/><circle cx="68.3" cy="134.18" r="0.78"/><path d="M114.46,187.45a.78.78,0,0,0,.68-.4c-.47,0-.93,0-1.39-.07A.78.78,0,0,0,114.46,187.45Z" transform="translate(-46.16 -56.58)"/><path d="M112.44,191.92a.78.78,0,0,0-.76.61l1.53.05A.78.78,0,0,0,112.44,191.92Z" transform="translate(-46.16 -56.58)"/><circle cx="66.28" cy="132.04" r="0.78"/><circle cx="64.22" cy="134.18" r="0.78"/><path d="M109.6,186.67a.78.78,0,0,0,1.56,0q-.76-.12-1.51-.27A.77.77,0,0,0,109.6,186.67Z" transform="translate(-46.16 -56.58)"/><path d="M108.35,191.92a.78.78,0,0,0-.67.38l1.39.09A.78.78,0,0,0,108.35,191.92Z" transform="translate(-46.16 -56.58)"/><circle cx="62.19" cy="132.04" r="0.78"/><circle cx="60.13" cy="134.18" r="0.78"/><circle cx="60.13" cy="130.09" r="0.78"/><path d="M104,192l.72.07A.77.77,0,0,0,104,192Z" transform="translate(-46.16 -56.58)"/><circle cx="58.11" cy="132.04" r="0.78"/><circle cx="56.05" cy="134.18" r="0.78"/><circle cx="56.05" cy="130.09" r="0.78"/><circle cx="54.02" cy="132.04" r="0.78"/><circle cx="54.02" cy="127.95" r="0.78"/><path d="M98.13,190a.78.78,0,0,0-.72,1.09l1.29.22a.78.78,0,0,0-.57-1.3Z" transform="translate(-46.16 -56.58)"/><circle cx="51.96" cy="130.09" r="0.78"/><circle cx="51.96" cy="126.01" r="0.78"/><circle cx="49.94" cy="132.04" r="0.78"/><circle cx="49.94" cy="127.95" r="0.78"/><path d="M95.32,180.44a.78.78,0,0,0,1.55.13q-.54-.41-1.07-.85A.78.78,0,0,0,95.32,180.44Z" transform="translate(-46.16 -56.58)"/><path d="M94,190a.77.77,0,0,0-.58.26l1.32.31A.78.78,0,0,0,94,190Z" transform="translate(-46.16 -56.58)"/><circle cx="47.88" cy="130.09" r="0.78"/><circle cx="47.88" cy="126.01" r="0.78"/><path d="M94.7,178.91l-1.08.25a.77.77,0,0,0,1.08-.25Z" transform="translate(-46.16 -56.58)"/><circle cx="45.86" cy="132.04" r="0.78"/><circle cx="45.86" cy="127.95" r="0.78"/><circle cx="45.86" cy="123.87" r="0.78"/><circle cx="43.8" cy="130.09" r="0.78"/><circle cx="43.8" cy="126.01" r="0.78"/><path d="M87.33,188.13h0l.06-.07Z" transform="translate(-46.16 -56.58)"/><path d="M87.22,184.22a.78.78,0,0,0,0,.61.78.78,0,0,1,0-.61Z" transform="translate(-46.16 -56.58)"/><path d="M87.93,187.83a.78.78,0,0,0-.55.23l-.06.07c.42.21.88.41,1.38.61a.77.77,0,0,0-.77-.91Z" transform="translate(-46.16 -56.58)"/><path d="M87.93,183.75a.78.78,0,1,0,.78.78A.78.78,0,0,0,87.93,183.75Z" transform="translate(-46.16 -56.58)"/><path d="M88.67,180.7q-.56.22-1.05.46a.77.77,0,0,0,1.05-.46Z" transform="translate(-46.16 -56.58)"/><path d="M86.24,181.9a7.47,7.47,0,0,0-1.13.85.78.78,0,1,0,1.13-.85Z" transform="translate(-46.16 -56.58)"/><path d="M84.27,183.87a2.06,2.06,0,0,0-.19.84,2,2,0,0,0,.08.53.78.78,0,0,0,.11-1.37Z" transform="translate(-46.16 -56.58)"/><path class="cls-2" d="M87.71,162.76a6.33,6.33,0,0,0-6.32,6.32v2a5.23,5.23,0,1,1-10.45,0V156.19h2A4.08,4.08,0,0,0,77,152.11v-6.69a4.08,4.08,0,0,0-4.08-4.08H66.22a4.08,4.08,0,0,0-4.08,4.08v6.69a4.08,4.08,0,0,0,4.08,4.08h2V171a7.95,7.95,0,1,0,15.89,0v-2a3.61,3.61,0,0,1,3.6-3.6H90v-2.72Zm-21.48-9.3a1.36,1.36,0,0,1-1.36-1.36v-6.69a1.36,1.36,0,0,1,1.36-1.36h6.69a1.36,1.36,0,0,1,1.36,1.36v6.69a1.36,1.36,0,0,1-1.36,1.36h-2v-1.32a3.65,3.65,0,1,0-2.72,0v1.32Z" transform="translate(-46.16 -56.58)"/><circle class="cls-2" cx="105.34" cy="93.87" r="21.97" transform="translate(-70.85 -17.49) rotate(-18.86)"/><path class="cls-2" d="M111.81,111.79l5.25.69a11.65,11.65,0,0,1,9.08,6.72l1.57,3.46-5.75.11a11.65,11.65,0,0,1-11.09-7.46l-1-2.53" transform="translate(-46.16 -56.58)"/><path class="cls-2" d="M109.18,112.48l-4.23,3.18A11.65,11.65,0,0,0,100.34,126l.33,3.78,5.06-2.73a11.65,11.65,0,0,0,6-11.95l-.39-2.69" transform="translate(-46.16 -56.58)"/><path class="cls-2" d="M116,185.18l-2.5-.15-2.57-.35-2.51-.64-2.46-.78-2.37-1-2.33-1.13-2.16-1.44L97,178.09l-1.85-1.83-1.57-2.09-1.53-2.05-1.52-2.05-1.11-2.3-1.17-2.29-.9-2.36-.73-2.44-.86-2.5-.54-2.38-.71-2.45-.28-2.54-.58-2.5-.27-2.54.25-2.56-.39-2,2,.58,2.58,0,2.56.25H93l2.56.24,2.56.29,2.58-.13,2.56.37h2.57l2.58-.27,2.57.1,2.57.27,2.57,0,2.57.15,2.57-.4,2.58.27,2.57,0,2.56-.25,2.58.1,2.56-.4,2.57-.14,2.58.1,2.57-.18,2.54-.52h2.58l1.85-1.1-.12,2.7,0,2.21a2.91,2.91,0,0,1-.07.7l-.49,2.17-.11,2.56-.42,2.44-.5,2.58-.81,2.42-.65,2.47-.9,2.39-.91,2.19-1.36,2.37-1.2,2.48-1.24,2-1.57,2-1.73,1.87-2,1.65-1.91,1.69-2.13,1.4-2.13,1.45-2.35,1.05-2.26.65-2.72.64-2.49.37ZM86.76,144.85l.46,2.61.26,2.46.3,2.46.5,2.42.58,2.41.83,2.33.84,2.32,1.05,2.23,1.06,2.22,1.25,2.42L95,170.63l1.64,1.85,1.55,1.93,2,1.46,1.8,1.71,2.06,1.4,2.19.86,2.43,1,2.46.38,2.44.47,2.48-.16,2.45-.17,2.49,0,2.36-.63,2.42-.74,2.16-1.23,2.14-1.25,1.86-1.64,1.87-1.61,1.78-1.72,1.54-2.19,1.37-1.82,1.16-2.19,1-2.48.77-2.11,1.08-2.23.74-2.36.77-2.36.39-2.57.48-2.31.35-2.45V145l-2.49,0-2.41.45-2.43.16-2.44-.12-2.43.13-2.42.43-2.44-.14-2.43.35-2.44-.19-2.43.21-2.44-.32-2.43.23-2.44.25-2.43-.22-2.43-.21-2.44.07-2.43-.09-2.43-.06-2.43-.28-2.45.31-2.42-.3-2.44,0-2.43-.2Z" transform="translate(-46.16 -56.58)"/><path class="cls-2" d="M83.71,145.28l-.26-1.67L83,141.77l-.51-3.33-.28-3.35-.24-4,.1-2.78.7-3.3.58-3.32.82-3.33.39-3.41-.08-4-.07-2.65a4.51,4.51,0,0,0-.11-.89l-.62-2.71-1.14-3.23-.33-2.48-1-3,.22-3.19.16-3.17.87-3,1.11-3L85.35,81l1.52-2.82,2.4-2.06L91.6,74l2.78-1.5,2.88-1.26,3.07-.64,2.47-.56,2.53-.3h3.16l3.06.78,2.94,1.1L117.34,73l2.59,1.78,2.35,2.15,2.08,2.4h0a16.5,16.5,0,0,1,3.2,5.48h0l1.1,3,.5,2.37.8,3.4.92,3.37,1.06,2.92,1.54,3.58,1.7,3.09,2.13,2.69,2.2,2.66,2.25,2.54,1.63,3,1.41,3.07,1,2.9.77,3.57.31,1.9.45,1.41-1.43.35-3.14,1.53-3.48.46L136,133.75l-3.37.79-3.24,1.25L126.11,137l-3.38.76-3.4.69-3.47.36-3.25,1.32-3.42.57-3.46.37-3.28,1.27-3.4.64-3.49.11-3.38.76-3.47.19-3.41.64Zm21.62-71.91L101,73.6l-3.12.92-3,1.3-2.75,1.8-1.92,2.69L88,82.72l-1.67,2.8-.9,3.14-.68,3.19,0,3.27.45,3,.88,2.15.71,3.24.84,3.11.27,3.18,0,3.15-.12,3.3-.25,3.21-.79,3.12-.65,3-.78,3-.14,3,.07,3.29.53,3.07.45,3.09.21.39,3.27-.26,3.2-.67,3.18-.71L99.2,139l3.23-.46,3.21-.56,3.18-.74,3.19-.66,3.19-.67,3.17-.75,3.05-1.22,3.25-.45,3.12-1,3.13-.89,3.09-1,3.14-.88,3.24-.55,3-1.17.11-.35-1.33-2.85-.65-3-1.64-2.64-1.48-2.7-1.77-2.53-1.83-2.5-1.71-2.8-1.87-2.67-1.68-2.81-1.22-3-1.55-2.94-.27-3.32-.77-3.18-.24-2.09-1.42-3.13-1.84-2.83-2-2.71-2.38-2.39-2.62-2.25L112,74.42l-3.24-1Z" transform="translate(-46.16 -56.58)"/><path class="cls-2" d="M169,141.45l-3.8-.13-3.83.18.26-4.7-.38-5.06.21-4.57.21-4.83-.38-4.76,4.75-.17,4.82.41,4.82.05,3.53,1.28,1.46,3.53v5.85l-.35,1.91-.81,1.37-1.65.95,2.82,4.3,2.6,4.49-1.75,0-4-.39-4,.47-1.52-4-1.28-4.06-2-.08.05,4.1Zm4.08-17.57-4.11-.05.07,3.45,4.14.17Z" transform="translate(-46.16 -56.58)"/><path class="cls-2" d="M189.44,142.42l-3.62-2-1.8-3.62.09-4.81-.12-4.81.48-4.85-.21-4.8,4,.46,4-.45-.18,4.23.32,4.54.21,4.39-.23,4.28,4,.1-.26-4.38.05-4.38.44-4.39v-4.2l3.74,0,3.65.08.79,4.56-.13,4.81-.47,4.76,0,4.88L202.56,141l-3.49.7-4.84-.05Z" transform="translate(-46.16 -56.58)"/><path class="cls-2" d="M207.27,126.47l.12-3.79,1.06-3.7,3.7-1.7,4.35,0,4.36,0,4.22.37.24,4.34-.1,2.06-5.16-.26-5.11.43-.08,1.47,6.32.66,3.29,2.37,1.17,3.59.19,3.67-1.52,4L220.75,142l-4.58-.58h-4.59l-4.43.12-.51-6.72,5.85.48,5.42-.42v-1.51l-6.18-1.07-3-2.46Z" transform="translate(-46.16 -56.58)"/><path class="cls-2" d="M228.26,126.47l.18-3.79,1.07-3.63,3.63-1.34,4.36.11,4.35-.46,4.56,0L246,122l.16,1.94-5.11.3-5.17-.2.1,1.35,6.12,1.31,3.45,1.93,1,3.68.27,4.13-1.36,3.7-3.71,1.35-4.58-.08-4.59-.26-4.37.3v-6.21l5.29.22,5.53-.34-.13-1.74-6.13-1.22-3.57-1.89Z" transform="translate(-46.16 -56.58)"/><path class="cls-2" d="M258.3,141.93l-4.34.19-3.67-.74-.39-4.58.18-4.81,0-4.82.32-4.82-.57-5,4.18.47h3.6l.18,4.52,0,4.81-.31,4.82.66,4.82Z" transform="translate(-46.16 -56.58)"/><path class="cls-2" d="M268.64,137.91l-1,3.43-3.73.55-3.75-.4,1.13-4.65,1.39-4.76.58-5,1.42-4.76,1.27-4.64,5.19-.54,5.54.07.81,5.07,1.8,4.72,1.13,4.6.7,5.17,1.3,4.86-4.05-.13-3.94.05-.52-4.06Zm2.45-12.45-1.64,6.26,2.82-.15-.7-6.18Z" transform="translate(-46.16 -56.58)"/><path class="cls-2" d="M304,141.27l-3.73-.17-4,.37-1.74-5.36-2.12-5.34-.34.18-.25,3.43.32,3.66.26,3.63-4-.52-3.76.31.32-4.66-.16-4.81,0-4.82-.38-4.82,0-4.91,4.23-.14,4.21-.14,2.07,5.66,1.65,5.52.39-.15.18-3.64-.41-3.6.09-3.13,3.7-.51,3.92.24v14.05l-.43,5.16Z" transform="translate(-46.16 -56.58)"/><path class="cls-2" d="M161.42,146.51l4.82-.05-.27,5.17,0,5,4.5-.39,4.55.43.21-5.06-.21-4.92,4.77-.41-.69,5.16.23,4.81.28,4.82-.5,4.82.51,5-4.56-.29.15-5.06.13-5.5-4.87-.17-4.62.39-.34,5.29.15,4.88-4.44.56,0-9.9.18-4.82Z" transform="translate(-46.16 -56.58)"/><path class="cls-2" d="M195.5,146.86l1.2,4.35,1.53,4.42,2.17,4.21,1,4.61,1.47,4.43.23,2-4.73.09-1.14-5.64-4.52.68-4-.12L187.12,171l-4.82-.12,0-2.09,1.35-4.48,1.4-4.46,1.8-4.33,1.46-4.45,1.26-4.77Zm-3.21,4.51-1.73,5.13-1.4,5.56,6.56-.51-1.14-5L193,151.39Z" transform="translate(-46.16 -56.58)"/><path class="cls-2" d="M209.71,152.66l.26,4-.49,4,.52,4,.49,1.5,1.65.84,5,.15,4.93-.18.2,3.91-11.32.14-2.45-.4-2-1.09-1.26-1.86-.25-2.33.31-4.47-.32-9,.61-2.19.89-2,2.29-.37,2.19-.48,5.59.18L222,147l-.33,2.23-.24,1h-4.87l-4.39.32-1.51.74Z" transform="translate(-46.16 -56.58)"/><path class="cls-2" d="M229.81,146.54l0,5.09-.29,5.19,4.52-.22,2.71-4.8,2.47-5.42h4.62l-3.65,7-2.39,5.13,2,3.32,1.87,3.49,1.68,3.57.13,1.79-4.66.33-2.52-5.33L234,160.42l-4.31,0,.26,5.18-.43,5-4.47.35.1-5,.19-4.81.15-4.82-.16-4.82-.28-5Z" transform="translate(-46.16 -56.58)"/><path class="cls-2" d="M255.42,156.47l4,.54.44,3.5-4.48,0-4.64-.23.27,6.7,4,.42,4-.15,4.21-.46-.27,3.91-4.05-.18-4.13.4-4.13.09-4.45,0,.36-5.08-.14-9.63-.36-4.82.43-4.85,4.16,0,4.13.23,4.13,0h4l0,2.35.1.92-6.57.17-5.64,0,.65,6.09,4,.16" transform="translate(-46.16 -56.58)"/><path class="cls-2" d="M283.72,156.44l-.64,2.47-.94,1.9-2.1.63,4.6,9.38-4.76.28-2.2-4.79-2.05-4.78H271l-.29,4.75-.29,4.17-4.15.23-.29-4.77-.06-4.81,0-4.82.1-4.82v-5l4.19-.26,4,.46,4,.27h2.37l2.07.85.88,2,.36,2.17Zm-13.16-6.18-.15,3.94.42,3.5,6.2.63,1.75-1,1-1.6-.46-3.1-.9-1.25-1.41-.86Z" transform="translate(-46.16 -56.58)"/><path class="cls-2" d="M304.35,165.56l-.42,2-1.46,1.48-1.81,1.07-2.31,1.11-3.84-.54-3.85.37-4.17,0,.57-3.79,4.83.1,5.08-.57,2.18-.39.55-1.88.26-1.2-.69-1.51-4.44-1.6-3.49-.94-3.28-1.35-1.56-3.72.4-2.41.17-2.12,1.56-1.48,1.93-.94,2.28-.3,5.33-.83,5.21.75-.21,2,.08,1.33-5-.19-4,.42-2.09.62-.81,1.79,0,.86h0a2.55,2.55,0,0,0,2,2l.31.06,2.71,1.15,3.29.72,3.11,1.73,1.61,3.49Z" transform="translate(-46.16 -56.58)"/><path class="cls-1" d="M105.15,108.87c-.51,0-1,0-1.54,0s-1,0-1.54-.12-.95-.46-1.44-.6-.92-.44-1.39-.63-1-.2-1.47-.43-1-.33-1.43-.61-.72-.76-1.12-1.08-.77-.67-1.14-1-.62-.8-1-1.19-.65-.77-.94-1.19-.55-.84-.8-1.29-.5-.87-.71-1.34-.29-1-.46-1.45-.38-.93-.5-1.43c0,0,.06,0,.06,0-.13-.56-.52-1.23-.32-1.81a10,10,0,0,1,.83-1.35c.24-.41.81-.62,1.16-1s.4-1,.81-1.34a12.09,12.09,0,0,1,1.26-.9c.4-.27.94-.36,1.42-.61a14.85,14.85,0,0,1,1.32-.8c.47-.19,1-.18,1.41-.38a13.36,13.36,0,0,0,1.22-.79c.45-.28.66-.8,1-1.07a12.8,12.8,0,0,0,1.16-.84,8.41,8.41,0,0,0,.88-1.18,12.58,12.58,0,0,0,.25-3.3,27.05,27.05,0,0,0,1.88,2.7,2.21,2.21,0,0,0,1.13.88,9.61,9.61,0,0,0,1.41.38c.42.1.92,0,1.46,0a13.27,13.27,0,0,0,1.43.12c.41,0,.84.11,1.28.08s.83,0,1.23,0,1-.12,1.47-.07a10.87,10.87,0,0,1,1.4.49,13.27,13.27,0,0,1,1.48.15,8.88,8.88,0,0,1,1.3.71,7.81,7.81,0,0,1,1.14.92,7,7,0,0,1,1,1.08,7.83,7.83,0,0,1,.85,1.15,3.38,3.38,0,0,1,.47.9c.07.49.19.94.22,1.43s0,1,0,1.54,0,1-.11,1.49-.09,1-.2,1.49-.25,1-.41,1.44-.42.91-.62,1.36-.56.83-.8,1.26-.7.71-1,1.12-.35.88-.66,1.26-.62.87-1,1.22-.57.87-1,1.18-1.07.24-1.48.52-.79.58-1.22.83-.9.37-1.36.57-.89.4-1.36.56-.84.67-1.32.78a16.65,16.65,0,0,1-1.85,0A16.21,16.21,0,0,1,105.15,108.87Z" transform="translate(-46.16 -56.58)"/><path class="cls-2" d="M107.81,104.26a3.38,3.38,0,0,0,1.59-.88,2.72,2.72,0,0,0,.69-2,6.41,6.41,0,0,1-2.1.62c-.64.15-.55.65-.55.65h0s-.14-.49-.78-.34a6.35,6.35,0,0,1-2.29.53,3.17,3.17,0,0,0,3.43,1.38Z" transform="translate(-46.16 -56.58)"/><path class="cls-2" d="M115.73,92.3l.37,1.11-1.19.44a2.49,2.49,0,0,1-1.68,2.82c-2.45,1-3.55-.72-3.55-.72l-.92.23-.35-.66A53,53,0,0,0,115.73,92.3Z" transform="translate(-46.16 -56.58)"/><path class="cls-2" d="M95.24,97l.15,1.16,1.27-.13a2.49,2.49,0,0,0,2.74,1.79c2.66-.14,2.87-2.21,2.87-2.21l.92-.2,0-.74A53,53,0,0,1,95.24,97Z" transform="translate(-46.16 -56.58)"/><path class="cls-2" d="M145.15,128h0a46.38,46.38,0,0,1,1.9,15.18s-35.2,2.69-56.84.15a.19.19,0,0,1,0-.37C97.11,141.78,130.42,135.8,145.15,128Z" transform="translate(-46.16 -56.58)"/><path class="cls-2" d="M113.24,147c-9.43,0-20.24-1.43-26.47-2.16-.93-.11,1.63-.72,1.61-1.65s-2.92-1.61-2-1.77c6.54-1.12,42.1-9.09,56.63-16.79l2.76-1.26,1,4.1a47.73,47.73,0,0,1,2,15.78l-.31,3.75-1.33-.48C146.93,146.54,132.08,147.41,113.24,147Zm-11.53-4.49c3.64.15,7.63.23,11.93.23,13.93,0,27.37-.83,31.79-1.13a46.65,46.65,0,0,0-1.33-11.21C133,135.67,114.13,140,101.7,142.52Z" transform="translate(-46.16 -56.58)"/><polygon class="cls-3" points="72.39 85.94 73.31 85.26 74.14 84.51 74.29 83.66 73.89 82.83 72.77 82.42 71.64 82.01 70.65 81.53 69.51 81.48 68.39 81.33 67.25 81.44 66.13 81.69 65.12 82.16 64.3 82.83 63.35 83.49 62.48 84.21 62.38 85.13 62.79 85.99 63.99 86.29 65.05 86.8 66.04 87.29 67.17 87.44 68.32 87.55 69.46 87.37 70.55 87.05 71.48 86.5 72.39 85.94"/><path class="cls-2" d="M113.17,141.13a1.44,1.44,0,0,0-1.67-1,1.27,1.27,0,0,0-1.25,1.37,1.44,1.44,0,0,0,1.67,1A1.27,1.27,0,0,0,113.17,141.13Z" transform="translate(-46.16 -56.58)"/><polygon class="cls-3" points="92.63 83.43 93.44 82.66 94.28 81.92 94.79 81.11 94.01 80.49 92.92 80.02 91.83 79.55 90.83 79.14 89.75 78.9 88.62 78.9 87.52 79.06 86.42 79.28 85.44 79.75 84.66 80.42 83.67 81.04 82.75 81.72 82.45 82.63 83.17 83.24 84.14 83.91 85.26 84.32 86.33 84.61 87.4 84.94 88.54 84.83 89.68 84.8 90.77 84.52 91.82 84.11 92.63 83.43"/><path class="cls-2" d="M133.4,138.62a1.44,1.44,0,0,0-1.67-1,1.27,1.27,0,0,0-1.25,1.37,1.44,1.44,0,0,0,1.67,1A1.27,1.27,0,0,0,133.4,138.62Z" transform="translate(-46.16 -56.58)"/></svg>