<?xml version="1.0" encoding="utf-8"?>
<!-- Generator: Adobe Illustrator 22.0.0, SVG Export Plug-In . SVG Version: 6.00 Build 0)  -->
<svg version="1.1" id="Layer_1" xmlns="http://www.w3.org/2000/svg" xmlns:xlink="http://www.w3.org/1999/xlink" x="0px" y="0px"
	 viewBox="0 0 72 72" style="enable-background:new 0 0 72 72;" xml:space="preserve">
<style type="text/css">
	.st0{fill:none;stroke:#000000;stroke-width:2;stroke-miterlimit:10;}
</style>
<g>
	<polygon points="15.5,16.8 17,16.8 17,20.5 18.4,20.5 18.4,16.8 19.8,16.8 19.8,15.6 15.5,15.6 	"/>
	<path d="M24.3,16.1c-0.4-0.4-0.9-0.7-1.5-0.7c-0.7,0-1.3,0.2-1.7,0.7c-0.5,0.5-0.7,1.1-0.7,1.8c0,0.7,0.2,1.4,0.7,1.9
		c0.5,0.5,1,0.7,1.8,0.7c0.6,0,1.1-0.2,1.5-0.6v0.5h1.3v-4.9h-1.3V16.1z M23.9,18.9c-0.2,0.3-0.5,0.4-0.9,0.4
		c-0.4,0-0.7-0.1-0.9-0.4c-0.2-0.3-0.4-0.6-0.4-0.9c0-0.4,0.1-0.7,0.4-0.9c0.2-0.3,0.5-0.4,0.9-0.4c0.4,0,0.7,0.1,0.9,0.4
		c0.2,0.3,0.4,0.6,0.4,0.9C24.3,18.4,24.2,18.7,23.9,18.9z"/>
	<path d="M29.8,15.6c-0.8,0-1.3,0.3-1.8,0.8c0.3-1,1.1-1.4,1.9-1.6l0.9-0.3c0.4-0.1,0.7-0.2,0.9-0.3v-1.3c-0.3,0.1-0.6,0.2-1.1,0.4
		c-0.4,0.1-0.8,0.2-1.1,0.3c-0.3,0.1-0.7,0.2-1,0.4c-0.7,0.4-1.2,0.8-1.5,1.7c-0.2,0.4-0.2,0.9-0.2,1.5c0,1.6,0.8,3.4,2.9,3.4
		c0.8,0,1.4-0.2,1.9-0.7c0.5-0.5,0.7-1.1,0.7-1.8c0-0.7-0.2-1.4-0.7-1.8C31,15.9,30.4,15.6,29.8,15.6z M30.5,19
		c-0.2,0.2-0.5,0.4-0.9,0.4c-0.4,0-0.6-0.1-0.9-0.4c-0.2-0.3-0.4-0.6-0.4-0.9c0-0.4,0.1-0.6,0.4-0.9c0.2-0.2,0.5-0.4,0.9-0.4
		c0.3,0,0.6,0.1,0.9,0.4c0.2,0.2,0.4,0.5,0.4,0.9C30.9,18.4,30.8,18.8,30.5,19z"/>
	<path d="M34.3,15.9c-0.1,0.7-0.1,1.2-0.2,1.5c0,0.3-0.1,0.6-0.2,1c-0.1,0.3-0.2,0.6-0.3,0.8c-0.2,0.3-0.4,0.4-0.8,0.4
		c-0.1,0-0.1,0-0.2,0l0.4,1.1c0.1,0,0.2,0,0.3,0c0.6,0,1.1-0.3,1.5-0.8c0.2-0.2,0.3-0.6,0.4-0.9c0.1-0.2,0.1-0.5,0.2-0.7
		c0-0.1,0-0.2,0.1-0.4l0-0.3l0.1-0.4l0-0.4h0.9v3.7h1.4v-4.9h-3.5L34.3,15.9z"/>
	<polygon points="40.5,18.3 40.5,15.6 39.1,15.6 39.1,20.5 40,20.5 42.5,17.8 42.5,20.5 43.9,20.5 43.9,15.6 43,15.6 	"/>
	<polygon points="49.8,15.6 48.4,15.6 48.4,19.2 46.6,19.2 46.6,15.6 45.2,15.6 45.2,20.5 48.8,20.5 50.1,21.8 51.1,20.8 49.8,19.5 
			"/>
	<path d="M55.2,15.6v0.5c-0.4-0.4-0.9-0.7-1.5-0.7c-0.7,0-1.3,0.2-1.7,0.7c-0.5,0.5-0.7,1.1-0.7,1.8c0,0.7,0.2,1.4,0.7,1.9
		c0.5,0.5,1,0.7,1.8,0.7c0.6,0,1.1-0.2,1.5-0.6v0.5h1.3v-4.9H55.2z M54.8,18.9c-0.2,0.3-0.5,0.4-0.9,0.4S53.2,19.2,53,19
		c-0.2-0.3-0.4-0.6-0.4-0.9c0-0.4,0.1-0.7,0.4-0.9c0.2-0.3,0.5-0.4,0.9-0.4s0.7,0.1,0.9,0.4c0.2,0.3,0.4,0.6,0.4,0.9
		C55.2,18.4,55,18.7,54.8,18.9z"/>
</g>
<rect x="27" y="27" class="st0" width="18" height="36"/>
<polygon class="st0" points="27,27 9,27 9,9 63,9 63,27 45,27 "/>
<path class="st0" d="M45,27"/>
<path class="st0" d="M27,27"/>
<line class="st0" x1="45" y1="45" x2="27" y2="45"/>
<line class="st0" x1="27" y1="36" x2="45" y2="36"/>
<line class="st0" x1="45" y1="45" x2="27" y2="63"/>
<g>
</g>
<g>
</g>
<g>
</g>
<g>
</g>
<g>
</g>
<g>
</g>
</svg>
