<?xml version="1.0" encoding="utf-8"?>
<!-- Generator: Adobe Illustrator 22.0.0, SVG Export Plug-In . SVG Version: 6.00 Build 0)  -->
<svg version="1.1" id="Слой_1" xmlns="http://www.w3.org/2000/svg" xmlns:xlink="http://www.w3.org/1999/xlink" x="0px" y="0px"
	 viewBox="0 0 216 216" style="enable-background:new 0 0 216 216;" xml:space="preserve">
<style type="text/css">
	.st0{fill:#FFFFFF;}
	.st1{clip-path:url(#SVGID_2_);fill:#221E1F;}
</style>
<rect class="st0" width="216" height="216"/>
<g>
	<defs>
		<rect id="SVGID_1_" width="216" height="216"/>
	</defs>
	<clipPath id="SVGID_2_">
		<use xlink:href="#SVGID_1_"  style="overflow:visible;"/>
	</clipPath>
	<path class="st1" d="M16.4,104.7H22l6.6-18.1l6.6,18.1h5.6l13-35.6h-3.3L40,98L29.1,69.1h-6.8L27,82l-5.8,16L10.3,69.1H0.3v1.2
		c4,0.7,3.9,0.8,5,3.7L16.4,104.7z"/>
	<path class="st1" d="M133.6,102.2c-3.5,0-3.5,0-3.5-4V69.1h-6.9v35.6h21v-2.5H133.6z"/>
	<path class="st1" d="M107.5,88.2c5.7-0.7,8.8-3.6,8.8-9.7c0-9.5-10.9-9.5-14.9-9.5H89.8v35.6h6.9V71.6h4.4c4.4,0,7.7,1.6,7.7,7.3
		c0,6.5-4.8,7.7-8.2,7.7h-0.9l11.3,18.1h7.6L107.5,88.2z"/>
	<path class="st1" d="M160.5,69.1h-12.2v35.6h10.5c10.3,0,19.1-1.2,19.1-17.9C177.9,71.8,170.6,69.1,160.5,69.1 M158.9,102.2
		c-3.6,0-3.6-1.4-3.6-3.5V71.6h4.3c9.9,0,11,6,11,15.3C170.6,97.6,168.5,102.2,158.9,102.2"/>
	<path class="st1" d="M69.2,67.9c-12.6,0-16,7.4-16,19.2c0,11.8,3.5,18.9,16,18.9c12,0,15.7-7.1,15.7-18.9
		C84.8,75.2,81.2,67.9,69.2,67.9 M69.1,103.3c-7.9,0-8.5-9.1-8.5-16.4c0-7.3,0.6-16.4,8.5-16.4c7.8,0,8.2,9.3,8.2,16.4
		C77.4,94,76.9,103.3,69.1,103.3"/>
	<path class="st1" d="M113.2,111.3v23.1c0,5.3-0.2,11.2-9,11.2c-7.6,0-7.6-5.9-7.6-11.2v-23.1h-6.9v24.6c0,9.6,5.2,12.3,14.5,12.3
		c12.5,0,12.8-7.8,12.8-14.9v-21.9H113.2z"/>
	<polygon class="st1" points="215.7,113.8 215.7,111.3 187.1,111.3 187.1,113.8 198,113.8 198,146.9 204.9,146.9 204.9,113.8 	"/>
	<polygon class="st1" points="181,111.3 181,140.1 180.9,140.1 164.3,111.3 157.3,111.3 157.3,146.9 160.6,146.9 160.6,116.8 
		160.7,116.8 178.2,146.9 184.3,146.9 184.3,111.3 	"/>
	<path class="st1" d="M150.6,111.3l-4.1,11.2h-13.1l-4.2-11.2h-10.1v1.2c4,0.7,3.9,0.8,5,3.7l11.1,30.7h5.6l13-35.6H150.6z
		 M140.1,140.3l-5.7-15.2h11.3L140.1,140.3z"/>
	<path class="st1" d="M69.1,145.5c-7.9,0-8.5-9.1-8.5-16.4c0-7.3,0.6-16.4,8.5-16.4c7.8,0,8.2,9.3,8.2,16.4
		C77.4,136.2,76.9,145.5,69.1,145.5 M84.8,129.3c0-11.8-3.6-19.2-15.7-19.2c-12.6,0-16,7.4-16,19.2c0,11.8,3.5,18.9,16,18.9h17.3
		V147c-4-0.6-7-1.3-5.1-3.7C83.9,140,84.8,135.2,84.8,129.3"/>
</g>
</svg>
